<svg xmlns="http://www.w3.org/2000/svg" xmlns:xlink="http://www.w3.org/1999/xlink" width="140" zoomAndPan="magnify" viewBox="0 0 104.88 104.999996" height="140" preserveAspectRatio="xMidYMid meet" version="1.0"><defs><clipPath id="0109e629c9"><path d="M 0 7.074219 L 104.761719 7.074219 L 104.761719 97.71875 L 0 97.71875 Z M 0 7.074219 " clip-rule="nonzero"/></clipPath><clipPath id="2f6b7c6c85"><path d="M 39 61 L 73.414062 61 L 73.414062 72.328125 L 39 72.328125 Z M 39 61 " clip-rule="nonzero"/></clipPath><clipPath id="371a9b2c22"><path d="M 31.464844 32.625 L 71 32.625 L 71 72.328125 L 31.464844 72.328125 Z M 31.464844 32.625 " clip-rule="nonzero"/></clipPath></defs><g clip-path="url(#0109e629c9)"><path fill="#000040" d="M 26.21875 97.910156 L 0 52.496094 L 26.21875 7.082031 L 78.660156 7.082031 L 104.878906 52.496094 L 78.660156 97.910156 Z M 26.21875 97.910156 " fill-opacity="1" fill-rule="nonzero"/></g><g clip-path="url(#2f6b7c6c85)"><path fill="#ffffff" d="M 72.863281 61.832031 C 72.628906 61.808594 67.0625 61.253906 60.21875 62.898438 C 59.039062 63.179688 58.378906 63.644531 58.191406 64.324219 C 57.863281 65.503906 59.121094 66.730469 60.449219 68.03125 C 61.269531 68.835938 62.511719 70.050781 62.324219 70.503906 C 62.273438 70.628906 61.820312 71.265625 57.957031 71.265625 L 40.167969 71.265625 C 39.863281 71.265625 39.617188 71.511719 39.617188 71.8125 C 39.617188 72.117188 39.863281 72.363281 40.167969 72.363281 L 57.957031 72.363281 C 61.320312 72.363281 62.929688 71.929688 63.34375 70.917969 C 63.808594 69.78125 62.550781 68.550781 61.21875 67.246094 C 60.324219 66.371094 59.097656 65.167969 59.25 64.617188 C 59.28125 64.503906 59.464844 64.207031 60.472656 63.964844 C 67.128906 62.371094 72.699219 62.917969 72.75 62.925781 C 73.070312 62.945312 73.324219 62.738281 73.355469 62.4375 C 73.386719 62.132812 73.167969 61.863281 72.863281 61.832031 " fill-opacity="1" fill-rule="nonzero"/></g><g clip-path="url(#371a9b2c22)"><path fill="#ffffff" d="M 37.054688 69.824219 L 33.78125 70.574219 L 36.898438 67.457031 C 37.109375 67.242188 37.109375 66.890625 36.898438 66.675781 C 36.683594 66.460938 36.332031 66.460938 36.117188 66.675781 L 33.003906 69.792969 L 33.753906 66.519531 L 38.308594 63.636719 L 39.9375 65.265625 Z M 47.941406 52.886719 L 49.3125 54.257812 L 50.691406 55.632812 L 41.273438 65.046875 L 38.527344 62.300781 Z M 66.871094 33.953125 L 69.621094 36.703125 L 67.742188 38.585938 C 67.738281 38.585938 67.738281 38.585938 67.734375 38.585938 C 67.734375 38.585938 67.734375 38.589844 67.734375 38.589844 L 51.46875 54.855469 L 50.09375 53.484375 L 48.71875 52.109375 Z M 40.886719 66.214844 C 40.992188 66.324219 41.136719 66.375 41.273438 66.375 C 41.414062 66.375 41.558594 66.324219 41.664062 66.214844 L 68.125 39.753906 L 69.292969 40.921875 L 56.992188 53.222656 C 55.871094 54.347656 55.871094 56.171875 56.992188 57.296875 C 57.101562 57.402344 57.242188 57.457031 57.382812 57.457031 C 57.523438 57.457031 57.664062 57.402344 57.769531 57.296875 C 57.984375 57.082031 57.984375 56.730469 57.769531 56.515625 C 57.078125 55.824219 57.078125 54.695312 57.769531 54.003906 L 70.460938 41.3125 C 70.675781 41.097656 70.675781 40.75 70.460938 40.535156 L 68.90625 38.976562 L 70.789062 37.09375 C 71 36.878906 71 36.527344 70.789062 36.316406 L 67.261719 32.789062 C 67.160156 32.683594 67.019531 32.625 66.871094 32.625 C 66.726562 32.625 66.585938 32.683594 66.484375 32.785156 L 37.359375 61.910156 C 37.144531 62.125 37.144531 62.472656 37.359375 62.6875 L 37.511719 62.839844 L 32.972656 65.710938 C 32.851562 65.789062 32.761719 65.910156 32.730469 66.054688 L 31.503906 71.410156 C 31.503906 71.417969 31.507812 71.425781 31.507812 71.433594 C 31.496094 71.496094 31.515625 71.550781 31.523438 71.609375 C 31.53125 71.667969 31.527344 71.726562 31.554688 71.777344 C 31.558594 71.785156 31.554688 71.792969 31.558594 71.800781 C 31.609375 71.890625 31.683594 71.960938 31.769531 72.011719 C 31.769531 72.011719 31.769531 72.015625 31.773438 72.015625 C 31.855469 72.0625 31.949219 72.085938 32.039062 72.085938 C 32.078125 72.085938 32.121094 72.082031 32.164062 72.070312 L 37.519531 70.84375 C 37.660156 70.8125 37.785156 70.722656 37.863281 70.601562 L 40.734375 66.0625 L 40.886719 66.214844 " fill-opacity="1" fill-rule="nonzero"/></g></svg>