<svg xmlns="http://www.w3.org/2000/svg" xmlns:xlink="http://www.w3.org/1999/xlink" width="140" zoomAndPan="magnify" viewBox="0 0 104.88 104.999996" height="140" preserveAspectRatio="xMidYMid meet" version="1.0"><defs><clipPath id="9bb5151ede"><path d="M 0 7.074219 L 104.761719 7.074219 L 104.761719 97.71875 L 0 97.71875 Z M 0 7.074219 " clip-rule="nonzero"/></clipPath><clipPath id="5b8ed65443"><path d="M 35 47.667969 L 70 47.667969 L 70 67 L 35 67 Z M 35 47.667969 " clip-rule="nonzero"/></clipPath><clipPath id="6602884ebe"><path d="M 31.464844 54 L 38 54 L 38 58 L 31.464844 58 Z M 31.464844 54 " clip-rule="nonzero"/></clipPath><clipPath id="2210857a24"><path d="M 67 54 L 73.414062 54 L 73.414062 58 L 67 58 Z M 67 54 " clip-rule="nonzero"/></clipPath><clipPath id="bd94b7726e"><path d="M 31.464844 58 L 73.414062 58 L 73.414062 75 L 31.464844 75 Z M 31.464844 58 " clip-rule="nonzero"/></clipPath><clipPath id="895fe5aaba"><path d="M 31.464844 69 L 39 69 L 39 78.382812 L 31.464844 78.382812 Z M 31.464844 69 " clip-rule="nonzero"/></clipPath><clipPath id="2e29c009dd"><path d="M 66 69 L 73.414062 69 L 73.414062 78.382812 L 66 78.382812 Z M 66 69 " clip-rule="nonzero"/></clipPath><clipPath id="af3e9c4f94"><path d="M 37 27 L 41 27 L 41 40 L 37 40 Z M 37 27 " clip-rule="nonzero"/></clipPath><clipPath id="545c881000"><path d="M 38.769531 20.871094 L 50.941406 31.980469 L 22.660156 62.96875 L 10.488281 51.859375 Z M 38.769531 20.871094 " clip-rule="nonzero"/></clipPath><clipPath id="11d2a53239"><path d="M 38.769531 20.871094 L 50.941406 31.980469 L 22.660156 62.96875 L 10.488281 51.859375 Z M 38.769531 20.871094 " clip-rule="nonzero"/></clipPath><clipPath id="60f276a4c8"><path d="M 27 33 L 36 33 L 36 42 L 27 42 Z M 27 33 " clip-rule="nonzero"/></clipPath><clipPath id="0a6c69f0f7"><path d="M 38.769531 20.871094 L 50.941406 31.980469 L 22.660156 62.96875 L 10.488281 51.859375 Z M 38.769531 20.871094 " clip-rule="nonzero"/></clipPath><clipPath id="86f47ac0bc"><path d="M 38.769531 20.871094 L 50.941406 31.980469 L 22.660156 62.96875 L 10.488281 51.859375 Z M 38.769531 20.871094 " clip-rule="nonzero"/></clipPath><clipPath id="175e593cb9"><path d="M 22 42 L 33 42 L 33 48 L 22 48 Z M 22 42 " clip-rule="nonzero"/></clipPath><clipPath id="3168595633"><path d="M 38.769531 20.871094 L 50.941406 31.980469 L 22.660156 62.96875 L 10.488281 51.859375 Z M 38.769531 20.871094 " clip-rule="nonzero"/></clipPath><clipPath id="dd0042685d"><path d="M 38.769531 20.871094 L 50.941406 31.980469 L 22.660156 62.96875 L 10.488281 51.859375 Z M 38.769531 20.871094 " clip-rule="nonzero"/></clipPath><clipPath id="530b4b0f6f"><path d="M 18 49 L 28 49 L 28 53 L 18 53 Z M 18 49 " clip-rule="nonzero"/></clipPath><clipPath id="b911b82b95"><path d="M 38.769531 20.871094 L 50.941406 31.980469 L 22.660156 62.96875 L 10.488281 51.859375 Z M 38.769531 20.871094 " clip-rule="nonzero"/></clipPath><clipPath id="c92bb7d492"><path d="M 38.769531 20.871094 L 50.941406 31.980469 L 22.660156 62.96875 L 10.488281 51.859375 Z M 38.769531 20.871094 " clip-rule="nonzero"/></clipPath><clipPath id="b72e305a24"><path d="M 44 28 L 48 28 L 48 38 L 44 38 Z M 44 28 " clip-rule="nonzero"/></clipPath><clipPath id="82cd368900"><path d="M 38.769531 20.871094 L 50.941406 31.980469 L 22.660156 62.96875 L 10.488281 51.859375 Z M 38.769531 20.871094 " clip-rule="nonzero"/></clipPath><clipPath id="5b71bed1ba"><path d="M 38.769531 20.871094 L 50.941406 31.980469 L 22.660156 62.96875 L 10.488281 51.859375 Z M 38.769531 20.871094 " clip-rule="nonzero"/></clipPath><clipPath id="951e48c090"><path d="M 17 54 L 26 54 L 26 59 L 17 59 Z M 17 54 " clip-rule="nonzero"/></clipPath><clipPath id="e6e725a921"><path d="M 38.769531 20.871094 L 50.941406 31.980469 L 22.660156 62.96875 L 10.488281 51.859375 Z M 38.769531 20.871094 " clip-rule="nonzero"/></clipPath><clipPath id="90cdb6ef97"><path d="M 38.769531 20.871094 L 50.941406 31.980469 L 22.660156 62.96875 L 10.488281 51.859375 Z M 38.769531 20.871094 " clip-rule="nonzero"/></clipPath><clipPath id="63c3a65d95"><path d="M 76 49 L 88 49 L 88 53 L 76 53 Z M 76 49 " clip-rule="nonzero"/></clipPath><clipPath id="4077499610"><path d="M 94.382812 52.804688 L 81.410156 62.96875 L 55.539062 29.941406 L 68.511719 19.777344 Z M 94.382812 52.804688 " clip-rule="nonzero"/></clipPath><clipPath id="2787f45a70"><path d="M 94.382812 52.804688 L 81.410156 62.96875 L 55.539062 29.941406 L 68.511719 19.777344 Z M 94.382812 52.804688 " clip-rule="nonzero"/></clipPath><clipPath id="6a100a6153"><path d="M 74 39 L 84 39 L 84 47 L 74 47 Z M 74 39 " clip-rule="nonzero"/></clipPath><clipPath id="356c5f1739"><path d="M 94.382812 52.804688 L 81.410156 62.96875 L 55.539062 29.941406 L 68.511719 19.777344 Z M 94.382812 52.804688 " clip-rule="nonzero"/></clipPath><clipPath id="0bb9f3709f"><path d="M 94.382812 52.804688 L 81.410156 62.96875 L 55.539062 29.941406 L 68.511719 19.777344 Z M 94.382812 52.804688 " clip-rule="nonzero"/></clipPath><clipPath id="d02d6db92b"><path d="M 69 32 L 76 32 L 76 43 L 69 43 Z M 69 32 " clip-rule="nonzero"/></clipPath><clipPath id="5ca3212ff4"><path d="M 94.382812 52.804688 L 81.410156 62.96875 L 55.539062 29.941406 L 68.511719 19.777344 Z M 94.382812 52.804688 " clip-rule="nonzero"/></clipPath><clipPath id="2000aa15e8"><path d="M 94.382812 52.804688 L 81.410156 62.96875 L 55.539062 29.941406 L 68.511719 19.777344 Z M 94.382812 52.804688 " clip-rule="nonzero"/></clipPath><clipPath id="40b0137942"><path d="M 65 27 L 70 27 L 70 37 L 65 37 Z M 65 27 " clip-rule="nonzero"/></clipPath><clipPath id="380a1f93c1"><path d="M 94.382812 52.804688 L 81.410156 62.96875 L 55.539062 29.941406 L 68.511719 19.777344 Z M 94.382812 52.804688 " clip-rule="nonzero"/></clipPath><clipPath id="7a92668be0"><path d="M 94.382812 52.804688 L 81.410156 62.96875 L 55.539062 29.941406 L 68.511719 19.777344 Z M 94.382812 52.804688 " clip-rule="nonzero"/></clipPath><clipPath id="c52462f83e"><path d="M 76 55 L 86 55 L 86 61 L 76 61 Z M 76 55 " clip-rule="nonzero"/></clipPath><clipPath id="684e8ac568"><path d="M 94.382812 52.804688 L 81.410156 62.96875 L 55.539062 29.941406 L 68.511719 19.777344 Z M 94.382812 52.804688 " clip-rule="nonzero"/></clipPath><clipPath id="da73c06268"><path d="M 94.382812 52.804688 L 81.410156 62.96875 L 55.539062 29.941406 L 68.511719 19.777344 Z M 94.382812 52.804688 " clip-rule="nonzero"/></clipPath><clipPath id="604f3a6f7f"><path d="M 61 25 L 64 25 L 64 34 L 61 34 Z M 61 25 " clip-rule="nonzero"/></clipPath><clipPath id="8eb7493a09"><path d="M 94.382812 52.804688 L 81.410156 62.96875 L 55.539062 29.941406 L 68.511719 19.777344 Z M 94.382812 52.804688 " clip-rule="nonzero"/></clipPath><clipPath id="d562e215ee"><path d="M 94.382812 52.804688 L 81.410156 62.96875 L 55.539062 29.941406 L 68.511719 19.777344 Z M 94.382812 52.804688 " clip-rule="nonzero"/></clipPath></defs><g clip-path="url(#9bb5151ede)"><path fill="#000040" d="M 26.21875 97.910156 L 0 52.496094 L 26.21875 7.082031 L 78.660156 7.082031 L 104.878906 52.496094 L 78.660156 97.910156 Z M 26.21875 97.910156 " fill-opacity="1" fill-rule="nonzero"/></g><g clip-path="url(#5b8ed65443)"><path fill="#ffffff" d="M 58.445312 66.082031 L 46.53125 66.082031 C 45.636719 66.085938 44.773438 65.914062 43.945312 65.574219 C 43.117188 65.230469 42.386719 64.742188 41.753906 64.105469 L 38.089844 60.441406 C 37.378906 59.730469 36.539062 59.234375 35.570312 58.960938 C 35.386719 58.90625 35.28125 58.785156 35.257812 58.59375 C 35.234375 58.402344 35.304688 58.261719 35.472656 58.164062 C 35.707031 58.027344 35.90625 57.855469 36.074219 57.640625 C 36.128906 57.5625 36.179688 57.484375 36.21875 57.398438 L 36.585938 56.730469 L 40.300781 49.859375 C 40.640625 49.230469 41.121094 48.730469 41.734375 48.363281 C 42.351562 47.996094 43.019531 47.8125 43.734375 47.8125 L 61.226562 47.8125 C 61.945312 47.8125 62.609375 47.996094 63.226562 48.363281 C 63.84375 48.730469 64.320312 49.230469 64.664062 49.859375 L 68.738281 57.390625 C 68.785156 57.480469 68.84375 57.570312 68.902344 57.652344 C 69.066406 57.863281 69.261719 58.035156 69.496094 58.164062 C 69.664062 58.257812 69.734375 58.402344 69.710938 58.59375 C 69.691406 58.78125 69.585938 58.90625 69.402344 58.960938 C 68.4375 59.238281 67.597656 59.730469 66.882812 60.441406 L 63.214844 64.105469 C 62.582031 64.738281 61.851562 65.226562 61.027344 65.566406 C 60.199219 65.910156 59.339844 66.082031 58.445312 66.082031 Z M 36.578125 58.394531 C 37.382812 58.730469 38.089844 59.207031 38.707031 59.828125 L 42.375 63.492188 C 42.921875 64.042969 43.558594 64.472656 44.28125 64.769531 C 45 65.066406 45.75 65.214844 46.53125 65.210938 L 58.445312 65.210938 C 59.222656 65.210938 59.972656 65.0625 60.691406 64.765625 C 61.410156 64.464844 62.046875 64.042969 62.597656 63.492188 L 66.265625 59.828125 C 66.882812 59.214844 67.589844 58.738281 68.394531 58.398438 C 68.324219 58.328125 68.261719 58.253906 68.207031 58.175781 C 68.117188 58.058594 68.039062 57.933594 67.96875 57.804688 L 63.898438 50.277344 C 63.632812 49.785156 63.257812 49.398438 62.78125 49.113281 C 62.300781 48.828125 61.785156 48.6875 61.226562 48.6875 L 43.734375 48.6875 C 43.179688 48.6875 42.660156 48.828125 42.183594 49.113281 C 41.703125 49.398438 41.332031 49.785156 41.066406 50.277344 L 36.996094 57.800781 C 36.929688 57.929688 36.855469 58.050781 36.769531 58.167969 C 36.707031 58.246094 36.644531 58.320312 36.578125 58.394531 Z M 36.578125 58.394531 " fill-opacity="1" fill-rule="nonzero"/></g><g clip-path="url(#6602884ebe)"><path fill="#ffffff" d="M 36.640625 57.976562 C 36.628906 57.976562 36.621094 57.976562 36.609375 57.976562 L 32.941406 57.71875 C 32.65625 57.699219 32.394531 57.605469 32.164062 57.433594 C 31.929688 57.261719 31.761719 57.042969 31.65625 56.777344 C 31.550781 56.507812 31.523438 56.234375 31.578125 55.949219 C 31.628906 55.667969 31.753906 55.421875 31.953125 55.210938 C 32.21875 54.917969 32.550781 54.761719 32.945312 54.734375 L 35.675781 54.542969 C 36.089844 54.511719 36.445312 54.640625 36.746094 54.921875 C 37.046875 55.207031 37.199219 55.550781 37.199219 55.964844 L 37.199219 57.316406 C 37.199219 57.390625 37.179688 57.460938 37.144531 57.527344 L 37.023438 57.75 C 36.941406 57.898438 36.8125 57.976562 36.640625 57.976562 Z M 36.761719 57.316406 Z M 35.777344 55.414062 C 35.761719 55.414062 35.75 55.414062 35.738281 55.414062 L 33.003906 55.605469 C 32.839844 55.613281 32.703125 55.679688 32.589844 55.800781 C 32.480469 55.921875 32.421875 56.0625 32.421875 56.226562 C 32.425781 56.390625 32.480469 56.53125 32.59375 56.648438 C 32.703125 56.769531 32.839844 56.835938 33.003906 56.847656 L 36.328125 57.078125 L 36.328125 55.964844 C 36.328125 55.8125 36.273438 55.683594 36.164062 55.574219 C 36.058594 55.46875 35.929688 55.414062 35.777344 55.414062 Z M 35.777344 55.414062 " fill-opacity="1" fill-rule="nonzero"/></g><g clip-path="url(#2210857a24)"><path fill="#ffffff" d="M 68.324219 57.976562 C 68.152344 57.976562 68.023438 57.898438 67.941406 57.75 L 67.828125 57.546875 C 67.792969 57.480469 67.773438 57.410156 67.773438 57.335938 L 67.773438 55.964844 C 67.773438 55.765625 67.8125 55.578125 67.890625 55.398438 C 67.96875 55.214844 68.082031 55.058594 68.226562 54.921875 C 68.371094 54.789062 68.535156 54.6875 68.71875 54.621094 C 68.90625 54.554688 69.097656 54.53125 69.292969 54.542969 L 72.027344 54.734375 C 72.21875 54.75 72.398438 54.796875 72.566406 54.878906 C 72.738281 54.960938 72.886719 55.070312 73.015625 55.207031 C 73.144531 55.347656 73.242188 55.503906 73.3125 55.679688 C 73.382812 55.855469 73.414062 56.039062 73.414062 56.226562 C 73.414062 56.414062 73.378906 56.597656 73.3125 56.773438 C 73.242188 56.949219 73.144531 57.105469 73.015625 57.242188 C 72.886719 57.382812 72.738281 57.492188 72.566406 57.574219 C 72.398438 57.65625 72.21875 57.703125 72.027344 57.714844 L 68.351562 57.972656 C 68.34375 57.976562 68.332031 57.976562 68.324219 57.976562 Z M 69.195312 55.414062 C 69.042969 55.414062 68.914062 55.46875 68.804688 55.574219 C 68.699219 55.683594 68.644531 55.8125 68.644531 55.964844 L 68.644531 57.078125 L 71.96875 56.847656 C 72.128906 56.835938 72.265625 56.769531 72.378906 56.648438 C 72.488281 56.53125 72.542969 56.390625 72.542969 56.226562 C 72.542969 56.0625 72.488281 55.921875 72.378906 55.804688 C 72.269531 55.6875 72.132812 55.621094 71.972656 55.605469 L 69.234375 55.414062 Z M 69.195312 55.414062 " fill-opacity="1" fill-rule="nonzero"/></g><path fill="#ffffff" d="M 64.429688 57.207031 L 40.539062 57.207031 C 40.460938 57.207031 40.390625 57.1875 40.324219 57.152344 C 40.257812 57.113281 40.203125 57.0625 40.164062 56.996094 C 40.125 56.929688 40.105469 56.855469 40.101562 56.78125 C 40.101562 56.703125 40.121094 56.632812 40.15625 56.5625 L 42.949219 51.398438 C 43.144531 51.039062 43.417969 50.753906 43.773438 50.542969 C 44.125 50.332031 44.503906 50.226562 44.914062 50.226562 L 60.050781 50.226562 C 60.460938 50.226562 60.84375 50.332031 61.195312 50.542969 C 61.546875 50.75 61.820312 51.035156 62.015625 51.398438 L 64.8125 56.5625 C 64.847656 56.632812 64.867188 56.703125 64.863281 56.78125 C 64.863281 56.855469 64.84375 56.929688 64.804688 56.996094 C 64.765625 57.0625 64.710938 57.113281 64.644531 57.152344 C 64.578125 57.1875 64.503906 57.207031 64.429688 57.207031 Z M 41.273438 56.335938 L 63.695312 56.335938 L 61.25 51.8125 C 61.128906 51.59375 60.964844 51.417969 60.75 51.292969 C 60.535156 51.164062 60.300781 51.097656 60.050781 51.101562 L 44.914062 51.101562 C 44.664062 51.097656 44.433594 51.164062 44.21875 51.292969 C 44.003906 51.417969 43.835938 51.59375 43.71875 51.8125 Z M 41.273438 56.335938 " fill-opacity="1" fill-rule="nonzero"/><g clip-path="url(#bd94b7726e)"><path fill="#ffffff" d="M 68.535156 74.914062 L 63.675781 74.914062 C 63.441406 74.914062 63.222656 74.855469 63.019531 74.730469 C 62.820312 74.605469 62.667969 74.441406 62.5625 74.230469 C 62.492188 74.089844 62.378906 74.023438 62.226562 74.023438 L 42.742188 74.023438 C 42.589844 74.023438 42.476562 74.089844 42.40625 74.226562 C 42.300781 74.4375 42.148438 74.605469 41.949219 74.730469 C 41.746094 74.851562 41.53125 74.914062 41.292969 74.914062 L 36.433594 74.914062 C 36.132812 74.914062 35.835938 74.886719 35.539062 74.828125 C 35.242188 74.769531 34.953125 74.683594 34.675781 74.570312 C 34.394531 74.453125 34.128906 74.3125 33.878906 74.144531 C 33.628906 73.976562 33.394531 73.789062 33.183594 73.574219 C 32.96875 73.359375 32.777344 73.128906 32.609375 72.875 C 32.445312 72.625 32.300781 72.359375 32.1875 72.082031 C 32.074219 71.800781 31.988281 71.511719 31.929688 71.214844 C 31.871094 70.921875 31.84375 70.621094 31.84375 70.320312 L 31.84375 63.222656 C 31.84375 62.691406 31.917969 62.167969 32.074219 61.660156 C 32.230469 61.148438 32.457031 60.675781 32.757812 60.234375 C 33.058594 59.796875 33.417969 59.410156 33.835938 59.078125 C 34.253906 58.746094 34.710938 58.488281 35.207031 58.296875 C 35.300781 58.257812 35.386719 58.214844 35.472656 58.164062 C 35.578125 58.101562 35.691406 58.089844 35.808594 58.121094 C 36.925781 58.441406 37.890625 59.007812 38.707031 59.828125 L 42.371094 63.488281 C 42.925781 64.039062 43.558594 64.464844 44.28125 64.761719 C 45 65.058594 45.75 65.210938 46.527344 65.210938 L 58.441406 65.210938 C 59.222656 65.210938 59.972656 65.058594 60.691406 64.761719 C 61.410156 64.464844 62.046875 64.039062 62.597656 63.488281 L 66.265625 59.828125 C 67.082031 59.007812 68.046875 58.441406 69.160156 58.121094 C 69.277344 58.089844 69.386719 58.101562 69.492188 58.160156 C 69.511719 58.171875 69.554688 58.199219 69.570312 58.210938 C 69.617188 58.238281 69.6875 58.265625 69.761719 58.296875 C 70.257812 58.488281 70.714844 58.75 71.132812 59.078125 C 71.550781 59.410156 71.910156 59.796875 72.210938 60.234375 C 72.511719 60.675781 72.738281 61.152344 72.894531 61.660156 C 73.050781 62.167969 73.128906 62.691406 73.125 63.222656 L 73.125 70.320312 C 73.125 70.621094 73.097656 70.917969 73.039062 71.214844 C 72.976562 71.511719 72.890625 71.796875 72.777344 72.074219 C 72.660156 72.355469 72.519531 72.621094 72.351562 72.871094 C 72.183594 73.121094 71.992188 73.351562 71.78125 73.566406 C 71.566406 73.78125 71.335938 73.96875 71.085938 74.136719 C 70.835938 74.304688 70.570312 74.445312 70.292969 74.5625 C 70.011719 74.679688 69.726562 74.765625 69.429688 74.824219 C 69.136719 74.882812 68.835938 74.914062 68.535156 74.914062 Z M 42.742188 73.152344 L 62.226562 73.152344 C 62.460938 73.148438 62.679688 73.210938 62.882812 73.335938 C 63.082031 73.457031 63.238281 73.625 63.34375 73.835938 C 63.410156 73.972656 63.523438 74.042969 63.675781 74.042969 L 68.535156 74.042969 C 69.027344 74.042969 69.503906 73.945312 69.957031 73.757812 C 70.414062 73.566406 70.816406 73.296875 71.164062 72.949219 C 71.511719 72.601562 71.78125 72.199219 71.96875 71.742188 C 72.160156 71.285156 72.253906 70.8125 72.253906 70.320312 L 72.253906 63.222656 C 72.257812 62.777344 72.191406 62.34375 72.0625 61.917969 C 71.929688 61.492188 71.738281 61.09375 71.488281 60.726562 C 71.238281 60.359375 70.9375 60.035156 70.585938 59.761719 C 70.238281 59.484375 69.855469 59.265625 69.4375 59.105469 L 69.429688 59.101562 C 69.359375 59.074219 69.292969 59.042969 69.226562 59.015625 C 68.328125 59.300781 67.546875 59.777344 66.882812 60.441406 L 63.214844 64.105469 C 62.582031 64.738281 61.851562 65.226562 61.027344 65.566406 C 60.199219 65.910156 59.339844 66.082031 58.441406 66.082031 L 46.53125 66.082031 C 45.636719 66.082031 44.773438 65.910156 43.945312 65.566406 C 43.121094 65.226562 42.390625 64.738281 41.753906 64.105469 L 38.09375 60.441406 C 37.425781 59.773438 36.640625 59.296875 35.738281 59.011719 C 35.664062 59.046875 35.59375 59.078125 35.523438 59.105469 C 35.109375 59.265625 34.726562 59.484375 34.378906 59.761719 C 34.03125 60.035156 33.730469 60.359375 33.480469 60.726562 C 33.226562 61.09375 33.039062 61.492188 32.90625 61.917969 C 32.777344 62.34375 32.714844 62.777344 32.714844 63.222656 L 32.714844 70.320312 C 32.714844 70.8125 32.804688 71.289062 32.992188 71.746094 C 33.179688 72.203125 33.449219 72.609375 33.796875 72.957031 C 34.148438 73.308594 34.550781 73.578125 35.007812 73.765625 C 35.464844 73.953125 35.941406 74.046875 36.433594 74.042969 L 41.292969 74.042969 C 41.445312 74.042969 41.558594 73.972656 41.628906 73.835938 C 41.734375 73.625 41.886719 73.460938 42.085938 73.335938 C 42.289062 73.210938 42.507812 73.148438 42.742188 73.152344 Z M 42.742188 73.152344 " fill-opacity="1" fill-rule="nonzero"/></g><path fill="#ffffff" d="M 36.289062 67.273438 C 35.871094 67.273438 35.46875 67.195312 35.085938 67.035156 C 34.699219 66.875 34.359375 66.648438 34.066406 66.351562 C 33.769531 66.058594 33.542969 65.71875 33.382812 65.332031 C 33.226562 64.945312 33.144531 64.546875 33.144531 64.128906 C 33.144531 63.710938 33.226562 63.3125 33.386719 62.925781 C 33.546875 62.542969 33.773438 62.203125 34.070312 61.90625 C 34.363281 61.613281 34.703125 61.386719 35.089844 61.226562 C 35.472656 61.066406 35.875 60.988281 36.292969 60.988281 C 36.710938 60.988281 37.109375 61.070312 37.496094 61.226562 C 37.878906 61.386719 38.21875 61.617188 38.515625 61.910156 C 38.808594 62.207031 39.035156 62.546875 39.195312 62.929688 C 39.355469 63.316406 39.433594 63.71875 39.433594 64.136719 C 39.433594 64.550781 39.351562 64.953125 39.191406 65.335938 C 39.03125 65.722656 38.804688 66.0625 38.507812 66.355469 C 38.214844 66.648438 37.875 66.875 37.488281 67.035156 C 37.105469 67.195312 36.703125 67.273438 36.289062 67.273438 Z M 36.289062 61.859375 C 35.988281 61.859375 35.695312 61.917969 35.417969 62.035156 C 35.140625 62.148438 34.894531 62.3125 34.683594 62.527344 C 34.46875 62.738281 34.304688 62.984375 34.191406 63.261719 C 34.074219 63.542969 34.019531 63.832031 34.019531 64.132812 C 34.019531 64.433594 34.074219 64.722656 34.191406 65 C 34.304688 65.277344 34.46875 65.523438 34.683594 65.738281 C 34.894531 65.949219 35.140625 66.113281 35.421875 66.230469 C 35.699219 66.34375 35.988281 66.402344 36.289062 66.402344 C 36.589844 66.402344 36.878906 66.34375 37.15625 66.230469 C 37.4375 66.113281 37.679688 65.949219 37.894531 65.738281 C 38.109375 65.523438 38.273438 65.28125 38.386719 65 C 38.503906 64.722656 38.558594 64.433594 38.558594 64.132812 C 38.558594 63.832031 38.503906 63.542969 38.386719 63.261719 C 38.273438 62.984375 38.109375 62.738281 37.894531 62.527344 C 37.679688 62.3125 37.4375 62.148438 37.15625 62.035156 C 36.878906 61.917969 36.589844 61.859375 36.289062 61.859375 Z M 36.289062 61.859375 " fill-opacity="1" fill-rule="nonzero"/><path fill="#ffffff" d="M 68.679688 67.273438 C 68.261719 67.273438 67.859375 67.195312 67.476562 67.035156 C 67.089844 66.875 66.75 66.648438 66.457031 66.351562 C 66.160156 66.058594 65.933594 65.71875 65.773438 65.332031 C 65.617188 64.945312 65.535156 64.546875 65.535156 64.128906 C 65.535156 63.710938 65.617188 63.3125 65.777344 62.925781 C 65.9375 62.539062 66.164062 62.203125 66.460938 61.90625 C 66.753906 61.613281 67.09375 61.386719 67.480469 61.226562 C 67.863281 61.066406 68.265625 60.988281 68.683594 60.988281 C 69.101562 60.988281 69.5 61.070312 69.886719 61.226562 C 70.269531 61.386719 70.609375 61.617188 70.90625 61.910156 C 71.199219 62.207031 71.425781 62.546875 71.585938 62.929688 C 71.746094 63.316406 71.824219 63.71875 71.824219 64.136719 C 71.824219 64.550781 71.742188 64.953125 71.582031 65.335938 C 71.421875 65.722656 71.195312 66.0625 70.898438 66.355469 C 70.605469 66.648438 70.265625 66.875 69.878906 67.035156 C 69.496094 67.195312 69.09375 67.273438 68.679688 67.273438 Z M 68.679688 61.859375 C 68.375 61.859375 68.085938 61.917969 67.808594 62.035156 C 67.53125 62.148438 67.285156 62.3125 67.074219 62.527344 C 66.859375 62.738281 66.695312 62.984375 66.582031 63.261719 C 66.464844 63.542969 66.410156 63.832031 66.410156 64.132812 C 66.410156 64.433594 66.464844 64.722656 66.582031 65 C 66.695312 65.277344 66.863281 65.523438 67.074219 65.738281 C 67.289062 65.949219 67.53125 66.113281 67.8125 66.230469 C 68.089844 66.34375 68.378906 66.402344 68.679688 66.402344 C 68.980469 66.402344 69.269531 66.34375 69.546875 66.230469 C 69.828125 66.113281 70.070312 65.949219 70.285156 65.738281 C 70.5 65.523438 70.664062 65.28125 70.777344 65 C 70.894531 64.722656 70.949219 64.433594 70.953125 64.132812 C 70.949219 63.832031 70.894531 63.542969 70.777344 63.261719 C 70.664062 62.984375 70.5 62.738281 70.285156 62.527344 C 70.070312 62.3125 69.828125 62.148438 69.546875 62.03125 C 69.269531 61.917969 68.980469 61.859375 68.679688 61.859375 Z M 68.679688 61.859375 " fill-opacity="1" fill-rule="nonzero"/><path fill="#ffffff" d="M 61.390625 71.578125 L 43.558594 71.578125 C 41.601562 71.578125 39.90625 70.113281 38.96875 68.746094 C 38.910156 68.652344 38.878906 68.554688 38.878906 68.445312 C 38.878906 68.300781 38.929688 68.175781 39.03125 68.074219 C 39.132812 67.972656 39.257812 67.921875 39.402344 67.921875 L 65.566406 67.921875 C 65.773438 67.921875 65.925781 68.011719 66.023438 68.191406 C 66.125 68.371094 66.121094 68.546875 66.015625 68.722656 C 66.007812 68.734375 66 68.742188 65.996094 68.753906 C 65.046875 70.117188 63.34375 71.578125 61.390625 71.578125 Z M 40.097656 68.792969 C 40.929688 69.785156 42.179688 70.707031 43.558594 70.707031 L 61.390625 70.707031 C 62.761719 70.707031 64.015625 69.792969 64.867188 68.792969 Z M 65.566406 68.792969 Z M 65.28125 68.25 C 65.277344 68.257812 65.269531 68.265625 65.265625 68.273438 C 65.269531 68.265625 65.277344 68.257812 65.28125 68.25 Z M 65.28125 68.25 " fill-opacity="1" fill-rule="nonzero"/><g clip-path="url(#895fe5aaba)"><path fill="#ffffff" d="M 37.335938 78.128906 L 33.316406 78.128906 C 33.121094 78.128906 32.933594 78.09375 32.75 78.019531 C 32.570312 77.941406 32.410156 77.835938 32.273438 77.699219 C 32.136719 77.558594 32.027344 77.398438 31.953125 77.21875 C 31.878906 77.039062 31.839844 76.851562 31.839844 76.65625 L 31.839844 70.261719 C 31.839844 70.144531 31.882812 70.039062 31.96875 69.957031 C 32.054688 69.871094 32.15625 69.828125 32.277344 69.828125 C 32.398438 69.828125 32.5 69.871094 32.585938 69.957031 C 32.671875 70.039062 32.710938 70.144531 32.710938 70.261719 C 32.710938 70.757812 32.804688 71.234375 32.996094 71.6875 C 33.183594 72.144531 33.453125 72.546875 33.800781 72.898438 C 34.152344 73.246094 34.554688 73.515625 35.011719 73.703125 C 35.464844 73.890625 35.941406 73.984375 36.433594 73.984375 L 38.375 73.984375 C 38.496094 73.984375 38.597656 74.027344 38.683594 74.113281 C 38.769531 74.199219 38.8125 74.300781 38.8125 74.421875 L 38.8125 76.65625 C 38.8125 76.851562 38.773438 77.039062 38.699219 77.21875 C 38.625 77.402344 38.515625 77.558594 38.378906 77.699219 C 38.238281 77.835938 38.082031 77.945312 37.898438 78.019531 C 37.71875 78.09375 37.53125 78.128906 37.335938 78.128906 Z M 32.710938 72.957031 L 32.710938 76.652344 C 32.710938 76.820312 32.773438 76.960938 32.890625 77.082031 C 33.007812 77.199219 33.148438 77.257812 33.316406 77.257812 L 37.335938 77.257812 C 37.5 77.257812 37.644531 77.199219 37.761719 77.078125 C 37.878906 76.960938 37.9375 76.820312 37.9375 76.652344 L 37.9375 74.855469 L 36.433594 74.855469 C 35.164062 74.859375 34.082031 74.414062 33.1875 73.511719 C 33.015625 73.339844 32.855469 73.15625 32.710938 72.957031 Z M 32.710938 72.957031 " fill-opacity="1" fill-rule="nonzero"/></g><g clip-path="url(#2e29c009dd)"><path fill="#ffffff" d="M 71.652344 78.128906 L 67.636719 78.128906 C 67.441406 78.128906 67.25 78.09375 67.070312 78.015625 C 66.890625 77.941406 66.730469 77.835938 66.59375 77.699219 C 66.453125 77.558594 66.347656 77.398438 66.273438 77.21875 C 66.199219 77.039062 66.160156 76.851562 66.160156 76.65625 L 66.160156 74.421875 C 66.160156 74.300781 66.203125 74.199219 66.289062 74.113281 C 66.371094 74.027344 66.476562 73.984375 66.597656 73.984375 L 68.535156 73.984375 C 69.03125 73.984375 69.503906 73.890625 69.960938 73.699219 C 70.414062 73.511719 70.816406 73.242188 71.164062 72.894531 C 71.515625 72.542969 71.785156 72.140625 71.972656 71.6875 C 72.160156 71.230469 72.257812 70.757812 72.257812 70.261719 C 72.257812 70.144531 72.300781 70.039062 72.382812 69.957031 C 72.46875 69.871094 72.574219 69.828125 72.691406 69.828125 C 72.8125 69.828125 72.917969 69.871094 73 69.957031 C 73.085938 70.039062 73.128906 70.144531 73.128906 70.261719 L 73.128906 76.65625 C 73.128906 76.851562 73.089844 77.039062 73.015625 77.21875 C 72.941406 77.398438 72.835938 77.558594 72.695312 77.699219 C 72.558594 77.835938 72.398438 77.941406 72.21875 78.019531 C 72.035156 78.09375 71.847656 78.128906 71.652344 78.128906 Z M 67.03125 74.855469 L 67.03125 76.65625 C 67.03125 76.820312 67.089844 76.964844 67.207031 77.082031 C 67.324219 77.199219 67.46875 77.257812 67.632812 77.257812 L 71.652344 77.257812 C 71.820312 77.257812 71.960938 77.199219 72.078125 77.082031 C 72.195312 76.964844 72.253906 76.820312 72.253906 76.65625 L 72.253906 72.953125 C 71.824219 73.550781 71.28125 74.019531 70.625 74.351562 C 69.96875 74.6875 69.273438 74.855469 68.535156 74.855469 Z M 67.03125 74.855469 " fill-opacity="1" fill-rule="nonzero"/></g><g clip-path="url(#af3e9c4f94)"><g clip-path="url(#545c881000)"><g clip-path="url(#11d2a53239)"><path fill="#ffffff" d="M 38.617188 28.023438 C 38.414062 29.230469 38.117188 30.445312 38.003906 31.671875 C 37.953125 32.183594 37.960938 32.71875 38.167969 33.210938 C 38.355469 33.652344 38.714844 34.03125 38.851562 34.492188 C 39.015625 35.085938 38.714844 35.851562 38.5 36.488281 C 38.242188 37.261719 37.980469 38.074219 38.125 38.894531 C 38.183594 39.234375 38.421875 39.515625 38.789062 39.5 C 39.105469 39.484375 39.453125 39.175781 39.394531 38.835938 C 39.140625 37.34375 40.390625 35.957031 40.136719 34.414062 C 40.054688 33.894531 39.800781 33.488281 39.53125 33.046875 C 39.289062 32.667969 39.230469 32.292969 39.273438 31.839844 C 39.324219 31.277344 39.449219 30.71875 39.550781 30.171875 C 39.65625 29.550781 39.769531 28.917969 39.875 28.292969 C 40.003906 27.484375 38.753906 27.207031 38.617188 28.023438 Z M 38.617188 28.023438 " fill-opacity="1" fill-rule="nonzero"/></g></g></g><g clip-path="url(#60f276a4c8)"><g clip-path="url(#0a6c69f0f7)"><g clip-path="url(#86f47ac0bc)"><path fill="#ffffff" d="M 28.0625 34.632812 C 29.429688 34.972656 30.535156 36.109375 30.832031 37.480469 C 30.917969 37.863281 30.917969 38.261719 31.0625 38.632812 C 31.222656 39.066406 31.523438 39.40625 31.894531 39.679688 C 32.679688 40.253906 33.546875 40.726562 34.378906 41.230469 C 34.679688 41.410156 35.089844 41.238281 35.238281 40.957031 C 35.40625 40.632812 35.246094 40.28125 34.964844 40.101562 C 34.535156 39.835938 34.105469 39.570312 33.683594 39.316406 C 33.304688 39.082031 32.886719 38.875 32.546875 38.582031 C 32.257812 38.335938 32.210938 38.035156 32.152344 37.679688 C 32.09375 37.273438 32.007812 36.875 31.855469 36.480469 C 31.246094 34.964844 29.929688 33.796875 28.339844 33.398438 C 27.527344 33.1875 27.269531 34.433594 28.0625 34.632812 Z M 28.0625 34.632812 " fill-opacity="1" fill-rule="nonzero"/></g></g></g><g clip-path="url(#175e593cb9)"><g clip-path="url(#3168595633)"><g clip-path="url(#dd0042685d)"><path fill="#ffffff" d="M 23.050781 44.011719 C 23.777344 43.84375 24.523438 44.253906 25.117188 44.636719 C 25.925781 45.152344 26.65625 45.769531 27.589844 46.0625 C 28.328125 46.304688 29.121094 46.292969 29.890625 46.324219 C 30.542969 46.359375 31.234375 46.429688 31.714844 46.882812 C 32.316406 47.449219 33.175781 46.507812 32.574219 45.941406 C 31.910156 45.320312 31.058594 45.132812 30.183594 45.074219 C 29.421875 45.015625 28.597656 45.078125 27.851562 44.8125 C 26.949219 44.484375 26.222656 43.792969 25.410156 43.320312 C 24.566406 42.839844 23.628906 42.574219 22.660156 42.792969 C 22.320312 42.867188 22.148438 43.285156 22.238281 43.589844 C 22.363281 43.941406 22.71875 44.09375 23.050781 44.011719 Z M 23.050781 44.011719 " fill-opacity="1" fill-rule="nonzero"/></g></g></g><g clip-path="url(#530b4b0f6f)"><g clip-path="url(#b911b82b95)"><g clip-path="url(#c92bb7d492)"><path fill="#ffffff" d="M 18.609375 50.75 C 19.476562 50.871094 20.34375 50.972656 21.207031 51.089844 C 21.59375 51.140625 22.03125 51.152344 22.40625 51.320312 C 22.773438 51.496094 23.078125 51.773438 23.414062 51.984375 C 24.636719 52.730469 26.195312 52.703125 27.460938 52.066406 C 27.765625 51.910156 27.835938 51.464844 27.65625 51.1875 C 27.457031 50.882812 27.089844 50.832031 26.777344 50.996094 C 26.296875 51.242188 25.714844 51.335938 25.1875 51.269531 C 24.566406 51.195312 24.085938 50.917969 23.574219 50.566406 C 23.246094 50.328125 22.910156 50.136719 22.515625 50.027344 C 22.140625 49.929688 21.738281 49.898438 21.359375 49.839844 C 20.535156 49.726562 19.714844 49.628906 18.890625 49.515625 C 18.542969 49.472656 18.210938 49.648438 18.132812 50.011719 C 18.054688 50.308594 18.273438 50.699219 18.609375 50.75 Z M 18.609375 50.75 " fill-opacity="1" fill-rule="nonzero"/></g></g></g><g clip-path="url(#b72e305a24)"><g clip-path="url(#82cd368900)"><g clip-path="url(#5b71bed1ba)"><path fill="#ffffff" d="M 46.511719 29.796875 C 46.335938 29.621094 46.476562 29.621094 46.433594 29.722656 C 46.402344 29.792969 46.398438 29.882812 46.375 29.960938 C 46.34375 30.121094 46.289062 30.28125 46.246094 30.433594 C 46.160156 30.738281 46.058594 31.027344 45.953125 31.316406 C 45.707031 31.957031 45.433594 32.585938 45.179688 33.214844 C 44.652344 34.492188 44.21875 35.792969 44.199219 37.179688 C 44.1875 38 45.46875 37.941406 45.464844 37.121094 C 45.476562 35.726562 46.054688 34.414062 46.570312 33.144531 C 46.859375 32.460938 47.144531 31.78125 47.371094 31.078125 C 47.597656 30.371094 47.964844 29.445312 47.351562 28.839844 C 46.785156 28.269531 45.925781 29.210938 46.511719 29.796875 Z M 46.511719 29.796875 " fill-opacity="1" fill-rule="nonzero"/></g></g></g><g clip-path="url(#951e48c090)"><g clip-path="url(#e6e725a921)"><g clip-path="url(#90cdb6ef97)"><path fill="#ffffff" d="M 25.066406 55.058594 C 24.410156 54.765625 23.695312 54.703125 22.996094 54.894531 C 22.679688 54.976562 22.371094 55.125 22.113281 55.304688 C 21.84375 55.492188 21.605469 55.785156 21.292969 55.882812 C 21.03125 55.960938 20.726562 55.925781 20.453125 55.914062 C 20.117188 55.894531 19.78125 55.878906 19.441406 55.933594 C 18.667969 56.0625 17.976562 56.4375 17.441406 57.003906 C 16.875 57.605469 17.820312 58.464844 18.382812 57.863281 C 18.75 57.480469 19.25 57.214844 19.789062 57.179688 C 20.390625 57.136719 20.980469 57.277344 21.59375 57.132812 C 22.207031 56.988281 22.546875 56.453125 23.097656 56.203125 C 23.53125 56.007812 24.046875 56 24.492188 56.199219 C 25.234375 56.539062 25.828125 55.402344 25.066406 55.058594 Z M 25.066406 55.058594 " fill-opacity="1" fill-rule="nonzero"/></g></g></g><g clip-path="url(#63c3a65d95)"><g clip-path="url(#4077499610)"><g clip-path="url(#2787f45a70)"><path fill="#ffffff" d="M 87.355469 51.46875 C 86.199219 51.066406 85.050781 50.574219 83.859375 50.261719 C 83.363281 50.125 82.835938 50.046875 82.316406 50.167969 C 81.847656 50.277344 81.417969 50.570312 80.9375 50.628906 C 80.328125 50.691406 79.621094 50.269531 79.027344 49.953125 C 78.308594 49.570312 77.550781 49.175781 76.714844 49.183594 C 76.371094 49.183594 76.054688 49.371094 76.011719 49.738281 C 75.972656 50.050781 76.21875 50.445312 76.5625 50.445312 C 78.078125 50.441406 79.238281 51.902344 80.800781 51.910156 C 81.328125 51.914062 81.773438 51.730469 82.25 51.539062 C 82.667969 51.363281 83.042969 51.367188 83.484375 51.484375 C 84.03125 51.628906 84.558594 51.84375 85.082031 52.035156 C 85.679688 52.242188 86.285156 52.457031 86.882812 52.664062 C 87.65625 52.925781 88.136719 51.738281 87.355469 51.46875 Z M 87.355469 51.46875 " fill-opacity="1" fill-rule="nonzero"/></g></g></g><g clip-path="url(#6a100a6153)"><g clip-path="url(#356c5f1739)"><g clip-path="url(#0bb9f3709f)"><path fill="#ffffff" d="M 82.585938 39.964844 C 82.027344 41.257812 80.722656 42.160156 79.320312 42.226562 C 78.929688 42.246094 78.535156 42.179688 78.144531 42.261719 C 77.691406 42.347656 77.308594 42.585938 76.972656 42.910156 C 76.277344 43.589844 75.671875 44.363281 75.035156 45.101562 C 74.808594 45.371094 74.90625 45.800781 75.160156 45.992188 C 75.453125 46.214844 75.828125 46.117188 76.050781 45.867188 C 76.382812 45.484375 76.714844 45.105469 77.039062 44.734375 C 77.332031 44.398438 77.605469 44.019531 77.949219 43.734375 C 78.242188 43.492188 78.542969 43.492188 78.902344 43.496094 C 79.316406 43.503906 79.722656 43.484375 80.136719 43.402344 C 81.734375 43.050781 83.105469 41.945312 83.757812 40.445312 C 84.101562 39.679688 82.914062 39.214844 82.585938 39.964844 Z M 82.585938 39.964844 " fill-opacity="1" fill-rule="nonzero"/></g></g></g><g clip-path="url(#d02d6db92b)"><g clip-path="url(#5ca3212ff4)"><g clip-path="url(#2000aa15e8)"><path fill="#ffffff" d="M 74.167969 33.46875 C 74.210938 34.214844 73.683594 34.882812 73.210938 35.402344 C 72.566406 36.117188 71.835938 36.734375 71.394531 37.605469 C 71.035156 38.292969 70.914062 39.078125 70.753906 39.832031 C 70.609375 40.46875 70.429688 41.136719 69.898438 41.535156 C 69.242188 42.035156 70.027344 43.039062 70.6875 42.539062 C 71.410156 41.988281 71.734375 41.179688 71.9375 40.328125 C 72.121094 39.585938 72.195312 38.761719 72.582031 38.070312 C 73.054688 37.234375 73.859375 36.636719 74.460938 35.910156 C 75.074219 35.160156 75.492188 34.277344 75.433594 33.285156 C 75.417969 32.9375 75.035156 32.699219 74.71875 32.738281 C 74.351562 32.800781 74.140625 33.128906 74.167969 33.46875 Z M 74.167969 33.46875 " fill-opacity="1" fill-rule="nonzero"/></g></g></g><g clip-path="url(#40b0137942)"><g clip-path="url(#380a1f93c1)"><g clip-path="url(#7a92668be0)"><path fill="#ffffff" d="M 68.257812 27.972656 C 67.996094 28.808594 67.753906 29.644531 67.492188 30.480469 C 67.378906 30.851562 67.292969 31.28125 67.066406 31.621094 C 66.832031 31.957031 66.507812 32.210938 66.246094 32.507812 C 65.308594 33.585938 65.078125 35.132812 65.492188 36.484375 C 65.597656 36.808594 66.023438 36.953125 66.328125 36.820312 C 66.664062 36.679688 66.773438 36.320312 66.664062 35.988281 C 66.5 35.472656 66.503906 34.882812 66.65625 34.371094 C 66.832031 33.773438 67.1875 33.34375 67.617188 32.898438 C 67.90625 32.617188 68.152344 32.316406 68.324219 31.941406 C 68.484375 31.59375 68.582031 31.199219 68.703125 30.835938 C 68.949219 30.042969 69.179688 29.246094 69.429688 28.453125 C 69.527344 28.121094 69.410156 27.761719 69.066406 27.625 C 68.789062 27.5 68.367188 27.652344 68.257812 27.972656 Z M 68.257812 27.972656 " fill-opacity="1" fill-rule="nonzero"/></g></g></g><g clip-path="url(#c52462f83e)"><g clip-path="url(#684e8ac568)"><g clip-path="url(#da73c06268)"><path fill="#ffffff" d="M 84.300781 58.960938 C 84.503906 58.816406 84.476562 58.957031 84.382812 58.894531 C 84.320312 58.855469 84.230469 58.835938 84.160156 58.800781 C 84.007812 58.738281 83.855469 58.664062 83.714844 58.59375 C 83.429688 58.460938 83.160156 58.308594 82.890625 58.160156 C 82.304688 57.808594 81.726562 57.4375 81.148438 57.082031 C 79.976562 56.351562 78.765625 55.707031 77.402344 55.457031 C 76.59375 55.308594 76.441406 56.585938 77.25 56.714844 C 78.625 56.960938 79.824219 57.742188 80.988281 58.464844 C 81.613281 58.859375 82.238281 59.257812 82.894531 59.597656 C 83.550781 59.9375 84.40625 60.453125 85.105469 59.949219 C 85.757812 59.480469 84.972656 58.480469 84.300781 58.960938 Z M 84.300781 58.960938 " fill-opacity="1" fill-rule="nonzero"/></g></g></g><g clip-path="url(#604f3a6f7f)"><g clip-path="url(#8eb7493a09)"><g clip-path="url(#d562e215ee)"><path fill="#ffffff" d="M 62.9375 33.628906 C 63.339844 33.027344 63.515625 32.335938 63.445312 31.609375 C 63.417969 31.289062 63.320312 30.957031 63.1875 30.671875 C 63.046875 30.378906 62.796875 30.09375 62.75 29.769531 C 62.71875 29.496094 62.804688 29.203125 62.859375 28.933594 C 62.933594 28.605469 63.007812 28.277344 63.007812 27.933594 C 63.011719 27.152344 62.757812 26.40625 62.285156 25.785156 C 61.785156 25.128906 60.78125 25.914062 61.28125 26.570312 C 61.597656 26.996094 61.777344 27.53125 61.722656 28.070312 C 61.664062 28.671875 61.429688 29.230469 61.472656 29.859375 C 61.511719 30.484375 61.980469 30.914062 62.136719 31.496094 C 62.257812 31.953125 62.179688 32.46875 61.910156 32.871094 C 61.453125 33.546875 62.476562 34.320312 62.9375 33.628906 Z M 62.9375 33.628906 " fill-opacity="1" fill-rule="nonzero"/></g></g></g></svg>