<svg xmlns="http://www.w3.org/2000/svg" xmlns:xlink="http://www.w3.org/1999/xlink" width="140" zoomAndPan="magnify" viewBox="0 0 104.88 104.999996" height="140" preserveAspectRatio="xMidYMid meet" version="1.0"><defs><clipPath id="65b549ccd7"><path d="M 0 7.074219 L 104.761719 7.074219 L 104.761719 97.71875 L 0 97.71875 Z M 0 7.074219 " clip-rule="nonzero"/></clipPath><clipPath id="0ea6fabade"><path d="M 31.464844 31.523438 L 73.414062 31.523438 L 73.414062 73.476562 L 31.464844 73.476562 Z M 31.464844 31.523438 " clip-rule="nonzero"/></clipPath></defs><g clip-path="url(#65b549ccd7)"><path fill="#ffffff" d="M 26.21875 97.710938 L 0 52.398438 L 26.21875 7.082031 L 78.660156 7.082031 L 104.878906 52.398438 L 78.660156 97.710938 Z M 26.21875 97.710938 " fill-opacity="1" fill-rule="nonzero"/></g><g clip-path="url(#0ea6fabade)"><path fill="#000040" d="M 52.441406 31.523438 C 40.855469 31.523438 31.464844 40.914062 31.464844 52.5 C 31.464844 64.085938 40.855469 73.476562 52.441406 73.476562 C 64.023438 73.476562 73.414062 64.085938 73.414062 52.5 C 73.414062 40.914062 64.023438 31.523438 52.441406 31.523438 Z M 52.441406 70.855469 C 42.320312 70.855469 34.085938 62.621094 34.085938 52.5 C 34.085938 42.378906 42.320312 34.144531 52.441406 34.144531 C 62.558594 34.144531 70.792969 42.378906 70.792969 52.5 C 70.792969 62.621094 62.558594 70.855469 52.441406 70.855469 Z M 52.441406 70.855469 " fill-opacity="1" fill-rule="nonzero"/></g><path fill="#000040" d="M 47.195312 47.367188 C 47.195312 47.714844 47.128906 48.046875 46.996094 48.367188 C 46.863281 48.691406 46.675781 48.972656 46.429688 49.21875 C 46.183594 49.464844 45.898438 49.65625 45.578125 49.789062 C 45.257812 49.921875 44.921875 49.988281 44.574219 49.988281 C 44.226562 49.988281 43.890625 49.921875 43.570312 49.789062 C 43.25 49.65625 42.964844 49.464844 42.71875 49.21875 C 42.472656 48.972656 42.285156 48.691406 42.152344 48.367188 C 42.019531 48.046875 41.953125 47.714844 41.953125 47.367188 C 41.953125 47.019531 42.019531 46.683594 42.152344 46.363281 C 42.285156 46.039062 42.472656 45.757812 42.71875 45.511719 C 42.964844 45.265625 43.25 45.074219 43.570312 44.941406 C 43.890625 44.808594 44.226562 44.742188 44.574219 44.742188 C 44.921875 44.742188 45.257812 44.808594 45.578125 44.941406 C 45.898438 45.074219 46.183594 45.265625 46.429688 45.511719 C 46.675781 45.757812 46.863281 46.039062 46.996094 46.363281 C 47.128906 46.683594 47.195312 47.019531 47.195312 47.367188 Z M 47.195312 47.367188 " fill-opacity="1" fill-rule="nonzero"/><path fill="#000040" d="M 62.929688 47.367188 C 62.929688 47.714844 62.863281 48.046875 62.726562 48.367188 C 62.59375 48.691406 62.40625 48.972656 62.160156 49.21875 C 61.914062 49.464844 61.628906 49.65625 61.308594 49.789062 C 60.988281 49.921875 60.652344 49.988281 60.304688 49.988281 C 59.957031 49.988281 59.625 49.921875 59.300781 49.789062 C 58.980469 49.65625 58.699219 49.464844 58.453125 49.21875 C 58.207031 48.972656 58.015625 48.691406 57.882812 48.367188 C 57.75 48.046875 57.683594 47.714844 57.683594 47.367188 C 57.683594 47.019531 57.75 46.683594 57.882812 46.363281 C 58.015625 46.039062 58.207031 45.757812 58.453125 45.511719 C 58.699219 45.265625 58.980469 45.074219 59.300781 44.941406 C 59.625 44.808594 59.957031 44.742188 60.304688 44.742188 C 60.652344 44.742188 60.988281 44.808594 61.308594 44.941406 C 61.628906 45.074219 61.914062 45.265625 62.160156 45.511719 C 62.40625 45.757812 62.59375 46.039062 62.726562 46.363281 C 62.863281 46.683594 62.929688 47.019531 62.929688 47.367188 Z M 62.929688 47.367188 " fill-opacity="1" fill-rule="nonzero"/><path fill="#000040" d="M 62.234375 56.59375 C 61.589844 56.246094 60.785156 56.484375 60.433594 57.128906 C 60.410156 57.171875 57.886719 61.714844 52.441406 61.714844 C 46.921875 61.714844 44.554688 57.335938 44.457031 57.152344 C 44.125 56.503906 43.324219 56.246094 42.671875 56.578125 C 42.019531 56.914062 41.765625 57.714844 42.101562 58.367188 C 42.226562 58.609375 45.265625 64.367188 52.441406 64.367188 C 59.449219 64.367188 62.636719 58.636719 62.769531 58.390625 C 63.117188 57.746094 62.875 56.941406 62.234375 56.59375 Z M 62.234375 56.59375 " fill-opacity="1" fill-rule="nonzero"/></svg>