<svg width="48" height="48" viewBox="0 0 48 48" fill="none" xmlns="http://www.w3.org/2000/svg">
<circle cx="24" cy="24" r="24" fill="white"/>
<path d="M23.9987 12.8926C20.9821 12.8926 20.6036 12.9058 19.4188 12.9597C18.2364 13.0138 17.4293 13.201 16.723 13.4757C15.9925 13.7594 15.3728 14.1389 14.7555 14.7565C14.1376 15.3739 13.7581 15.9936 13.4735 16.7239C13.1982 17.4304 13.0107 18.2378 12.9575 19.4198C12.9045 20.6046 12.8906 20.9834 12.8906 24C12.8906 27.0166 12.904 27.394 12.9577 28.5788C13.0121 29.7613 13.1993 30.5684 13.4737 31.2747C13.7577 32.0052 14.1372 32.6249 14.7548 33.2423C15.3719 33.8602 15.9916 34.2406 16.7216 34.5243C17.4283 34.799 18.2357 34.9862 19.4179 35.0403C20.6027 35.0943 20.981 35.1075 23.9973 35.1075C27.014 35.1075 27.3914 35.0943 28.5762 35.0403C29.7586 34.9862 30.5667 34.799 31.2733 34.5243C32.0036 34.2406 32.6224 33.8602 33.2395 33.2423C33.8574 32.6249 34.2369 32.0052 34.5215 31.2749C34.7945 30.5684 34.982 29.7611 35.0375 28.5791C35.0907 27.3943 35.1046 27.0166 35.1046 24C35.1046 20.9834 35.0907 20.6048 35.0375 19.42C34.982 18.2376 34.7945 17.4304 34.5215 16.7242C34.2369 15.9936 33.8574 15.3739 33.2395 14.7565C32.6217 14.1387 32.0039 13.7592 31.2726 13.4757C30.5646 13.201 29.757 13.0138 28.5745 12.9597C27.3898 12.9058 27.0126 12.8926 23.9952 12.8926H23.9987ZM23.0023 14.8942C23.298 14.8938 23.628 14.8942 23.9987 14.8942C26.9642 14.8942 27.3157 14.9049 28.4868 14.9581C29.5698 15.0076 30.1575 15.1886 30.5491 15.3406C31.0674 15.5419 31.4369 15.7826 31.8255 16.1714C32.2142 16.5601 32.4549 16.9304 32.6566 17.4487C32.8087 17.8398 32.9899 18.4276 33.0391 19.5105C33.0924 20.6814 33.1039 21.0332 33.1039 23.9975C33.1039 26.9618 33.0924 27.3135 33.0391 28.4844C32.9896 29.5674 32.8087 30.1552 32.6566 30.5462C32.4553 31.0646 32.2142 31.4337 31.8255 31.8222C31.4367 32.211 31.0676 32.4516 30.5491 32.6529C30.158 32.8057 29.5698 32.9862 28.4868 33.0357C27.316 33.0889 26.9642 33.1005 23.9987 33.1005C21.0328 33.1005 20.6813 33.0889 19.5105 33.0357C18.4275 32.9857 17.8398 32.8047 17.448 32.6527C16.9297 32.4514 16.5594 32.2107 16.1707 31.822C15.7819 31.4332 15.5413 31.0639 15.3395 30.5453C15.1875 30.1542 15.0063 29.5665 14.957 28.4835C14.9038 27.3126 14.8931 26.9608 14.8931 23.9947C14.8931 21.0285 14.9038 20.6787 14.957 19.5078C15.0065 18.4248 15.1875 17.837 15.3395 17.4455C15.5408 16.9271 15.7819 16.5569 16.1707 16.1681C16.5594 15.7794 16.9297 15.5387 17.448 15.3369C17.8395 15.1842 18.4275 15.0037 19.5105 14.9539C20.5351 14.9077 20.9322 14.8938 23.0023 14.8915V14.8942ZM29.9275 16.7385C29.1917 16.7385 28.5947 17.3349 28.5947 18.071C28.5947 18.8068 29.1917 19.4039 29.9275 19.4039C30.6634 19.4039 31.2604 18.8068 31.2604 18.071C31.2604 17.3351 30.6634 16.7381 29.9275 16.7381V16.7385ZM23.9987 18.2959C20.8486 18.2959 18.2947 20.8499 18.2947 24C18.2947 27.1501 20.8486 29.703 23.9987 29.703C27.1487 29.703 29.7017 27.1501 29.7017 24C29.7017 20.8499 27.1484 18.2959 23.9984 18.2959H23.9987ZM23.9987 20.2975C26.0433 20.2975 27.701 21.9551 27.701 24C27.701 26.0447 26.0433 27.7025 23.9987 27.7025C21.9538 27.7025 20.2963 26.0447 20.2963 24C20.2963 21.9551 21.9538 20.2975 23.9987 20.2975Z" fill="#7C0000"/>
</svg>
