<svg width="108" height="17" viewBox="0 0 108 17" fill="none" xmlns="http://www.w3.org/2000/svg">
<g id="62c23331f3ac9f45d9014ce9_diego-icon-stars 1" clip-path="url(#clip0_2124_279)">
<path id="Vector" d="M6.95927 1.60358C7.25862 0.682271 8.56203 0.682269 8.86138 1.60358L10.0432 5.24087C10.1771 5.65289 10.561 5.93185 10.9943 5.93185H14.8187C15.7875 5.93185 16.1902 7.17147 15.4065 7.74087L12.3125 9.98884C11.962 10.2435 11.8153 10.6948 11.9492 11.1069L13.131 14.7442C13.4304 15.6655 12.3759 16.4316 11.5922 15.8622L8.49811 13.6142C8.14762 13.3596 7.67303 13.3596 7.32254 13.6142L4.22848 15.8622C3.44477 16.4316 2.39029 15.6655 2.68964 14.7442L3.87146 11.1069C4.00534 10.6948 3.85868 10.2435 3.50819 9.98884L0.414132 7.74087C-0.369582 7.17147 0.0331928 5.93185 1.00192 5.93185H4.82639C5.25961 5.93185 5.64357 5.65289 5.77744 5.24087L6.95927 1.60358Z" fill="#505D53"/>
<path id="Vector_2" d="M29.9593 1.60358C30.2586 0.682271 31.562 0.682269 31.8614 1.60358L33.0432 5.24087C33.1771 5.65289 33.561 5.93185 33.9943 5.93185H37.8187C38.7875 5.93185 39.1902 7.17147 38.4065 7.74087L35.3125 9.98884C34.962 10.2435 34.8153 10.6948 34.9492 11.1069L36.131 14.7442C36.4304 15.6655 35.3759 16.4316 34.5922 15.8622L31.4981 13.6142C31.1476 13.3596 30.673 13.3596 30.3225 13.6142L27.2285 15.8622C26.4448 16.4316 25.3903 15.6655 25.6896 14.7442L26.8715 11.1069C27.0053 10.6948 26.8587 10.2435 26.5082 9.98884L23.4141 7.74087C22.6304 7.17147 23.0332 5.93185 24.0019 5.93185H27.8264C28.2596 5.93185 28.6436 5.65289 28.7774 5.24087L29.9593 1.60358Z" fill="#505D53"/>
<path id="Vector_3" d="M52.9593 1.60358C53.2586 0.682271 54.562 0.682269 54.8614 1.60358L56.0432 5.24087C56.1771 5.65289 56.561 5.93185 56.9943 5.93185H60.8187C61.7875 5.93185 62.1902 7.17147 61.4065 7.74087L58.3125 9.98884C57.962 10.2435 57.8153 10.6948 57.9492 11.1069L59.131 14.7442C59.4304 15.6655 58.3759 16.4316 57.5922 15.8622L54.4981 13.6142C54.1476 13.3596 53.673 13.3596 53.3225 13.6142L50.2285 15.8622C49.4448 16.4316 48.3903 15.6655 48.6896 14.7442L49.8715 11.1069C50.0053 10.6948 49.8587 10.2435 49.5082 9.98884L46.4141 7.74087C45.6304 7.17147 46.0332 5.93185 47.0019 5.93185H50.8264C51.2596 5.93185 51.6436 5.65289 51.7774 5.24087L52.9593 1.60358Z" fill="#505D53"/>
<path id="Vector_4" d="M75.9593 1.60358C76.2586 0.682271 77.562 0.682269 77.8614 1.60358L79.0432 5.24087C79.1771 5.65289 79.561 5.93185 79.9943 5.93185H83.8187C84.7875 5.93185 85.1902 7.17147 84.4065 7.74087L81.3125 9.98884C80.962 10.2435 80.8153 10.6948 80.9492 11.1069L82.131 14.7442C82.4304 15.6655 81.3759 16.4316 80.5922 15.8622L77.4981 13.6142C77.1476 13.3596 76.673 13.3596 76.3225 13.6142L73.2285 15.8622C72.4448 16.4316 71.3903 15.6655 71.6896 14.7442L72.8715 11.1069C73.0053 10.6948 72.8587 10.2435 72.5082 9.98884L69.4141 7.74087C68.6304 7.17147 69.0332 5.93185 70.0019 5.93185H73.8264C74.2596 5.93185 74.6436 5.65289 74.7774 5.24087L75.9593 1.60358Z" fill="#505D53"/>
<path id="Vector_5" d="M98.9593 1.60358C99.2586 0.682271 100.562 0.682269 100.861 1.60358L102.043 5.24087C102.177 5.65289 102.561 5.93185 102.994 5.93185H106.819C107.787 5.93185 108.19 7.17147 107.407 7.74087L104.312 9.98884C103.962 10.2435 103.815 10.6948 103.949 11.1069L105.131 14.7442C105.43 15.6655 104.376 16.4316 103.592 15.8622L100.498 13.6142C100.148 13.3596 99.673 13.3596 99.3225 13.6142L96.2285 15.8622C95.4448 16.4316 94.3903 15.6655 94.6896 14.7442L95.8715 11.1069C96.0053 10.6948 95.8587 10.2435 95.5082 9.98884L92.4141 7.74087C91.6304 7.17147 92.0332 5.93185 93.0019 5.93185H96.8264C97.2596 5.93185 97.6436 5.65289 97.7774 5.24087L98.9593 1.60358Z" fill="#505D53"/>
</g>
<defs>
<clipPath id="clip0_2124_279">
<rect width="108" height="16" fill="white" transform="translate(0 0.912598)"/>
</clipPath>
</defs>
</svg>
