<svg xmlns="http://www.w3.org/2000/svg" xmlns:xlink="http://www.w3.org/1999/xlink" width="140" zoomAndPan="magnify" viewBox="0 0 104.88 104.999996" height="140" preserveAspectRatio="xMidYMid meet" version="1.0"><defs><clipPath id="7957628549"><path d="M 0 7.074219 L 104.761719 7.074219 L 104.761719 97.71875 L 0 97.71875 Z M 0 7.074219 " clip-rule="nonzero"/></clipPath><clipPath id="8eea1b507f"><path d="M 43 37.34375 L 45 37.34375 L 45 45 L 43 45 Z M 43 37.34375 " clip-rule="nonzero"/></clipPath><clipPath id="ebabcafa2b"><path d="M 60 37.34375 L 62 37.34375 L 62 45 L 60 45 Z M 60 37.34375 " clip-rule="nonzero"/></clipPath><clipPath id="634c308d98"><path d="M 31.464844 43 L 73.414062 43 L 73.414062 66 L 31.464844 66 Z M 31.464844 43 " clip-rule="nonzero"/></clipPath><clipPath id="e27255b348"><path d="M 34 62 L 39 62 L 39 67.3125 L 34 67.3125 Z M 34 62 " clip-rule="nonzero"/></clipPath><clipPath id="9d8923317f"><path d="M 66 62 L 71 62 L 71 67.3125 L 66 67.3125 Z M 66 62 " clip-rule="nonzero"/></clipPath></defs><g clip-path="url(#7957628549)"><path fill="#000040" d="M 26.21875 97.910156 L 0 52.496094 L 26.21875 7.082031 L 78.660156 7.082031 L 104.878906 52.496094 L 78.660156 97.910156 Z M 26.21875 97.910156 " fill-opacity="1" fill-rule="nonzero"/></g><path fill="#ffffff" d="M 62.105469 49.179688 L 61.695312 49.179688 L 61.695312 47.433594 L 60.664062 47.433594 L 60.664062 49.179688 L 44.316406 49.179688 L 44.316406 47.433594 L 43.289062 47.433594 L 43.289062 49.179688 L 42.773438 49.179688 L 42.773438 50.003906 L 62.105469 50.003906 Z M 62.105469 49.179688 " fill-opacity="1" fill-rule="nonzero"/><path fill="#ffffff" d="M 42.773438 62.136719 L 62.105469 62.136719 L 62.105469 63.0625 L 42.773438 63.0625 Z M 42.773438 62.136719 " fill-opacity="1" fill-rule="nonzero"/><g clip-path="url(#8eea1b507f)"><path fill="#ffffff" d="M 43.289062 37.355469 L 44.316406 37.355469 L 44.316406 44.65625 L 43.289062 44.65625 Z M 43.289062 37.355469 " fill-opacity="1" fill-rule="nonzero"/></g><g clip-path="url(#ebabcafa2b)"><path fill="#ffffff" d="M 60.664062 37.355469 L 61.695312 37.355469 L 61.695312 44.65625 L 60.664062 44.65625 Z M 60.664062 37.355469 " fill-opacity="1" fill-rule="nonzero"/></g><g clip-path="url(#634c308d98)"><path fill="#ffffff" d="M 72.492188 54.425781 L 71.460938 54.425781 L 71.460938 51.855469 L 70.433594 51.855469 L 70.433594 54.425781 L 69.207031 54.425781 C 69.285156 53.910156 69.164062 53.457031 68.847656 53.152344 C 68.625 52.941406 68.316406 52.816406 67.96875 52.75 C 67.96875 52.683594 67.964844 52.625 67.960938 52.566406 C 67.90625 51.8125 67.589844 51.21875 67.167969 51.082031 C 67.003906 51.027344 66.675781 51 66.335938 51.40625 C 66 51.804688 65.660156 52.015625 65.308594 52.039062 C 65.140625 52.050781 64.984375 52.015625 64.882812 51.96875 L 64.882812 43.527344 L 62.722656 43.527344 L 62.722656 44.964844 L 42.15625 44.964844 L 42.15625 43.527344 L 40.101562 43.527344 L 40.101562 58.023438 L 35.78125 58.023438 L 35.78125 61.828125 L 32.59375 61.828125 L 32.59375 63.988281 L 31.464844 63.988281 L 31.464844 65.734375 L 33.671875 65.734375 C 33.652344 65.53125 33.644531 65.460938 33.644531 65.332031 C 33.644531 63.765625 34.914062 62.484375 36.480469 62.484375 C 38.046875 62.484375 39.316406 63.769531 39.316406 65.335938 C 39.316406 65.46875 39.304688 65.53125 39.289062 65.734375 L 65.804688 65.734375 C 65.785156 65.53125 65.777344 65.460938 65.777344 65.332031 C 65.777344 63.765625 67.046875 62.484375 68.613281 62.484375 C 70.179688 62.484375 71.449219 63.769531 71.449219 65.335938 C 71.449219 65.46875 71.4375 65.53125 71.421875 65.734375 L 73.414062 65.734375 L 73.414062 63.988281 L 72.492188 63.988281 Z M 64.882812 53.460938 C 65.601562 53.253906 66.707031 53.03125 67.542969 53.09375 C 67.476562 53.597656 67.25 54.117188 66.78125 54.425781 L 64.882812 54.425781 Z M 71.152344 55.761719 L 71.152344 56.378906 L 65.703125 56.378906 L 65.703125 55.761719 Z M 65.703125 56.996094 L 71.152344 56.996094 L 71.152344 57.511719 L 65.703125 57.511719 Z M 68.5625 53.449219 C 68.789062 53.664062 68.863281 54.015625 68.789062 54.425781 L 67.394531 54.425781 C 67.714844 54.117188 67.882812 53.597656 67.941406 53.144531 C 68.195312 53.203125 68.410156 53.304688 68.5625 53.449219 Z M 65.328125 52.453125 C 65.796875 52.421875 66.242188 52.160156 66.652344 51.671875 C 66.796875 51.503906 66.925781 51.433594 67.042969 51.472656 C 67.253906 51.542969 67.507812 51.960938 67.550781 52.597656 C 67.554688 52.632812 67.5625 52.667969 67.5625 52.699219 C 66.65625 52.632812 65.601562 52.851562 64.882812 53.035156 L 64.882812 52.402344 C 64.984375 52.441406 65.160156 52.460938 65.328125 52.453125 Z M 63.773438 45.40625 C 64.054688 45.40625 64.285156 45.632812 64.285156 45.917969 C 64.285156 46.203125 64.054688 46.433594 63.773438 46.433594 C 63.488281 46.433594 63.257812 46.203125 63.257812 45.917969 C 63.257812 45.632812 63.488281 45.40625 63.773438 45.40625 Z M 63.773438 62.011719 C 64.054688 62.011719 64.285156 62.242188 64.285156 62.523438 C 64.285156 62.808594 64.054688 63.039062 63.773438 63.039062 C 63.488281 63.039062 63.257812 62.808594 63.257812 62.523438 C 63.257812 62.242188 63.488281 62.011719 63.773438 62.011719 Z M 62.722656 47.125 L 62.722656 63.988281 L 42.15625 63.988281 L 42.15625 47.125 Z M 41.152344 45.40625 C 41.433594 45.40625 41.664062 45.632812 41.664062 45.917969 C 41.664062 46.203125 41.433594 46.433594 41.152344 46.433594 C 40.867188 46.433594 40.636719 46.203125 40.636719 45.917969 C 40.636719 45.632812 40.867188 45.40625 41.152344 45.40625 Z M 41.152344 62.011719 C 41.433594 62.011719 41.664062 62.242188 41.664062 62.523438 C 41.664062 62.808594 41.433594 63.039062 41.152344 63.039062 C 40.867188 63.039062 40.636719 62.808594 40.636719 62.523438 C 40.636719 62.242188 40.867188 62.011719 41.152344 62.011719 Z M 40 62.035156 L 40.101562 62.035156 L 40.101562 63.988281 L 40 63.988281 Z M 65.703125 58.640625 L 65.703125 58.128906 L 71.152344 58.128906 L 71.152344 58.640625 Z M 65.703125 58.640625 " fill-opacity="1" fill-rule="nonzero"/></g><g clip-path="url(#e27255b348)"><path fill="#ffffff" d="M 38.808594 65.3125 C 38.808594 64.027344 37.765625 62.980469 36.480469 62.980469 C 35.195312 62.980469 34.152344 64.027344 34.152344 65.3125 C 34.152344 66.597656 35.195312 67.640625 36.480469 67.640625 C 37.765625 67.640625 38.808594 66.597656 38.808594 65.3125 Z M 36.480469 66.628906 C 35.753906 66.628906 35.164062 66.039062 35.164062 65.3125 C 35.164062 64.585938 35.753906 63.996094 36.480469 63.996094 C 37.207031 63.996094 37.796875 64.585938 37.796875 65.3125 C 37.796875 66.039062 37.207031 66.628906 36.480469 66.628906 Z M 36.480469 66.628906 " fill-opacity="1" fill-rule="nonzero"/></g><g clip-path="url(#9d8923317f)"><path fill="#ffffff" d="M 70.941406 65.3125 C 70.941406 64.027344 69.898438 62.980469 68.613281 62.980469 C 67.328125 62.980469 66.28125 64.027344 66.28125 65.3125 C 66.28125 66.597656 67.328125 67.640625 68.613281 67.640625 C 69.898438 67.640625 70.941406 66.597656 70.941406 65.3125 Z M 68.613281 66.628906 C 67.886719 66.628906 67.296875 66.039062 67.296875 65.3125 C 67.296875 64.585938 67.886719 63.996094 68.613281 63.996094 C 69.339844 63.996094 69.929688 64.585938 69.929688 65.3125 C 69.929688 66.039062 69.339844 66.628906 68.613281 66.628906 Z M 68.613281 66.628906 " fill-opacity="1" fill-rule="nonzero"/></g><path fill="#ffffff" d="M 61.269531 60.847656 L 57.363281 60.746094 L 57.390625 60.605469 L 61.3125 60.648438 L 61.4375 60.074219 L 60.859375 60.070312 L 60.597656 59.324219 C 60.597656 59.324219 60.347656 59.292969 59.90625 59.246094 L 59.363281 58.171875 C 59.363281 58.171875 53.023438 57.71875 51.71875 57.691406 C 50.414062 57.664062 45.9375 57.972656 45.9375 57.972656 L 44.769531 58.9375 C 44.355469 58.96875 44.125 58.988281 44.125 58.988281 L 43.339844 60.109375 L 43.613281 60.113281 L 44.019531 61.195312 C 44.0625 61.308594 44.375 61.40625 44.726562 61.414062 C 44.726562 61.414062 58.5625 61.667969 58.914062 61.675781 L 60.179688 61.699219 C 60.53125 61.707031 60.78125 61.621094 60.742188 61.507812 L 60.585938 61.070312 L 61.21875 61.082031 Z M 47.765625 59.515625 C 47.960938 59.53125 48.113281 59.59375 48.101562 59.65625 C 48.085938 59.71875 47.917969 59.757812 47.722656 59.742188 C 47.523438 59.726562 47.375 59.664062 47.386719 59.601562 C 47.398438 59.539062 47.570312 59.5 47.765625 59.515625 Z M 51.359375 59.648438 L 51.136719 59.457031 L 55.53125 59.160156 L 55.640625 59.246094 Z M 55.171875 59.789062 C 55.164062 59.839844 55.019531 59.875 54.855469 59.859375 C 54.6875 59.847656 54.5625 59.796875 54.570312 59.742188 C 54.582031 59.691406 54.726562 59.660156 54.890625 59.671875 C 55.058594 59.683594 55.183594 59.738281 55.171875 59.789062 Z M 54.386719 59.886719 C 54.371094 59.96875 54.140625 60.019531 53.878906 60 C 53.613281 59.980469 53.410156 59.894531 53.429688 59.8125 C 53.445312 59.730469 53.671875 59.675781 53.9375 59.699219 C 54.199219 59.71875 54.402344 59.800781 54.386719 59.886719 Z M 47.777344 58.394531 C 48.730469 58.363281 50.828125 58.355469 51.804688 58.378906 C 52.78125 58.398438 55.035156 58.375 56.019531 58.445312 L 58.339844 59.074219 C 58.339844 59.074219 54.425781 58.789062 52.214844 58.746094 C 50.003906 58.699219 46.234375 58.824219 46.234375 58.824219 Z M 46.597656 59.164062 C 47.023438 59.171875 47.417969 59.261719 47.632812 59.382812 L 46.851562 59.445312 L 46.925781 59.636719 L 47.4375 59.804688 C 47.277344 59.84375 47.074219 59.863281 46.84375 59.859375 C 46.277344 59.847656 45.761719 59.691406 45.664062 59.511719 C 45.679688 59.511719 45.691406 59.511719 45.707031 59.515625 C 45.953125 59.535156 46.164062 59.484375 46.179688 59.410156 C 46.195312 59.34375 46.066406 59.28125 45.882812 59.25 C 46.050781 59.191406 46.304688 59.15625 46.597656 59.164062 Z M 45.972656 61.054688 L 45.355469 61.097656 L 45.355469 60.863281 L 46.261719 60.960938 Z M 48.421875 60.722656 L 48.160156 60.402344 L 52.738281 60.660156 L 52.863281 60.804688 Z M 48.421875 60.722656 " fill-opacity="1" fill-rule="nonzero"/></svg>