<svg xmlns="http://www.w3.org/2000/svg" xmlns:xlink="http://www.w3.org/1999/xlink" width="140" zoomAndPan="magnify" viewBox="0 0 104.88 104.999996" height="140" preserveAspectRatio="xMidYMid meet" version="1.0"><defs><clipPath id="e68000412f"><path d="M 0 7.074219 L 104.761719 7.074219 L 104.761719 97.71875 L 0 97.71875 Z M 0 7.074219 " clip-rule="nonzero"/></clipPath><clipPath id="1719ee3e9f"><path d="M 62 32.285156 L 71 32.285156 L 71 40 L 62 40 Z M 62 32.285156 " clip-rule="nonzero"/></clipPath><clipPath id="694c6a2fae"><path d="M 32 32.285156 L 72 32.285156 L 72 71 L 32 71 Z M 32 32.285156 " clip-rule="nonzero"/></clipPath></defs><g clip-path="url(#e68000412f)"><path fill="#ffffff" d="M 26.21875 97.710938 L 0 52.398438 L 26.21875 7.082031 L 78.660156 7.082031 L 104.878906 52.398438 L 78.660156 97.710938 Z M 26.21875 97.710938 " fill-opacity="1" fill-rule="nonzero"/></g><path fill="#000040" d="M 70.738281 42.101562 L 71.890625 41.503906 C 71.667969 41.078125 71.429688 40.648438 71.183594 40.234375 L 70.070312 40.90625 C 70.304688 41.292969 70.53125 41.695312 70.738281 42.101562 Z M 70.738281 42.101562 " fill-opacity="1" fill-rule="nonzero"/><g clip-path="url(#1719ee3e9f)"><path fill="#000040" d="M 69.261719 39.660156 L 70.320312 38.914062 C 68.371094 36.15625 65.921875 33.953125 62.972656 32.308594 L 62.34375 33.441406 C 65.121094 34.992188 67.425781 37.0625 69.261719 39.660156 Z M 69.261719 39.660156 " fill-opacity="1" fill-rule="nonzero"/></g><path fill="#000040" d="M 33.832031 61.085938 L 32.679688 61.679688 C 32.902344 62.105469 33.140625 62.535156 33.386719 62.949219 L 34.5 62.277344 C 34.265625 61.890625 34.039062 61.488281 33.832031 61.085938 Z M 33.832031 61.085938 " fill-opacity="1" fill-rule="nonzero"/><path fill="#000040" d="M 35.308594 63.523438 L 34.25 64.269531 C 36.199219 67.027344 38.648438 69.230469 41.597656 70.875 L 42.226562 69.742188 C 39.449219 68.195312 37.144531 66.121094 35.308594 63.523438 Z M 35.308594 63.523438 " fill-opacity="1" fill-rule="nonzero"/><g clip-path="url(#694c6a2fae)"><path fill="#000040" d="M 52.285156 32.304688 C 51.335938 32.304688 50.394531 32.375 49.453125 32.511719 C 48.515625 32.652344 47.59375 32.859375 46.6875 33.132812 C 45.777344 33.410156 44.894531 33.75 44.039062 34.15625 C 43.179688 34.5625 42.359375 35.027344 41.570312 35.554688 C 40.78125 36.082031 40.035156 36.664062 39.332031 37.300781 C 38.628906 37.9375 37.976562 38.621094 37.375 39.355469 C 36.773438 40.089844 36.230469 40.863281 35.742188 41.675781 C 35.253906 42.488281 34.828125 43.335938 34.464844 44.210938 C 34.101562 45.085938 33.804688 45.984375 33.574219 46.90625 C 33.34375 47.824219 33.183594 48.757812 33.089844 49.703125 C 32.996094 50.644531 32.972656 51.589844 33.019531 52.539062 C 33.066406 53.484375 33.183594 54.425781 33.367188 55.355469 C 33.550781 56.285156 33.804688 57.195312 34.125 58.089844 C 34.445312 58.984375 34.828125 59.847656 35.273438 60.683594 C 35.722656 61.519531 36.226562 62.320312 36.792969 63.082031 C 37.359375 63.84375 37.976562 64.558594 38.644531 65.230469 C 39.09375 65.675781 39.558594 66.101562 40.050781 66.5 C 40.539062 66.902344 41.042969 67.277344 41.570312 67.628906 C 42.09375 67.980469 42.636719 68.304688 43.191406 68.601562 C 43.75 68.898438 44.320312 69.171875 44.902344 69.410156 C 45.488281 69.652344 46.082031 69.867188 46.6875 70.050781 C 47.289062 70.234375 47.902344 70.386719 48.523438 70.507812 C 49.140625 70.632812 49.765625 70.726562 50.394531 70.785156 C 51.023438 70.847656 51.652344 70.878906 52.285156 70.878906 C 52.917969 70.878906 53.546875 70.847656 54.175781 70.785156 C 54.804688 70.726562 55.429688 70.632812 56.046875 70.507812 C 56.667969 70.386719 57.28125 70.234375 57.882812 70.050781 C 58.488281 69.867188 59.082031 69.652344 59.667969 69.410156 C 60.25 69.171875 60.820312 68.898438 61.378906 68.601562 C 61.933594 68.304688 62.476562 67.980469 63 67.628906 C 63.527344 67.277344 64.03125 66.902344 64.519531 66.5 C 65.007812 66.101562 65.476562 65.675781 65.921875 65.230469 C 66.371094 64.785156 66.792969 64.316406 67.195312 63.828125 C 67.59375 63.339844 67.972656 62.832031 68.324219 62.308594 C 68.671875 61.78125 68.996094 61.242188 69.296875 60.683594 C 69.59375 60.128906 69.863281 59.558594 70.105469 58.972656 C 70.347656 58.390625 70.558594 57.796875 70.742188 57.191406 C 70.925781 56.585938 71.078125 55.972656 71.203125 55.355469 C 71.324219 54.734375 71.417969 54.109375 71.480469 53.484375 C 71.542969 52.855469 71.574219 52.222656 71.574219 51.59375 C 71.574219 50.960938 71.542969 50.328125 71.480469 49.703125 C 71.417969 49.074219 71.324219 48.449219 71.203125 47.828125 C 71.078125 47.210938 70.925781 46.597656 70.742188 45.992188 C 70.558594 45.386719 70.347656 44.792969 70.105469 44.210938 C 69.863281 43.628906 69.59375 43.058594 69.296875 42.5 C 68.996094 41.941406 68.671875 41.402344 68.324219 40.875 C 67.972656 40.351562 67.59375 39.84375 67.195312 39.355469 C 66.792969 38.867188 66.371094 38.398438 65.921875 37.953125 C 65.03125 37.054688 64.058594 36.253906 63.003906 35.546875 C 61.953125 34.84375 60.839844 34.246094 59.671875 33.761719 C 58.5 33.277344 57.292969 32.914062 56.050781 32.667969 C 54.808594 32.421875 53.550781 32.300781 52.285156 32.304688 Z M 52.285156 68.8125 C 42.789062 68.8125 35.0625 61.085938 35.0625 51.59375 C 35.0625 42.097656 42.789062 34.371094 52.285156 34.371094 C 61.78125 34.371094 69.507812 42.097656 69.507812 51.59375 C 69.507812 61.085938 61.78125 68.8125 52.285156 68.8125 Z M 52.285156 68.8125 " fill-opacity="1" fill-rule="nonzero"/></g><path fill="#000040" d="M 50.21875 51.59375 C 50.21875 51.867188 50.269531 52.128906 50.375 52.382812 C 50.480469 52.636719 50.628906 52.859375 50.824219 53.054688 C 51.015625 53.246094 51.242188 53.394531 51.496094 53.5 C 51.746094 53.605469 52.011719 53.660156 52.285156 53.660156 C 52.558594 53.660156 52.824219 53.605469 53.074219 53.5 C 53.328125 53.394531 53.550781 53.246094 53.746094 53.054688 C 53.941406 52.859375 54.089844 52.636719 54.195312 52.382812 C 54.300781 52.128906 54.351562 51.867188 54.351562 51.59375 C 54.351562 51.316406 54.300781 51.054688 54.195312 50.800781 C 54.089844 50.546875 53.941406 50.324219 53.746094 50.128906 C 53.550781 49.9375 53.328125 49.789062 53.074219 49.683594 C 52.824219 49.578125 52.558594 49.523438 52.285156 49.523438 C 52.011719 49.527344 51.746094 49.578125 51.496094 49.683594 C 51.242188 49.789062 51.019531 49.9375 50.824219 50.132812 C 50.628906 50.324219 50.480469 50.546875 50.375 50.800781 C 50.269531 51.054688 50.21875 51.316406 50.21875 51.59375 Z M 52.972656 52.28125 L 51.597656 52.28125 L 51.597656 50.902344 L 52.972656 50.902344 Z M 52.972656 52.28125 " fill-opacity="1" fill-rule="nonzero"/><path fill="#000040" d="M 36.484375 50.421875 C 36.457031 50.808594 36.441406 51.199219 36.441406 51.59375 C 36.441406 52.679688 36.550781 53.753906 36.773438 54.816406 L 42.660156 54.082031 C 43.125 54.023438 43.589844 54.011719 44.054688 54.050781 C 44.519531 54.085938 44.976562 54.171875 45.425781 54.304688 C 45.875 54.433594 46.304688 54.609375 46.71875 54.828125 C 47.132812 55.046875 47.515625 55.304688 47.878906 55.605469 C 48.238281 55.902344 48.5625 56.234375 48.855469 56.597656 C 49.148438 56.964844 49.398438 57.355469 49.609375 57.769531 C 49.824219 58.1875 49.992188 58.621094 50.113281 59.070312 C 50.238281 59.523438 50.3125 59.980469 50.34375 60.449219 L 50.773438 67.363281 C 51.273438 67.410156 51.777344 67.4375 52.285156 67.4375 C 52.792969 67.4375 53.296875 67.410156 53.792969 67.363281 L 54.226562 60.449219 C 54.257812 59.980469 54.332031 59.523438 54.457031 59.070312 C 54.578125 58.621094 54.746094 58.1875 54.957031 57.769531 C 55.171875 57.355469 55.421875 56.964844 55.714844 56.597656 C 56.007812 56.234375 56.332031 55.902344 56.691406 55.605469 C 57.050781 55.304688 57.4375 55.046875 57.851562 54.828125 C 58.265625 54.609375 58.695312 54.433594 59.144531 54.300781 C 59.59375 54.171875 60.050781 54.085938 60.515625 54.050781 C 60.980469 54.011719 61.445312 54.023438 61.910156 54.082031 L 67.796875 54.816406 C 68.019531 53.753906 68.128906 52.679688 68.128906 51.59375 C 68.128906 51.199219 68.113281 50.808594 68.085938 50.421875 C 64.660156 48.164062 58.652344 46.769531 52.285156 46.769531 C 45.917969 46.769531 39.910156 48.164062 36.484375 50.421875 Z M 47.464844 52.28125 L 45.394531 52.28125 L 45.394531 50.902344 L 47.464844 50.902344 Z M 57.105469 50.902344 L 59.171875 50.902344 L 59.171875 52.28125 L 57.105469 52.28125 Z M 55.730469 51.59375 C 55.730469 52.046875 55.640625 52.488281 55.46875 52.910156 C 55.292969 53.332031 55.042969 53.703125 54.71875 54.027344 C 54.398438 54.351562 54.023438 54.597656 53.601562 54.773438 C 53.179688 54.949219 52.742188 55.035156 52.285156 55.035156 C 51.828125 55.035156 51.390625 54.949219 50.96875 54.773438 C 50.546875 54.597656 50.171875 54.351562 49.847656 54.027344 C 49.527344 53.703125 49.277344 53.332031 49.101562 52.910156 C 48.929688 52.488281 48.839844 52.046875 48.839844 51.59375 C 48.839844 51.136719 48.929688 50.695312 49.101562 50.273438 C 49.277344 49.851562 49.527344 49.480469 49.847656 49.15625 C 50.171875 48.832031 50.546875 48.585938 50.96875 48.410156 C 51.390625 48.234375 51.828125 48.148438 52.285156 48.148438 C 52.742188 48.148438 53.179688 48.234375 53.601562 48.410156 C 54.023438 48.585938 54.398438 48.835938 54.71875 49.15625 C 55.042969 49.480469 55.292969 49.851562 55.464844 50.273438 C 55.640625 50.695312 55.730469 51.136719 55.730469 51.59375 Z M 55.730469 51.59375 " fill-opacity="1" fill-rule="nonzero"/></svg>