<svg xmlns="http://www.w3.org/2000/svg" xmlns:xlink="http://www.w3.org/1999/xlink" width="140" zoomAndPan="magnify" viewBox="0 0 104.88 104.999996" height="140" preserveAspectRatio="xMidYMid meet" version="1.0"><defs><clipPath id="d24c125948"><path d="M 0 7.074219 L 104.761719 7.074219 L 104.761719 97.71875 L 0 97.71875 Z M 0 7.074219 " clip-rule="nonzero"/></clipPath><clipPath id="989168c67f"><path d="M 32.171875 31.523438 L 72.625 31.523438 L 72.625 73.476562 L 32.171875 73.476562 Z M 32.171875 31.523438 " clip-rule="nonzero"/></clipPath></defs><g clip-path="url(#d24c125948)"><path fill="#ffffff" d="M 26.21875 97.710938 L 0 52.398438 L 26.21875 7.082031 L 78.660156 7.082031 L 104.878906 52.398438 L 78.660156 97.710938 Z M 26.21875 97.710938 " fill-opacity="1" fill-rule="nonzero"/></g><path fill="#336699" d="M 52.441406 55.996094 C 52.824219 55.996094 53.136719 55.679688 53.136719 55.296875 L 53.136719 53.199219 L 53.835938 53.199219 C 54.992188 53.199219 55.933594 52.253906 55.933594 51.101562 C 55.933594 49.949219 54.992188 49.003906 53.835938 49.003906 L 52.441406 49.003906 C 52.054688 49.003906 51.742188 49.320312 51.742188 49.703125 L 51.742188 55.296875 C 51.742188 55.679688 52.054688 55.996094 52.441406 55.996094 Z M 53.136719 50.402344 L 53.835938 50.402344 C 54.222656 50.402344 54.535156 50.71875 54.535156 51.101562 C 54.535156 51.488281 54.222656 51.800781 53.835938 51.800781 L 53.136719 51.800781 Z M 53.136719 50.402344 " fill-opacity="1" fill-rule="nonzero"/><path fill="#336699" d="M 58.03125 55.996094 C 58.414062 55.996094 58.730469 55.679688 58.730469 55.296875 L 58.730469 49.703125 C 58.730469 49.320312 58.414062 49.003906 58.03125 49.003906 C 57.648438 49.003906 57.332031 49.320312 57.332031 49.703125 L 57.332031 55.296875 C 57.332031 55.679688 57.648438 55.996094 58.03125 55.996094 Z M 58.03125 55.996094 " fill-opacity="1" fill-rule="nonzero"/><path fill="#336699" d="M 46.847656 55.996094 C 47.234375 55.996094 47.546875 55.679688 47.546875 55.296875 L 47.546875 53.199219 L 48.945312 53.199219 L 48.945312 55.296875 C 48.945312 55.679688 49.261719 55.996094 49.644531 55.996094 C 50.027344 55.996094 50.34375 55.679688 50.34375 55.296875 L 50.34375 51.101562 C 50.34375 49.949219 49.398438 49.003906 48.246094 49.003906 C 47.09375 49.003906 46.148438 49.949219 46.148438 51.101562 L 46.148438 55.296875 C 46.148438 55.679688 46.464844 55.996094 46.847656 55.996094 Z M 47.546875 51.101562 C 47.546875 50.71875 47.863281 50.402344 48.246094 50.402344 C 48.628906 50.402344 48.945312 50.71875 48.945312 51.101562 L 48.945312 51.800781 L 47.546875 51.800781 Z M 47.546875 51.101562 " fill-opacity="1" fill-rule="nonzero"/><path fill="#336699" d="M 52.441406 62.984375 C 58.222656 62.984375 62.921875 58.285156 62.921875 52.5 C 62.921875 46.714844 58.222656 42.015625 52.441406 42.015625 C 46.65625 42.015625 41.957031 46.714844 41.957031 52.5 C 41.957031 58.285156 46.65625 62.984375 52.441406 62.984375 Z M 52.441406 43.414062 C 57.445312 43.414062 61.523438 47.496094 61.523438 52.5 C 61.523438 57.503906 57.445312 61.585938 52.441406 61.585938 C 47.433594 61.585938 43.355469 57.503906 43.355469 52.5 C 43.355469 47.496094 47.433594 43.414062 52.441406 43.414062 Z M 52.441406 43.414062 " fill-opacity="1" fill-rule="nonzero"/><g clip-path="url(#989168c67f)"><path fill="#336699" d="M 34.269531 67.875 C 35.421875 67.875 36.367188 66.933594 36.367188 65.777344 C 36.367188 64.871094 35.78125 64.09375 34.96875 63.804688 L 34.96875 61.925781 L 40.226562 57.714844 C 40.542969 58.441406 40.917969 59.148438 41.355469 59.804688 L 40.070312 61.085938 C 39.796875 61.359375 39.796875 61.804688 40.070312 62.074219 L 42.863281 64.871094 C 43.136719 65.140625 43.582031 65.140625 43.851562 64.871094 L 45.136719 63.585938 C 46.507812 64.484375 48.046875 65.132812 49.644531 65.480469 L 49.644531 67.875 C 49.644531 68.261719 49.957031 68.574219 50.34375 68.574219 L 54.535156 68.574219 C 54.921875 68.574219 55.234375 68.261719 55.234375 67.875 L 55.234375 65.480469 C 55.820312 65.359375 56.398438 65.195312 56.957031 64.984375 L 58.039062 71.484375 C 58.09375 71.824219 58.390625 72.070312 58.730469 72.070312 L 60.949219 72.070312 C 61.238281 72.882812 62.015625 73.464844 62.921875 73.464844 C 64.078125 73.464844 65.019531 72.523438 65.019531 71.371094 C 65.019531 70.21875 64.078125 69.273438 62.921875 69.273438 C 62.015625 69.273438 61.238281 69.859375 60.949219 70.671875 L 59.324219 70.671875 L 58.285156 64.425781 C 58.789062 64.179688 59.28125 63.902344 59.75 63.585938 L 61.035156 64.871094 C 61.308594 65.140625 61.753906 65.140625 62.023438 64.871094 L 64.820312 62.074219 C 65.089844 61.804688 65.089844 61.359375 64.820312 61.085938 L 63.535156 59.804688 C 63.605469 59.699219 63.675781 59.59375 63.734375 59.488281 L 68.636719 59.488281 C 68.925781 60.300781 69.703125 60.886719 70.609375 60.886719 C 71.765625 60.886719 72.707031 59.941406 72.707031 58.789062 C 72.707031 57.636719 71.765625 56.691406 70.609375 56.691406 C 69.703125 56.691406 68.925781 57.277344 68.636719 58.089844 L 64.488281 58.089844 C 64.90625 57.199219 65.222656 56.257812 65.429688 55.296875 L 67.816406 55.296875 C 68.199219 55.296875 68.515625 54.980469 68.515625 54.597656 L 68.515625 50.402344 C 68.515625 50.019531 68.199219 49.703125 67.816406 49.703125 L 65.421875 49.703125 C 65.082031 48.105469 64.433594 46.566406 63.527344 45.195312 L 64.808594 43.914062 C 65.082031 43.640625 65.082031 43.195312 64.808594 42.925781 L 62.015625 40.128906 C 61.742188 39.859375 61.296875 39.859375 61.027344 40.128906 L 59.742188 41.414062 C 59.269531 41.109375 58.78125 40.828125 58.285156 40.574219 L 61.925781 34.328125 L 64.441406 34.328125 C 64.730469 35.140625 65.507812 35.726562 66.417969 35.726562 C 67.570312 35.726562 68.515625 34.78125 68.515625 33.628906 C 68.515625 32.476562 67.570312 31.535156 66.417969 31.535156 C 65.507812 31.535156 64.730469 32.117188 64.441406 32.929688 L 61.523438 32.929688 C 61.28125 32.929688 61.042969 33.0625 60.921875 33.28125 L 56.992188 40.023438 C 56.421875 39.816406 55.839844 39.648438 55.242188 39.519531 L 55.242188 37.125 C 55.242188 36.738281 54.929688 36.425781 54.546875 36.425781 L 50.351562 36.425781 C 49.96875 36.425781 49.652344 36.738281 49.652344 37.125 L 49.652344 39.519531 C 48.054688 39.859375 46.515625 40.503906 45.144531 41.414062 L 43.859375 40.128906 C 43.589844 39.859375 43.144531 39.859375 42.875 40.128906 L 41.867188 41.117188 L 38.460938 38.84375 L 38.460938 35.605469 C 39.273438 35.316406 39.859375 34.539062 39.859375 33.628906 C 39.859375 32.476562 38.917969 31.535156 37.761719 31.535156 C 36.609375 31.535156 35.667969 32.476562 35.667969 33.628906 C 35.667969 34.539062 36.25 35.316406 37.0625 35.605469 L 37.0625 39.222656 C 37.0625 39.457031 37.179688 39.675781 37.378906 39.804688 L 40.863281 42.128906 L 40.070312 42.925781 C 39.796875 43.195312 39.796875 43.640625 40.070312 43.914062 L 41.355469 45.195312 C 40.453125 46.566406 39.808594 48.105469 39.457031 49.703125 L 37.0625 49.703125 C 36.679688 49.703125 36.367188 50.019531 36.367188 50.402344 L 36.367188 54.597656 C 36.367188 54.980469 36.679688 55.296875 37.0625 55.296875 L 39.457031 55.296875 C 39.535156 55.644531 39.625 55.984375 39.730469 56.328125 L 33.839844 61.042969 C 33.675781 61.175781 33.578125 61.375 33.578125 61.585938 L 33.578125 63.804688 C 32.765625 64.09375 32.179688 64.871094 32.179688 65.777344 C 32.171875 66.933594 33.117188 67.875 34.269531 67.875 Z M 62.921875 70.671875 C 63.308594 70.671875 63.621094 70.984375 63.621094 71.371094 C 63.621094 71.753906 63.308594 72.070312 62.921875 72.070312 C 62.539062 72.070312 62.222656 71.753906 62.222656 71.371094 C 62.222656 70.984375 62.539062 70.671875 62.921875 70.671875 Z M 70.609375 58.089844 C 70.996094 58.089844 71.308594 58.40625 71.308594 58.789062 C 71.308594 59.175781 70.996094 59.488281 70.609375 59.488281 C 70.226562 59.488281 69.910156 59.175781 69.910156 58.789062 C 69.910156 58.40625 70.226562 58.089844 70.609375 58.089844 Z M 66.417969 32.929688 C 66.800781 32.929688 67.117188 33.246094 67.117188 33.628906 C 67.117188 34.015625 66.800781 34.328125 66.417969 34.328125 C 66.03125 34.328125 65.71875 34.015625 65.71875 33.628906 C 65.71875 33.246094 66.03125 32.929688 66.417969 32.929688 Z M 37.761719 34.328125 C 37.378906 34.328125 37.0625 34.015625 37.0625 33.628906 C 37.0625 33.246094 37.378906 32.929688 37.761719 32.929688 C 38.148438 32.929688 38.460938 33.246094 38.460938 33.628906 C 38.460938 34.015625 38.148438 34.328125 37.761719 34.328125 Z M 37.761719 53.898438 L 37.761719 51.101562 L 40.035156 51.101562 C 40.375 51.101562 40.664062 50.859375 40.726562 50.515625 C 41.023438 48.726562 41.753906 46.996094 42.820312 45.519531 C 43.023438 45.242188 42.996094 44.855469 42.75 44.609375 L 41.546875 43.414062 L 43.355469 41.605469 L 44.558594 42.8125 C 44.804688 43.054688 45.1875 43.082031 45.46875 42.882812 C 46.945312 41.808594 48.675781 41.082031 50.464844 40.785156 C 50.804688 40.734375 51.050781 40.433594 51.050781 40.09375 L 51.050781 37.824219 L 53.847656 37.824219 L 53.847656 40.09375 C 53.847656 40.433594 54.089844 40.722656 54.429688 40.785156 C 56.222656 41.082031 57.953125 41.816406 59.429688 42.882812 C 59.707031 43.082031 60.09375 43.054688 60.335938 42.8125 L 61.542969 41.605469 L 63.351562 43.414062 L 62.144531 44.621094 C 61.902344 44.863281 61.875 45.25 62.074219 45.527344 C 63.148438 47.003906 63.875 48.734375 64.171875 50.527344 C 64.226562 50.867188 64.523438 51.109375 64.863281 51.109375 L 67.132812 51.109375 L 67.132812 53.90625 L 64.863281 53.90625 C 64.523438 53.90625 64.234375 54.152344 64.171875 54.492188 C 63.875 56.28125 63.140625 58.011719 62.074219 59.488281 C 61.875 59.769531 61.902344 60.152344 62.144531 60.398438 L 63.351562 61.601562 L 61.523438 63.394531 L 60.320312 62.1875 C 60.074219 61.945312 59.691406 61.917969 59.410156 62.117188 C 57.933594 63.191406 56.203125 63.917969 54.414062 64.214844 C 54.074219 64.265625 53.828125 64.566406 53.828125 64.90625 L 53.828125 67.175781 L 51.035156 67.175781 L 51.035156 64.90625 C 51.035156 64.566406 50.789062 64.277344 50.449219 64.214844 C 48.65625 63.917969 46.925781 63.191406 45.449219 62.117188 C 45.171875 61.917969 44.785156 61.945312 44.542969 62.1875 L 43.355469 63.394531 L 41.546875 61.585938 L 42.75 60.378906 C 42.996094 60.136719 43.023438 59.75 42.820312 59.472656 C 41.746094 57.996094 41.023438 56.265625 40.726562 54.472656 C 40.671875 54.132812 40.375 53.890625 40.035156 53.890625 L 37.761719 53.890625 Z M 34.269531 65.078125 C 34.652344 65.078125 34.96875 65.394531 34.96875 65.777344 C 34.96875 66.164062 34.652344 66.476562 34.269531 66.476562 C 33.882812 66.476562 33.570312 66.164062 33.570312 65.777344 C 33.570312 65.394531 33.882812 65.078125 34.269531 65.078125 Z M 34.269531 65.078125 " fill-opacity="1" fill-rule="nonzero"/></g></svg>