<svg xmlns="http://www.w3.org/2000/svg" width="25" height="25" viewBox="0 0 25 25" fill="none">
  <path d="M12.9424 2.33514C11.014 2.33514 9.12896 2.90697 7.52558 3.97832C5.9222 5.04966 4.67252 6.5724 3.93456 8.35398C3.19661 10.1356 3.00352 12.096 3.37973 13.9873C3.75594 15.8786 4.68453 17.6159 6.0481 18.9794C7.41166 20.343 9.14894 21.2716 11.0403 21.6478C12.9316 22.024 14.892 21.8309 16.6736 21.093C18.4551 20.355 19.9779 19.1053 21.0492 17.502C22.1206 15.8986 22.6924 14.0135 22.6924 12.0851C22.6897 9.50012 21.6616 7.02176 19.8337 5.19387C18.0058 3.36598 15.5274 2.33787 12.9424 2.33514ZM15.723 12.6158L11.973 16.3658C11.9033 16.4355 11.8206 16.4907 11.7296 16.5284C11.6385 16.5662 11.5409 16.5856 11.4424 16.5856C11.3438 16.5856 11.2463 16.5662 11.1552 16.5284C11.0642 16.4907 10.9814 16.4355 10.9118 16.3658C10.8421 16.2961 10.7868 16.2134 10.7491 16.1223C10.7114 16.0313 10.692 15.9337 10.692 15.8351C10.692 15.7366 10.7114 15.639 10.7491 15.548C10.7868 15.4569 10.8421 15.3742 10.9118 15.3045L14.1321 12.0851L10.9118 8.86577C10.771 8.72504 10.692 8.53417 10.692 8.33514C10.692 8.13612 10.771 7.94525 10.9118 7.80452C11.0525 7.66379 11.2434 7.58473 11.4424 7.58473C11.6414 7.58473 11.8323 7.66379 11.973 7.80452L15.723 11.5545C15.7927 11.6242 15.8481 11.7069 15.8858 11.7979C15.9236 11.889 15.943 11.9866 15.943 12.0851C15.943 12.1837 15.9236 12.2813 15.8858 12.3723C15.8481 12.4634 15.7927 12.5461 15.723 12.6158Z" fill="#336699"/>
</svg>