<svg width="24" height="24" viewBox="0 0 24 24" fill="none" xmlns="http://www.w3.org/2000/svg">
<path d="M20.4498 12.0001L13.0998 19.3501C12.8498 19.6001 12.7288 19.8918 12.7368 20.2251C12.7448 20.5584 12.8741 20.8501 13.1248 21.1001C13.3748 21.3501 13.6665 21.4751 13.9998 21.4751C14.3331 21.4751 14.6248 21.3501 14.8748 21.1001L22.5748 13.4251C22.7748 13.2251 22.9248 13.0001 23.0248 12.7501C23.1248 12.5001 23.1748 12.2501 23.1748 12.0001C23.1748 11.7501 23.1248 11.5001 23.0248 11.2501C22.9248 11.0001 22.7748 10.7751 22.5748 10.5751L14.8748 2.87509C14.6248 2.62509 14.3288 2.50409 13.9868 2.51209C13.6448 2.52009 13.3491 2.64942 13.0998 2.90009C12.8498 3.15009 12.7248 3.44176 12.7248 3.77509C12.7248 4.10842 12.8498 4.40009 13.0998 4.65009L20.4498 12.0001Z" fill="white"/>
</svg>
