<svg xmlns="http://www.w3.org/2000/svg" width="80" height="80" viewBox="0 0 49 50" fill="none">
  <path d="M4.59375 20.3125H9.1875V32.8125H6.125C5.71889 32.8125 5.32941 32.9771 5.04224 33.2701C4.75508 33.5632 4.59375 33.9606 4.59375 34.375C4.59375 34.7894 4.75508 35.1868 5.04224 35.4799C5.32941 35.7729 5.71889 35.9375 6.125 35.9375H42.875C43.2811 35.9375 43.6706 35.7729 43.9578 35.4799C44.2449 35.1868 44.4062 34.7894 44.4062 34.375C44.4062 33.9606 44.2449 33.5632 43.9578 33.2701C43.6706 32.9771 43.2811 32.8125 42.875 32.8125H39.8125V20.3125H44.4062C44.7394 20.3122 45.0634 20.2009 45.329 19.9957C45.5946 19.7905 45.7874 19.5025 45.8781 19.1754C45.9688 18.8482 45.9525 18.4998 45.8316 18.1831C45.7107 17.8663 45.4919 17.5983 45.2082 17.4199L25.302 4.91993C25.0608 4.76859 24.7832 4.68848 24.5 4.68848C24.2168 4.68848 23.9392 4.76859 23.698 4.91993L3.79176 17.4199C3.50815 17.5983 3.2893 17.8663 3.16841 18.1831C3.04751 18.4998 3.03118 18.8482 3.12188 19.1754C3.21258 19.5025 3.40536 19.7905 3.67099 19.9957C3.93661 20.2009 4.26058 20.3122 4.59375 20.3125ZM12.25 20.3125H18.375V32.8125H12.25V20.3125ZM27.5625 20.3125V32.8125H21.4375V20.3125H27.5625ZM36.75 32.8125H30.625V20.3125H36.75V32.8125ZM24.5 8.08399L38.9971 17.1875H10.0029L24.5 8.08399ZM47.4688 40.625C47.4688 41.0394 47.3074 41.4368 47.0203 41.7299C46.7331 42.0229 46.3436 42.1875 45.9375 42.1875H3.0625C2.65639 42.1875 2.26691 42.0229 1.97974 41.7299C1.69258 41.4368 1.53125 41.0394 1.53125 40.625C1.53125 40.2106 1.69258 39.8132 1.97974 39.5201C2.26691 39.2271 2.65639 39.0625 3.0625 39.0625H45.9375C46.3436 39.0625 46.7331 39.2271 47.0203 39.5201C47.3074 39.8132 47.4688 40.2106 47.4688 40.625Z" fill="white"/>
</svg>