<svg xmlns="http://www.w3.org/2000/svg" xmlns:xlink="http://www.w3.org/1999/xlink" width="140" zoomAndPan="magnify" viewBox="0 0 104.88 104.999996" height="140" preserveAspectRatio="xMidYMid meet" version="1.0"><defs><clipPath id="441e7f43a3"><path d="M 0 7.074219 L 104.761719 7.074219 L 104.761719 97.71875 L 0 97.71875 Z M 0 7.074219 " clip-rule="nonzero"/></clipPath><clipPath id="505b06a8fb"><path d="M 50 31.523438 L 55 31.523438 L 55 36 L 50 36 Z M 50 31.523438 " clip-rule="nonzero"/></clipPath><clipPath id="95a5538e8a"><path d="M 50 69 L 55 69 L 55 73.476562 L 50 73.476562 Z M 50 69 " clip-rule="nonzero"/></clipPath><clipPath id="24b005da7f"><path d="M 69 50 L 73.414062 50 L 73.414062 55 L 69 55 Z M 69 50 " clip-rule="nonzero"/></clipPath><clipPath id="7e8a05c5cc"><path d="M 31.464844 50 L 36 50 L 36 55 L 31.464844 55 Z M 31.464844 50 " clip-rule="nonzero"/></clipPath></defs><g clip-path="url(#441e7f43a3)"><path fill="#ffffff" d="M 26.21875 97.710938 L 0 52.398438 L 26.21875 7.082031 L 78.660156 7.082031 L 104.878906 52.398438 L 78.660156 97.710938 Z M 26.21875 97.710938 " fill-opacity="1" fill-rule="nonzero"/></g><path fill="#000040" d="M 57.355469 52.5 C 57.355469 49.78125 55.160156 47.582031 52.441406 47.582031 C 49.71875 47.582031 47.523438 49.78125 47.523438 52.5 C 47.523438 55.21875 49.71875 57.417969 52.441406 57.417969 C 55.160156 57.417969 57.355469 55.21875 57.355469 52.5 Z M 57.355469 52.5 " fill-opacity="1" fill-rule="nonzero"/><path fill="#000040" d="M 50.277344 43.714844 L 51.914062 46.011719 C 52.046875 46.175781 52.242188 46.273438 52.441406 46.273438 C 52.636719 46.273438 52.867188 46.175781 52.964844 46.011719 L 54.601562 43.714844 C 54.800781 43.421875 54.734375 43.027344 54.4375 42.796875 C 54.144531 42.601562 53.75 42.667969 53.523438 42.960938 L 53.09375 43.585938 L 53.09375 37.421875 C 53.09375 37.0625 52.800781 36.769531 52.441406 36.769531 C 52.078125 36.769531 51.785156 37.0625 51.785156 37.421875 L 51.785156 43.585938 L 51.324219 42.960938 C 51.128906 42.667969 50.703125 42.601562 50.40625 42.796875 C 50.113281 42.996094 50.046875 43.421875 50.277344 43.714844 Z M 50.277344 43.714844 " fill-opacity="1" fill-rule="nonzero"/><g clip-path="url(#505b06a8fb)"><path fill="#000040" d="M 54.40625 33.492188 C 54.40625 33.75 54.355469 34.003906 54.257812 34.242188 C 54.15625 34.484375 54.015625 34.695312 53.832031 34.882812 C 53.644531 35.066406 53.433594 35.207031 53.191406 35.308594 C 52.953125 35.40625 52.699219 35.457031 52.441406 35.457031 C 52.179688 35.457031 51.929688 35.40625 51.6875 35.308594 C 51.445312 35.207031 51.234375 35.066406 51.050781 34.882812 C 50.863281 34.695312 50.722656 34.484375 50.625 34.242188 C 50.523438 34.003906 50.472656 33.75 50.472656 33.492188 C 50.472656 33.230469 50.523438 32.980469 50.625 32.738281 C 50.722656 32.496094 50.863281 32.285156 51.050781 32.101562 C 51.234375 31.914062 51.445312 31.773438 51.6875 31.671875 C 51.929688 31.574219 52.179688 31.523438 52.441406 31.523438 C 52.699219 31.523438 52.953125 31.574219 53.191406 31.671875 C 53.433594 31.773438 53.644531 31.914062 53.832031 32.101562 C 54.015625 32.285156 54.15625 32.496094 54.257812 32.738281 C 54.355469 32.980469 54.40625 33.230469 54.40625 33.492188 Z M 54.40625 33.492188 " fill-opacity="1" fill-rule="nonzero"/></g><path fill="#000040" d="M 54.601562 61.285156 L 52.964844 58.988281 C 52.832031 58.824219 52.636719 58.726562 52.441406 58.726562 C 52.242188 58.726562 52.015625 58.824219 51.914062 58.988281 L 50.277344 61.285156 C 50.082031 61.578125 50.144531 61.972656 50.441406 62.203125 C 50.734375 62.398438 51.128906 62.332031 51.359375 62.039062 L 51.816406 61.414062 L 51.816406 67.578125 C 51.816406 67.9375 52.113281 68.230469 52.472656 68.230469 C 52.832031 68.230469 53.128906 67.9375 53.128906 67.578125 L 53.128906 61.414062 L 53.585938 62.039062 C 53.71875 62.203125 53.914062 62.300781 54.113281 62.300781 C 54.242188 62.300781 54.375 62.265625 54.503906 62.167969 C 54.765625 62.003906 54.832031 61.578125 54.601562 61.285156 Z M 54.601562 61.285156 " fill-opacity="1" fill-rule="nonzero"/><g clip-path="url(#95a5538e8a)"><path fill="#000040" d="M 54.40625 71.507812 C 54.40625 71.769531 54.355469 72.019531 54.257812 72.261719 C 54.15625 72.503906 54.015625 72.714844 53.832031 72.898438 C 53.644531 73.085938 53.433594 73.226562 53.191406 73.328125 C 52.953125 73.425781 52.699219 73.476562 52.441406 73.476562 C 52.179688 73.476562 51.929688 73.425781 51.6875 73.328125 C 51.445312 73.226562 51.234375 73.085938 51.050781 72.898438 C 50.863281 72.714844 50.722656 72.503906 50.625 72.261719 C 50.523438 72.019531 50.472656 71.769531 50.472656 71.507812 C 50.472656 71.25 50.523438 70.996094 50.625 70.757812 C 50.722656 70.515625 50.863281 70.304688 51.050781 70.117188 C 51.234375 69.933594 51.445312 69.792969 51.6875 69.691406 C 51.929688 69.59375 52.179688 69.542969 52.441406 69.542969 C 52.699219 69.542969 52.953125 69.59375 53.191406 69.691406 C 53.433594 69.792969 53.644531 69.933594 53.832031 70.117188 C 54.015625 70.304688 54.15625 70.515625 54.257812 70.757812 C 54.355469 70.996094 54.40625 71.25 54.40625 71.507812 Z M 54.40625 71.507812 " fill-opacity="1" fill-rule="nonzero"/></g><path fill="#000040" d="M 67.515625 51.84375 L 61.355469 51.84375 L 61.976562 51.386719 C 62.273438 51.1875 62.339844 50.761719 62.140625 50.46875 C 61.945312 50.171875 61.519531 50.105469 61.222656 50.304688 L 58.929688 51.941406 C 58.765625 52.074219 58.667969 52.269531 58.667969 52.46875 C 58.667969 52.664062 58.765625 52.894531 58.929688 52.992188 L 61.222656 54.628906 C 61.355469 54.730469 61.484375 54.761719 61.617188 54.761719 C 61.8125 54.761719 62.011719 54.664062 62.140625 54.5 C 62.339844 54.203125 62.273438 53.8125 61.976562 53.582031 L 61.355469 53.15625 L 67.515625 53.15625 C 67.878906 53.15625 68.171875 52.859375 68.171875 52.5 C 68.171875 52.140625 67.878906 51.84375 67.515625 51.84375 Z M 67.515625 51.84375 " fill-opacity="1" fill-rule="nonzero"/><g clip-path="url(#24b005da7f)"><path fill="#000040" d="M 73.414062 52.5 C 73.414062 52.761719 73.367188 53.011719 73.265625 53.253906 C 73.167969 53.492188 73.023438 53.707031 72.839844 53.890625 C 72.65625 54.074219 72.441406 54.21875 72.203125 54.316406 C 71.960938 54.417969 71.710938 54.464844 71.449219 54.464844 C 71.1875 54.464844 70.9375 54.417969 70.695312 54.316406 C 70.457031 54.21875 70.242188 54.074219 70.058594 53.890625 C 69.875 53.707031 69.734375 53.492188 69.632812 53.253906 C 69.53125 53.011719 69.484375 52.761719 69.484375 52.5 C 69.484375 52.238281 69.53125 51.988281 69.632812 51.746094 C 69.734375 51.507812 69.875 51.292969 70.058594 51.109375 C 70.242188 50.925781 70.457031 50.78125 70.695312 50.683594 C 70.9375 50.582031 71.1875 50.535156 71.449219 50.535156 C 71.710938 50.535156 71.960938 50.582031 72.203125 50.683594 C 72.441406 50.78125 72.65625 50.925781 72.839844 51.109375 C 73.023438 51.292969 73.167969 51.507812 73.265625 51.746094 C 73.367188 51.988281 73.414062 52.238281 73.414062 52.5 Z M 73.414062 52.5 " fill-opacity="1" fill-rule="nonzero"/></g><path fill="#000040" d="M 43.523438 53.15625 L 42.902344 53.613281 C 42.609375 53.8125 42.542969 54.238281 42.738281 54.53125 C 42.871094 54.695312 43.066406 54.792969 43.261719 54.792969 C 43.394531 54.792969 43.523438 54.761719 43.65625 54.664062 L 45.949219 53.023438 C 46.113281 52.894531 46.210938 52.695312 46.210938 52.5 C 46.210938 52.304688 46.113281 52.074219 45.949219 51.976562 L 43.65625 50.335938 C 43.359375 50.140625 42.96875 50.207031 42.738281 50.5 C 42.542969 50.796875 42.609375 51.1875 42.902344 51.417969 L 43.523438 51.878906 L 37.363281 51.878906 C 37.003906 51.878906 36.707031 52.171875 36.707031 52.53125 C 36.707031 52.894531 37.003906 53.1875 37.363281 53.1875 L 43.523438 53.1875 Z M 43.523438 53.15625 " fill-opacity="1" fill-rule="nonzero"/><g clip-path="url(#7e8a05c5cc)"><path fill="#000040" d="M 35.398438 52.5 C 35.398438 52.761719 35.347656 53.011719 35.246094 53.253906 C 35.148438 53.492188 35.003906 53.707031 34.820312 53.890625 C 34.636719 54.074219 34.425781 54.21875 34.183594 54.316406 C 33.941406 54.417969 33.691406 54.464844 33.429688 54.464844 C 33.167969 54.464844 32.917969 54.417969 32.679688 54.316406 C 32.4375 54.21875 32.222656 54.074219 32.039062 53.890625 C 31.855469 53.707031 31.714844 53.492188 31.613281 53.253906 C 31.515625 53.011719 31.464844 52.761719 31.464844 52.5 C 31.464844 52.238281 31.515625 51.988281 31.613281 51.746094 C 31.714844 51.507812 31.855469 51.292969 32.039062 51.109375 C 32.222656 50.925781 32.4375 50.78125 32.679688 50.683594 C 32.917969 50.582031 33.167969 50.535156 33.429688 50.535156 C 33.691406 50.535156 33.941406 50.582031 34.183594 50.683594 C 34.425781 50.78125 34.636719 50.925781 34.820312 51.109375 C 35.003906 51.292969 35.148438 51.507812 35.246094 51.746094 C 35.347656 51.988281 35.398438 52.238281 35.398438 52.5 Z M 35.398438 52.5 " fill-opacity="1" fill-rule="nonzero"/></g><path fill="#000040" d="M 60.730469 57.941406 C 60.796875 57.582031 60.535156 57.253906 60.207031 57.1875 L 57.421875 56.726562 C 57.226562 56.695312 56.996094 56.761719 56.863281 56.925781 C 56.699219 57.089844 56.636719 57.285156 56.667969 57.480469 L 57.125 60.269531 C 57.191406 60.59375 57.453125 60.824219 57.78125 60.824219 C 57.816406 60.824219 57.847656 60.824219 57.878906 60.824219 C 58.242188 60.757812 58.46875 60.429688 58.40625 60.070312 L 58.273438 59.316406 L 62.632812 63.675781 C 62.765625 63.808594 62.929688 63.871094 63.09375 63.871094 C 63.253906 63.871094 63.417969 63.808594 63.550781 63.675781 C 63.8125 63.414062 63.8125 63.019531 63.550781 62.757812 L 59.222656 58.332031 L 59.976562 58.464844 C 60.339844 58.53125 60.667969 58.300781 60.730469 57.941406 Z M 60.730469 57.941406 " fill-opacity="1" fill-rule="nonzero"/><path fill="#000040" d="M 65.878906 63.972656 C 65.386719 63.972656 64.863281 64.167969 64.5 64.5625 C 63.746094 65.316406 63.746094 66.558594 64.5 67.347656 C 64.894531 67.742188 65.386719 67.9375 65.878906 67.9375 C 66.371094 67.9375 66.894531 67.742188 67.253906 67.347656 C 68.007812 66.59375 68.007812 65.347656 67.253906 64.5625 C 66.894531 64.167969 66.371094 63.972656 65.878906 63.972656 Z M 66.335938 66.398438 C 66.171875 66.558594 65.976562 66.59375 65.878906 66.59375 C 65.78125 66.59375 65.582031 66.558594 65.417969 66.398438 C 65.253906 66.234375 65.222656 66.035156 65.222656 65.9375 C 65.222656 65.839844 65.253906 65.644531 65.417969 65.480469 C 65.582031 65.316406 65.78125 65.28125 65.878906 65.28125 C 65.976562 65.28125 66.171875 65.316406 66.335938 65.480469 C 66.5 65.644531 66.535156 65.839844 66.535156 65.9375 C 66.535156 66.035156 66.5 66.234375 66.335938 66.398438 Z M 66.335938 66.398438 " fill-opacity="1" fill-rule="nonzero"/><path fill="#000040" d="M 44.148438 47.058594 C 44.082031 47.417969 44.34375 47.746094 44.671875 47.8125 L 47.457031 48.273438 C 47.492188 48.273438 47.523438 48.273438 47.554688 48.273438 C 47.71875 48.273438 47.882812 48.207031 48.015625 48.074219 C 48.179688 47.910156 48.246094 47.714844 48.210938 47.519531 L 47.753906 44.730469 C 47.6875 44.371094 47.359375 44.140625 47 44.207031 C 46.640625 44.273438 46.410156 44.601562 46.476562 44.960938 L 46.605469 45.714844 L 42.246094 41.390625 C 41.984375 41.128906 41.589844 41.128906 41.328125 41.390625 C 41.066406 41.652344 41.066406 42.042969 41.328125 42.308594 L 45.6875 46.667969 L 44.902344 46.535156 C 44.542969 46.46875 44.214844 46.699219 44.148438 47.058594 Z M 44.148438 47.058594 " fill-opacity="1" fill-rule="nonzero"/><path fill="#000040" d="M 37.59375 37.652344 C 36.839844 38.40625 36.839844 39.652344 37.59375 40.4375 C 37.984375 40.832031 38.476562 41.027344 38.96875 41.027344 C 39.460938 41.027344 39.984375 40.832031 40.347656 40.4375 C 41.101562 39.683594 41.101562 38.441406 40.347656 37.652344 C 40.019531 37.292969 39.492188 37.097656 39.003906 37.097656 C 38.511719 37.097656 37.984375 37.292969 37.59375 37.652344 Z M 39.65625 39.0625 C 39.65625 39.160156 39.625 39.355469 39.460938 39.519531 C 39.296875 39.683594 39.101562 39.71875 39.003906 39.71875 C 38.902344 39.71875 38.707031 39.683594 38.542969 39.519531 C 38.378906 39.355469 38.347656 39.160156 38.347656 39.0625 C 38.347656 38.964844 38.378906 38.765625 38.542969 38.601562 C 38.707031 38.441406 38.902344 38.40625 39.003906 38.40625 C 39.101562 38.40625 39.296875 38.441406 39.460938 38.601562 C 39.625 38.765625 39.65625 38.964844 39.65625 39.0625 Z M 39.65625 39.0625 " fill-opacity="1" fill-rule="nonzero"/><path fill="#000040" d="M 47 60.792969 C 47.03125 60.792969 47.066406 60.792969 47.097656 60.792969 C 47.425781 60.792969 47.6875 60.5625 47.753906 60.234375 L 48.210938 57.449219 C 48.246094 57.253906 48.179688 57.023438 48.015625 56.890625 C 47.851562 56.726562 47.65625 56.664062 47.457031 56.695312 L 44.671875 57.152344 C 44.3125 57.21875 44.082031 57.546875 44.148438 57.90625 C 44.214844 58.269531 44.542969 58.496094 44.902344 58.433594 L 45.65625 58.300781 L 41.328125 62.691406 C 41.066406 62.957031 41.066406 63.347656 41.328125 63.609375 C 41.460938 63.742188 41.625 63.808594 41.789062 63.808594 C 41.953125 63.808594 42.117188 63.742188 42.246094 63.609375 L 46.605469 59.25 L 46.476562 60.039062 C 46.410156 60.398438 46.640625 60.726562 47 60.792969 Z M 47 60.792969 " fill-opacity="1" fill-rule="nonzero"/><path fill="#000040" d="M 40.378906 64.5625 C 40.019531 64.167969 39.492188 63.972656 39.003906 63.972656 C 38.511719 63.972656 37.984375 64.167969 37.625 64.5625 C 36.871094 65.316406 36.871094 66.558594 37.625 67.347656 C 38.019531 67.742188 38.511719 67.9375 39.003906 67.9375 C 39.492188 67.9375 40.019531 67.742188 40.378906 67.347656 C 41.164062 66.558594 41.164062 65.316406 40.378906 64.5625 Z M 39.460938 66.398438 C 39.296875 66.558594 39.101562 66.59375 39.003906 66.59375 C 38.902344 66.59375 38.707031 66.558594 38.542969 66.398438 C 38.378906 66.234375 38.347656 66.035156 38.347656 65.9375 C 38.347656 65.839844 38.378906 65.644531 38.542969 65.480469 C 38.707031 65.316406 38.902344 65.28125 39.003906 65.28125 C 39.101562 65.28125 39.296875 65.316406 39.460938 65.480469 C 39.625 65.644531 39.65625 65.839844 39.65625 65.9375 C 39.65625 66.035156 39.625 66.234375 39.460938 66.398438 Z M 39.460938 66.398438 " fill-opacity="1" fill-rule="nonzero"/><path fill="#000040" d="M 57.878906 44.207031 C 57.519531 44.140625 57.191406 44.40625 57.125 44.730469 L 56.667969 47.519531 C 56.636719 47.714844 56.699219 47.945312 56.863281 48.074219 C 56.996094 48.207031 57.160156 48.273438 57.324219 48.273438 C 57.355469 48.273438 57.390625 48.273438 57.421875 48.273438 L 60.207031 47.8125 C 60.566406 47.746094 60.796875 47.417969 60.730469 47.058594 C 60.667969 46.699219 60.339844 46.46875 59.976562 46.535156 L 59.222656 46.667969 L 63.582031 42.308594 C 63.84375 42.042969 63.84375 41.652344 63.582031 41.390625 C 63.320312 41.128906 62.929688 41.128906 62.664062 41.390625 L 58.273438 45.714844 L 58.40625 44.960938 C 58.46875 44.601562 58.242188 44.273438 57.878906 44.207031 Z M 57.878906 44.207031 " fill-opacity="1" fill-rule="nonzero"/><path fill="#000040" d="M 67.285156 40.4375 C 68.039062 39.683594 68.039062 38.441406 67.285156 37.652344 C 66.894531 37.257812 66.402344 37.0625 65.910156 37.0625 C 65.417969 37.0625 64.894531 37.257812 64.535156 37.652344 C 63.78125 38.40625 63.78125 39.652344 64.535156 40.4375 C 64.925781 40.832031 65.417969 41.027344 65.910156 41.027344 C 66.371094 41.027344 66.894531 40.832031 67.285156 40.4375 Z M 65.222656 39.0625 C 65.222656 38.964844 65.253906 38.765625 65.417969 38.601562 C 65.582031 38.441406 65.78125 38.40625 65.878906 38.40625 C 65.976562 38.40625 66.171875 38.441406 66.335938 38.601562 C 66.5 38.765625 66.535156 38.964844 66.535156 39.0625 C 66.535156 39.160156 66.5 39.355469 66.335938 39.519531 C 66.171875 39.683594 65.976562 39.71875 65.878906 39.71875 C 65.78125 39.71875 65.582031 39.683594 65.417969 39.519531 C 65.253906 39.355469 65.222656 39.160156 65.222656 39.0625 Z M 65.222656 39.0625 " fill-opacity="1" fill-rule="nonzero"/></svg>