<svg xmlns="http://www.w3.org/2000/svg" xmlns:xlink="http://www.w3.org/1999/xlink" width="140" zoomAndPan="magnify" viewBox="0 0 104.88 104.999996" height="140" preserveAspectRatio="xMidYMid meet" version="1.0"><defs><clipPath id="72d0d51fb7"><path d="M 0 0.0585938 L 104.761719 0.0585938 L 104.761719 104.9375 L 0 104.9375 Z M 0 0.0585938 " clip-rule="nonzero"/></clipPath><clipPath id="4b0f386e08"><path d="M 0 7.074219 L 104.761719 7.074219 L 104.761719 97.71875 L 0 97.71875 Z M 0 7.074219 " clip-rule="nonzero"/></clipPath><clipPath id="b580f19778"><path d="M 31.464844 37.921875 L 73.414062 37.921875 L 73.414062 67.136719 L 31.464844 67.136719 Z M 31.464844 37.921875 " clip-rule="nonzero"/></clipPath></defs><g clip-path="url(#72d0d51fb7)"><path fill="#ffffff" d="M 0 0.0585938 L 104.878906 0.0585938 L 104.878906 104.941406 L 0 104.941406 Z M 0 0.0585938 " fill-opacity="1" fill-rule="nonzero"/><path fill="#ffffff" d="M 0 0.0585938 L 104.878906 0.0585938 L 104.878906 104.941406 L 0 104.941406 Z M 0 0.0585938 " fill-opacity="1" fill-rule="nonzero"/></g><g clip-path="url(#4b0f386e08)"><path fill="#336699" d="M 26.21875 97.910156 L 0 52.496094 L 26.21875 7.082031 L 78.660156 7.082031 L 104.878906 52.496094 L 78.660156 97.910156 Z M 26.21875 97.910156 " fill-opacity="1" fill-rule="nonzero"/></g><g clip-path="url(#b580f19778)"><path fill="#ffffff" d="M 36.046875 37.921875 C 33.539062 37.921875 31.492188 39.972656 31.492188 42.476562 L 31.492188 62.515625 C 31.492188 65.019531 33.539062 67.066406 36.046875 67.066406 L 68.835938 67.066406 C 71.339844 67.066406 73.390625 65.019531 73.390625 62.515625 L 73.390625 42.476562 C 73.390625 39.972656 71.339844 37.921875 68.835938 37.921875 Z M 36.046875 39.742188 L 68.835938 39.742188 C 70.355469 39.742188 71.566406 40.957031 71.566406 42.476562 L 71.566406 62.515625 C 71.566406 64.03125 70.355469 65.246094 68.835938 65.246094 L 36.046875 65.246094 C 34.527344 65.246094 33.3125 64.03125 33.3125 62.515625 L 33.3125 42.476562 C 33.3125 40.957031 34.527344 39.742188 36.046875 39.742188 Z M 50.617188 40.652344 C 50.117188 40.652344 49.707031 41.0625 49.707031 41.566406 C 49.707031 42.066406 50.117188 42.476562 50.617188 42.476562 C 51.121094 42.476562 51.527344 42.066406 51.527344 41.566406 C 51.527344 41.0625 51.121094 40.652344 50.617188 40.652344 Z M 41.910156 42.476562 C 39.597656 42.476562 38.734375 44.277344 39.402344 45.804688 C 39.320312 45.859375 39.199219 46.019531 39.234375 46.316406 C 39.296875 46.875 39.519531 47.019531 39.660156 47.03125 C 39.714844 47.554688 40.046875 48.1875 40.230469 48.28125 C 40.230469 48.65625 40.238281 48.925781 40.199219 49.335938 C 39.769531 50.527344 37.089844 50.195312 36.957031 52.496094 L 46.0625 52.496094 C 45.929688 50.195312 43.054688 50.527344 42.621094 49.335938 C 42.585938 48.925781 42.589844 48.65625 42.589844 48.28125 C 42.773438 48.1875 43.109375 47.554688 43.160156 47.03125 C 43.304688 47.019531 43.523438 46.875 43.589844 46.316406 C 43.625 46.019531 43.503906 45.839844 43.390625 45.804688 C 43.816406 45.246094 43.746094 42.988281 42.136719 42.988281 Z M 50.617188 43.386719 C 50.117188 43.386719 49.707031 43.796875 49.707031 44.296875 C 49.707031 44.800781 50.117188 45.207031 50.617188 45.207031 C 51.121094 45.207031 51.527344 44.800781 51.527344 44.296875 C 51.527344 43.796875 51.121094 43.386719 50.617188 43.386719 Z M 50.617188 46.117188 C 50.117188 46.117188 49.707031 46.527344 49.707031 47.03125 C 49.707031 47.53125 50.117188 47.941406 50.617188 47.941406 C 51.121094 47.941406 51.527344 47.53125 51.527344 47.03125 C 51.527344 46.527344 51.121094 46.117188 50.617188 46.117188 Z M 55 46.117188 C 54.5 46.164062 54.128906 46.613281 54.175781 47.117188 C 54.222656 47.617188 54.671875 47.988281 55.171875 47.941406 L 67.011719 47.941406 C 67.339844 47.945312 67.644531 47.773438 67.8125 47.488281 C 67.976562 47.203125 67.976562 46.855469 67.8125 46.570312 C 67.644531 46.285156 67.339844 46.117188 67.011719 46.117188 L 55.171875 46.117188 C 55.144531 46.117188 55.117188 46.117188 55.085938 46.117188 C 55.058594 46.117188 55.03125 46.117188 55 46.117188 Z M 50.617188 48.851562 C 50.117188 48.851562 49.707031 49.261719 49.707031 49.761719 C 49.707031 50.265625 50.117188 50.671875 50.617188 50.671875 C 51.121094 50.671875 51.527344 50.265625 51.527344 49.761719 C 51.527344 49.261719 51.121094 48.851562 50.617188 48.851562 Z M 55 49.761719 C 54.5 49.808594 54.128906 50.257812 54.175781 50.757812 C 54.222656 51.261719 54.671875 51.628906 55.171875 51.585938 L 64.28125 51.585938 C 64.609375 51.585938 64.914062 51.417969 65.082031 51.132812 C 65.246094 50.847656 65.246094 50.5 65.082031 50.214844 C 64.914062 49.929688 64.609375 49.757812 64.28125 49.761719 L 55.171875 49.761719 C 55.144531 49.761719 55.117188 49.761719 55.085938 49.761719 C 55.058594 49.761719 55.03125 49.761719 55 49.761719 Z M 50.617188 51.585938 C 50.117188 51.585938 49.707031 51.992188 49.707031 52.496094 C 49.707031 52.996094 50.117188 53.40625 50.617188 53.40625 C 51.121094 53.40625 51.527344 52.996094 51.527344 52.496094 C 51.527344 51.992188 51.121094 51.585938 50.617188 51.585938 Z M 55 53.40625 C 54.5 53.453125 54.128906 53.898438 54.175781 54.402344 C 54.222656 54.902344 54.671875 55.273438 55.171875 55.226562 L 67.011719 55.226562 C 67.339844 55.230469 67.644531 55.058594 67.8125 54.777344 C 67.976562 54.492188 67.976562 54.140625 67.8125 53.859375 C 67.644531 53.574219 67.339844 53.402344 67.011719 53.40625 L 55.171875 53.40625 C 55.144531 53.40625 55.117188 53.40625 55.085938 53.40625 C 55.058594 53.40625 55.03125 53.40625 55 53.40625 Z M 39.433594 54.316406 C 38.652344 54.316406 37.941406 54.828125 37.695312 55.570312 L 37.011719 57.675781 L 36.957031 57.816406 L 36.957031 62.058594 C 36.957031 62.3125 37.160156 62.515625 37.410156 62.515625 L 38.320312 62.515625 C 38.574219 62.515625 38.777344 62.3125 38.777344 62.058594 L 38.777344 61.601562 L 44.242188 61.601562 L 44.242188 62.058594 C 44.242188 62.3125 44.445312 62.515625 44.699219 62.515625 L 45.609375 62.515625 C 45.863281 62.515625 46.0625 62.3125 46.0625 62.058594 L 46.0625 57.816406 L 46.007812 57.675781 L 45.324219 55.570312 C 45.078125 54.824219 44.367188 54.316406 43.589844 54.316406 Z M 50.617188 54.316406 C 50.117188 54.316406 49.707031 54.726562 49.707031 55.226562 C 49.707031 55.730469 50.117188 56.136719 50.617188 56.136719 C 51.121094 56.136719 51.527344 55.730469 51.527344 55.226562 C 51.527344 54.726562 51.121094 54.316406 50.617188 54.316406 Z M 39.433594 56.136719 L 43.589844 56.136719 L 44.214844 57.960938 L 38.804688 57.960938 Z M 50.617188 57.050781 C 50.117188 57.050781 49.707031 57.457031 49.707031 57.960938 C 49.707031 58.460938 50.117188 58.871094 50.617188 58.871094 C 51.121094 58.871094 51.527344 58.460938 51.527344 57.960938 C 51.527344 57.457031 51.121094 57.050781 50.617188 57.050781 Z M 55 57.050781 C 54.5 57.09375 54.128906 57.542969 54.175781 58.046875 C 54.222656 58.546875 54.671875 58.917969 55.171875 58.871094 L 64.28125 58.871094 C 64.609375 58.875 64.914062 58.703125 65.082031 58.417969 C 65.246094 58.132812 65.246094 57.785156 65.082031 57.5 C 64.914062 57.214844 64.609375 57.046875 64.28125 57.050781 L 55.171875 57.050781 C 55.144531 57.050781 55.117188 57.050781 55.085938 57.050781 C 55.058594 57.050781 55.03125 57.050781 55 57.050781 Z M 38.777344 58.871094 C 39.28125 58.871094 39.6875 59.28125 39.6875 59.78125 C 39.6875 60.28125 39.28125 60.691406 38.777344 60.691406 C 38.277344 60.691406 37.867188 60.28125 37.867188 59.78125 C 37.867188 59.28125 38.277344 58.871094 38.777344 58.871094 Z M 44.242188 58.871094 C 44.746094 58.871094 45.152344 59.28125 45.152344 59.78125 C 45.152344 60.28125 44.746094 60.691406 44.242188 60.691406 C 43.742188 60.691406 43.332031 60.28125 43.332031 59.78125 C 43.332031 59.28125 43.742188 58.871094 44.242188 58.871094 Z M 50.617188 59.78125 C 50.117188 59.78125 49.707031 60.191406 49.707031 60.691406 C 49.707031 61.195312 50.117188 61.601562 50.617188 61.601562 C 51.121094 61.601562 51.527344 61.195312 51.527344 60.691406 C 51.527344 60.191406 51.121094 59.78125 50.617188 59.78125 Z M 50.617188 62.515625 C 50.117188 62.515625 49.707031 62.921875 49.707031 63.425781 C 49.707031 63.925781 50.117188 64.335938 50.617188 64.335938 C 51.121094 64.335938 51.527344 63.925781 51.527344 63.425781 C 51.527344 62.921875 51.121094 62.515625 50.617188 62.515625 Z M 50.617188 62.515625 " fill-opacity="1" fill-rule="nonzero"/></g></svg>