<svg xmlns="http://www.w3.org/2000/svg" xmlns:xlink="http://www.w3.org/1999/xlink" width="140" zoomAndPan="magnify" viewBox="0 0 104.88 104.999996" height="140" preserveAspectRatio="xMidYMid meet" version="1.0"><defs><clipPath id="f06c35abd9"><path d="M 0 7.074219 L 104.761719 7.074219 L 104.761719 97.71875 L 0 97.71875 Z M 0 7.074219 " clip-rule="nonzero"/></clipPath><clipPath id="04fb450846"><path d="M 31.464844 34.613281 L 73 34.613281 L 73 70.570312 L 31.464844 70.570312 Z M 31.464844 34.613281 " clip-rule="nonzero"/></clipPath></defs><g clip-path="url(#f06c35abd9)"><path fill="#336693" d="M 26.21875 97.910156 L 0 52.496094 L 26.21875 7.082031 L 78.660156 7.082031 L 104.878906 52.496094 L 78.660156 97.910156 Z M 26.21875 97.910156 " fill-opacity="1" fill-rule="nonzero"/></g><g clip-path="url(#04fb450846)"><path fill="#ffffff" d="M 72.308594 66.121094 L 54.582031 36.007812 C 54.457031 35.796875 54.304688 35.605469 54.132812 35.433594 C 53.957031 35.257812 53.761719 35.113281 53.546875 34.988281 C 53.335938 34.867188 53.109375 34.773438 52.871094 34.710938 C 52.632812 34.648438 52.390625 34.617188 52.144531 34.617188 C 51.898438 34.617188 51.660156 34.648438 51.421875 34.710938 C 51.183594 34.773438 50.957031 34.867188 50.746094 34.988281 C 50.53125 35.113281 50.335938 35.257812 50.160156 35.433594 C 49.988281 35.605469 49.835938 35.796875 49.710938 36.007812 L 31.984375 66.121094 C 31.726562 66.558594 31.597656 67.03125 31.59375 67.539062 C 31.589844 68.042969 31.714844 68.519531 31.964844 68.957031 C 32.21875 69.398438 32.5625 69.746094 33 70 C 33.4375 70.253906 33.910156 70.382812 34.417969 70.382812 L 69.875 70.382812 C 72.058594 70.382812 73.417969 68.003906 72.308594 66.121094 Z M 34.96875 67.351562 L 51.929688 38.992188 L 68.894531 67.351562 Z M 34.96875 67.351562 " fill-opacity="1" fill-rule="nonzero"/></g><path fill="#ffffff" d="M 49.847656 63.25 C 49.847656 61.976562 50.730469 61.058594 51.929688 61.058594 C 53.203125 61.058594 54.015625 61.976562 54.015625 63.25 C 54.015625 64.488281 53.203125 65.441406 51.929688 65.441406 C 50.695312 65.441406 49.847656 64.488281 49.847656 63.25 Z M 50.742188 59.328125 L 49.878906 47.371094 C 49.835938 46.777344 50.773438 46.289062 51.929688 46.289062 C 53.085938 46.289062 54.027344 46.777344 53.984375 47.371094 L 53.121094 59.328125 C 53.09375 59.734375 52.570312 60.054688 51.929688 60.054688 C 51.292969 60.054688 50.769531 59.734375 50.742188 59.328125 Z M 50.742188 59.328125 " fill-opacity="1" fill-rule="nonzero"/></svg>