<svg xmlns="http://www.w3.org/2000/svg" xmlns:xlink="http://www.w3.org/1999/xlink" width="140" zoomAndPan="magnify" viewBox="0 0 104.88 104.999996" height="140" preserveAspectRatio="xMidYMid meet" version="1.0"><defs><clipPath id="cd071a2c5e"><path d="M 0 7.074219 L 104.761719 7.074219 L 104.761719 97.71875 L 0 97.71875 Z M 0 7.074219 " clip-rule="nonzero"/></clipPath><clipPath id="530703b909"><path d="M 31.464844 33 L 73.414062 33 L 73.414062 71.921875 L 31.464844 71.921875 Z M 31.464844 33 " clip-rule="nonzero"/></clipPath></defs><g clip-path="url(#cd071a2c5e)"><path fill="#ffffff" d="M 26.21875 97.710938 L 0 52.398438 L 26.21875 7.082031 L 78.660156 7.082031 L 104.878906 52.398438 L 78.660156 97.710938 Z M 26.21875 97.710938 " fill-opacity="1" fill-rule="nonzero"/></g><g clip-path="url(#530703b909)"><path fill="#000040" d="M 33.449219 34.796875 L 71.421875 34.796875 C 71.609375 34.796875 71.757812 34.941406 71.757812 35.125 L 71.757812 60.828125 C 71.757812 61.011719 71.609375 61.15625 71.421875 61.15625 L 33.449219 61.15625 C 33.265625 61.15625 33.117188 61.011719 33.117188 60.828125 L 33.117188 35.125 C 33.117188 34.941406 33.265625 34.796875 33.449219 34.796875 Z M 32.292969 33.140625 C 31.835938 33.140625 31.464844 33.511719 31.464844 33.96875 L 31.464844 61.992188 C 31.464844 62.449219 31.835938 62.816406 32.289062 62.816406 C 32.292969 62.816406 32.292969 62.816406 32.292969 62.816406 L 48.242188 62.816406 C 48.699219 62.816406 49.074219 63.191406 49.074219 63.648438 L 49.074219 65.152344 C 49.074219 67.898438 46.847656 70.125 44.101562 70.125 L 43.710938 70.125 L 43.710938 71.824219 L 61.171875 71.824219 L 61.171875 70.125 L 60.777344 70.125 C 58.035156 70.125 55.808594 67.898438 55.808594 65.152344 L 55.808594 63.648438 C 55.808594 63.191406 56.179688 62.816406 56.636719 62.816406 L 72.589844 62.816406 C 73.042969 62.816406 73.414062 62.449219 73.414062 61.992188 L 73.414062 33.96875 C 73.414062 33.511719 73.042969 33.140625 72.589844 33.140625 L 32.292969 33.140625 " fill-opacity="1" fill-rule="nonzero"/></g><path fill="#000040" d="M 38.601562 55.117188 C 38.335938 55.121094 38.128906 55.335938 38.128906 55.601562 C 38.132812 55.855469 38.34375 56.066406 38.601562 56.070312 L 47.300781 56.070312 C 47.566406 56.066406 47.773438 55.847656 47.769531 55.589844 C 47.765625 55.328125 47.558594 55.121094 47.300781 55.117188 L 38.601562 55.117188 " fill-opacity="1" fill-rule="nonzero"/><path fill="#000040" d="M 38.601562 53.101562 C 38.335938 53.105469 38.128906 53.320312 38.128906 53.585938 C 38.132812 53.839844 38.34375 54.050781 38.601562 54.054688 L 47.300781 54.054688 C 47.566406 54.050781 47.773438 53.835938 47.769531 53.574219 C 47.765625 53.3125 47.558594 53.105469 47.300781 53.101562 L 38.601562 53.101562 " fill-opacity="1" fill-rule="nonzero"/><path fill="#000040" d="M 43.425781 38.550781 L 43.425781 44.316406 L 48.417969 47.195312 C 49.855469 44.171875 48.578125 40.558594 45.558594 39.121094 C 44.886719 38.800781 44.164062 38.609375 43.425781 38.550781 " fill-opacity="1" fill-rule="nonzero"/><path fill="#000040" d="M 42.472656 38.550781 L 42.472656 44.863281 L 47.941406 48.019531 C 46.046875 50.777344 42.277344 51.472656 39.519531 49.578125 C 36.765625 47.679688 36.0625 43.914062 37.960938 41.15625 C 38.996094 39.652344 40.652344 38.695312 42.472656 38.550781 " fill-opacity="1" fill-rule="nonzero"/><path fill="#000040" d="M 61.070312 46.070312 L 58.992188 42.777344 C 58.710938 42.328125 58.125 42.199219 57.675781 42.476562 C 57.589844 42.53125 57.515625 42.597656 57.453125 42.675781 L 54.773438 45.90625 L 54.035156 45.292969 L 56.71875 42.066406 C 57.394531 41.257812 58.597656 41.144531 59.40625 41.820312 C 59.558594 41.945312 59.691406 42.097656 59.800781 42.265625 L 61.878906 45.558594 C 62.160156 46.003906 62.746094 46.140625 63.191406 45.855469 C 63.292969 45.792969 63.378906 45.714844 63.445312 45.621094 L 66.53125 41.503906 L 66.070312 41.160156 L 67.8125 40.578125 L 67.746094 42.417969 L 67.292969 42.078125 L 64.210938 46.191406 C 63.578125 47.039062 62.382812 47.207031 61.542969 46.578125 C 61.355469 46.4375 61.195312 46.265625 61.074219 46.070312 L 61.070312 46.070312 " fill-opacity="1" fill-rule="nonzero"/><path fill="#000040" d="M 65.628906 45.804688 L 67.445312 45.804688 L 67.445312 54.453125 L 65.628906 54.453125 L 65.628906 45.804688 " fill-opacity="1" fill-rule="nonzero"/><path fill="#000040" d="M 61.414062 54.453125 L 61.414062 49.53125 L 63.238281 49.53125 L 63.238281 54.453125 L 61.414062 54.453125 " fill-opacity="1" fill-rule="nonzero"/><path fill="#000040" d="M 57.203125 54.453125 L 57.203125 44.714844 L 59.023438 44.714844 L 59.023438 54.453125 L 57.203125 54.453125 " fill-opacity="1" fill-rule="nonzero"/><path fill="#000040" d="M 54.8125 54.453125 L 52.996094 54.453125 L 52.996094 47.457031 L 54.8125 47.457031 L 54.8125 54.453125 " fill-opacity="1" fill-rule="nonzero"/></svg>