<svg width="110" height="110" viewBox="0 0 110 110" fill="none" xmlns="http://www.w3.org/2000/svg">
<rect width="110" height="110" rx="55" fill="#F0F5FF"/>
<path d="M56.7322 36.9999L75.7842 69.9999C75.9597 70.3039 76.0521 70.6488 76.0521 70.9999C76.0521 71.351 75.9597 71.6959 75.7842 71.9999C75.6087 72.3039 75.3562 72.5564 75.0522 72.7319C74.7481 72.9075 74.4033 72.9999 74.0522 72.9999H35.9482C35.5971 72.9999 35.2522 72.9075 34.9482 72.7319C34.6442 72.5564 34.3917 72.3039 34.2162 71.9999C34.0406 71.6959 33.9482 71.351 33.9482 70.9999C33.9482 70.6488 34.0407 70.3039 34.2162 69.9999L53.2682 36.9999C53.4437 36.6959 53.6962 36.4434 54.0002 36.2679C54.3043 36.0924 54.6491 36 55.0002 36C55.3512 36 55.6961 36.0924 56.0001 36.2679C56.3042 36.4434 56.5566 36.6959 56.7322 36.9999ZM39.4122 68.9999H70.5882L55.0002 41.9999L39.4122 68.9999ZM53.0002 62.9999H57.0002V66.9999H53.0002V62.9999ZM53.0002 48.9999H57.0002V58.9999H53.0002V48.9999Z" fill="#243D66"/>
</svg>
