<svg xmlns="http://www.w3.org/2000/svg" xmlns:xlink="http://www.w3.org/1999/xlink" width="140" zoomAndPan="magnify" viewBox="0 0 104.88 104.999996" height="140" preserveAspectRatio="xMidYMid meet" version="1.0"><defs><clipPath id="48774d2eef"><path d="M 0 7.074219 L 104.761719 7.074219 L 104.761719 97.71875 L 0 97.71875 Z M 0 7.074219 " clip-rule="nonzero"/></clipPath><clipPath id="fa78e90b67"><path d="M 56 39 L 76 39 L 76 67 L 56 67 Z M 56 39 " clip-rule="nonzero"/></clipPath><clipPath id="e0b9d6ab19"><path d="M 51.976562 23.300781 L 81.640625 52.964844 L 53.035156 81.570312 L 23.371094 51.902344 Z M 51.976562 23.300781 " clip-rule="nonzero"/></clipPath><clipPath id="f7f7517c61"><path d="M 51.976562 23.300781 L 81.640625 52.964844 L 53.035156 81.570312 L 23.371094 51.902344 Z M 51.976562 23.300781 " clip-rule="nonzero"/></clipPath><clipPath id="8c11d38b60"><path d="M 29 39 L 49 39 L 49 67 L 29 67 Z M 29 39 " clip-rule="nonzero"/></clipPath><clipPath id="ea69a9e0b5"><path d="M 51.976562 23.300781 L 81.640625 52.964844 L 53.035156 81.570312 L 23.371094 51.902344 Z M 51.976562 23.300781 " clip-rule="nonzero"/></clipPath><clipPath id="73bd4730c5"><path d="M 51.976562 23.300781 L 81.640625 52.964844 L 53.035156 81.570312 L 23.371094 51.902344 Z M 51.976562 23.300781 " clip-rule="nonzero"/></clipPath><clipPath id="1a30746894"><path d="M 40 50 L 66 50 L 66 56 L 40 56 Z M 40 50 " clip-rule="nonzero"/></clipPath><clipPath id="a8272f6069"><path d="M 51.976562 23.300781 L 81.640625 52.964844 L 53.035156 81.570312 L 23.371094 51.902344 Z M 51.976562 23.300781 " clip-rule="nonzero"/></clipPath><clipPath id="e7cc07de53"><path d="M 51.976562 23.300781 L 81.640625 52.964844 L 53.035156 81.570312 L 23.371094 51.902344 Z M 51.976562 23.300781 " clip-rule="nonzero"/></clipPath></defs><g clip-path="url(#48774d2eef)"><path fill="#336699" d="M 26.21875 97.910156 L 0 52.496094 L 26.21875 7.082031 L 78.660156 7.082031 L 104.878906 52.496094 L 78.660156 97.910156 Z M 26.21875 97.910156 " fill-opacity="1" fill-rule="nonzero"/></g><g clip-path="url(#fa78e90b67)"><g clip-path="url(#e0b9d6ab19)"><g clip-path="url(#f7f7517c61)"><path fill="#ffffff" d="M 71.941406 43.269531 C 69.347656 40.675781 65.910156 39.25 62.25 39.25 L 59.421875 39.25 C 58.742188 39.25 58.105469 39.515625 57.625 39.996094 C 57.144531 40.476562 56.882812 41.113281 56.882812 41.789062 C 56.882812 43.148438 58.066406 44.332031 59.421875 44.332031 L 62.25 44.332031 C 67.007812 44.332031 70.878906 48.203125 70.878906 52.960938 C 70.878906 55.269531 69.984375 57.433594 68.355469 59.0625 C 66.726562 60.691406 64.558594 61.589844 62.25 61.589844 L 59.421875 61.589844 C 58.742188 61.589844 58.105469 61.851562 57.625 62.332031 C 57.144531 62.8125 56.882812 63.449219 56.882812 64.128906 C 56.882812 64.808594 57.144531 65.445312 57.625 65.925781 C 58.105469 66.40625 58.742188 66.667969 59.421875 66.667969 L 62.25 66.667969 C 65.917969 66.667969 69.359375 65.242188 71.949219 62.65625 C 74.535156 60.070312 75.960938 56.625 75.960938 52.960938 C 75.960938 49.300781 74.535156 45.863281 71.941406 43.269531 Z M 71.941406 43.269531 " fill-opacity="1" fill-rule="nonzero"/></g></g></g><g clip-path="url(#8c11d38b60)"><g clip-path="url(#ea69a9e0b5)"><g clip-path="url(#73bd4730c5)"><path fill="#ffffff" d="M 33.859375 62.648438 C 36.449219 65.242188 39.890625 66.667969 43.546875 66.667969 L 46.378906 66.667969 C 47.054688 66.667969 47.691406 66.40625 48.171875 65.925781 C 48.652344 65.445312 48.917969 64.804688 48.917969 64.128906 C 48.917969 62.769531 47.734375 61.589844 46.375 61.589844 L 43.546875 61.589844 C 38.792969 61.589844 34.917969 57.71875 34.917969 52.960938 C 34.917969 48.203125 38.789062 44.332031 43.546875 44.332031 L 46.378906 44.332031 C 47.777344 44.332031 48.917969 43.191406 48.917969 41.789062 C 48.917969 40.390625 47.777344 39.25 46.378906 39.25 L 43.546875 39.25 C 35.988281 39.25 29.839844 45.402344 29.839844 52.960938 C 29.839844 56.617188 31.265625 60.058594 33.859375 62.648438 Z M 33.859375 62.648438 " fill-opacity="1" fill-rule="nonzero"/></g></g></g><g clip-path="url(#1a30746894)"><g clip-path="url(#a8272f6069)"><g clip-path="url(#e7cc07de53)"><path fill="#ffffff" d="M 40.699219 52.960938 C 40.699219 53.640625 40.964844 54.277344 41.445312 54.757812 C 41.925781 55.238281 42.5625 55.5 43.242188 55.5 L 62.558594 55.5 C 63.238281 55.5 63.875 55.234375 64.355469 54.753906 C 64.835938 54.277344 65.097656 53.636719 65.097656 52.960938 C 65.097656 51.601562 63.914062 50.417969 62.558594 50.417969 L 43.242188 50.417969 C 42.5625 50.417969 41.925781 50.683594 41.445312 51.164062 C 40.964844 51.644531 40.699219 52.28125 40.699219 52.960938 Z M 40.699219 52.960938 " fill-opacity="1" fill-rule="nonzero"/></g></g></g></svg>