<svg width="110" height="110" viewBox="0 0 110 110" fill="none" xmlns="http://www.w3.org/2000/svg">
<rect width="110" height="110" rx="55" fill="#F0F5FF"/>
<path opacity="0.2" d="M72.999 49L58.2718 59.5H51.7262L36.999 49L54.999 37L72.999 49Z" fill="#243D66"/>
<path d="M36.999 49V68.5C36.999 68.8978 37.1571 69.2794 37.4384 69.5607C37.7197 69.842 38.1012 70 38.499 70H71.499C71.8968 70 72.2784 69.842 72.5597 69.5607C72.841 69.2794 72.999 68.8978 72.999 68.5V49L54.999 37L36.999 49Z" stroke="#243D66" stroke-width="3" stroke-linecap="round" stroke-linejoin="round"/>
<path d="M51.7276 59.5L37.4629 69.5761" stroke="#243D66" stroke-width="3" stroke-linecap="round" stroke-linejoin="round"/>
<path d="M72.5375 69.5762L58.2725 59.5" stroke="#243D66" stroke-width="3" stroke-linecap="round" stroke-linejoin="round"/>
<path d="M72.999 48.9995L58.2718 59.4995H51.7262L36.999 48.9995" stroke="#243D66" stroke-width="3" stroke-linecap="round" stroke-linejoin="round"/>
</svg>
