<svg xmlns="http://www.w3.org/2000/svg" xmlns:xlink="http://www.w3.org/1999/xlink" width="140" zoomAndPan="magnify" viewBox="0 0 104.88 104.999996" height="140" preserveAspectRatio="xMidYMid meet" version="1.0"><defs><clipPath id="7453fa791e"><path d="M 0 7.074219 L 104.761719 7.074219 L 104.761719 97.71875 L 0 97.71875 Z M 0 7.074219 " clip-rule="nonzero"/></clipPath><clipPath id="5baf3fba71"><path d="M 31.464844 31.523438 L 73.414062 31.523438 L 73.414062 73.476562 L 31.464844 73.476562 Z M 31.464844 31.523438 " clip-rule="nonzero"/></clipPath></defs><g clip-path="url(#7453fa791e)"><path fill="#336699" d="M 26.21875 97.910156 L 0 52.496094 L 26.21875 7.082031 L 78.660156 7.082031 L 104.878906 52.496094 L 78.660156 97.910156 Z M 26.21875 97.910156 " fill-opacity="1" fill-rule="nonzero"/></g><path fill="#ffffff" d="M 53.378906 46.582031 C 52.996094 47.097656 52.535156 47.363281 52.003906 47.363281 C 51.640625 47.363281 51.347656 47.171875 51.128906 46.792969 C 50.90625 46.410156 50.792969 45.941406 50.792969 45.371094 C 50.792969 44.675781 50.949219 44.113281 51.261719 43.6875 C 51.574219 43.257812 51.960938 43.039062 52.421875 43.039062 C 52.824219 43.039062 53.175781 43.199219 53.488281 43.523438 C 53.800781 43.84375 53.960938 44.269531 53.960938 44.804688 C 53.957031 45.476562 53.761719 46.066406 53.378906 46.582031 Z M 58.378906 38.78125 C 56.863281 37.382812 54.976562 36.683594 52.722656 36.683594 C 50.355469 36.683594 48.339844 37.476562 46.671875 39.066406 C 45.007812 40.660156 44.171875 42.636719 44.171875 45.003906 C 44.171875 47.273438 44.964844 49.222656 46.550781 50.859375 C 48.140625 52.492188 50.277344 53.308594 52.96875 53.308594 C 54.589844 53.308594 56.179688 52.980469 57.742188 52.308594 C 58.25 52.09375 58.5 51.511719 58.289062 51 C 58.078125 50.46875 57.472656 50.222656 56.949219 50.449219 C 55.589844 51.03125 54.257812 51.324219 52.964844 51.324219 C 50.902344 51.324219 49.304688 50.695312 48.171875 49.4375 C 47.042969 48.183594 46.476562 46.707031 46.476562 45.015625 C 46.476562 43.175781 47.082031 41.640625 48.292969 40.410156 C 49.5 39.183594 50.992188 38.566406 52.753906 38.566406 C 54.378906 38.566406 55.753906 39.070312 56.871094 40.082031 C 57.992188 41.09375 58.550781 42.363281 58.550781 43.898438 C 58.550781 44.945312 58.292969 45.820312 57.78125 46.515625 C 57.269531 47.214844 56.734375 47.5625 56.183594 47.5625 C 55.886719 47.5625 55.734375 47.402344 55.734375 47.082031 C 55.734375 46.816406 55.753906 46.515625 55.792969 46.160156 L 56.363281 41.265625 C 56.394531 40.988281 56.179688 40.746094 55.90625 40.746094 L 54.640625 40.746094 C 54.414062 40.746094 54.222656 40.90625 54.183594 41.125 L 54.113281 41.507812 C 53.5625 41.054688 52.953125 40.828125 52.296875 40.828125 C 51.25 40.828125 50.355469 41.246094 49.613281 42.078125 C 48.867188 42.90625 48.496094 43.980469 48.496094 45.289062 C 48.496094 46.570312 48.828125 47.601562 49.488281 48.386719 C 50.148438 49.171875 50.941406 49.5625 51.871094 49.5625 C 52.703125 49.5625 53.410156 49.210938 54.003906 48.519531 C 54.445312 49.1875 55.101562 49.519531 55.964844 49.519531 C 57.238281 49.519531 58.335938 48.964844 59.265625 47.855469 C 60.1875 46.75 60.65625 45.414062 60.65625 43.851562 C 60.65625 41.871094 59.898438 40.175781 58.378906 38.78125 " fill-opacity="1" fill-rule="nonzero"/><g clip-path="url(#5baf3fba71)"><path fill="#ffffff" d="M 46.304688 60.050781 L 34.003906 69.589844 L 33.980469 51.53125 Z M 68.351562 70.855469 L 36.449219 70.898438 L 52.429688 58.503906 Z M 51.652344 55.902344 L 48.402344 58.421875 L 40.410156 52.894531 L 40.429688 34.09375 L 64.433594 34.09375 L 64.414062 52.847656 L 56.429688 58.402344 L 53.207031 55.902344 C 53.199219 55.894531 53.191406 55.890625 53.191406 55.890625 C 52.730469 55.546875 52.101562 55.554688 51.652344 55.902344 Z M 70.847656 69.585938 L 58.527344 60.027344 L 70.820312 51.480469 Z M 66.949219 51.089844 L 66.949219 47.140625 L 69.789062 49.113281 Z M 34.9375 49.113281 L 37.878906 47.082031 L 37.878906 51.144531 Z M 73.351562 49.09375 C 73.351562 49.015625 73.335938 48.902344 73.300781 48.816406 C 73.21875 48.535156 73.046875 48.292969 72.804688 48.128906 L 66.949219 44.054688 L 66.964844 32.824219 C 66.964844 32.128906 66.394531 31.558594 65.699219 31.558594 L 39.160156 31.558594 C 38.464844 31.558594 37.894531 32.128906 37.894531 32.824219 L 37.878906 44.003906 L 31.992188 48.070312 C 31.660156 48.300781 31.457031 48.679688 31.445312 49.085938 C 31.445312 49.09375 31.445312 49.105469 31.445312 49.117188 L 31.476562 72.171875 C 31.476562 72.511719 31.609375 72.828125 31.847656 73.066406 C 32.085938 73.308594 32.386719 73.386719 32.726562 73.386719 L 72.117188 73.382812 C 72.816406 73.382812 73.382812 72.8125 73.382812 72.113281 L 73.351562 49.09375 " fill-opacity="1" fill-rule="nonzero"/></g></svg>