<svg xmlns="http://www.w3.org/2000/svg" width="60" height="60" viewBox="0 0 43 43" fill="none">
  <path d="M10.75 10.75H13.4375V16.125H10.75V10.75ZM10.75 18.8125H13.4375V24.1875H10.75V18.8125ZM18.8125 10.75H21.5V16.125H18.8125V10.75ZM18.8125 18.8125H21.5V24.1875H18.8125V18.8125ZM10.75 26.875H13.4375V32.25H10.75V26.875ZM18.8125 26.875H21.5V32.25H18.8125V26.875Z" fill="white"/>
  <path d="M40.3125 18.8125C40.3125 18.0997 40.0294 17.4162 39.5253 16.9122C39.0213 16.4081 38.3378 16.125 37.625 16.125H29.5625V5.375C29.5625 4.66223 29.2794 3.97865 28.7753 3.47465C28.2713 2.97065 27.5878 2.6875 26.875 2.6875H5.375C4.66223 2.6875 3.97865 2.97065 3.47465 3.47465C2.97065 3.97865 2.6875 4.66223 2.6875 5.375V40.3125H40.3125V18.8125ZM5.375 5.375H26.875V37.625H5.375V5.375ZM29.5625 37.625V18.8125H37.625V37.625H29.5625Z" fill="white"/>
</svg>