<svg xmlns="http://www.w3.org/2000/svg" xmlns:xlink="http://www.w3.org/1999/xlink" width="140" zoomAndPan="magnify" viewBox="0 0 104.88 104.999996" height="140" preserveAspectRatio="xMidYMid meet" version="1.0"><defs><clipPath id="94d6d69e80"><path d="M 0 7.074219 L 104.761719 7.074219 L 104.761719 97.71875 L 0 97.71875 Z M 0 7.074219 " clip-rule="nonzero"/></clipPath><clipPath id="08a3380e70"><path d="M 48 33.960938 L 56 33.960938 L 56 41 L 48 41 Z M 48 33.960938 " clip-rule="nonzero"/></clipPath><clipPath id="aecd19a532"><path d="M 45 63 L 60 63 L 60 70.671875 L 45 70.671875 Z M 45 63 " clip-rule="nonzero"/></clipPath><clipPath id="77e2c4a450"><path d="M 31.464844 52 L 46 52 L 46 60 L 31.464844 60 Z M 31.464844 52 " clip-rule="nonzero"/></clipPath><clipPath id="2d4b127eb0"><path d="M 59 52 L 73.414062 52 L 73.414062 60 L 59 60 Z M 59 52 " clip-rule="nonzero"/></clipPath></defs><g clip-path="url(#94d6d69e80)"><path fill="#ffffff" d="M 26.21875 97.710938 L 0 52.398438 L 26.21875 7.082031 L 78.660156 7.082031 L 104.878906 52.398438 L 78.660156 97.710938 Z M 26.21875 97.710938 " fill-opacity="1" fill-rule="nonzero"/></g><path fill="#000040" d="M 46.300781 65.304688 C 46.410156 65.097656 46.328125 64.839844 46.121094 64.734375 C 44.113281 63.683594 42.398438 62.148438 41.128906 60.285156 C 41 60.089844 40.734375 60.039062 40.542969 60.171875 C 40.347656 60.304688 40.296875 60.566406 40.429688 60.761719 C 41.773438 62.742188 43.59375 64.371094 45.726562 65.484375 C 45.933594 65.59375 46.191406 65.511719 46.300781 65.304688 " fill-opacity="1" fill-rule="nonzero"/><path fill="#000040" d="M 64.046875 60.613281 C 63.855469 60.476562 63.59375 60.515625 63.453125 60.703125 C 62.144531 62.484375 60.414062 63.933594 58.414062 64.90625 C 58.203125 65.007812 58.117188 65.261719 58.21875 65.472656 C 58.320312 65.683594 58.574219 65.773438 58.785156 65.667969 C 60.910156 64.632812 62.746094 63.09375 64.136719 61.207031 C 64.273438 61.019531 64.234375 60.753906 64.046875 60.613281 " fill-opacity="1" fill-rule="nonzero"/><path fill="#000040" d="M 56.503906 39.566406 C 59.253906 40.421875 61.628906 42.121094 63.332031 44.363281 C 63.472656 44.550781 63.738281 44.585938 63.925781 44.445312 C 64.113281 44.304688 64.148438 44.039062 64.007812 43.851562 C 62.199219 41.472656 59.675781 39.664062 56.753906 38.757812 C 56.53125 38.6875 56.292969 38.8125 56.222656 39.035156 C 56.15625 39.257812 56.28125 39.496094 56.503906 39.566406 " fill-opacity="1" fill-rule="nonzero"/><path fill="#000040" d="M 40.707031 44.808594 C 40.894531 44.945312 41.160156 44.898438 41.296875 44.707031 C 43.027344 42.273438 45.539062 40.425781 48.464844 39.539062 C 48.691406 39.472656 48.816406 39.234375 48.75 39.011719 C 48.679688 38.785156 48.445312 38.660156 48.21875 38.726562 C 45.109375 39.671875 42.445312 41.628906 40.605469 44.21875 C 40.46875 44.40625 40.515625 44.671875 40.707031 44.808594 " fill-opacity="1" fill-rule="nonzero"/><g clip-path="url(#08a3380e70)"><path fill="#000040" d="M 50.578125 35.582031 C 51.054688 35.105469 51.710938 34.8125 52.441406 34.8125 C 53.167969 34.8125 53.824219 35.105469 54.304688 35.582031 C 54.78125 36.0625 55.074219 36.71875 55.078125 37.445312 C 55.074219 38.175781 54.78125 38.832031 54.304688 39.3125 C 53.824219 39.789062 53.167969 40.082031 52.441406 40.082031 C 51.710938 40.082031 51.054688 39.789062 50.578125 39.3125 C 50.097656 38.832031 49.804688 38.175781 49.804688 37.445312 C 49.804688 36.71875 50.097656 36.0625 50.578125 35.582031 Z M 52.441406 40.929688 C 53.402344 40.929688 54.273438 40.539062 54.902344 39.910156 C 55.535156 39.28125 55.925781 38.40625 55.925781 37.445312 C 55.925781 36.484375 55.535156 35.613281 54.902344 34.984375 C 54.273438 34.351562 53.402344 33.960938 52.441406 33.964844 C 51.480469 33.960938 50.605469 34.351562 49.976562 34.984375 C 49.347656 35.613281 48.957031 36.484375 48.957031 37.445312 C 48.957031 38.40625 49.347656 39.28125 49.976562 39.910156 C 50.605469 40.539062 51.480469 40.929688 52.441406 40.929688 " fill-opacity="1" fill-rule="nonzero"/></g><path fill="#000040" d="M 58.582031 47.785156 C 58.582031 48.015625 58.773438 48.207031 59.007812 48.207031 C 59.242188 48.207031 59.429688 48.015625 59.429688 47.785156 C 59.429688 45.929688 58.640625 44.25 57.375 43.042969 C 56.109375 41.832031 54.363281 41.085938 52.441406 41.085938 C 50.515625 41.085938 48.769531 41.832031 47.503906 43.042969 C 46.238281 44.25 45.449219 45.929688 45.449219 47.785156 C 45.449219 48.015625 45.640625 48.207031 45.875 48.207031 C 46.109375 48.207031 46.296875 48.015625 46.296875 47.785156 C 46.296875 46.171875 46.980469 44.714844 48.089844 43.65625 C 49.199219 42.59375 50.738281 41.933594 52.441406 41.933594 C 54.144531 41.933594 55.679688 42.59375 56.789062 43.65625 C 57.902344 44.714844 58.582031 46.171875 58.582031 47.785156 " fill-opacity="1" fill-rule="nonzero"/><path fill="#000040" d="M 55.128906 60.273438 C 55.125 61.003906 54.832031 61.660156 54.355469 62.136719 C 53.875 62.613281 53.21875 62.910156 52.492188 62.910156 C 51.761719 62.910156 51.105469 62.613281 50.625 62.136719 C 50.148438 61.660156 49.855469 61.003906 49.855469 60.273438 C 49.855469 59.542969 50.148438 58.886719 50.625 58.410156 C 51.105469 57.929688 51.761719 57.636719 52.492188 57.636719 C 53.21875 57.636719 53.875 57.929688 54.355469 58.410156 C 54.832031 58.886719 55.125 59.542969 55.128906 60.273438 Z M 52.492188 56.789062 C 51.53125 56.789062 50.65625 57.179688 50.027344 57.808594 C 49.398438 58.4375 49.007812 59.3125 49.007812 60.273438 C 49.007812 61.234375 49.398438 62.109375 50.027344 62.738281 C 50.65625 63.367188 51.53125 63.757812 52.492188 63.757812 C 53.453125 63.757812 54.324219 63.367188 54.953125 62.738281 C 55.585938 62.109375 55.976562 61.234375 55.976562 60.273438 C 55.976562 59.3125 55.585938 58.4375 54.953125 57.808594 C 54.324219 57.179688 53.453125 56.789062 52.492188 56.789062 " fill-opacity="1" fill-rule="nonzero"/><g clip-path="url(#aecd19a532)"><path fill="#000040" d="M 52.492188 63.914062 C 50.566406 63.914062 48.820312 64.65625 47.554688 65.867188 C 46.289062 67.074219 45.5 68.753906 45.5 70.609375 C 45.5 70.84375 45.691406 71.035156 45.925781 71.035156 C 46.160156 71.035156 46.347656 70.84375 46.347656 70.609375 C 46.347656 69 47.03125 67.542969 48.140625 66.480469 C 49.25 65.417969 50.789062 64.761719 52.492188 64.761719 C 54.195312 64.761719 55.730469 65.417969 56.839844 66.480469 C 57.953125 67.542969 58.632812 69 58.632812 70.609375 C 58.632812 70.84375 58.824219 71.035156 59.058594 71.035156 C 59.292969 71.035156 59.480469 70.84375 59.480469 70.609375 C 59.480469 68.753906 58.691406 67.074219 57.425781 65.867188 C 56.160156 64.65625 54.414062 63.914062 52.492188 63.914062 " fill-opacity="1" fill-rule="nonzero"/></g><path fill="#000040" d="M 36.613281 47.113281 C 37.089844 46.636719 37.746094 46.339844 38.476562 46.339844 C 39.203125 46.339844 39.863281 46.636719 40.339844 47.113281 C 40.816406 47.59375 41.113281 48.25 41.113281 48.976562 C 41.113281 49.707031 40.816406 50.363281 40.339844 50.84375 C 39.863281 51.320312 39.203125 51.613281 38.476562 51.613281 C 37.746094 51.613281 37.089844 51.320312 36.613281 50.84375 C 36.132812 50.363281 35.839844 49.707031 35.839844 48.976562 C 35.839844 48.25 36.132812 47.59375 36.613281 47.113281 Z M 38.476562 52.460938 C 39.4375 52.460938 40.308594 52.070312 40.9375 51.441406 C 41.570312 50.8125 41.960938 49.9375 41.960938 48.976562 C 41.960938 48.015625 41.570312 47.144531 40.9375 46.515625 C 40.308594 45.882812 39.4375 45.492188 38.476562 45.492188 C 37.515625 45.492188 36.640625 45.882812 36.011719 46.515625 C 35.382812 47.144531 34.992188 48.015625 34.992188 48.976562 C 34.992188 49.9375 35.382812 50.8125 36.011719 51.441406 C 36.640625 52.070312 37.515625 52.460938 38.476562 52.460938 " fill-opacity="1" fill-rule="nonzero"/><g clip-path="url(#77e2c4a450)"><path fill="#000040" d="M 44.617188 59.3125 C 44.617188 59.546875 44.808594 59.738281 45.042969 59.738281 C 45.277344 59.738281 45.464844 59.546875 45.464844 59.3125 C 45.464844 57.460938 44.675781 55.78125 43.410156 54.570312 C 42.144531 53.363281 40.398438 52.617188 38.476562 52.617188 C 36.550781 52.617188 34.804688 53.363281 33.539062 54.570312 C 32.273438 55.78125 31.484375 57.460938 31.484375 59.3125 C 31.484375 59.546875 31.675781 59.738281 31.910156 59.738281 C 32.144531 59.738281 32.332031 59.546875 32.332031 59.3125 C 32.332031 57.703125 33.015625 56.246094 34.125 55.183594 C 35.238281 54.125 36.773438 53.464844 38.476562 53.464844 C 40.179688 53.464844 41.714844 54.125 42.824219 55.183594 C 43.9375 56.246094 44.617188 57.703125 44.617188 59.3125 " fill-opacity="1" fill-rule="nonzero"/></g><path fill="#000040" d="M 66.40625 46.339844 C 67.132812 46.339844 67.789062 46.636719 68.269531 47.113281 C 68.746094 47.59375 69.039062 48.25 69.039062 48.976562 C 69.039062 49.707031 68.746094 50.363281 68.269531 50.84375 C 67.789062 51.320312 67.132812 51.613281 66.40625 51.613281 C 65.675781 51.613281 65.019531 51.320312 64.539062 50.84375 C 64.0625 50.363281 63.769531 49.707031 63.769531 48.976562 C 63.769531 48.25 64.0625 47.59375 64.539062 47.113281 C 65.019531 46.636719 65.675781 46.339844 66.40625 46.339844 Z M 62.921875 48.976562 C 62.921875 49.9375 63.3125 50.8125 63.941406 51.441406 C 64.570312 52.070312 65.445312 52.460938 66.40625 52.460938 C 67.367188 52.460938 68.238281 52.070312 68.867188 51.441406 C 69.5 50.8125 69.890625 49.9375 69.890625 48.976562 C 69.890625 48.015625 69.5 47.144531 68.867188 46.515625 C 68.238281 45.882812 67.367188 45.492188 66.40625 45.492188 C 65.445312 45.492188 64.570312 45.882812 63.941406 46.515625 C 63.3125 47.144531 62.921875 48.015625 62.921875 48.976562 " fill-opacity="1" fill-rule="nonzero"/><g clip-path="url(#2d4b127eb0)"><path fill="#000040" d="M 71.339844 54.570312 C 70.074219 53.363281 68.328125 52.617188 66.40625 52.617188 C 64.480469 52.617188 62.734375 53.363281 61.46875 54.570312 C 60.203125 55.78125 59.414062 57.460938 59.414062 59.3125 C 59.414062 59.546875 59.605469 59.738281 59.839844 59.738281 C 60.074219 59.738281 60.261719 59.546875 60.261719 59.3125 C 60.261719 57.703125 60.945312 56.246094 62.054688 55.183594 C 63.164062 54.125 64.703125 53.464844 66.40625 53.464844 C 68.109375 53.464844 69.644531 54.125 70.753906 55.183594 C 71.863281 56.246094 72.546875 57.703125 72.546875 59.3125 C 72.546875 59.546875 72.734375 59.738281 72.96875 59.738281 C 73.203125 59.738281 73.394531 59.546875 73.394531 59.3125 C 73.394531 57.460938 72.605469 55.78125 71.339844 54.570312 " fill-opacity="1" fill-rule="nonzero"/></g></svg>