<svg width="72" height="72" viewBox="0 0 72 72" fill="none" xmlns="http://www.w3.org/2000/svg">
<rect width="72" height="72" rx="7.5" fill="white"/>
<rect width="72" height="72" rx="7.5" fill="white"/>
<g clip-path="url(#clip0_2064_1012)">
<path d="M57.4013 24.207C58.0924 24.207 58.768 24.0021 59.3426 23.6181C59.9172 23.2342 60.365 22.6885 60.6295 22.05C60.894 21.4115 60.9631 20.709 60.8283 20.0312C60.6935 19.3534 60.3607 18.7308 59.8721 18.2422C59.3834 17.7535 58.7608 17.4207 58.083 17.2859C57.4052 17.1511 56.7027 17.2203 56.0642 17.4847C55.4257 17.7492 54.88 18.197 54.4961 18.7716C54.1122 19.3462 53.9072 20.0218 53.9072 20.7129C53.9084 21.6392 54.2769 22.5273 54.9319 23.1823C55.5869 23.8373 56.475 24.2058 57.4013 24.207ZM57.4013 18.9658C57.7469 18.9658 58.0847 19.0683 58.372 19.2602C58.6593 19.4522 58.8832 19.7251 59.0154 20.0443C59.1476 20.3635 59.1822 20.7148 59.1148 21.0537C59.0474 21.3926 58.881 21.7039 58.6367 21.9482C58.3924 22.1926 58.0811 22.3589 57.7422 22.4264C57.4033 22.4938 57.052 22.4592 56.7328 22.3269C56.4135 22.1947 56.1407 21.9708 55.9487 21.6835C55.7567 21.3962 55.6543 21.0584 55.6543 20.7129C55.6547 20.2497 55.839 19.8056 56.1665 19.478C56.494 19.1505 56.9381 18.9663 57.4013 18.9658Z" fill="#000040"/>
<path d="M60.4585 16.3452C60.9409 16.3452 61.332 15.9541 61.332 15.4717C61.332 14.9892 60.9409 14.5981 60.4585 14.5981C59.9761 14.5981 59.585 14.9892 59.585 15.4717C59.585 15.9541 59.9761 16.3452 60.4585 16.3452Z" fill="#000040"/>
<path d="M11.1045 20.7129C11.1045 21.4039 11.3094 22.0795 11.6934 22.6541C12.0773 23.2287 12.623 23.6766 13.2615 23.941C13.8999 24.2055 14.6025 24.2747 15.2803 24.1398C15.9581 24.005 16.5807 23.6722 17.0693 23.1836C17.558 22.6949 17.8908 22.0723 18.0256 21.3945C18.1604 20.7167 18.0912 20.0142 17.8268 19.3757C17.5623 18.7373 17.1144 18.1916 16.5398 17.8076C15.9652 17.4237 15.2897 17.2188 14.5986 17.2188C13.6723 17.2199 12.7842 17.5884 12.1292 18.2434C11.4741 18.8985 11.1056 19.7865 11.1045 20.7129ZM14.5986 18.9658C14.9441 18.9658 15.2819 19.0683 15.5692 19.2602C15.8565 19.4522 16.0805 19.7251 16.2127 20.0443C16.3449 20.3635 16.3795 20.7148 16.3121 21.0537C16.2447 21.3926 16.0783 21.7039 15.834 21.9482C15.5896 22.1926 15.2783 22.3589 14.9394 22.4264C14.6005 22.4938 14.2493 22.4592 13.93 22.3269C13.6108 22.1947 13.338 21.9708 13.146 21.6835C12.954 21.3962 12.8516 21.0584 12.8516 20.7129C12.852 20.2497 13.0362 19.8056 13.3638 19.478C13.6913 19.1505 14.1354 18.9663 14.5986 18.9658Z" fill="#000040"/>
<path d="M11.5405 16.3452C12.023 16.3452 12.4141 15.9541 12.4141 15.4717C12.4141 14.9892 12.023 14.5981 11.5405 14.5981C11.0581 14.5981 10.667 14.9892 10.667 15.4717C10.667 15.9541 11.0581 16.3452 11.5405 16.3452Z" fill="#000040"/>
<path d="M60.8955 51.2866C60.8955 50.5955 60.6905 49.92 60.3066 49.3454C59.9227 48.7708 59.377 48.3229 58.7385 48.0585C58.1 47.794 57.3975 47.7248 56.7197 47.8596C56.0419 47.9944 55.4193 48.3272 54.9306 48.8159C54.442 49.3045 54.1092 49.9271 53.9744 50.6049C53.8395 51.2827 53.9087 51.9853 54.1732 52.6237C54.4377 53.2622 54.8855 53.8079 55.4601 54.1919C56.0347 54.5758 56.7103 54.7807 57.4013 54.7807C58.3277 54.7796 59.2158 54.4111 59.8708 53.756C60.5258 53.101 60.8943 52.2129 60.8955 51.2866ZM57.4013 53.0337C57.0558 53.0337 56.718 52.9312 56.4307 52.7392C56.1434 52.5473 55.9195 52.2744 55.7873 51.9552C55.655 51.6359 55.6204 51.2847 55.6879 50.9458C55.7553 50.6069 55.9217 50.2956 56.166 50.0512C56.4103 49.8069 56.7216 49.6405 57.0605 49.5731C57.3994 49.5057 57.7507 49.5403 58.0699 49.6725C58.3891 49.8048 58.662 50.0287 58.854 50.316C59.0459 50.6033 59.1484 50.9411 59.1484 51.2866C59.1479 51.7498 58.9637 52.1939 58.6362 52.5214C58.3087 52.849 57.8646 53.0332 57.4013 53.0337Z" fill="#000040"/>
<path d="M60.4585 57.4014C60.9409 57.4014 61.332 57.0103 61.332 56.5278C61.332 56.0454 60.9409 55.6543 60.4585 55.6543C59.9761 55.6543 59.585 56.0454 59.585 56.5278C59.585 57.0103 59.9761 57.4014 60.4585 57.4014Z" fill="#000040"/>
<path d="M14.5986 47.7925C13.9075 47.7925 13.232 47.9974 12.6574 48.3813C12.0828 48.7653 11.6349 49.311 11.3705 49.9495C11.106 50.5879 11.0368 51.2905 11.1716 51.9683C11.3065 52.6461 11.6392 53.2687 12.1279 53.7573C12.6166 54.246 13.2392 54.5788 13.9169 54.7136C14.5947 54.8484 15.2973 54.7792 15.9358 54.5147C16.5742 54.2503 17.1199 53.8024 17.5039 53.2278C17.8878 52.6532 18.0927 51.9777 18.0927 51.2866C18.0916 50.3603 17.7231 49.4722 17.068 48.8172C16.413 48.1621 15.525 47.7936 14.5986 47.7925ZM14.5986 53.0337C14.2531 53.0337 13.9153 52.9312 13.628 52.7392C13.3407 52.5473 13.1168 52.2744 12.9845 51.9552C12.8523 51.6359 12.8177 51.2847 12.8851 50.9458C12.9525 50.6069 13.1189 50.2956 13.3633 50.0512C13.6076 49.8069 13.9189 49.6405 14.2578 49.5731C14.5967 49.5057 14.9479 49.5403 15.2672 49.6725C15.5864 49.8048 15.8593 50.0287 16.0512 50.316C16.2432 50.6033 16.3457 50.9411 16.3457 51.2866C16.3452 51.7498 16.161 52.1939 15.8335 52.5214C15.5059 52.849 15.0618 53.0332 14.5986 53.0337Z" fill="#000040"/>
<path d="M11.5405 57.4014C12.023 57.4014 12.4141 57.0103 12.4141 56.5278C12.4141 56.0454 12.023 55.6543 11.5405 55.6543C11.0581 55.6543 10.667 56.0454 10.667 56.5278C10.667 57.0103 11.0581 57.4014 11.5405 57.4014Z" fill="#000040"/>
<path d="M63.7414 35.3069C54.5366 24.6367 44.8208 19.4436 34.8394 19.8629C19.1399 20.5289 8.6523 34.7596 8.21335 35.3654C8.0773 35.5529 8.02132 35.7868 8.05773 36.0156C8.09414 36.2445 8.21995 36.4494 8.40749 36.5855C8.59504 36.7215 8.82894 36.7775 9.05775 36.7411C9.28657 36.7047 9.49155 36.5789 9.6276 36.3913C9.73024 36.2494 20.0754 22.231 34.925 21.6086C44.3368 21.226 53.5836 26.2077 62.4176 36.4486C62.5689 36.6241 62.7838 36.7322 63.0149 36.7493C63.246 36.7664 63.4744 36.691 63.6499 36.5396C63.8254 36.3883 63.9336 36.1734 63.9507 35.9423C63.9678 35.7112 63.8923 35.4828 63.741 35.3073L63.7414 35.3069ZM23.1551 47.0851C22.9498 46.9804 22.7114 46.9609 22.4919 47.0308C22.2723 47.1008 22.0891 47.2545 21.9821 47.4586C21.8752 47.6628 21.8531 47.9008 21.9206 48.1212C21.9881 48.3416 22.1397 48.5264 22.3427 48.6356C22.4685 48.7 22.6075 48.7344 22.7489 48.7361C22.9087 48.7366 23.0656 48.6928 23.2021 48.6095C23.3386 48.5262 23.4493 48.4068 23.522 48.2644C23.6287 48.0591 23.65 47.8201 23.5813 47.5992C23.5126 47.3783 23.3594 47.1935 23.1551 47.0851ZM25.8543 48.343C25.6945 48.2773 25.5188 48.2605 25.3494 48.2947C25.1801 48.3289 25.0247 48.4126 24.9029 48.5351C24.7811 48.6576 24.6983 48.8135 24.6651 48.9831C24.6319 49.1526 24.6497 49.3282 24.7163 49.4876C24.7829 49.647 24.8952 49.7831 25.0392 49.8787C25.1831 49.9743 25.3521 50.025 25.5249 50.0245C25.6977 50.024 25.8664 49.9723 26.0098 49.8759C26.1531 49.7795 26.2647 49.6427 26.3304 49.4829C26.3742 49.3769 26.3967 49.2631 26.3965 49.1484C26.3964 49.0336 26.3735 48.9199 26.3292 48.814C26.285 48.7081 26.2203 48.6119 26.1388 48.5311C26.0573 48.4503 25.9606 48.3863 25.8543 48.343ZM20.5694 45.5957C20.4239 45.5044 20.2546 45.4583 20.0829 45.463C19.9112 45.4678 19.7448 45.5233 19.6046 45.6225C19.4643 45.7217 19.3566 45.8602 19.295 46.0205C19.2333 46.1808 19.2205 46.3558 19.2582 46.5234C19.2958 46.691 19.3822 46.8437 19.5065 46.9623C19.6308 47.0808 19.7874 47.16 19.9566 47.1897C20.1258 47.2194 20.3 47.1983 20.4572 47.1292C20.6145 47.0601 20.7477 46.9459 20.8402 46.8012C20.9025 46.7045 20.9449 46.5964 20.965 46.4832C20.985 46.37 20.9824 46.2539 20.9572 46.1418C20.932 46.0296 20.8847 45.9235 20.8182 45.8298C20.7516 45.736 20.667 45.6565 20.5694 45.5957ZM15.1885 43.5604C15.3674 43.5613 15.5423 43.5072 15.6896 43.4055C15.8368 43.3038 15.9492 43.1593 16.0116 42.9916C16.074 42.8238 16.0834 42.641 16.0385 42.4678C15.9937 42.2945 15.8966 42.1393 15.7606 42.023C15.6735 41.9484 15.5724 41.8918 15.4634 41.8562C15.3543 41.8207 15.2393 41.807 15.1249 41.8159C15.0105 41.8249 14.899 41.8562 14.7968 41.9082C14.6945 41.9602 14.6035 42.0319 14.529 42.1191C14.4544 42.2063 14.3977 42.3073 14.3622 42.4163C14.3267 42.5254 14.313 42.6404 14.3219 42.7548C14.3308 42.8692 14.3622 42.9807 14.4142 43.0829C14.4662 43.1852 14.5379 43.2762 14.6251 43.3507C14.7816 43.4861 14.9816 43.5605 15.1885 43.5604ZM11.3974 39.0617C11.5485 38.9259 11.6473 38.7415 11.6767 38.5404C11.706 38.3393 11.664 38.1344 11.5579 37.961C11.4519 37.7877 11.2885 37.657 11.0961 37.5916C10.9038 37.5262 10.6945 37.5302 10.5048 37.6029C10.3151 37.6757 10.1568 37.8126 10.0575 37.9898C9.95821 38.1671 9.92411 38.3735 9.96113 38.5733C9.99816 38.7731 10.104 38.9536 10.2602 39.0835C10.4165 39.2135 10.6133 39.2845 10.8165 39.2845C11.0308 39.2838 11.2375 39.2045 11.3974 39.0617ZM12.9348 41.4945C13.0511 41.4948 13.1663 41.4718 13.2736 41.4268C13.3809 41.3818 13.4781 41.3157 13.5594 41.2324C13.6803 41.1089 13.7618 40.9523 13.7937 40.7824C13.8256 40.6126 13.8065 40.437 13.7386 40.2781C13.6708 40.1191 13.5573 39.9838 13.4126 39.8893C13.2679 39.7948 13.0984 39.7454 12.9255 39.7472C12.7527 39.749 12.5843 39.8021 12.4416 39.8996C12.2989 39.9971 12.1883 40.1348 12.1239 40.2952C12.0594 40.4556 12.0439 40.6315 12.0794 40.8006C12.1149 40.9698 12.1998 41.1246 12.3233 41.2455C12.4865 41.4057 12.7061 41.4952 12.9348 41.4945ZM18.1017 43.8967C18.0096 43.8285 17.905 43.779 17.7939 43.7512C17.6827 43.7233 17.5671 43.7177 17.4538 43.7345C17.3404 43.7513 17.2315 43.7903 17.1332 43.8493C17.0349 43.9082 16.9492 43.9859 16.8809 44.078C16.8127 44.17 16.7632 44.2746 16.7354 44.3858C16.7076 44.497 16.7019 44.6125 16.7187 44.7259C16.7356 44.8392 16.7746 44.9482 16.8335 45.0465C16.8924 45.1447 16.9701 45.2305 17.0622 45.2987H17.0578C17.2438 45.4371 17.477 45.496 17.7064 45.4625C17.9357 45.4289 18.1424 45.3056 18.2808 45.1196C18.4192 44.9337 18.4781 44.7004 18.4445 44.4711C18.4109 44.2417 18.2876 44.0351 18.1017 43.8967ZM48.6927 47.0632C48.5196 47.1543 48.3821 47.3008 48.3022 47.4793C48.2222 47.6578 48.2045 47.8579 48.2518 48.0477C48.2991 48.2374 48.4087 48.4058 48.5631 48.5259C48.7175 48.6459 48.9077 48.7107 49.1033 48.7099C49.2361 48.7098 49.3671 48.6795 49.4865 48.6212C49.6058 48.563 49.7103 48.4783 49.7921 48.3737C49.8738 48.269 49.9306 48.1471 49.9582 48.0172C49.9858 47.8873 49.9835 47.7528 49.9514 47.6239C49.9192 47.495 49.8582 47.3752 49.7728 47.2735C49.6875 47.1717 49.58 47.0907 49.4587 47.0367C49.3374 46.9827 49.2054 46.957 49.0727 46.9616C48.9399 46.9662 48.81 47.0009 48.6927 47.0632ZM57.1921 43.2852C57.349 43.1516 57.4538 42.967 57.4881 42.7638C57.5225 42.5606 57.4843 42.3518 57.3801 42.174C57.276 41.9962 57.1126 41.8607 56.9186 41.7913C56.7246 41.7218 56.5123 41.7229 56.319 41.7943C56.1257 41.8657 55.9637 42.0028 55.8614 42.1816C55.759 42.3605 55.7229 42.5697 55.7593 42.7725C55.7957 42.9753 55.9024 43.1588 56.0605 43.2909C56.2187 43.423 56.4183 43.4952 56.6243 43.4949C56.833 43.4972 57.0351 43.4226 57.1921 43.2852ZM51.2652 45.552C51.1195 45.6453 51.0048 45.7797 50.9356 45.9383C50.8663 46.0968 50.8457 46.2723 50.8762 46.4426C50.9068 46.6128 50.9872 46.7702 51.1073 46.8947C51.2274 47.0193 51.3817 47.1054 51.5508 47.1421C51.7198 47.1789 51.896 47.1646 52.0569 47.1012C52.2179 47.0377 52.3564 46.928 52.4549 46.7858C52.5534 46.6436 52.6075 46.4753 52.6103 46.3023C52.6131 46.1294 52.5645 45.9594 52.4707 45.8141C52.3451 45.6201 52.1478 45.4837 51.922 45.4346C51.6962 45.3855 51.4601 45.4277 51.2652 45.552ZM54.7681 45.2376C54.9063 45.1339 55.0107 44.9916 55.068 44.8286C55.1253 44.6656 55.1331 44.4893 55.0902 44.322C55.0473 44.1546 54.9558 44.0037 54.8271 43.8884C54.6985 43.773 54.5385 43.6984 54.3675 43.674C54.1965 43.6496 54.022 43.6764 53.8663 43.7511C53.7105 43.8258 53.5804 43.945 53.4923 44.0937C53.4043 44.2424 53.3623 44.4138 53.3717 44.5863C53.3811 44.7588 53.4415 44.9247 53.5452 45.0629C53.6842 45.2482 53.8911 45.3707 54.1204 45.4035C54.3498 45.4363 54.5828 45.3766 54.7681 45.2376ZM59.4895 41.1975C59.6385 41.0569 59.7338 40.8687 59.7589 40.6654C59.7841 40.462 59.7376 40.2563 59.6274 40.0836C59.5172 39.9109 59.3502 39.782 59.1552 39.7191C58.9602 39.6563 58.7494 39.6634 58.5591 39.7393C58.3688 39.8151 58.2109 39.9549 58.1126 40.1347C58.0143 40.3144 57.9817 40.5228 58.0205 40.724C58.0593 40.9252 58.1671 41.1065 58.3252 41.2368C58.4833 41.3671 58.6819 41.4381 58.8868 41.4377C59.111 41.4378 59.3268 41.3518 59.4895 41.1975ZM60.398 37.7951C60.2801 37.919 60.2013 38.0749 60.1714 38.2433C60.1415 38.4117 60.1618 38.5851 60.2298 38.7421C60.2978 38.899 60.4104 39.0325 60.5537 39.1258C60.697 39.2191 60.8646 39.2682 61.0357 39.267C61.1545 39.2674 61.2721 39.2431 61.3811 39.1957C61.4901 39.1484 61.5881 39.079 61.669 38.9918C61.7506 38.909 61.8149 38.8106 61.858 38.7026C61.9011 38.5946 61.9222 38.479 61.9201 38.3627C61.9179 38.2464 61.8925 38.1317 61.8454 38.0253C61.7983 37.9189 61.7303 37.8231 61.6457 37.7433C61.561 37.6636 61.4612 37.6016 61.3522 37.5609C61.2432 37.5203 61.1272 37.5018 61.0109 37.5066C60.8947 37.5115 60.7806 37.5395 60.6753 37.589C60.5701 37.6385 60.4758 37.7086 60.398 37.7951ZM34.4585 50.3696C34.3428 50.3603 34.2264 50.3742 34.1161 50.4105C34.0058 50.4467 33.9038 50.5047 33.8162 50.5808C33.7285 50.657 33.6569 50.7499 33.6056 50.854C33.5543 50.9582 33.5243 51.0715 33.5173 51.1874C33.5103 51.3033 33.5266 51.4195 33.565 51.529C33.6035 51.6386 33.6634 51.7394 33.7413 51.8255C33.8192 51.9116 33.9135 51.9813 34.0186 52.0306C34.1238 52.0798 34.2377 52.1076 34.3537 52.1122H34.4061C34.6324 52.1115 34.8496 52.0229 35.0118 51.865C35.174 51.7072 35.2684 51.4925 35.2753 51.2663C35.2821 51.04 35.2007 50.82 35.0483 50.6527C34.8959 50.4854 34.6844 50.3839 34.4585 50.3696ZM28.6496 49.3301C28.5394 49.2976 28.424 49.2873 28.3099 49.2995C28.1957 49.3117 28.0851 49.3462 27.9843 49.4012C27.8835 49.4561 27.7946 49.5304 27.7225 49.6197C27.6504 49.7091 27.5966 49.8118 27.5642 49.9219C27.5318 50.032 27.5214 50.1474 27.5336 50.2616C27.5458 50.3757 27.5804 50.4863 27.6353 50.5871C27.6903 50.6879 27.7646 50.7769 27.8539 50.849C27.9432 50.921 28.0459 50.9748 28.156 51.0072C28.2357 51.0294 28.3179 51.0412 28.4006 51.0422C28.6108 51.0425 28.8141 50.967 28.9732 50.8296C29.1323 50.6922 29.2366 50.502 29.2668 50.294C29.2971 50.0859 29.2513 49.874 29.1379 49.6969C29.0246 49.5199 28.8512 49.3896 28.6496 49.3301ZM31.5278 50.0158C31.4142 49.9942 31.2974 49.9953 31.1842 50.0191C31.071 50.043 30.9637 50.0891 30.8685 50.1547C30.7732 50.2204 30.692 50.3043 30.6294 50.4015C30.5668 50.4988 30.5242 50.6076 30.5039 50.7215C30.4837 50.8353 30.4863 50.9521 30.5115 51.065C30.5368 51.1779 30.5842 51.2846 30.651 51.3791C30.7178 51.4735 30.8026 51.5537 30.9007 51.6151C30.9987 51.6765 31.108 51.7178 31.2221 51.7366C31.2726 51.7452 31.3238 51.7496 31.375 51.7497C31.5937 51.7503 31.8048 51.6687 31.9663 51.5212C32.1278 51.3736 32.2281 51.1708 32.2473 50.9529C32.2665 50.735 32.2032 50.5178 32.07 50.3443C31.9368 50.1707 31.7433 50.0535 31.5278 50.0158ZM40.3418 50.0201C40.1263 50.0579 39.9328 50.1751 39.7996 50.3486C39.6664 50.5222 39.6031 50.7394 39.6223 50.9573C39.6415 51.1752 39.7418 51.378 39.9033 51.5255C40.0649 51.6731 40.2759 51.7546 40.4946 51.7541C40.5459 51.7538 40.597 51.7494 40.6475 51.741C40.8734 51.698 41.0732 51.5677 41.2037 51.3784C41.3342 51.1891 41.3848 50.956 41.3446 50.7296C41.3044 50.5032 41.1765 50.3018 40.9888 50.169C40.8011 50.0362 40.5686 49.9827 40.3418 50.0201ZM37.4067 50.3696C37.1803 50.3839 36.9683 50.4856 36.8155 50.6534C36.6627 50.8211 36.5811 51.0417 36.5879 51.2684C36.5947 51.4952 36.6894 51.7105 36.8519 51.8688C37.0145 52.027 37.2322 52.1159 37.4591 52.1166C37.4767 52.1173 37.4943 52.1158 37.5115 52.1122C37.6275 52.1076 37.7415 52.0798 37.8466 52.0306C37.9518 51.9813 38.0461 51.9116 38.124 51.8255C38.2018 51.7394 38.2618 51.6386 38.3002 51.529C38.3387 51.4195 38.3549 51.3033 38.3479 51.1874C38.341 51.0715 38.3109 50.9582 38.2596 50.854C38.2083 50.7499 38.1367 50.657 38.0491 50.5808C37.9614 50.5047 37.8595 50.4467 37.7492 50.4105C37.6389 50.3742 37.5224 50.3603 37.4067 50.3696ZM46.0066 48.3342C45.8196 48.4116 45.6652 48.5515 45.5698 48.7301C45.4744 48.9086 45.444 49.1147 45.4837 49.3132C45.5234 49.5117 45.6308 49.6903 45.7875 49.8184C45.9442 49.9465 46.1405 50.0163 46.3429 50.0158C46.4567 50.0153 46.5694 49.9931 46.6749 49.9503C46.8891 49.8617 47.0595 49.6915 47.1483 49.4773C47.2372 49.2631 47.2374 49.0224 47.1487 48.8081C47.0601 48.5938 46.89 48.4235 46.6758 48.3346C46.4616 48.2458 46.2209 48.2456 46.0066 48.3342ZM43.2157 49.3344C43.0146 49.3939 42.8417 49.5239 42.7286 49.7005C42.6156 49.8772 42.5701 50.0886 42.6003 50.2962C42.6306 50.5037 42.7346 50.6933 42.8934 50.8303C43.0521 50.9674 43.2549 51.0426 43.4646 51.0422C43.5489 51.0436 43.6329 51.0318 43.7136 51.0072C43.8234 50.9745 43.9257 50.9205 44.0147 50.8483C44.1037 50.7761 44.1775 50.687 44.2321 50.5862C44.2866 50.4854 44.3208 50.3749 44.3326 50.2609C44.3445 50.1469 44.3337 50.0317 44.301 49.9219C44.2683 49.812 44.2143 49.7097 44.1421 49.6207C44.0699 49.5318 43.9808 49.4579 43.88 49.4034C43.7792 49.3488 43.6687 49.3147 43.5547 49.3028C43.4407 49.291 43.3255 49.3017 43.2157 49.3344Z" fill="#000040"/>
<path d="M36 30.7588C34.9634 30.7588 33.95 31.0662 33.0881 31.6421C32.2262 32.218 31.5544 33.0366 31.1578 33.9943C30.7611 34.952 30.6573 36.0058 30.8595 37.0225C31.0617 38.0392 31.5609 38.973 32.2939 39.706C33.0269 40.439 33.9608 40.9382 34.9775 41.1404C35.9942 41.3427 37.048 41.2389 38.0057 40.8422C38.9634 40.4455 39.7819 39.7737 40.3578 38.9118C40.9338 38.0499 41.2411 37.0366 41.2411 36C41.2396 34.6104 40.687 33.2781 39.7044 32.2956C38.7218 31.313 37.3896 30.7603 36 30.7588ZM36 39.4941C35.3089 39.4941 34.6333 39.2892 34.0587 38.9052C33.4841 38.5213 33.0363 37.9756 32.7718 37.3371C32.5074 36.6986 32.4382 35.9961 32.573 35.3183C32.7078 34.6405 33.0406 34.0179 33.5293 33.5293C34.0179 33.0406 34.6405 32.7078 35.3183 32.573C35.9961 32.4382 36.6986 32.5074 37.3371 32.7718C37.9756 33.0363 38.5213 33.4841 38.9052 34.0587C39.2892 34.6333 39.4941 35.3089 39.4941 36C39.4929 36.9263 39.1244 37.8144 38.4694 38.4694C37.8144 39.1244 36.9263 39.4929 36 39.4941Z" fill="#000040"/>
<path d="M46.2165 33.2629C46.532 32.8859 46.7241 32.421 46.7668 31.9312C46.8096 31.4415 46.7009 30.9504 46.4554 30.5244L45.9693 29.6823C45.7235 29.2564 45.3525 28.9165 44.9068 28.7088C44.4611 28.5011 43.9622 28.4356 43.478 28.5214C43.5629 28.0372 43.4972 27.5386 43.2895 27.0931C43.0819 26.6475 42.7424 26.2764 42.317 26.0301L41.475 25.544C41.0492 25.298 40.5579 25.1891 40.0681 25.2322C39.5782 25.2754 39.1136 25.4684 38.7373 25.7851C38.569 25.323 38.2628 24.9238 37.86 24.6415C37.4573 24.3593 36.9776 24.2076 36.4858 24.207H35.5136C35.0218 24.2076 34.542 24.3593 34.1393 24.6415C33.7366 24.9238 33.4304 25.323 33.262 25.7851C32.8858 25.4684 32.4211 25.2754 31.9313 25.2322C31.4414 25.1891 30.9502 25.298 30.5244 25.544L29.6823 26.0301C29.2569 26.2764 28.9175 26.6475 28.7098 27.0931C28.5022 27.5386 28.4364 28.0372 28.5214 28.5214C28.0372 28.4356 27.5383 28.5011 27.0926 28.7088C26.6468 28.9165 26.2759 29.2564 26.0301 29.6823L25.544 30.5244C25.2985 30.9504 25.1898 31.4415 25.2325 31.9312C25.2752 32.421 25.4674 32.8859 25.7829 33.2629C25.3213 33.4315 24.9227 33.7378 24.6409 34.1403C24.359 34.5428 24.2076 35.0222 24.207 35.5136V36.4858C24.2077 36.9772 24.3591 37.4565 24.641 37.859C24.9228 38.2615 25.3214 38.5678 25.7829 38.7364C25.4674 39.1135 25.2752 39.5783 25.2325 40.0681C25.1898 40.5579 25.2985 41.049 25.544 41.475L26.0301 42.317C26.2759 42.743 26.6468 43.0829 27.0926 43.2906C27.5383 43.4983 28.0372 43.5637 28.5214 43.478C28.4364 43.9621 28.5022 44.4607 28.7098 44.9063C28.9175 45.3519 29.2569 45.7229 29.6823 45.9693L30.5244 46.4554C30.9502 46.7014 31.4414 46.8103 31.9313 46.7671C32.4211 46.724 32.8858 46.5309 33.262 46.2143C33.4304 46.6764 33.7366 47.0756 34.1393 47.3578C34.542 47.6401 35.0218 47.7918 35.5136 47.7923H36.4858C36.9776 47.7918 37.4573 47.6401 37.86 47.3578C38.2628 47.0756 38.569 46.6764 38.7373 46.2143C39.1136 46.5309 39.5782 46.724 40.0681 46.7671C40.5579 46.8103 41.0492 46.7014 41.475 46.4554L42.317 45.9693C42.7425 45.723 43.082 45.3519 43.2896 44.9063C43.4973 44.4608 43.563 43.9621 43.478 43.478C43.9622 43.5637 44.4611 43.4983 44.9068 43.2906C45.3525 43.0829 45.7235 42.743 45.9693 42.317L46.4554 41.475C46.7009 41.049 46.8096 40.5579 46.7668 40.0681C46.7241 39.5783 46.532 39.1135 46.2165 38.7364C46.678 38.5678 47.0766 38.2616 47.3585 37.859C47.6403 37.4565 47.7917 36.9772 47.7923 36.4858V35.5136C47.7917 35.0222 47.6403 34.5428 47.3585 34.1403C47.0766 33.7378 46.678 33.4315 46.2165 33.2629ZM46.0453 36.4858C46.0453 36.6577 45.977 36.8226 45.8554 36.9441C45.7339 37.0657 45.569 37.134 45.3971 37.134H44.1833C44.0904 37.812 43.913 38.4758 43.6553 39.1099L44.7053 39.7161C44.8541 39.8021 44.9627 39.9436 45.0072 40.1097C45.0517 40.2757 45.0284 40.4526 44.9424 40.6014L44.4563 41.4435C44.4138 41.5173 44.3572 41.5819 44.2896 41.6337C44.2221 41.6856 44.145 41.7236 44.0628 41.7456C43.9806 41.7676 43.8948 41.7732 43.8104 41.7621C43.7261 41.7509 43.6447 41.7233 43.571 41.6807L42.5193 41.0736C42.0987 41.6132 41.6132 42.0987 41.0736 42.5193L41.6807 43.571C41.7666 43.7199 41.7899 43.8967 41.7454 44.0628C41.7009 44.2288 41.5924 44.3704 41.4435 44.4563L40.6014 44.9424C40.5277 44.985 40.4464 45.0127 40.362 45.0238C40.2776 45.035 40.1918 45.0294 40.1096 45.0074C40.0274 44.9853 39.9503 44.9473 39.8828 44.8955C39.8153 44.8436 39.7586 44.779 39.7161 44.7053L39.1099 43.6553C38.4759 43.9132 37.8121 44.0907 37.134 44.1838V45.3971C37.134 45.569 37.0657 45.7339 36.9441 45.8554C36.8226 45.977 36.6577 46.0453 36.4858 46.0453H35.5136C35.3417 46.0453 35.1768 45.977 35.0552 45.8554C34.9337 45.7339 34.8654 45.569 34.8654 45.3971V44.1833C34.1873 44.0904 33.5235 43.913 32.8895 43.6553L32.2832 44.7053C32.2407 44.779 32.1841 44.8436 32.1166 44.8955C32.049 44.9473 31.972 44.9853 31.8897 45.0074C31.8075 45.0294 31.7218 45.035 31.6374 45.0238C31.553 45.0127 31.4716 44.985 31.3979 44.9424L30.5558 44.4563C30.407 44.3704 30.2984 44.2288 30.2539 44.0628C30.2095 43.8967 30.2327 43.7199 30.3187 43.571L30.9258 42.5193C30.3862 42.0987 29.9006 41.6132 29.4801 41.0736L28.4284 41.6807C28.3547 41.7233 28.2733 41.7509 28.1889 41.7621C28.1045 41.7732 28.0188 41.7676 27.9365 41.7456C27.8543 41.7236 27.7772 41.6856 27.7097 41.6337C27.6422 41.5819 27.5856 41.5173 27.543 41.4435L27.0569 40.6014C26.971 40.4526 26.9477 40.2757 26.9922 40.1097C27.0366 39.9436 27.1452 39.8021 27.2941 39.7161L28.3441 39.1099C28.0862 38.4759 27.9086 37.8121 27.8156 37.134H26.6022C26.4303 37.134 26.2655 37.0657 26.1439 36.9441C26.0224 36.8226 25.9541 36.6577 25.9541 36.4858V35.5136C25.9541 35.3417 26.0224 35.1768 26.1439 35.0552C26.2655 34.9337 26.4303 34.8654 26.6022 34.8654H27.816C27.9089 34.1872 28.0863 33.5232 28.3441 32.889L27.2941 32.2832C27.1452 32.1973 27.0366 32.0557 26.9922 31.8897C26.9477 31.7237 26.971 31.5468 27.0569 31.3979L27.543 30.5558C27.5856 30.4821 27.6422 30.4175 27.7097 30.3656C27.7772 30.3138 27.8543 30.2758 27.9365 30.2538C28.0188 30.2317 28.1045 30.2261 28.1889 30.2373C28.2733 30.2484 28.3547 30.2761 28.4284 30.3187L29.4801 30.9258C29.9006 30.3862 30.3862 29.9006 30.9258 29.4801L30.3187 28.4284C30.2327 28.2795 30.2095 28.1026 30.2539 27.9366C30.2984 27.7706 30.407 27.629 30.5558 27.543L31.3979 27.0569C31.4716 27.0143 31.553 26.9866 31.6374 26.9755C31.7218 26.9644 31.8075 26.97 31.8897 26.992C31.972 27.014 32.049 27.052 32.1166 27.1039C32.1841 27.1557 32.2407 27.2203 32.2832 27.2941L32.889 28.3441C33.5232 28.0861 34.1871 27.9086 34.8654 27.8156V26.6022C34.8654 26.4303 34.9337 26.2655 35.0552 26.1439C35.1768 26.0224 35.3417 25.9541 35.5136 25.9541H36.4858C36.6577 25.9541 36.8226 26.0224 36.9441 26.1439C37.0657 26.2655 37.134 26.4303 37.134 26.6022V27.816C37.812 27.9089 38.4758 28.0863 39.1099 28.3441L39.7161 27.2941C39.7586 27.2203 39.8153 27.1557 39.8828 27.1039C39.9503 27.052 40.0274 27.014 40.1096 26.992C40.1918 26.97 40.2776 26.9644 40.362 26.9755C40.4464 26.9866 40.5277 27.0143 40.6014 27.0569L41.4435 27.543C41.5924 27.629 41.7009 27.7706 41.7454 27.9366C41.7899 28.1026 41.7666 28.2795 41.6807 28.4284L41.0736 29.4801C41.6132 29.9006 42.0987 30.3862 42.5193 30.9258L43.571 30.3187C43.6447 30.2761 43.7261 30.2484 43.8104 30.2373C43.8948 30.2261 43.9806 30.2317 44.0628 30.2538C44.145 30.2758 44.2221 30.3138 44.2896 30.3656C44.3572 30.4175 44.4138 30.4821 44.4563 30.5558L44.9424 31.3979C45.0284 31.5468 45.0517 31.7237 45.0072 31.8897C44.9627 32.0557 44.8541 32.1973 44.7053 32.2832L43.6553 32.8895C43.9132 33.5235 44.0907 34.1873 44.1838 34.8654H45.3971C45.569 34.8654 45.7339 34.9337 45.8554 35.0552C45.977 35.1768 46.0453 35.3417 46.0453 35.5136V36.4858Z" fill="#000040"/>
</g>
<defs>
<clipPath id="clip0_2064_1012">
<rect width="55.9059" height="55.9059" fill="white" transform="translate(8.04688 8.04688)"/>
</clipPath>
</defs>
</svg>
