<svg width="32" height="32" viewBox="0 0 32 32" fill="none" xmlns="http://www.w3.org/2000/svg">
<path d="M0 29.312L3.11008e-06 14.8407H5.31565C6.11465 14.8407 6.31847 15.0445 6.33866 15.8598C6.35885 16.6751 6.33866 24.4203 6.33866 24.4203H12.8408V12.8025C12.8408 11.9872 13.0446 11.7834 13.8599 11.7834H18.1401C18.9554 11.7834 19.1592 11.9872 19.1592 12.8025V24.4203H25.6815V11.1719C25.6815 10.3566 25.8854 10.1528 26.7006 10.1528H32V29.312C32 30.3311 31.3885 30.7388 30.3694 30.7388H1.42675C0.605601 30.7388 -2.39236e-06 30.3311 0 29.312Z" fill="#4D4D4D"/>
<path d="M0 3.42675L3.11008e-06 13.2102H5.31565C6.11465 13.2102 6.31847 12.8025 6.33866 11.9873C6.35885 11.172 6.33866 8.31847 6.33866 8.31847H32V3.42675C32 2.40764 31.3885 2 30.3694 2H1.42675C0.605601 2 -2.39236e-06 2.40764 0 3.42675Z" fill="#336699"/>
</svg>
