<svg xmlns="http://www.w3.org/2000/svg" width="25" height="25" viewBox="0 0 25 25" fill="none">
  <path d="M12.5555 2.4306C10.553 2.4306 8.59545 3.02442 6.9304 4.13697C5.26535 5.24952 3.9676 6.83083 3.20127 8.68093C2.43493 10.531 2.23442 12.5668 2.6251 14.5309C3.01577 16.4949 3.98008 18.2991 5.39609 19.7151C6.8121 21.1311 8.6162 22.0954 10.5803 22.4861C12.5443 22.8767 14.5801 22.6762 16.4302 21.9099C18.2803 21.1435 19.8616 19.8458 20.9742 18.1808C22.0867 16.5157 22.6805 14.5581 22.6805 12.5556C22.6776 9.8712 21.6099 7.2976 19.7117 5.39944C17.8136 3.50128 15.2399 2.43358 12.5555 2.4306ZM13.6805 20.349V15.1806H15.5555C15.8539 15.1806 16.1401 15.0621 16.351 14.8511C16.562 14.6401 16.6805 14.354 16.6805 14.0556C16.6805 13.7572 16.562 13.4711 16.351 13.2601C16.1401 13.0491 15.8539 12.9306 15.5555 12.9306H13.6805V11.0556C13.6805 10.7572 13.7991 10.4711 14.0101 10.2601C14.221 10.0491 14.5072 9.9306 14.8055 9.9306H16.3055C16.6039 9.9306 16.8901 9.81208 17.101 9.6011C17.312 9.39012 17.4305 9.10397 17.4305 8.8056C17.4305 8.50723 17.312 8.22109 17.101 8.01011C16.8901 7.79913 16.6039 7.6806 16.3055 7.6806H14.8055C13.9104 7.6806 13.052 8.03618 12.4191 8.66912C11.7861 9.30205 11.4305 10.1605 11.4305 11.0556V12.9306H9.55555C9.25718 12.9306 8.97103 13.0491 8.76005 13.2601C8.54907 13.4711 8.43055 13.7572 8.43055 14.0556C8.43055 14.354 8.54907 14.6401 8.76005 14.8511C8.97103 15.0621 9.25718 15.1806 9.55555 15.1806H11.4305V20.349C9.46001 20.0646 7.67034 19.0444 6.42171 17.4936C5.17309 15.9429 4.55819 13.9767 4.70077 11.9909C4.84334 10.005 5.73281 8.14688 7.19017 6.79041C8.64753 5.43393 10.5646 4.67981 12.5555 4.67981C14.5465 4.67981 16.4636 5.43393 17.9209 6.79041C19.3783 8.14688 20.2678 10.005 20.4103 11.9909C20.5529 13.9767 19.938 15.9429 18.6894 17.4936C17.4408 19.0444 15.6511 20.0646 13.6805 20.349Z" fill="white"/>
</svg>