  <svg
                xmlns="http://www.w3.org/2000/svg"
                width="57"
                height="58"
                viewBox="0 0 57 58"
                fill="none"
              >
                <path
                  d="M51.633 5.29857C48.492 2.1171 44.2327 0.329895 39.7916 0.329895C35.3505 0.329895 31.0911 2.1171 27.9501 5.29857L9.60362 23.6639C9.21355 24.0568 8.90423 24.5242 8.69355 25.0391C8.48286 25.5539 8.37498 26.106 8.37616 26.6633V46.1239L0.613586 53.9872C0.419055 54.1843 0.264745 54.4184 0.159465 54.6759C0.0541861 54.9335 0 55.2095 0 55.4883C0 55.767 0.0541861 56.0431 0.159465 56.3006C0.264745 56.5582 0.419055 56.7922 0.613586 56.9893C1.00646 57.3874 1.53931 57.6111 2.09491 57.6111C2.37002 57.6111 2.64244 57.5562 2.8966 57.4495C3.15077 57.3428 3.38171 57.1864 3.57624 56.9893L11.3388 49.1234H30.5437C31.0931 49.1243 31.6372 49.0151 32.1448 48.8021C32.6523 48.5891 33.1133 48.2765 33.5012 47.8822L51.6199 29.318C53.1785 27.7425 54.4154 25.8711 55.2596 23.8108C56.1039 21.7506 56.5391 19.5419 56.5403 17.311C56.5416 15.0802 56.1088 12.871 55.2667 10.8098C54.4247 8.7486 53.1899 6.87582 51.633 5.29857ZM30.9023 8.29801C33.2152 5.95328 36.3396 4.61538 39.6109 4.56884C42.8823 4.52231 46.0425 5.77081 48.4194 8.04883C50.7964 10.3268 52.2025 13.4546 52.3389 16.767C52.4752 20.0793 51.3309 23.3149 49.1493 25.7855H34.3727L43.3627 16.6784C43.7556 16.2803 43.9763 15.7404 43.9763 15.1774C43.9763 14.6144 43.7556 14.0744 43.3627 13.6763C42.9698 13.2782 42.437 13.0546 41.8814 13.0546C41.3258 13.0546 40.7929 13.2782 40.4001 13.6763L25.1262 29.1509V14.0821L30.9023 8.29801ZM12.5637 26.6739L20.9387 18.275V33.3915L12.5637 41.878V26.6739ZM30.5437 44.8801H15.5263L30.1826 30.0288H45.0325L30.5437 44.8801Z"
                  fill="white"
                />
              </svg>