<svg xmlns="http://www.w3.org/2000/svg" width="80" height="80" viewBox="0 0 43 43" fill="none">
  <g clip-path="url(#clip0_187_92)">
    <path d="M10.2881 28.1978C9.93815 28.1978 9.60221 28.1278 9.28027 27.9878C8.95833 27.8479 8.66439 27.6519 8.39844 27.3999L0.776855 19.7784C0.258952 19.2605 0 18.6306 0 17.8887C0 17.5108 0.069987 17.1608 0.209961 16.8389C0.349935 16.517 0.5389 16.237 0.776855 15.9991C1.01481 15.7611 1.30176 15.5721 1.6377 15.4322C1.97363 15.2922 2.32357 15.2222 2.6875 15.2222C3.05143 15.2222 3.39437 15.2852 3.71631 15.4112C4.03825 15.5371 4.33219 15.7331 4.59814 15.9991L12.1987 23.5997C12.4507 23.8516 12.6396 24.1386 12.7656 24.4605C12.8916 24.7824 12.9616 25.1324 12.9756 25.5103C12.9756 25.8742 12.9056 26.2172 12.7656 26.5391C12.6257 26.861 12.4367 27.148 12.1987 27.3999C11.9608 27.6519 11.6738 27.8479 11.3379 27.9878C11.002 28.1278 10.652 28.1978 10.2881 28.1978ZM25.4893 12.9966C25.1393 12.9966 24.8034 12.9266 24.4814 12.7867C24.1595 12.6467 23.8656 12.4507 23.5996 12.1988L15.999 4.59819C15.4671 4.06628 15.2012 3.4294 15.2012 2.68754C15.2012 2.30961 15.2712 1.95968 15.4111 1.63774C15.5511 1.3158 15.7401 1.03585 15.978 0.797892C16.216 0.559937 16.5029 0.363973 16.8389 0.210002C17.1748 0.0560303 17.5247 -0.0139567 17.8887 4.06903e-05C18.6305 4.06903e-05 19.2604 0.258992 19.7783 0.776896L27.3999 8.39848C27.6519 8.65043 27.8408 8.93738 27.9668 9.25932C28.0928 9.58126 28.1628 9.93119 28.1768 10.3091C28.1768 10.6731 28.1068 11.016 27.9668 11.3379C27.8268 11.6599 27.6379 11.9468 27.3999 12.1988C27.1619 12.4507 26.875 12.6467 26.5391 12.7867C26.2031 12.9266 25.8532 12.9966 25.4893 12.9966ZM14.5713 21.2061L6.9707 13.6055L13.6055 6.97074L21.2061 14.5713L14.5713 21.2061ZM40.6904 38.8008C40.9564 39.0668 41.0894 39.3817 41.0894 39.7456C41.0894 40.1096 40.9564 40.4245 40.6904 40.6905C40.4245 40.9564 40.1095 41.0894 39.7456 41.0894C39.3817 41.0894 39.0667 40.9564 38.8008 40.6905L18.8335 20.7442L20.7441 18.8335L40.6904 38.8008ZM0 40.3125H21.5V43H0V40.3125ZM2.6875 34.9375H18.8125V37.625H2.6875V34.9375Z" fill="white"/>
  </g>
  <defs>
    <clipPath id="clip0_187_92">
      <rect width="43" height="43" fill="white"/>
    </clipPath>
  </defs>
</svg>