<svg xmlns="http://www.w3.org/2000/svg" width="60" height="60" viewBox="0 0 43 43" fill="none">
  <path d="M42.715 18.1256L38.4285 9.54908C38.2705 9.23341 38.052 8.95194 37.7853 8.72074C37.5186 8.48954 37.209 8.31315 36.8741 8.20162C36.5392 8.0901 36.1856 8.04563 35.8336 8.07077C35.4815 8.0959 35.1378 8.19014 34.8222 8.34811L30.6448 10.436L21.8449 8.10791C21.6191 8.04915 21.382 8.04915 21.1562 8.10791L12.3563 10.436L8.17897 8.34811C7.86332 8.19014 7.51965 8.0959 7.16758 8.07077C6.81552 8.04563 6.46194 8.0901 6.12706 8.20162C5.79218 8.31315 5.48255 8.48954 5.21584 8.72074C4.94914 8.95194 4.73059 9.23341 4.57268 9.54908L0.286114 18.1239C0.12815 18.4395 0.0339097 18.7832 0.00877563 19.1353C-0.0163584 19.4873 0.028106 19.8409 0.13963 20.1758C0.251153 20.5107 0.427551 20.8203 0.65875 21.087C0.88995 21.3537 1.17142 21.5723 1.48709 21.7302L6.02225 23.9994L15.3428 30.656C15.4802 30.7537 15.6346 30.825 15.798 30.866L26.548 33.5535C26.7732 33.61 27.0091 33.6071 27.2328 33.5453C27.4565 33.4835 27.6604 33.3648 27.8246 33.2008L37.0746 23.949L41.5124 21.7302C42.1494 21.4113 42.6338 20.8524 42.859 20.1765C43.0842 19.5006 43.0318 18.7629 42.7133 18.1256H42.715ZM33.4952 23.7307L27.7154 19.1015C27.4565 18.8941 27.13 18.7898 26.7988 18.8088C26.4676 18.8277 26.1551 18.9684 25.9215 19.2039C22.93 22.2173 19.5958 21.836 17.4693 20.4922L24.7323 13.4376H30.0754L34.6458 22.5767L33.4952 23.7307ZM6.97631 10.7501L10.4146 12.4667L6.11967 21.0415L2.68807 19.3265L6.97631 10.7501ZM26.4607 30.7602L16.7 28.3213L8.43596 22.4188L13.1391 13.0126L21.5006 10.7971L23.1467 11.2321L15.5881 18.569L15.5746 18.5841C15.2901 18.8687 15.0731 19.2134 14.9396 19.593C14.8062 19.9726 14.7596 20.3774 14.8035 20.7774C14.8473 21.1774 14.9804 21.5624 15.193 21.9041C15.4055 22.2457 15.6921 22.5353 16.0315 22.7514C19.4849 24.9569 23.6522 24.5991 26.9344 21.9116L31.5787 25.6422L26.4607 30.7602ZM36.8747 21.0398L32.5882 12.4734L36.0248 10.7501L40.3131 19.3265L36.8747 21.0398ZM22.1355 36.6055C22.0629 36.8959 21.8954 37.1538 21.6596 37.3382C21.4237 37.5226 21.1331 37.623 20.8337 37.6234C20.7233 37.6232 20.6133 37.6097 20.5062 37.5831L13.5069 35.8328C13.3432 35.7924 13.1887 35.7212 13.0517 35.6229L8.62576 32.4617C8.35362 32.248 8.17439 31.9376 8.12539 31.5951C8.07639 31.2526 8.1614 30.9044 8.36271 30.623C8.56402 30.3416 8.86613 30.1487 9.20611 30.0844C9.5461 30.0202 9.89776 30.0896 10.1879 30.2781L14.4056 33.2915L21.1646 34.9779C21.5103 35.0643 21.8075 35.2846 21.9908 35.5901C22.1741 35.8956 22.2286 36.2615 22.1422 36.6072L22.1355 36.6055Z" fill="white"/>
</svg>