<svg xmlns="http://www.w3.org/2000/svg" xmlns:xlink="http://www.w3.org/1999/xlink" width="140" zoomAndPan="magnify" viewBox="0 0 104.88 104.999996" height="140" preserveAspectRatio="xMidYMid meet" version="1.0"><defs><clipPath id="5e7d717931"><path d="M 0 7.074219 L 104.761719 7.074219 L 104.761719 97.71875 L 0 97.71875 Z M 0 7.074219 " clip-rule="nonzero"/></clipPath><clipPath id="fc049f6d5f"><path d="M 70 48 L 73.414062 48 L 73.414062 62 L 70 62 Z M 70 48 " clip-rule="nonzero"/></clipPath><clipPath id="11737836ef"><path d="M 31.464844 48 L 34 48 L 34 62 L 31.464844 62 Z M 31.464844 48 " clip-rule="nonzero"/></clipPath><clipPath id="3c245e651b"><path d="M 37 32.78125 L 68 32.78125 L 68 45 L 37 45 Z M 37 32.78125 " clip-rule="nonzero"/></clipPath><clipPath id="821370bc48"><path d="M 48 67 L 58 67 L 58 72.488281 L 48 72.488281 Z M 48 67 " clip-rule="nonzero"/></clipPath></defs><g clip-path="url(#5e7d717931)"><path fill="#336699" d="M 26.21875 97.910156 L 0 52.496094 L 26.21875 7.082031 L 78.660156 7.082031 L 104.878906 52.496094 L 78.660156 97.910156 Z M 26.21875 97.910156 " fill-opacity="1" fill-rule="nonzero"/></g><g clip-path="url(#fc049f6d5f)"><path fill="#ffffff" d="M 70.894531 48.8125 L 70.894531 61.207031 C 72.40625 59.992188 73.410156 57.699219 73.410156 55.011719 C 73.410156 52.320312 72.40625 50.027344 70.894531 48.8125 Z M 70.894531 48.8125 " fill-opacity="1" fill-rule="nonzero"/></g><path fill="#ffffff" d="M 38.179688 63.816406 C 36.792969 63.816406 35.664062 62.6875 35.664062 61.300781 L 35.664062 48.71875 C 35.664062 47.332031 36.792969 46.203125 38.179688 46.203125 C 39.566406 46.203125 40.695312 47.332031 40.695312 48.71875 L 40.695312 61.300781 C 40.695312 62.6875 39.566406 63.816406 38.179688 63.816406 Z M 38.179688 63.816406 " fill-opacity="1" fill-rule="nonzero"/><g clip-path="url(#11737836ef)"><path fill="#ffffff" d="M 33.988281 48.8125 C 32.472656 50.027344 31.46875 52.320312 31.46875 55.011719 C 31.46875 57.699219 32.472656 59.992188 33.988281 61.207031 Z M 33.988281 48.8125 " fill-opacity="1" fill-rule="nonzero"/></g><g clip-path="url(#3c245e651b)"><path fill="#ffffff" d="M 66.699219 44.527344 C 66.855469 44.527344 67.007812 44.554688 67.160156 44.574219 C 65.648438 37.835938 59.625 32.78125 52.441406 32.78125 C 45.253906 32.78125 39.230469 37.835938 37.71875 44.574219 C 37.871094 44.554688 38.023438 44.527344 38.179688 44.527344 C 38.609375 44.527344 39.015625 44.609375 39.410156 44.730469 C 40.832031 38.847656 46.125 34.460938 52.441406 34.460938 C 58.753906 34.460938 64.050781 38.847656 65.472656 44.730469 C 65.863281 44.609375 66.269531 44.527344 66.699219 44.527344 Z M 66.699219 44.527344 " fill-opacity="1" fill-rule="nonzero"/></g><path fill="#ffffff" d="M 66.699219 63.816406 C 65.3125 63.816406 64.183594 62.6875 64.183594 61.300781 L 64.183594 48.71875 C 64.183594 47.332031 65.3125 46.203125 66.699219 46.203125 C 68.085938 46.203125 69.214844 47.332031 69.214844 48.71875 L 69.214844 61.300781 C 69.214844 62.6875 68.085938 63.816406 66.699219 63.816406 Z M 66.699219 63.816406 " fill-opacity="1" fill-rule="nonzero"/><g clip-path="url(#821370bc48)"><path fill="#ffffff" d="M 54.957031 72.207031 L 50.761719 72.207031 C 49.375 72.207031 48.246094 71.078125 48.246094 69.691406 C 48.246094 68.300781 49.375 67.171875 50.761719 67.171875 L 54.957031 67.171875 C 56.34375 67.171875 57.472656 68.300781 57.472656 69.691406 C 57.472656 71.078125 56.34375 72.207031 54.957031 72.207031 Z M 54.957031 72.207031 " fill-opacity="1" fill-rule="nonzero"/></g><path fill="#ffffff" d="M 66.699219 65.496094 C 66.285156 65.496094 65.894531 65.417969 65.519531 65.304688 C 64.777344 67.582031 62.855469 68.851562 59.988281 68.851562 L 59.066406 68.851562 C 59.121094 69.121094 59.152344 69.402344 59.152344 69.691406 C 59.152344 69.976562 59.121094 70.257812 59.066406 70.527344 L 59.988281 70.527344 C 63.757812 70.527344 66.367188 68.632812 67.230469 65.441406 C 67.054688 65.464844 66.878906 65.496094 66.699219 65.496094 Z M 66.699219 65.496094 " fill-opacity="1" fill-rule="nonzero"/></svg>