<svg width="72" height="72" viewBox="0 0 72 72" fill="none" xmlns="http://www.w3.org/2000/svg">
<rect width="72" height="72" rx="7.5" fill="white"/>
<rect width="72" height="72" rx="7.5" fill="white"/>
<path d="M26.828 27.876L32.5933 33.6413C33.1174 34.1654 33.8163 34.4275 34.4277 34.4275C35.0392 34.4275 35.738 34.1654 36.2621 33.6413L42.0274 27.876C43.5124 26.6531 44.2113 24.7313 43.8618 22.8095C43.5124 20.7131 41.8527 19.0534 39.8436 18.6166C38.2713 18.2672 36.6116 18.7039 35.3886 19.6648C34.9518 20.0142 34.6024 20.3637 34.3404 20.8004C34.0783 20.3637 33.7289 20.0142 33.2921 19.6648C32.0692 18.7039 30.4095 18.2672 28.8371 18.6166C26.828 19.0534 25.1683 20.7131 24.8189 22.8095C24.6442 24.7313 25.343 26.6531 26.828 27.876ZM26.6533 23.0716C26.9154 21.6739 27.9636 20.6257 29.3613 20.2763C30.4095 20.0142 31.4577 20.2763 32.3313 20.9751C33.1174 21.6739 33.6416 22.6348 33.6416 23.6831C33.6416 24.2072 33.991 24.5566 34.5151 24.5566C35.0392 24.5566 35.3886 24.2072 35.3886 23.6831C35.3886 22.6348 35.8254 21.6739 36.6989 20.9751C37.5724 20.2763 38.6207 20.0142 39.6689 20.2763C40.9792 20.5384 42.1148 21.6739 42.3768 23.0716C42.6389 24.3819 42.1148 25.6922 41.0666 26.4784C40.9792 26.5657 40.8918 26.5657 40.8918 26.6531L35.1266 32.4184C34.7771 32.7678 34.253 32.7678 33.9036 32.4184L28.313 26.8278C28.2257 26.7404 28.2257 26.6531 28.1383 26.6531C26.9154 25.7795 26.4786 24.4692 26.6533 23.0716ZM43.2504 34.6895V36.4366H44.5607V37.7469H46.3077V36.4366H47.618V34.6895H46.3077V33.3792H44.5607V34.6895H43.2504ZM17.4813 21.1498H19.2283V19.8395H20.5386V18.0925H19.2283V16.7822H17.4813V18.0925H16.171V19.8395H17.4813V21.1498ZM50.8501 13.2881H52.5971V12.4145H53.4707V10.6675H52.5971V9.79395H50.8501V10.6675H49.9766V12.4145H50.8501V13.2881ZM59.8474 42.9881H51.1121C50.588 42.9881 50.2386 43.3375 50.2386 43.8616V46.0454C49.2777 45.6087 47.7927 44.9098 46.3951 43.9489C43.6871 42.1145 33.5542 38.7078 33.0301 38.6204C32.5933 38.5331 28.8371 37.6595 27.7016 39.9307C26.566 42.2019 28.6624 44.3857 28.7498 44.4731C28.8371 44.5604 28.8371 44.5604 28.9245 44.5604L34.7771 48.2292C33.7289 48.8407 31.9818 49.6269 29.798 49.9763L26.6533 45.9581C26.3913 45.5213 24.8189 43.0754 22.7224 42.6386C21.8489 42.4639 20.9754 42.6386 20.1892 43.0754C18.0054 44.4731 18.5295 46.7442 19.0536 47.7925L19.403 48.3166C16.7824 47.4431 14.948 46.5695 14.948 46.4822C14.948 46.4822 14.8607 46.4822 14.8607 46.3948C13.6377 45.9581 11.2792 45.7834 10.3183 47.7051C9.18273 49.9763 11.2792 52.1601 11.3666 52.2475C11.4539 52.3348 11.4539 52.3348 11.5413 52.3348C11.6286 52.6842 18.5295 56.9645 26.566 57.8381C29.536 58.1875 33.0301 58.3622 36.4368 58.3622C40.5424 58.3622 44.648 58.1001 47.7927 57.3139L47.356 55.6542C41.9401 56.9645 32.8554 56.7898 26.7407 56.091C19.6651 55.3048 13.201 51.5487 12.3274 51.0245C12.0654 50.7625 11.1919 49.6269 11.716 48.5787C12.1527 47.6178 13.8124 48.0545 14.0745 48.1419C14.7733 48.4913 19.7524 50.8498 25.6051 51.7234C31.9818 52.5969 36.5242 49.1028 36.7863 48.9281C37.0483 48.7534 37.1357 48.4913 37.1357 48.2292C37.1357 47.9672 36.961 47.7051 36.6989 47.5304L29.798 43.2501C29.536 42.9881 28.6624 41.8525 29.1866 40.8042C29.6233 39.9307 31.7198 40.1928 32.506 40.3675C32.5933 40.3675 42.901 43.8616 45.4342 45.5213C47.356 46.8316 49.3651 47.6178 50.326 48.0545V59.5851C50.326 60.1092 50.6754 60.4586 51.1995 60.4586H59.9348C60.4589 60.4586 60.8083 60.1092 60.8083 59.5851V43.8616C60.721 43.3375 60.2842 42.9881 59.8474 42.9881ZM25.8671 49.9763C24.4695 49.8016 23.1592 49.4522 21.8489 49.1901L20.3639 47.0063C20.2766 46.8316 19.5777 45.5213 20.9754 44.6478C21.3248 44.3857 21.6742 44.2984 22.111 44.3857C23.3339 44.6478 24.5569 46.3075 24.9936 46.9189C24.9936 46.9189 24.9936 47.0063 25.081 47.0063L27.5268 50.0636C27.0027 50.0636 26.4786 50.0637 25.8671 49.9763ZM58.9739 58.7116H51.9857V44.7351H58.9739V58.7116Z" fill="#000040"/>
</svg>
