  <svg
                  xmlns="http://www.w3.org/2000/svg"
                  width="69"
                  height="71"
                  viewBox="0 0 69 71"
                  fill="none"
                >
                  <path
                    d="M36.88 60.97C36.5632 61.4524 36.0704 61.7875 35.5099 61.9017C34.9493 62.016 34.367 61.8999 33.8909 61.5791C25.7676 56.1032 16.2252 53.1893 6.46875 53.2053C5.89688 53.2053 5.34843 52.9751 4.94405 52.5653C4.53968 52.1555 4.3125 51.5998 4.3125 51.0203C4.3125 50.4408 4.53968 49.8851 4.94405 49.4753C5.34843 49.0655 5.89688 48.8353 6.46875 48.8353C17.0751 48.8189 27.4485 51.9876 36.2789 57.9411C36.7549 58.2621 37.0856 58.7615 37.1984 59.3295C37.3111 59.8975 37.1965 60.4876 36.88 60.97ZM6.46875 40.0955C5.89688 40.0955 5.34843 40.3257 4.94405 40.7355C4.53968 41.1452 4.3125 41.701 4.3125 42.2805C4.3125 42.86 4.53968 43.4157 4.94405 43.8255C5.34843 44.2352 5.89688 44.4654 6.46875 44.4654C21.7103 44.4301 36.3508 50.4861 47.2138 61.3196C47.4142 61.5285 47.6538 61.6946 47.9185 61.8082C48.1832 61.9218 48.4676 61.9807 48.7551 61.9813C49.0425 61.9819 49.3272 61.9243 49.5924 61.8118C49.8575 61.6993 50.0978 61.5342 50.2991 61.3263C50.5004 61.1183 50.6586 60.8716 50.7644 60.6008C50.8702 60.33 50.9216 60.0405 50.9154 59.7492C50.9092 59.458 50.8456 59.171 50.7283 58.905C50.611 58.6391 50.4425 58.3996 50.2325 58.2006C38.5657 46.5628 22.84 40.0571 6.46875 40.0955ZM62.5312 44.4654C58.1239 44.4625 53.7303 44.9655 49.4347 45.9649C50.9154 47.1029 52.3529 48.3009 53.7472 49.5591C56.6511 49.0772 59.5887 48.8351 62.5312 48.8353C63.1031 48.8353 63.6516 49.0655 64.056 49.4753C64.4603 49.8851 64.6875 50.4408 64.6875 51.0203C64.6875 51.5998 64.4603 52.1555 64.056 52.5653C63.6516 52.9751 63.1031 53.2053 62.5312 53.2053C60.9141 53.2053 59.3157 53.2845 57.7201 53.4401C59.2151 55.0188 60.6472 56.6702 62.0164 58.3945C62.204 58.6171 62.3455 58.8756 62.4326 59.1546C62.5197 59.4337 62.5505 59.7276 62.5233 60.019C62.4962 60.3104 62.4115 60.5933 62.2743 60.8508C62.1372 61.1084 61.9504 61.3355 61.725 61.5185C61.4996 61.7015 61.2402 61.8367 60.9622 61.9162C60.6843 61.9957 60.3934 62.0178 60.1068 61.9811C59.8202 61.9445 59.5439 61.8499 59.2941 61.703C59.0443 61.556 58.8262 61.3597 58.6527 61.1257C52.4028 53.1841 44.4638 46.7751 35.428 42.377C26.3922 37.9789 16.4929 35.7052 6.46875 35.7256C5.89688 35.7256 5.34843 35.4954 4.94405 35.0856C4.53968 34.6759 4.3125 34.1201 4.3125 33.5406C4.3125 32.9612 4.53968 32.4054 4.94405 31.9956C5.34843 31.5859 5.89688 31.3557 6.46875 31.3557C10.808 31.3565 15.1382 31.756 19.4062 32.5492V22.6159C19.4062 22.2766 19.4842 21.9421 19.6339 21.6387C19.7836 21.3353 20.001 21.0714 20.2687 20.8679L37.5187 7.75814C37.892 7.47449 38.346 7.32115 38.8125 7.32115C39.279 7.32115 39.733 7.47449 40.1063 7.75814L57.3563 20.8679C57.624 21.0714 57.8414 21.3353 57.9911 21.6387C58.1408 21.9421 58.2188 22.2766 58.2188 22.6159V31.4895C59.65 31.4048 61.0866 31.3557 62.5312 31.3557C63.1031 31.3557 63.6516 31.5859 64.056 31.9956C64.4603 32.4054 64.6875 32.9612 64.6875 33.5406C64.6875 34.1201 64.4603 34.6759 64.056 35.0856C63.6516 35.4954 63.1031 35.7256 62.5312 35.7256C54.788 35.7106 47.1019 37.0685 39.8205 39.7377C41.5168 40.6481 43.1753 41.6295 44.7961 42.682C50.5548 40.9623 56.5277 40.0912 62.5312 40.0955C63.1031 40.0955 63.6516 40.3257 64.056 40.7355C64.4603 41.1452 64.6875 41.701 64.6875 42.2805C64.6875 42.86 64.4603 43.4157 64.056 43.8255C63.6516 44.2352 63.1031 44.4654 62.5312 44.4654ZM32.3438 24.8008H45.2812C45.8531 24.8008 46.4016 25.031 46.806 25.4408C47.2103 25.8505 47.4375 26.4063 47.4375 26.9858V32.978C49.5722 32.5119 51.7284 32.1477 53.9062 31.8855V23.7083L38.8125 12.2373L23.7188 23.7083V33.4887C25.9091 34.035 28.0654 34.6887 30.1875 35.4497V26.9858C30.1875 26.4063 30.4147 25.8505 30.8191 25.4408C31.2234 25.031 31.7719 24.8008 32.3438 24.8008ZM34.5189 37.1649C37.3188 35.9467 40.1935 34.9131 43.125 34.0705V29.1707H34.5V37.1567L34.5189 37.1649Z"
                    fill="white"
                  />
                </svg>