<svg xmlns="http://www.w3.org/2000/svg" xmlns:xlink="http://www.w3.org/1999/xlink" width="140" zoomAndPan="magnify" viewBox="0 0 104.88 104.999996" height="140" preserveAspectRatio="xMidYMid meet" version="1.0"><defs><clipPath id="80f3172bc9"><path d="M 0 7.074219 L 104.761719 7.074219 L 104.761719 97.71875 L 0 97.71875 Z M 0 7.074219 " clip-rule="nonzero"/></clipPath><clipPath id="6b55db6554"><path d="M 32.460938 31.523438 L 72.164062 31.523438 L 72.164062 73.476562 L 32.460938 73.476562 Z M 32.460938 31.523438 " clip-rule="nonzero"/></clipPath></defs><g clip-path="url(#80f3172bc9)"><path fill="#000040" d="M 26.21875 97.910156 L 0 52.496094 L 26.21875 7.082031 L 78.660156 7.082031 L 104.878906 52.496094 L 78.660156 97.910156 Z M 26.21875 97.910156 " fill-opacity="1" fill-rule="nonzero"/></g><g clip-path="url(#6b55db6554)"><path fill="#ffffff" d="M 52.535156 31.628906 C 48.148438 31.628906 44.585938 35.195312 44.585938 39.582031 L 38.621094 39.582031 C 36.636719 39.582031 34.984375 40.964844 34.675781 43.015625 L 32.703125 68.953125 C 32.527344 70.09375 32.882812 71.238281 33.671875 72.089844 C 34.421875 72.902344 35.503906 73.371094 36.632812 73.371094 L 68.4375 73.371094 C 69.566406 73.371094 70.644531 72.902344 71.394531 72.09375 C 72.1875 71.238281 72.539062 70.09375 72.382812 69.101562 L 70.398438 43.015625 L 70.378906 42.863281 C 70.085938 40.960938 68.433594 39.582031 66.449219 39.582031 L 60.484375 39.582031 C 60.484375 35.195312 56.917969 31.628906 52.535156 31.628906 Z M 52.535156 35.605469 C 54.726562 35.605469 56.511719 37.386719 56.511719 39.582031 L 48.558594 39.582031 C 48.558594 37.386719 50.34375 35.605469 52.535156 35.605469 Z M 41.953125 47.9375 L 45.207031 47.9375 L 45.207031 55.816406 L 45.53125 55.378906 L 47.984375 52.328125 L 51.882812 52.328125 L 48.226562 56.625 L 52.125 62.777344 L 48.402344 62.777344 L 46.121094 58.886719 L 45.203125 59.800781 L 45.203125 62.777344 L 41.953125 62.777344 Z M 57.316406 52.140625 C 58.40625 52.140625 59.257812 52.503906 59.863281 53.238281 L 59.980469 52.328125 L 62.933594 52.328125 L 62.933594 62.378906 C 62.933594 63.300781 62.722656 64.097656 62.289062 64.777344 C 61.863281 65.457031 61.246094 65.976562 60.433594 66.339844 C 59.625 66.703125 58.683594 66.882812 57.617188 66.882812 C 56.851562 66.882812 56.109375 66.738281 55.390625 66.449219 C 54.675781 66.15625 54.125 65.785156 53.746094 65.320312 L 55.109375 63.410156 C 55.714844 64.121094 56.511719 64.480469 57.5 64.480469 C 58.941406 64.480469 59.664062 63.742188 59.664062 62.261719 L 59.664062 61.933594 C 59.039062 62.621094 58.25 62.964844 57.296875 62.964844 C 56.023438 62.964844 54.996094 62.480469 54.207031 61.507812 C 53.421875 60.53125 53.03125 59.230469 53.03125 57.59375 L 53.03125 57.476562 C 53.03125 56.421875 53.207031 55.488281 53.550781 54.679688 C 53.902344 53.867188 54.402344 53.238281 55.050781 52.800781 C 55.699219 52.359375 56.453125 52.140625 57.316406 52.140625 Z M 58.148438 54.648438 C 57.566406 54.644531 57.117188 54.90625 56.785156 55.421875 C 56.457031 55.945312 56.292969 56.691406 56.292969 57.679688 C 56.292969 58.535156 56.457031 59.210938 56.777344 59.707031 C 57.097656 60.207031 57.546875 60.457031 58.128906 60.457031 C 58.828125 60.457031 59.339844 60.21875 59.664062 59.75 L 59.664062 55.359375 C 59.347656 54.886719 58.84375 54.648438 58.148438 54.648438 Z M 58.148438 54.648438 " fill-opacity="1" fill-rule="nonzero"/></g></svg>