<svg xmlns="http://www.w3.org/2000/svg" xmlns:xlink="http://www.w3.org/1999/xlink" width="140" zoomAndPan="magnify" viewBox="0 0 104.88 104.999996" height="140" preserveAspectRatio="xMidYMid meet" version="1.0"><defs><clipPath id="da521649af"><path d="M 0 7.074219 L 104.761719 7.074219 L 104.761719 97.71875 L 0 97.71875 Z M 0 7.074219 " clip-rule="nonzero"/></clipPath><clipPath id="36c63ba8d7"><path d="M 31.464844 31.523438 L 73.414062 31.523438 L 73.414062 73.476562 L 31.464844 73.476562 Z M 31.464844 31.523438 " clip-rule="nonzero"/></clipPath></defs><g clip-path="url(#da521649af)"><path fill="#336699" d="M 26.21875 97.910156 L 0 52.496094 L 26.21875 7.082031 L 78.660156 7.082031 L 104.878906 52.496094 L 78.660156 97.910156 Z M 26.21875 97.910156 " fill-opacity="1" fill-rule="nonzero"/></g><g clip-path="url(#36c63ba8d7)"><path fill="#ffffff" d="M 32.863281 36.414062 C 32.863281 34.496094 34.429688 32.929688 36.359375 32.921875 L 36.367188 32.921875 C 36.578125 32.921875 36.808594 32.945312 37.042969 32.988281 C 38.710938 33.308594 39.917969 34.84375 39.847656 36.566406 C 39.820312 37.378906 39.511719 38.054688 38.917969 38.621094 C 38.460938 39.058594 38.320312 39.71875 38.558594 40.308594 C 38.796875 40.917969 39.375 41.308594 40.019531 41.308594 L 60.128906 41.308594 L 60.128906 54.554688 C 56.457031 55.96875 53.839844 59.523438 53.839844 63.6875 C 53.839844 65.1875 54.1875 66.609375 54.796875 67.882812 L 33.5625 67.882812 C 33.175781 67.882812 32.863281 67.566406 32.863281 67.183594 Z M 60.652344 32.921875 C 62.621094 32.921875 64.269531 34.445312 64.324219 36.3125 C 64.355469 37.269531 64.003906 38.167969 63.339844 38.847656 C 62.675781 39.535156 61.785156 39.910156 60.828125 39.910156 L 40.019531 39.910156 C 39.914062 39.910156 39.867188 39.828125 39.855469 39.792969 C 39.816406 39.695312 39.863281 39.652344 39.882812 39.632812 C 40.742188 38.8125 41.199219 37.796875 41.246094 36.621094 C 41.304688 35.199219 40.738281 33.867188 39.78125 32.921875 Z M 72.019531 63.6875 C 72.019531 68.3125 68.253906 72.078125 63.628906 72.078125 C 59 72.078125 55.238281 68.3125 55.238281 63.6875 C 55.238281 59.058594 59 55.296875 63.628906 55.296875 C 68.253906 55.296875 72.019531 59.058594 72.019531 63.6875 Z M 33.5625 69.28125 L 55.605469 69.28125 C 57.375 71.8125 60.308594 73.476562 63.628906 73.476562 C 69.023438 73.476562 73.414062 69.085938 73.414062 63.6875 C 73.414062 58.289062 69.023438 53.898438 63.628906 53.898438 C 62.90625 53.898438 62.207031 53.984375 61.527344 54.128906 L 61.527344 41.253906 C 62.597656 41.101562 63.578125 40.613281 64.34375 39.824219 C 65.269531 38.867188 65.761719 37.605469 65.722656 36.269531 C 65.644531 33.652344 63.371094 31.523438 60.652344 31.523438 L 36.359375 31.523438 C 36.359375 31.523438 36.359375 31.523438 36.355469 31.523438 C 33.65625 31.53125 31.464844 33.726562 31.464844 36.414062 L 31.464844 67.183594 C 31.464844 68.339844 32.402344 69.28125 33.5625 69.28125 " fill-opacity="1" fill-rule="nonzero"/></g><path fill="#ffffff" d="M 61.53125 60.890625 C 61.53125 59.980469 62.117188 59.210938 62.929688 58.921875 L 62.929688 62.859375 C 62.117188 62.570312 61.53125 61.800781 61.53125 60.890625 Z M 65.726562 66.484375 C 65.726562 67.394531 65.136719 68.164062 64.328125 68.453125 L 64.328125 64.515625 C 65.136719 64.804688 65.726562 65.574219 65.726562 66.484375 Z M 61.53125 66.484375 C 61.53125 66.097656 61.214844 65.785156 60.832031 65.785156 C 60.445312 65.785156 60.132812 66.097656 60.132812 66.484375 C 60.132812 68.171875 61.332031 69.582031 62.929688 69.910156 L 62.929688 69.980469 C 62.929688 70.363281 63.242188 70.679688 63.628906 70.679688 C 64.011719 70.679688 64.328125 70.363281 64.328125 69.980469 L 64.328125 69.910156 C 65.921875 69.582031 67.125 68.171875 67.125 66.484375 C 67.125 64.796875 65.921875 63.382812 64.328125 63.058594 L 64.328125 58.921875 C 65.136719 59.210938 65.726562 59.980469 65.726562 60.890625 C 65.726562 61.277344 66.039062 61.589844 66.425781 61.589844 C 66.808594 61.589844 67.125 61.277344 67.125 60.890625 C 67.125 59.203125 65.921875 57.789062 64.328125 57.464844 L 64.328125 57.394531 C 64.328125 57.007812 64.011719 56.695312 63.628906 56.695312 C 63.242188 56.695312 62.929688 57.007812 62.929688 57.394531 L 62.929688 57.464844 C 61.332031 57.789062 60.132812 59.203125 60.132812 60.890625 C 60.132812 62.578125 61.332031 63.992188 62.929688 64.316406 L 62.929688 68.453125 C 62.117188 68.164062 61.53125 67.394531 61.53125 66.484375 " fill-opacity="1" fill-rule="nonzero"/><path fill="#ffffff" d="M 41.226562 61.847656 C 40.8125 61.402344 40.554688 60.84375 40.554688 60.191406 C 40.554688 59.804688 40.867188 59.492188 41.253906 59.492188 C 41.636719 59.492188 41.953125 59.804688 41.953125 60.191406 C 41.953125 60.832031 41.691406 61.394531 41.226562 61.847656 Z M 51.042969 62.988281 C 49.355469 62.988281 48.136719 61.21875 48.128906 61.203125 C 47.980469 60.980469 47.71875 60.859375 47.453125 60.894531 C 47.1875 60.929688 46.964844 61.113281 46.882812 61.367188 C 46.875 61.382812 46.316406 62.988281 44.050781 62.988281 C 43.492188 62.988281 42.921875 62.871094 42.40625 62.652344 C 43.011719 61.976562 43.351562 61.140625 43.351562 60.191406 C 43.351562 59.03125 42.410156 58.09375 41.253906 58.09375 C 40.09375 58.09375 39.15625 59.03125 39.15625 60.191406 C 39.15625 61.132812 39.492188 61.945312 40.03125 62.59375 C 39.394531 62.847656 38.621094 62.988281 37.757812 62.988281 C 37.371094 62.988281 37.058594 63.300781 37.058594 63.6875 C 37.058594 64.074219 37.371094 64.386719 37.757812 64.386719 C 39.101562 64.386719 40.277344 64.101562 41.199219 63.589844 C 42.050781 64.105469 43.066406 64.386719 44.050781 64.386719 C 45.984375 64.386719 47.074219 63.519531 47.648438 62.792969 C 48.335938 63.492188 49.519531 64.386719 51.042969 64.386719 C 51.425781 64.386719 51.742188 64.074219 51.742188 63.6875 C 51.742188 63.300781 51.425781 62.988281 51.042969 62.988281 " fill-opacity="1" fill-rule="nonzero"/><path fill="#ffffff" d="M 35.660156 55.996094 L 54.539062 55.996094 C 54.921875 55.996094 55.238281 55.683594 55.238281 55.296875 C 55.238281 54.910156 54.921875 54.597656 54.539062 54.597656 L 35.660156 54.597656 C 35.273438 54.597656 34.960938 54.910156 34.960938 55.296875 C 34.960938 55.683594 35.273438 55.996094 35.660156 55.996094 " fill-opacity="1" fill-rule="nonzero"/><path fill="#ffffff" d="M 35.660156 52.5 L 57.335938 52.5 C 57.71875 52.5 58.035156 52.1875 58.035156 51.800781 C 58.035156 51.414062 57.71875 51.101562 57.335938 51.101562 L 35.660156 51.101562 C 35.273438 51.101562 34.960938 51.414062 34.960938 51.800781 C 34.960938 52.1875 35.273438 52.5 35.660156 52.5 " fill-opacity="1" fill-rule="nonzero"/><path fill="#ffffff" d="M 35.660156 49.003906 L 57.335938 49.003906 C 57.71875 49.003906 58.035156 48.691406 58.035156 48.304688 C 58.035156 47.917969 57.71875 47.605469 57.335938 47.605469 L 35.660156 47.605469 C 35.273438 47.605469 34.960938 47.917969 34.960938 48.304688 C 34.960938 48.691406 35.273438 49.003906 35.660156 49.003906 " fill-opacity="1" fill-rule="nonzero"/><path fill="#ffffff" d="M 35.660156 45.507812 L 57.335938 45.507812 C 57.71875 45.507812 58.035156 45.195312 58.035156 44.808594 C 58.035156 44.421875 57.71875 44.109375 57.335938 44.109375 L 35.660156 44.109375 C 35.273438 44.109375 34.960938 44.421875 34.960938 44.808594 C 34.960938 45.195312 35.273438 45.507812 35.660156 45.507812 " fill-opacity="1" fill-rule="nonzero"/></svg>