<svg width="48" height="48" viewBox="0 0 48 48" fill="none" xmlns="http://www.w3.org/2000/svg">
<rect width="48" height="48" rx="5" fill="white"/>
<rect width="48" height="48" rx="5" fill="#000040"/>
<path d="M33.301 22.08C33.02 21.7427 32.6684 21.4711 32.271 21.2845C31.8736 21.0979 31.44 21.0008 31.001 21H26.441L27.001 19.57C27.2339 18.9439 27.3115 18.2706 27.227 17.608C27.1426 16.9453 26.8987 16.313 26.5162 15.7653C26.1337 15.2176 25.624 14.7708 25.0309 14.4634C24.4378 14.1559 23.779 13.9969 23.111 14C22.9186 14.0004 22.7305 14.0563 22.569 14.161C22.4076 14.2656 22.2798 14.4146 22.201 14.59L19.351 21H17.001C16.2053 21 15.4423 21.3161 14.8797 21.8787C14.317 22.4413 14.001 23.2044 14.001 24V31C14.001 31.7957 14.317 32.5588 14.8797 33.1214C15.4423 33.684 16.2053 34 17.001 34H29.731C30.4328 33.9998 31.1123 33.7535 31.6513 33.3041C32.1903 32.8546 32.5547 32.2304 32.681 31.54L33.951 24.54C34.0295 24.1074 34.012 23.6628 33.8997 23.2377C33.7874 22.8126 33.583 22.4174 33.301 22.08ZM19.001 32H17.001C16.7358 32 16.4814 31.8947 16.2939 31.7072C16.1063 31.5196 16.001 31.2653 16.001 31V24C16.001 23.7348 16.1063 23.4805 16.2939 23.2929C16.4814 23.1054 16.7358 23 17.001 23H19.001V32ZM32.001 24.18L30.731 31.18C30.6884 31.413 30.5645 31.6233 30.3814 31.7734C30.1982 31.9236 29.9678 32.0039 29.731 32H21.001V22.21L23.721 16.09C24.001 16.1717 24.261 16.3105 24.4846 16.4976C24.7083 16.6848 24.8907 16.9163 25.0204 17.1775C25.15 17.4388 25.2242 17.724 25.238 18.0153C25.2519 18.3067 25.2052 18.5977 25.101 18.87L24.571 20.3C24.458 20.6023 24.4199 20.9274 24.4599 21.2476C24.4998 21.5678 24.6166 21.8735 24.8003 22.1388C24.984 22.404 25.2292 22.6209 25.5149 22.7709C25.8006 22.9209 26.1183 22.9995 26.441 23H31.001C31.1479 22.9998 31.293 23.0319 31.4261 23.0942C31.5592 23.1564 31.677 23.2472 31.771 23.36C31.8673 23.4714 31.9379 23.6026 31.9776 23.7443C32.0174 23.8861 32.0254 24.0349 32.001 24.18Z" fill="white"/>
</svg>
