<svg width="1388" height="15" viewBox="0 0 1388 15" fill="none" xmlns="http://www.w3.org/2000/svg">
<path d="M3.33333 7.5C3.33333 8.97276 4.52724 10.1667 6 10.1667C7.47276 10.1667 8.66667 8.97276 8.66667 7.5C8.66667 6.02724 7.47276 4.83333 6 4.83333C4.52724 4.83333 3.33333 6.02724 3.33333 7.5ZM1387.35 7.85355C1387.55 7.65829 1387.55 7.34171 1387.35 7.14645L1384.17 3.96447C1383.98 3.7692 1383.66 3.7692 1383.46 3.96447C1383.27 4.15973 1383.27 4.47631 1383.46 4.67157L1386.29 7.5L1383.46 10.3284C1383.27 10.5237 1383.27 10.8403 1383.46 11.0355C1383.66 11.2308 1383.98 11.2308 1384.17 11.0355L1387.35 7.85355ZM6 8H11.0036V7H6V8ZM21.0109 8H31.0181V7H21.0109V8ZM41.0254 8H51.0326V7H41.0254V8ZM61.0399 8H71.0471V7H61.0399V8ZM81.0544 8H91.0616V7H81.0544V8ZM101.069 8H111.076V7H101.069V8ZM121.083 8H131.091V7H121.083V8ZM141.098 8H151.105V7H141.098V8ZM161.112 8H171.12V7H161.112V8ZM181.127 8H191.134V7H181.127V8ZM201.141 8H211.149V7H201.141V8ZM221.156 8H231.163V7H221.156V8ZM241.17 8H251.178V7H241.17V8ZM261.185 8H271.192V7H261.185V8ZM281.199 8H291.207V7H281.199V8ZM301.214 8H311.221V7H301.214V8ZM321.228 8H331.235V7H321.228V8ZM341.243 8H351.25V7H341.243V8ZM361.257 8H371.264V7H361.257V8ZM381.272 8H391.279V7H381.272V8ZM401.286 8H411.293V7H401.286V8ZM421.301 8H431.308V7H421.301V8ZM441.315 8H451.322V7H441.315V8ZM461.329 8H471.337V7H461.329V8ZM481.344 8H491.351V7H481.344V8ZM501.358 8H511.366V7H501.358V8ZM521.373 8H531.38V7H521.373V8ZM541.387 8H551.395V7H541.387V8ZM561.402 8H571.409V7H561.402V8ZM581.416 8H591.424V7H581.416V8ZM601.431 8H611.438V7H601.431V8ZM621.446 8H631.453V7H621.446V8ZM641.46 8H651.467V7H641.46V8ZM661.475 8H671.482V7H661.475V8ZM681.489 8H691.496V7H681.489V8ZM701.504 8H711.511V7H701.504V8ZM721.518 8H731.525V7H721.518V8ZM741.533 8H751.54V7H741.533V8ZM761.547 8H771.554V7H761.547V8ZM781.562 8H791.569V7H781.562V8ZM801.576 8H811.583V7H801.576V8ZM821.591 8H831.598V7H821.591V8ZM841.605 8H851.613V7H841.605V8ZM861.62 8H871.627V7H861.62V8ZM881.634 8H891.642V7H881.634V8ZM901.649 8H911.656V7H901.649V8ZM921.663 8H931.671V7H921.663V8ZM941.678 8H951.685V7H941.678V8ZM961.692 8H971.7V7H961.692V8ZM981.707 8H991.714V7H981.707V8ZM1001.72 8H1011.73V7H1001.72V8ZM1021.74 8H1031.74V7H1021.74V8ZM1041.75 8H1051.76V7H1041.75V8ZM1061.76 8H1071.77V7H1061.76V8ZM1081.78 8H1091.79V7H1081.78V8ZM1101.79 8H1111.8V7H1101.79V8ZM1121.81 8H1131.82V7H1121.81V8ZM1141.82 8H1151.83V7H1141.82V8ZM1161.84 8H1171.84V7H1161.84V8ZM1181.85 8H1191.86V7H1181.85V8ZM1201.87 8H1211.87V7H1201.87V8ZM1221.88 8H1231.89V7H1221.88V8ZM1241.89 8H1251.9V7H1241.89V8ZM1261.91 8H1271.92V7H1261.91V8ZM1281.92 8H1291.93V7H1281.92V8ZM1301.94 8H1311.94V7H1301.94V8ZM1321.95 8H1331.96V7H1321.95V8ZM1341.97 8H1351.97V7H1341.97V8ZM1361.98 8H1371.99V7H1361.98V8ZM1382 8H1387V7H1382V8ZM0.666667 7.5C0.666667 10.4455 3.05448 12.8333 6 12.8333C8.94552 12.8333 11.3333 10.4455 11.3333 7.5C11.3333 4.55448 8.94552 2.16667 6 2.16667C3.05448 2.16667 0.666667 4.55448 0.666667 7.5ZM1387.71 8.20711C1388.1 7.81658 1388.1 7.18342 1387.71 6.79289L1381.34 0.428932C1380.95 0.0384079 1380.32 0.0384079 1379.93 0.428932C1379.54 0.819456 1379.54 1.45262 1379.93 1.84315L1385.59 7.5L1379.93 13.1569C1379.54 13.5474 1379.54 14.1805 1379.93 14.5711C1380.32 14.9616 1380.95 14.9616 1381.34 14.5711L1387.71 8.20711ZM6 8.5H11.0036V6.5H6V8.5ZM21.0109 8.5H31.0181V6.5H21.0109V8.5ZM41.0254 8.5H51.0326V6.5H41.0254V8.5ZM61.0399 8.5H71.0471V6.5H61.0399V8.5ZM81.0544 8.5H91.0616V6.5H81.0544V8.5ZM101.069 8.5H111.076V6.5H101.069V8.5ZM121.083 8.5H131.091V6.5H121.083V8.5ZM141.098 8.5H151.105V6.5H141.098V8.5ZM161.112 8.5H171.12V6.5H161.112V8.5ZM181.127 8.5H191.134V6.5H181.127V8.5ZM201.141 8.5H211.149V6.5H201.141V8.5ZM221.156 8.5H231.163V6.5H221.156V8.5ZM241.17 8.5H251.178V6.5H241.17V8.5ZM261.185 8.5H271.192V6.5H261.185V8.5ZM281.199 8.5H291.207V6.5H281.199V8.5ZM301.214 8.5H311.221V6.5H301.214V8.5ZM321.228 8.5H331.235V6.5H321.228V8.5ZM341.243 8.5H351.25V6.5H341.243V8.5ZM361.257 8.5H371.264V6.5H361.257V8.5ZM381.272 8.5H391.279V6.5H381.272V8.5ZM401.286 8.5H411.293V6.5H401.286V8.5ZM421.301 8.5H431.308V6.5H421.301V8.5ZM441.315 8.5H451.322V6.5H441.315V8.5ZM461.329 8.5H471.337V6.5H461.329V8.5ZM481.344 8.5H491.351V6.5H481.344V8.5ZM501.358 8.5H511.366V6.5H501.358V8.5ZM521.373 8.5H531.38V6.5H521.373V8.5ZM541.387 8.5H551.395V6.5H541.387V8.5ZM561.402 8.5H571.409V6.5H561.402V8.5ZM581.416 8.5H591.424V6.5H581.416V8.5ZM601.431 8.5H611.438V6.5H601.431V8.5ZM621.446 8.5H631.453V6.5H621.446V8.5ZM641.46 8.5H651.467V6.5H641.46V8.5ZM661.475 8.5H671.482V6.5H661.475V8.5ZM681.489 8.5H691.496V6.5H681.489V8.5ZM701.504 8.5H711.511V6.5H701.504V8.5ZM721.518 8.5H731.525V6.5H721.518V8.5ZM741.533 8.5H751.54V6.5H741.533V8.5ZM761.547 8.5H771.554V6.5H761.547V8.5ZM781.562 8.5H791.569V6.5H781.562V8.5ZM801.576 8.5H811.583V6.5H801.576V8.5ZM821.591 8.5H831.598V6.5H821.591V8.5ZM841.605 8.5H851.613V6.5H841.605V8.5ZM861.62 8.5H871.627V6.5H861.62V8.5ZM881.634 8.5H891.642V6.5H881.634V8.5ZM901.649 8.5H911.656V6.5H901.649V8.5ZM921.663 8.5H931.671V6.5H921.663V8.5ZM941.678 8.5H951.685V6.5H941.678V8.5ZM961.692 8.5H971.7V6.5H961.692V8.5ZM981.707 8.5H991.714V6.5H981.707V8.5ZM1001.72 8.5H1011.73V6.5H1001.72V8.5ZM1021.74 8.5H1031.74V6.5H1021.74V8.5ZM1041.75 8.5H1051.76V6.5H1041.75V8.5ZM1061.76 8.5H1071.77V6.5H1061.76V8.5ZM1081.78 8.5H1091.79V6.5H1081.78V8.5ZM1101.79 8.5H1111.8V6.5H1101.79V8.5ZM1121.81 8.5H1131.82V6.5H1121.81V8.5ZM1141.82 8.5H1151.83V6.5H1141.82V8.5ZM1161.84 8.5H1171.84V6.5H1161.84V8.5ZM1181.85 8.5H1191.86V6.5H1181.85V8.5ZM1201.87 8.5H1211.87V6.5H1201.87V8.5ZM1221.88 8.5H1231.89V6.5H1221.88V8.5ZM1241.89 8.5H1251.9V6.5H1241.89V8.5ZM1261.91 8.5H1271.92V6.5H1261.91V8.5ZM1281.92 8.5H1291.93V6.5H1281.92V8.5ZM1301.94 8.5H1311.94V6.5H1301.94V8.5ZM1321.95 8.5H1331.96V6.5H1321.95V8.5ZM1341.97 8.5H1351.97V6.5H1341.97V8.5ZM1361.98 8.5H1371.99V6.5H1361.98V8.5ZM1382 8.5H1387V6.5H1382V8.5Z" fill="#233BFE"/>
<circle cx="171" cy="7" r="5" fill="#233BFE"/>
<circle cx="381" cy="7" r="5" fill="#233BFE"/>
<circle cx="591" cy="7" r="5" fill="#233BFE"/>
<circle cx="801" cy="7" r="5" fill="#233BFE"/>
<circle cx="1011" cy="7" r="5" fill="#233BFE"/>
<circle cx="1221" cy="7" r="5" fill="#233BFE"/>
</svg>
