<svg width="48" height="48" viewBox="0 0 48 48" fill="none" xmlns="http://www.w3.org/2000/svg">
<circle cx="24" cy="24" r="24" fill="white"/>
<path d="M35 11H13C12.4696 11 11.9609 11.2107 11.5858 11.5858C11.2107 11.9609 11 12.4696 11 13V35C11 35.5304 11.2107 36.0391 11.5858 36.4142C11.9609 36.7893 12.4696 37 13 37H35C35.5304 37 36.0391 36.7893 36.4142 36.4142C36.7893 36.0391 37 35.5304 37 35V13C37 12.4696 36.7893 11.9609 36.4142 11.5858C36.0391 11.2107 35.5304 11 35 11ZM35 35H13V13H35V35ZM20 22V30C20 30.2652 19.8946 30.5196 19.7071 30.7071C19.5196 30.8946 19.2652 31 19 31C18.7348 31 18.4804 30.8946 18.2929 30.7071C18.1054 30.5196 18 30.2652 18 30V22C18 21.7348 18.1054 21.4804 18.2929 21.2929C18.4804 21.1054 18.7348 21 19 21C19.2652 21 19.5196 21.1054 19.7071 21.2929C19.8946 21.4804 20 21.7348 20 22ZM31 25.5V30C31 30.2652 30.8946 30.5196 30.7071 30.7071C30.5196 30.8946 30.2652 31 30 31C29.7348 31 29.4804 30.8946 29.2929 30.7071C29.1054 30.5196 29 30.2652 29 30V25.5C29 24.837 28.7366 24.2011 28.2678 23.7322C27.7989 23.2634 27.163 23 26.5 23C25.837 23 25.2011 23.2634 24.7322 23.7322C24.2634 24.2011 24 24.837 24 25.5V30C24 30.2652 23.8946 30.5196 23.7071 30.7071C23.5196 30.8946 23.2652 31 23 31C22.7348 31 22.4804 30.8946 22.2929 30.7071C22.1054 30.5196 22 30.2652 22 30V22C22.0012 21.7551 22.0923 21.5191 22.256 21.3369C22.4197 21.1546 22.6446 21.0388 22.888 21.0114C23.1314 20.9839 23.3764 21.0468 23.5765 21.188C23.7767 21.3292 23.918 21.539 23.9738 21.7775C24.6502 21.3186 25.4389 21.0526 26.2552 21.0081C27.0714 20.9637 27.8844 21.1424 28.6067 21.5251C29.329 21.9078 29.9335 22.48 30.3551 23.1803C30.7768 23.8806 30.9997 24.6825 31 25.5ZM20.5 18.5C20.5 18.7967 20.412 19.0867 20.2472 19.3334C20.0824 19.58 19.8481 19.7723 19.574 19.8858C19.2999 19.9994 18.9983 20.0291 18.7074 19.9712C18.4164 19.9133 18.1491 19.7704 17.9393 19.5607C17.7296 19.3509 17.5867 19.0836 17.5288 18.7926C17.4709 18.5017 17.5006 18.2001 17.6142 17.926C17.7277 17.6519 17.92 17.4176 18.1666 17.2528C18.4133 17.088 18.7033 17 19 17C19.3978 17 19.7794 17.158 20.0607 17.4393C20.342 17.7206 20.5 18.1022 20.5 18.5Z" fill="#000040"/>
</svg>
