<svg xmlns="http://www.w3.org/2000/svg" width="24" height="24" viewBox="0 0 24 24" fill="none">
  <path d="M6.69701 9.52397L3.51501 12.706C2.99867 13.2154 2.58821 13.822 2.30726 14.4908C2.02631 15.1595 1.88042 15.8772 1.87799 16.6026C1.87556 17.328 2.01664 18.0467 2.2931 18.7173C2.56956 19.3879 2.97595 19.9972 3.48887 20.5101C4.00178 21.023 4.61109 21.4294 5.28171 21.7059C5.95233 21.9824 6.67101 22.1234 7.39638 22.121C8.12175 22.1186 8.83947 21.9727 9.50822 21.6917C10.177 21.4108 10.7835 21.0003 11.293 20.484L12.353 19.424C12.4963 19.2857 12.6107 19.1202 12.6894 18.9372C12.7681 18.7543 12.8096 18.5575 12.8114 18.3583C12.8132 18.1591 12.7753 17.9616 12.7 17.7772C12.6247 17.5928 12.5134 17.4253 12.3726 17.2844C12.2318 17.1435 12.0644 17.032 11.8801 16.9565C11.6958 16.881 11.4983 16.843 11.2991 16.8446C11.1 16.8462 10.9031 16.8875 10.7201 16.9661C10.537 17.0446 10.3715 17.1588 10.233 17.302L9.17101 18.363C8.7014 18.8284 8.06657 19.0888 7.40543 19.0872C6.74428 19.0857 6.11067 18.8223 5.64324 18.3548C5.1758 17.8872 4.91261 17.2535 4.91126 16.5924C4.9099 15.9312 5.1705 15.2964 5.63601 14.827L8.81801 11.645C9.16194 11.3009 9.59879 11.0646 10.075 10.9652C10.5512 10.8657 11.0461 10.9073 11.499 11.085C11.6603 11.149 11.8117 11.2143 11.953 11.281L12.417 11.498C13.037 11.778 13.514 11.898 14.121 11.292C14.993 10.42 14.767 9.61497 13.704 8.88197C12.6451 8.15333 11.3644 7.81858 10.0844 7.93586C8.8044 8.05314 7.60588 8.61504 6.69701 9.52397ZM12.707 3.51397L11.647 4.57397C11.3736 4.85675 11.2223 5.23558 11.2255 5.62888C11.2287 6.02218 11.3863 6.39847 11.6643 6.67672C11.9423 6.95496 12.3184 7.11289 12.7117 7.11649C13.105 7.1201 13.484 6.96908 13.767 6.69597L14.828 5.63597C15.0586 5.39713 15.3344 5.2066 15.6393 5.07549C15.9443 4.94438 16.2723 4.87533 16.6043 4.87235C16.9362 4.86937 17.2655 4.93253 17.5727 5.05815C17.88 5.18376 18.1592 5.36932 18.394 5.60398C18.6288 5.83865 18.8145 6.11772 18.9403 6.42493C19.0661 6.73213 19.1294 7.06131 19.1266 7.39326C19.1238 7.72521 19.055 8.05328 18.924 8.35833C18.7931 8.66337 18.6027 8.93929 18.364 9.16997L15.182 12.352C14.8381 12.6961 14.4012 12.9323 13.925 13.0318C13.4488 13.1312 12.9539 13.0896 12.501 12.912C12.3397 12.848 12.1883 12.7826 12.047 12.716L11.583 12.499C10.963 12.219 10.485 12.099 9.87901 12.705C9.00701 13.577 9.23301 14.382 10.296 15.115C11.3549 15.8436 12.6356 16.1784 13.9156 16.0611C15.1956 15.9438 16.3941 15.3819 17.303 14.473L20.485 11.291C21.0014 10.7815 21.4118 10.1749 21.6928 9.50618C21.9737 8.83743 22.1196 8.11971 22.122 7.39434C22.1245 6.66897 21.9834 5.95029 21.7069 5.27967C21.4305 4.60905 21.0241 3.99974 20.5112 3.48683C19.9982 2.97391 19.3889 2.56752 18.7183 2.29106C18.0477 2.0146 17.329 1.87352 16.6036 1.87595C15.8783 1.87838 15.1606 2.02427 14.4918 2.30522C13.8231 2.58617 13.2165 2.99763 12.707 3.51397Z" fill="white"/>
</svg>