<svg xmlns="http://www.w3.org/2000/svg" width="80" height="80" viewBox="0 0 42 51" fill="none">
  <path d="M8.75 44.625C7.7875 44.625 6.96383 44.2092 6.279 43.3776C5.59417 42.546 5.25117 41.5452 5.25 40.375V10.625C5.25 9.45625 5.593 8.45608 6.279 7.6245C6.965 6.79292 7.78867 6.37642 8.75 6.375H33.25C34.2125 6.375 35.0368 6.7915 35.7228 7.6245C36.4088 8.4575 36.7512 9.45767 36.75 10.625V26.6156C36.75 27.2177 36.582 27.7135 36.246 28.1031C35.91 28.4927 35.4947 28.6875 35 28.6875C34.5053 28.6875 34.09 28.4835 33.754 28.0755C33.418 27.6675 33.25 27.1632 33.25 26.5625V10.625H8.75V40.375H19.25C19.7458 40.375 20.1618 40.579 20.4978 40.987C20.8338 41.395 21.0012 41.8993 21 42.5C20.9988 43.1007 20.8308 43.6057 20.496 44.0151C20.1612 44.4245 19.7458 44.6278 19.25 44.625H8.75ZM14 36.125C14.4958 36.125 14.9118 35.921 15.2478 35.513C15.5838 35.105 15.7512 34.6007 15.75 34C15.7488 33.3993 15.5808 32.895 15.246 32.487C14.9112 32.079 14.4958 31.875 14 31.875C13.5042 31.875 13.0888 32.079 12.754 32.487C12.4192 32.895 12.2512 33.3993 12.25 34C12.2488 34.6007 12.4168 35.1057 12.754 35.5151C13.0912 35.9245 13.5065 36.1278 14 36.125ZM14 27.625C14.4958 27.625 14.9118 27.421 15.2478 27.013C15.5838 26.605 15.7512 26.1007 15.75 25.5C15.7488 24.8993 15.5808 24.395 15.246 23.987C14.9112 23.579 14.4958 23.375 14 23.375C13.5042 23.375 13.0888 23.579 12.754 23.987C12.4192 24.395 12.2512 24.8993 12.25 25.5C12.2488 26.1007 12.4168 26.6057 12.754 27.0151C13.0912 27.4245 13.5065 27.6278 14 27.625ZM14 19.125C14.4958 19.125 14.9118 18.921 15.2478 18.513C15.5838 18.105 15.7512 17.6007 15.75 17C15.7488 16.3993 15.5808 15.895 15.246 15.487C14.9112 15.079 14.4958 14.875 14 14.875C13.5042 14.875 13.0888 15.079 12.754 15.487C12.4192 15.895 12.2512 16.3993 12.25 17C12.2488 17.6007 12.4168 18.1057 12.754 18.5151C13.0912 18.9245 13.5065 19.1278 14 19.125ZM28 27.625C28.4958 27.625 28.9117 27.421 29.2477 27.013C29.5837 26.605 29.7512 26.1007 29.75 25.5C29.7488 24.8993 29.5808 24.395 29.246 23.987C28.9112 23.579 28.4958 23.375 28 23.375H21C20.5042 23.375 20.0888 23.579 19.754 23.987C19.4192 24.395 19.2512 24.8993 19.25 25.5C19.2488 26.1007 19.4168 26.6057 19.754 27.0151C20.0912 27.4245 20.5065 27.6278 21 27.625H28ZM28 19.125C28.4958 19.125 28.9117 18.921 29.2477 18.513C29.5837 18.105 29.7512 17.6007 29.75 17C29.7488 16.3993 29.5808 15.895 29.246 15.487C28.9112 15.079 28.4958 14.875 28 14.875H21C20.5042 14.875 20.0888 15.079 19.754 15.487C19.4192 15.895 19.2512 16.3993 19.25 17C19.2488 17.6007 19.4168 18.1057 19.754 18.5151C20.0912 18.9245 20.5065 19.1278 21 19.125H28ZM19.25 34C19.25 34.6021 19.418 35.1071 19.754 35.5151C20.09 35.9231 20.5053 36.1264 21 36.125H21.0875C21.5833 36.125 21.9992 35.921 22.3352 35.513C22.6712 35.105 22.8387 34.6007 22.8375 34C22.8363 33.3993 22.6683 32.895 22.3335 32.487C21.9987 32.079 21.5833 31.875 21.0875 31.875H21C20.5042 31.875 20.0888 32.079 19.754 32.487C19.4192 32.895 19.2512 33.3993 19.25 34ZM29.75 42.5H26.25C25.7542 42.5 25.3388 42.296 25.004 41.888C24.6692 41.48 24.5012 40.9757 24.5 40.375C24.4988 39.7743 24.6668 39.27 25.004 38.862C25.3412 38.454 25.7565 38.25 26.25 38.25H29.75V34C29.75 33.3979 29.918 32.8936 30.254 32.487C30.59 32.0804 31.0053 31.8764 31.5 31.875C31.9947 31.8736 32.4106 32.0776 32.7477 32.487C33.0849 32.8964 33.2523 33.4007 33.25 34V38.25H36.75C37.2458 38.25 37.6617 38.454 37.9977 38.862C38.3337 39.27 38.5012 39.7743 38.5 40.375C38.4988 40.9757 38.3308 41.4807 37.996 41.8901C37.6612 42.2995 37.2458 42.5028 36.75 42.5H33.25V46.75C33.25 47.3521 33.082 47.8571 32.746 48.2651C32.41 48.6731 31.9947 48.8764 31.5 48.875C31.0053 48.8736 30.59 48.6696 30.254 48.263C29.918 47.8564 29.75 47.3521 29.75 46.75V42.5Z" fill="white"/>
</svg>