<svg width="260" height="70" viewBox="0 0 260 70" fill="none" xmlns="http://www.w3.org/2000/svg">
<g opacity="0.6">
<path d="M75.8477 22.7099H82.17V48.3145H75.8477V22.7099ZM84.6911 38.6832C84.6911 32.3412 88.6302 28.5399 94.539 28.5399C100.448 28.5399 104.387 32.3412 104.387 38.6832C104.387 45.0253 100.586 48.866 94.539 48.866C88.4924 48.866 84.6911 45.1632 84.6911 38.6832ZM98.1236 38.6832C98.1236 35.1971 96.7646 33.1487 94.5981 33.1487C92.4315 33.1487 91.0922 35.1183 91.0922 38.6832C91.0922 42.2482 92.4315 44.1981 94.5981 44.1981C96.7646 44.1981 98.163 42.2482 98.163 38.7029L98.1236 38.6832ZM106.908 49.6341H113.014C113.292 50.2914 113.777 50.8399 114.396 51.1954C115.015 51.5511 115.733 51.6945 116.441 51.6037C118.863 51.6037 120.124 50.3038 120.124 48.3736V44.8283H120.144C119.622 45.9323 118.778 46.8523 117.724 47.4676C116.669 48.0829 115.453 48.3643 114.235 48.2751C109.606 48.2751 106.534 44.7496 106.534 38.6832C106.534 32.6169 109.468 28.8353 114.412 28.8353C115.661 28.7686 116.9 29.0906 117.958 29.7573C119.016 30.424 119.842 31.4025 120.321 32.5578H120.144V28.9929H126.407V48.1766C126.407 52.8051 122.31 55.7004 116.283 55.7004C110.808 55.6807 107.302 53.1794 106.947 49.6538L106.908 49.6341ZM120.144 38.6832C120.144 35.591 118.725 33.6411 116.48 33.6411C114.235 33.6411 112.856 35.6107 112.856 38.6832C112.856 41.7558 114.215 43.5678 116.48 43.5678C118.745 43.5678 120.144 41.8937 120.144 38.6832ZM128.908 38.6832C128.908 32.3412 132.847 28.5399 138.756 28.5399C144.665 28.5399 148.604 32.3412 148.604 38.6832C148.604 45.0253 144.783 48.866 138.756 48.866C132.729 48.866 128.948 45.1632 128.948 38.6832H128.908ZM142.341 38.6832C142.341 35.1971 140.962 33.1487 138.815 33.1487C136.668 33.1487 135.309 35.1183 135.309 38.6832C135.309 42.2482 136.649 44.1981 138.815 44.1981C140.982 44.1981 142.38 42.2482 142.38 38.7029L142.341 38.6832ZM151.164 24.325C151.137 23.6809 151.303 23.0434 151.641 22.4945C151.978 21.9453 152.473 21.5101 153.06 21.2444C153.647 20.9785 154.301 20.8946 154.936 21.0033C155.571 21.1118 156.16 21.408 156.625 21.8538C157.091 22.2997 157.413 22.8744 157.549 23.5045C157.685 24.1345 157.63 24.791 157.39 25.3892C157.15 25.9875 156.736 26.5004 156.203 26.8618C155.669 27.2232 155.039 27.4166 154.395 27.4172C153.983 27.4277 153.573 27.3562 153.189 27.2071C152.805 27.0578 152.454 26.8337 152.157 26.5479C151.86 26.2621 151.623 25.9202 151.46 25.5418C151.296 25.1636 151.209 24.7567 151.204 24.3447L151.164 24.325ZM151.164 28.9732H157.566V48.3933H151.263L151.164 28.9732ZM180.59 38.6832C180.59 45.0056 177.754 48.669 172.928 48.669C171.693 48.7452 170.464 48.4404 169.407 47.7959C168.351 47.1513 167.517 46.198 167.02 45.0647H166.901V54.6369H160.579V29.0323H166.862V32.4988H166.98C167.461 31.3432 168.286 30.3637 169.343 29.6941C170.401 29.0244 171.639 28.6971 172.889 28.7566C177.852 28.7172 180.708 32.3609 180.708 38.7029L180.59 38.6832ZM174.149 38.6832C174.149 35.6107 172.712 33.6214 170.486 33.6214C168.26 33.6214 166.862 35.591 166.842 38.6832C166.823 41.7755 168.26 43.7254 170.486 43.7254C172.712 43.7254 174.268 41.8937 174.268 38.7029L174.149 38.6832ZM191.383 28.5202C196.681 28.5202 199.971 31.0216 200.01 35.0395H194.239C194.239 33.6411 193.077 32.7745 191.344 32.7745C189.611 32.7745 188.783 33.4442 188.783 34.4486C188.783 35.4531 189.512 35.7683 190.97 36.0637L195.027 36.8909C198.966 37.7181 200.542 39.2938 200.542 42.2285C200.542 46.1677 196.898 48.8463 191.482 48.8463C186.065 48.8463 182.54 46.2464 182.284 42.2876H188.409C188.587 43.7254 189.729 44.5723 191.58 44.5723C193.432 44.5723 194.298 43.9814 194.298 42.9375C194.298 41.8937 193.707 41.7164 192.191 41.4013L188.527 40.6331C184.726 39.8256 182.737 37.8363 182.737 34.8623C182.855 31.0019 186.164 28.5399 191.502 28.5399L191.383 28.5202ZM221.715 48.3736H215.589V44.7299H215.471C215.129 45.9453 214.382 47.0075 213.354 47.7414C212.326 48.4754 211.079 48.8372 209.819 48.7675C208.867 48.7984 207.918 48.6279 207.038 48.2666C206.157 47.9056 205.361 47.3622 204.706 46.6723C204.048 45.9821 203.545 45.161 203.228 44.2629C202.911 43.3647 202.787 42.4095 202.866 41.4604V28.9929H209.188V40.1013C209.188 42.3861 210.39 43.6269 212.359 43.6269C212.822 43.6234 213.277 43.5207 213.697 43.3261C214.116 43.1314 214.488 42.8489 214.788 42.4979C215.089 42.147 215.312 41.7355 215.44 41.2916C215.566 40.8474 215.597 40.3812 215.53 39.9241V28.9929H221.833L221.715 48.3736ZM224.768 28.9732H230.913V32.7154H231.051C231.389 31.5165 232.118 30.4642 233.119 29.7228C234.121 28.9817 235.34 28.5933 236.585 28.6187C237.836 28.51 239.083 28.8716 240.079 29.6328C241.078 30.3941 241.755 31.5004 241.982 32.7351H242.258C242.652 31.4937 243.443 30.4171 244.513 29.6728C245.58 28.9283 246.866 28.5578 248.166 28.6187C249.031 28.5858 249.894 28.7359 250.695 29.0591C251.499 29.3821 252.224 29.8711 252.824 30.4941C253.425 31.1169 253.886 31.8596 254.179 32.6735C254.475 33.4873 254.593 34.3539 254.528 35.2168V48.3933H248.166V36.8318C248.166 34.8623 247.241 33.7593 245.448 33.7593C245.05 33.7528 244.657 33.8324 244.292 33.9923C243.928 34.1524 243.605 34.3894 243.341 34.6868C243.077 34.9844 242.88 35.3352 242.764 35.7157C242.65 36.0962 242.618 36.497 242.671 36.8909V48.3933H236.644V36.7728C236.644 34.8032 235.679 33.7593 233.946 33.7593C233.544 33.7561 233.146 33.8389 232.78 34.0019C232.412 34.1652 232.085 34.4049 231.817 34.7053C231.551 35.0056 231.352 35.3596 231.234 35.7433C231.114 36.1271 231.078 36.5319 231.129 36.9303V48.3933H224.807L224.768 28.9732Z" fill="#000040"/>
<path d="M63.3422 24.3837C63.3424 20.4637 62.1587 16.6349 59.9461 13.399C57.7335 10.1631 54.5949 7.67092 50.9419 6.24888C47.289 4.82683 43.2915 4.54124 39.4735 5.4295C35.6552 6.31776 32.1945 8.33847 29.5442 11.2269H4.96387V63.1057H56.8623V38.8602C58.8993 37.0383 60.5293 34.8074 61.6458 32.3129C62.7624 29.8184 63.3405 27.1167 63.3422 24.3837ZM53.3565 24.3837C53.3604 26.2621 52.8069 28.0996 51.7662 29.6634C50.7253 31.2271 49.2442 32.447 47.5097 33.1685C45.7753 33.8901 43.866 34.081 42.0231 33.7168C40.1803 33.3528 38.4869 32.4502 37.1572 31.1233C35.8276 29.7964 34.9216 28.1049 34.5536 26.2627C34.1857 24.4208 34.3726 22.5109 35.0906 20.7751C35.8085 19.0392 37.0253 17.5554 38.5868 16.5114C40.1484 15.4674 41.9847 14.9101 43.8631 14.9101C46.3774 14.9101 48.7892 15.9076 50.5689 17.6836C52.3488 19.4597 53.3513 21.8694 53.3565 24.3837ZM46.8765 53.1199H14.9496V21.2127H24.6793C24.4914 22.2596 24.3926 23.3204 24.3839 24.3837C24.3892 29.5484 26.4431 34.4999 30.0951 38.1519C33.7469 41.8037 38.6984 43.8578 43.8631 43.8629C44.8729 43.8576 45.8805 43.7719 46.8765 43.6069V53.1199Z" fill="#000040"/>
</g>
</svg>
