<svg xmlns="http://www.w3.org/2000/svg" xmlns:xlink="http://www.w3.org/1999/xlink" width="140" zoomAndPan="magnify" viewBox="0 0 104.88 104.999996" height="140" preserveAspectRatio="xMidYMid meet" version="1.0"><defs><clipPath id="d15bfca2db"><path d="M 0 0.0585938 L 104.761719 0.0585938 L 104.761719 104.9375 L 0 104.9375 Z M 0 0.0585938 " clip-rule="nonzero"/></clipPath><clipPath id="034c637f5d"><path d="M 0 7.074219 L 104.761719 7.074219 L 104.761719 97.71875 L 0 97.71875 Z M 0 7.074219 " clip-rule="nonzero"/></clipPath><clipPath id="7023645105"><path d="M 31.464844 31.714844 L 60 31.714844 L 60 60 L 31.464844 60 Z M 31.464844 31.714844 " clip-rule="nonzero"/></clipPath><clipPath id="df47358714"><path d="M 59 59 L 73.414062 59 L 73.414062 72.917969 L 59 72.917969 Z M 59 59 " clip-rule="nonzero"/></clipPath></defs><g clip-path="url(#d15bfca2db)"><path fill="#ffffff" d="M 0 0.0585938 L 104.878906 0.0585938 L 104.878906 104.941406 L 0 104.941406 Z M 0 0.0585938 " fill-opacity="1" fill-rule="nonzero"/><path fill="#ffffff" d="M 0 0.0585938 L 104.878906 0.0585938 L 104.878906 104.941406 L 0 104.941406 Z M 0 0.0585938 " fill-opacity="1" fill-rule="nonzero"/></g><g clip-path="url(#034c637f5d)"><path fill="#336699" d="M 26.21875 97.910156 L 0 52.496094 L 26.21875 7.082031 L 78.660156 7.082031 L 104.878906 52.496094 L 78.660156 97.910156 Z M 26.21875 97.910156 " fill-opacity="1" fill-rule="nonzero"/></g><g clip-path="url(#7023645105)"><path fill="#ffffff" d="M 45.464844 59.6875 C 37.753906 59.6875 31.480469 53.414062 31.480469 45.699219 C 31.480469 37.988281 37.753906 31.710938 45.464844 31.710938 C 53.179688 31.710938 59.453125 37.988281 59.453125 45.699219 C 59.453125 53.414062 53.179688 59.6875 45.464844 59.6875 Z M 45.464844 34.011719 C 44.699219 34.011719 43.9375 34.089844 43.1875 34.238281 C 42.433594 34.386719 41.703125 34.609375 40.996094 34.902344 C 40.285156 35.195312 39.613281 35.554688 38.972656 35.984375 C 38.335938 36.410156 37.746094 36.894531 37.203125 37.4375 C 36.660156 37.980469 36.175781 38.570312 35.75 39.207031 C 35.324219 39.84375 34.964844 40.519531 34.667969 41.226562 C 34.375 41.9375 34.15625 42.667969 34.003906 43.421875 C 33.855469 44.171875 33.78125 44.933594 33.78125 45.699219 C 33.78125 46.46875 33.855469 47.226562 34.003906 47.980469 C 34.15625 48.734375 34.375 49.464844 34.667969 50.171875 C 34.964844 50.882812 35.324219 51.554688 35.75 52.191406 C 36.175781 52.832031 36.660156 53.421875 37.203125 53.964844 C 37.746094 54.507812 38.335938 54.992188 38.972656 55.417969 C 39.613281 55.84375 40.285156 56.203125 40.996094 56.496094 C 41.703125 56.789062 42.433594 57.011719 43.1875 57.160156 C 43.9375 57.3125 44.699219 57.386719 45.464844 57.386719 C 46.234375 57.386719 46.992188 57.3125 47.746094 57.160156 C 48.5 57.011719 49.230469 56.789062 49.9375 56.496094 C 50.648438 56.203125 51.320312 55.84375 51.960938 55.417969 C 52.597656 54.992188 53.1875 54.507812 53.730469 53.964844 C 54.273438 53.421875 54.757812 52.832031 55.183594 52.191406 C 55.609375 51.554688 55.96875 50.882812 56.265625 50.171875 C 56.558594 49.464844 56.777344 48.734375 56.929688 47.980469 C 57.078125 47.226562 57.152344 46.46875 57.152344 45.699219 C 57.152344 44.933594 57.078125 44.171875 56.925781 43.421875 C 56.777344 42.667969 56.554688 41.9375 56.257812 41.230469 C 55.964844 40.523438 55.605469 39.847656 55.179688 39.210938 C 54.753906 38.574219 54.269531 37.984375 53.726562 37.441406 C 53.183594 36.898438 52.59375 36.414062 51.957031 35.988281 C 51.316406 35.5625 50.644531 35.203125 49.9375 34.90625 C 49.226562 34.613281 48.496094 34.390625 47.746094 34.242188 C 46.992188 34.089844 46.234375 34.015625 45.464844 34.015625 Z M 45.464844 34.011719 " fill-opacity="1" fill-rule="nonzero"/></g><path fill="#ffffff" d="M 55.566406 61.199219 C 55.308594 61.199219 55.070312 61.125 54.851562 60.984375 C 54.636719 60.839844 54.476562 60.644531 54.378906 60.40625 C 54.277344 60.167969 54.253906 59.917969 54.300781 59.664062 C 54.351562 59.40625 54.46875 59.1875 54.652344 59.003906 L 58.214844 55.414062 C 58.332031 55.28125 58.46875 55.175781 58.628906 55.101562 C 58.789062 55.023438 58.960938 54.984375 59.136719 54.976562 C 59.3125 54.972656 59.484375 55 59.652344 55.066406 C 59.816406 55.128906 59.960938 55.222656 60.085938 55.347656 C 60.214844 55.472656 60.308594 55.617188 60.375 55.78125 C 60.441406 55.945312 60.472656 56.117188 60.46875 56.296875 C 60.464844 56.472656 60.425781 56.640625 60.351562 56.804688 C 60.277344 56.964844 60.175781 57.105469 60.042969 57.222656 L 56.480469 60.8125 C 56.230469 61.066406 55.925781 61.199219 55.566406 61.199219 Z M 55.566406 61.199219 " fill-opacity="1" fill-rule="nonzero"/><g clip-path="url(#df47358714)"><path fill="#ffffff" d="M 71.023438 73.28125 C 70.402344 73.28125 69.878906 73.058594 69.445312 72.613281 L 59.964844 62.910156 C 59.761719 62.699219 59.605469 62.457031 59.496094 62.1875 C 59.386719 61.914062 59.335938 61.632812 59.335938 61.339844 C 59.339844 61.046875 59.398438 60.765625 59.515625 60.496094 C 59.628906 60.226562 59.792969 59.988281 60.003906 59.785156 C 60.210938 59.582031 60.453125 59.421875 60.726562 59.316406 C 60.996094 59.207031 61.277344 59.152344 61.570312 59.15625 C 61.863281 59.160156 62.144531 59.21875 62.414062 59.335938 C 62.683594 59.449219 62.921875 59.613281 63.125 59.820312 L 72.605469 69.527344 C 72.914062 69.84375 73.113281 70.222656 73.195312 70.660156 C 73.277344 71.097656 73.230469 71.519531 73.058594 71.929688 C 72.886719 72.335938 72.617188 72.664062 72.246094 72.910156 C 71.875 73.15625 71.46875 73.28125 71.023438 73.28125 Z M 71.023438 73.28125 " fill-opacity="1" fill-rule="nonzero"/></g><path fill="#ffffff" d="M 45.445312 55.550781 C 43.640625 55.550781 41.261719 55.035156 38.710938 53.074219 C 36.472656 51.355469 35.441406 48.707031 35.726562 45.421875 C 35.863281 43.902344 36.226562 42.4375 36.8125 41.027344 C 36.890625 40.855469 37.019531 40.734375 37.195312 40.667969 C 37.375 40.601562 37.550781 40.605469 37.722656 40.683594 C 37.894531 40.761719 38.015625 40.886719 38.085938 41.066406 C 38.152344 41.242188 38.148438 41.417969 38.070312 41.589844 C 37.546875 42.871094 37.222656 44.195312 37.097656 45.574219 C 36.863281 48.390625 37.6875 50.542969 39.550781 51.976562 C 44.152344 55.519531 48.085938 53.6875 48.128906 53.667969 C 48.300781 53.582031 48.476562 53.570312 48.660156 53.632812 C 48.84375 53.691406 48.976562 53.8125 49.0625 53.984375 C 49.144531 54.160156 49.15625 54.339844 49.089844 54.519531 C 49.023438 54.703125 48.902344 54.832031 48.726562 54.914062 C 48.628906 54.964844 47.367188 55.550781 45.445312 55.550781 Z M 45.445312 55.550781 " fill-opacity="1" fill-rule="nonzero"/></svg>