<svg xmlns="http://www.w3.org/2000/svg" xmlns:xlink="http://www.w3.org/1999/xlink" width="140" zoomAndPan="magnify" viewBox="0 0 104.88 104.999996" height="140" preserveAspectRatio="xMidYMid meet" version="1.0"><defs><clipPath id="0c12d09a06"><path d="M 0 7.074219 L 104.761719 7.074219 L 104.761719 97.71875 L 0 97.71875 Z M 0 7.074219 " clip-rule="nonzero"/></clipPath><clipPath id="6695c8ac56"><path d="M 31.484375 41.25 L 73.394531 41.25 L 73.394531 69.6875 L 31.484375 69.6875 Z M 31.484375 41.25 " clip-rule="nonzero"/></clipPath><clipPath id="1957aa5a96"><path d="M 36 35.300781 L 49 35.300781 L 49 53 L 36 53 Z M 36 35.300781 " clip-rule="nonzero"/></clipPath></defs><g clip-path="url(#0c12d09a06)"><path fill="#ffffff" d="M 26.21875 97.710938 L 0 52.398438 L 26.21875 7.082031 L 78.660156 7.082031 L 104.878906 52.398438 L 78.660156 97.710938 Z M 26.21875 97.710938 " fill-opacity="1" fill-rule="nonzero"/></g><path fill="#000040" d="M 58.957031 48.574219 L 59.042969 49.40625 C 59.320312 49.378906 59.605469 49.367188 59.890625 49.367188 C 60.128906 49.367188 60.375 49.375 60.617188 49.394531 L 60.6875 48.558594 C 60.417969 48.539062 60.152344 48.527344 59.890625 48.527344 C 59.574219 48.527344 59.261719 48.542969 58.957031 48.574219 " fill-opacity="1" fill-rule="nonzero"/><path fill="#000040" d="M 55.65625 49.609375 L 56.089844 50.332031 C 56.539062 50.074219 57.019531 49.867188 57.511719 49.714844 L 57.25 48.914062 C 56.699219 49.089844 56.160156 49.320312 55.65625 49.609375 " fill-opacity="1" fill-rule="nonzero"/><path fill="#000040" d="M 44.191406 61.046875 C 44.757812 60.9375 45.3125 60.777344 45.84375 60.578125 L 45.539062 59.796875 C 45.050781 59.980469 44.539062 60.125 44.019531 60.226562 L 44.191406 61.046875 " fill-opacity="1" fill-rule="nonzero"/><path fill="#000040" d="M 53.082031 51.851562 L 53.757812 52.367188 C 54.09375 51.949219 54.457031 51.570312 54.832031 51.238281 L 54.257812 50.617188 C 53.84375 50.976562 53.449219 51.394531 53.082031 51.851562 " fill-opacity="1" fill-rule="nonzero"/><path fill="#000040" d="M 40.847656 60.382812 L 40.773438 61.214844 C 41.15625 61.25 41.539062 61.265625 41.914062 61.265625 C 42.105469 61.265625 42.296875 61.261719 42.484375 61.253906 L 42.445312 60.417969 C 42.269531 60.425781 42.089844 60.429688 41.914062 60.429688 C 41.5625 60.429688 41.207031 60.414062 40.847656 60.382812 " fill-opacity="1" fill-rule="nonzero"/><path fill="#000040" d="M 48.261719 58.238281 C 47.847656 58.570312 47.410156 58.871094 46.964844 59.125 L 47.398438 59.847656 C 47.882812 59.570312 48.359375 59.246094 48.808594 58.886719 L 48.261719 58.238281 " fill-opacity="1" fill-rule="nonzero"/><path fill="#000040" d="M 50.4375 55.960938 C 50.117188 56.394531 49.773438 56.800781 49.421875 57.171875 L 50.050781 57.742188 C 50.425781 57.347656 50.789062 56.914062 51.132812 56.453125 L 50.4375 55.960938 " fill-opacity="1" fill-rule="nonzero"/><path fill="#000040" d="M 37.441406 60.535156 C 37.988281 60.710938 38.542969 60.855469 39.085938 60.96875 L 39.261719 60.148438 C 38.75 60.042969 38.226562 59.90625 37.707031 59.738281 L 37.441406 60.535156 " fill-opacity="1" fill-rule="nonzero"/><path fill="#000040" d="M 65.238281 50.648438 C 65.714844 50.859375 66.203125 51.097656 66.691406 51.355469 L 67.105469 50.621094 C 66.597656 50.351562 66.089844 50.101562 65.59375 49.882812 L 65.238281 50.648438 " fill-opacity="1" fill-rule="nonzero"/><path fill="#000040" d="M 62.191406 49.628906 C 62.695312 49.738281 63.214844 49.882812 63.738281 50.0625 L 64.019531 49.269531 C 63.464844 49.082031 62.914062 48.925781 62.382812 48.8125 L 62.191406 49.628906 " fill-opacity="1" fill-rule="nonzero"/><g clip-path="url(#6695c8ac56)"><path fill="#000040" d="M 62.65625 57.765625 L 62.195312 57.792969 L 61.859375 58.105469 L 56.148438 63.375 L 50.84375 47.410156 L 56.488281 42.59375 L 64.425781 42.890625 L 68.601562 51.488281 C 68.585938 51.476562 68.570312 51.46875 68.554688 51.457031 L 68.09375 52.164062 C 68.507812 52.421875 68.921875 52.695312 69.324219 52.976562 L 71.382812 57.210938 Z M 65.25 41.621094 L 56.03125 41.277344 L 49.871094 46.535156 L 48.347656 46.265625 C 48.148438 46.652344 47.929688 47.054688 47.695312 47.46875 L 49.609375 47.804688 L 51.675781 54.027344 C 51.558594 54.238281 51.441406 54.445312 51.320312 54.644531 L 52.011719 55.042969 L 54.941406 63.855469 L 46.078125 63.449219 L 45.695312 63.433594 L 45.367188 63.628906 L 38.328125 67.742188 L 35.886719 59.882812 L 36.199219 59.179688 C 35.96875 59.078125 35.761719 58.984375 35.578125 58.898438 L 33.015625 50.652344 L 37.8125 47.554688 C 37.585938 47.164062 37.378906 46.785156 37.183594 46.414062 L 31.484375 50.097656 L 37.574219 69.6875 L 46.019531 64.746094 L 56.074219 65.207031 L 62.738281 59.058594 L 73.394531 58.382812 L 65.25 41.621094 " fill-opacity="1" fill-rule="nonzero"/></g><g clip-path="url(#1957aa5a96)"><path fill="#000040" d="M 39.480469 40.882812 C 39.480469 39.089844 40.933594 37.636719 42.726562 37.636719 C 44.519531 37.636719 45.972656 39.089844 45.972656 40.882812 C 45.972656 42.675781 44.519531 44.128906 42.726562 44.128906 C 40.933594 44.128906 39.480469 42.675781 39.480469 40.882812 Z M 48.683594 41.257812 C 48.683594 37.964844 46.015625 35.300781 42.726562 35.300781 C 39.4375 35.300781 36.769531 37.964844 36.769531 41.257812 C 36.769531 45.097656 42.726562 52.609375 42.726562 52.609375 C 42.726562 52.609375 48.683594 45.097656 48.683594 41.257812 " fill-opacity="1" fill-rule="nonzero"/></g></svg>