<svg xmlns="http://www.w3.org/2000/svg" xmlns:xlink="http://www.w3.org/1999/xlink" width="140" zoomAndPan="magnify" viewBox="0 0 104.88 104.999996" height="140" preserveAspectRatio="xMidYMid meet" version="1.0"><defs><clipPath id="07635e7408"><path d="M 0 7.074219 L 104.761719 7.074219 L 104.761719 97.71875 L 0 97.71875 Z M 0 7.074219 " clip-rule="nonzero"/></clipPath><clipPath id="d93e6139a8"><path d="M 31.464844 31.523438 L 73.414062 31.523438 L 73.414062 73.476562 L 31.464844 73.476562 Z M 31.464844 31.523438 " clip-rule="nonzero"/></clipPath></defs><g clip-path="url(#07635e7408)"><path fill="#000040" d="M 26.21875 97.910156 L 0 52.496094 L 26.21875 7.082031 L 78.660156 7.082031 L 104.878906 52.496094 L 78.660156 97.910156 Z M 26.21875 97.910156 " fill-opacity="1" fill-rule="nonzero"/></g><path fill="#ffffff" d="M 47.855469 60.410156 C 46.902344 59.417969 46.414062 57.6875 46.390625 55.855469 L 44.269531 55.855469 C 44.269531 58.25 45.003906 60.394531 46.207031 61.625 C 47.351562 62.796875 49.164062 63.503906 51.601562 63.769531 L 51.601562 67.601562 L 53.277344 67.601562 L 53.277344 63.851562 C 54.261719 63.851562 55.21875 63.71875 56.148438 63.457031 C 57.078125 63.195312 57.910156 62.796875 58.640625 62.257812 C 59.371094 61.722656 59.949219 61.058594 60.394531 60.269531 C 60.832031 59.476562 61.050781 58.566406 61.050781 57.539062 C 61.050781 56.441406 60.824219 55.527344 60.378906 54.789062 C 59.925781 54.050781 59.335938 53.441406 58.609375 52.957031 C 57.878906 52.472656 57.042969 52.09375 56.113281 51.820312 C 55.183594 51.546875 54.242188 51.316406 53.28125 51.128906 L 53.28125 42.03125 C 54.757812 42.035156 55.953125 42.503906 56.875 43.4375 C 57.792969 44.375 58.289062 45.886719 58.3125 47.464844 L 60.40625 47.464844 C 60.433594 46.433594 60.261719 45.242188 59.886719 44.402344 C 59.515625 43.558594 59 42.835938 58.339844 42.238281 C 57.675781 41.636719 56.90625 41.175781 56.027344 40.847656 C 55.152344 40.523438 54.238281 40.359375 53.277344 40.359375 L 53.277344 37.398438 L 51.597656 37.398438 L 51.597656 40.382812 C 50.746094 40.414062 49.9375 40.535156 49.1875 40.785156 C 48.332031 41.066406 47.585938 41.476562 46.945312 42.015625 C 46.304688 42.550781 45.800781 43.199219 45.429688 43.957031 C 45.058594 44.714844 44.875 45.566406 44.875 46.515625 C 44.875 47.625 45.066406 48.542969 45.449219 49.257812 C 45.828125 49.976562 46.339844 50.566406 46.980469 51.03125 C 47.621094 51.492188 48.375 51.859375 49.238281 52.132812 C 49.992188 52.371094 50.785156 52.5625 51.597656 52.738281 L 51.597656 62.113281 C 50.003906 61.890625 48.746094 61.328125 47.855469 60.410156 Z M 53.277344 53.085938 C 53.925781 53.234375 54.582031 53.414062 55.253906 53.621094 C 55.925781 53.832031 56.535156 54.097656 57.070312 54.421875 C 57.613281 54.753906 58.054688 55.167969 58.402344 55.671875 C 58.753906 56.175781 58.925781 56.808594 58.925781 57.566406 C 58.925781 58.386719 58.765625 59.089844 58.4375 59.664062 C 58.117188 60.246094 57.6875 60.726562 57.15625 61.101562 C 56.628906 61.484375 56.03125 61.757812 55.355469 61.925781 C 54.683594 62.09375 53.992188 62.175781 53.28125 62.175781 L 53.28125 53.085938 Z M 50.117188 50.367188 C 49.519531 50.199219 48.992188 49.96875 48.53125 49.675781 C 48.070312 49.378906 47.699219 49 47.421875 48.535156 C 47.140625 48.074219 47 47.472656 47 46.734375 C 47 45.914062 47.128906 45.207031 47.386719 44.601562 C 47.644531 44.003906 48.007812 43.515625 48.464844 43.132812 C 48.925781 42.753906 49.453125 42.476562 50.046875 42.296875 C 50.535156 42.152344 51.0625 42.078125 51.601562 42.054688 L 51.601562 50.75 C 51.097656 50.628906 50.597656 50.503906 50.117188 50.367188 Z M 50.117188 50.367188 " fill-opacity="1" fill-rule="nonzero"/><g clip-path="url(#d93e6139a8)"><path fill="#ffffff" d="M 52.441406 73.476562 C 64.023438 73.476562 73.414062 64.082031 73.414062 52.5 C 73.414062 40.917969 64.023438 31.523438 52.441406 31.523438 C 40.855469 31.523438 31.464844 40.917969 31.464844 52.5 C 31.464844 64.082031 40.855469 73.476562 52.441406 73.476562 Z M 52.441406 33.203125 C 63.082031 33.203125 71.738281 41.859375 71.738281 52.5 C 71.738281 63.140625 63.082031 71.796875 52.441406 71.796875 C 41.800781 71.796875 33.140625 63.140625 33.140625 52.5 C 33.140625 41.859375 41.800781 33.203125 52.441406 33.203125 Z M 52.441406 33.203125 " fill-opacity="1" fill-rule="nonzero"/></g></svg>