<svg xmlns="http://www.w3.org/2000/svg" xmlns:xlink="http://www.w3.org/1999/xlink" width="140" zoomAndPan="magnify" viewBox="0 0 104.88 104.999996" height="140" preserveAspectRatio="xMidYMid meet" version="1.0"><defs><clipPath id="6485cdaf02"><path d="M 0 7.074219 L 104.761719 7.074219 L 104.761719 97.71875 L 0 97.71875 Z M 0 7.074219 " clip-rule="nonzero"/></clipPath><clipPath id="3631a8f7d2"><path d="M 31.464844 31.96875 L 71 31.96875 L 71 73.171875 L 31.464844 73.171875 Z M 31.464844 31.96875 " clip-rule="nonzero"/></clipPath><clipPath id="ac78c6dbf8"><path d="M 63 54 L 73.414062 54 L 73.414062 73 L 63 73 Z M 63 54 " clip-rule="nonzero"/></clipPath></defs><g clip-path="url(#6485cdaf02)"><path fill="#ffffff" d="M 26.21875 97.710938 L 0 52.398438 L 26.21875 7.082031 L 78.660156 7.082031 L 104.878906 52.398438 L 78.660156 97.710938 Z M 26.21875 97.710938 " fill-opacity="1" fill-rule="nonzero"/></g><g clip-path="url(#3631a8f7d2)"><path fill="#000040" d="M 61.371094 68.738281 L 59.375 68.738281 C 59.425781 68.597656 59.457031 68.445312 59.457031 68.285156 L 59.457031 55.132812 C 59.457031 54.386719 58.847656 53.777344 58.101562 53.777344 L 38.625 53.777344 L 38.625 43.5 C 38.625 42.75 39.234375 42.140625 39.980469 42.140625 L 47.355469 42.140625 C 47.582031 44.625 49.675781 46.578125 52.214844 46.578125 L 55.859375 46.578125 L 55.859375 49.472656 C 55.859375 50.222656 55.25 50.832031 54.503906 50.832031 L 48.265625 50.832031 C 48.058594 49.90625 47.230469 49.210938 46.246094 49.210938 C 45.105469 49.210938 44.175781 50.140625 44.175781 51.28125 C 44.175781 52.425781 45.105469 53.355469 46.246094 53.355469 C 47.234375 53.355469 48.058594 52.660156 48.265625 51.734375 L 54.503906 51.734375 C 55.75 51.734375 56.765625 50.71875 56.765625 49.472656 L 56.765625 46.578125 L 58.796875 46.578125 L 58.796875 49.472656 C 58.796875 50.71875 59.8125 51.734375 61.058594 51.734375 L 66.273438 51.734375 C 66.480469 52.660156 67.304688 53.355469 68.292969 53.355469 C 69.433594 53.355469 70.363281 52.425781 70.363281 51.28125 C 70.363281 50.140625 69.433594 49.210938 68.292969 49.210938 C 67.304688 49.210938 66.480469 49.90625 66.273438 50.832031 L 61.058594 50.832031 C 60.308594 50.832031 59.703125 50.222656 59.703125 49.472656 L 59.703125 46.578125 L 64.0625 46.578125 C 66.753906 46.578125 68.945312 44.382812 68.945312 41.691406 C 68.945312 38.996094 66.753906 36.804688 64.0625 36.804688 C 63.707031 36.804688 63.355469 36.84375 63.007812 36.921875 C 62.597656 34.101562 60.175781 31.964844 57.269531 31.964844 C 54.378906 31.964844 51.976562 34.042969 51.535156 36.859375 C 49.296875 37.171875 47.558594 38.996094 47.351562 41.238281 L 39.980469 41.238281 C 38.734375 41.238281 37.71875 42.253906 37.71875 43.5 L 37.71875 53.777344 L 35.191406 53.777344 C 34.445312 53.777344 33.835938 54.386719 33.835938 55.132812 L 33.835938 68.285156 C 33.835938 68.445312 33.871094 68.597656 33.921875 68.738281 L 31.921875 68.738281 C 31.675781 68.738281 31.472656 68.941406 31.472656 69.191406 L 31.472656 70.527344 C 31.472656 71.90625 32.59375 73.027344 33.96875 73.027344 L 59.324219 73.027344 C 60.703125 73.027344 61.820312 71.90625 61.820312 70.527344 L 61.820312 69.191406 C 61.824219 68.941406 61.621094 68.738281 61.371094 68.738281 Z M 68.292969 50.113281 C 68.9375 50.113281 69.460938 50.640625 69.460938 51.28125 C 69.460938 51.925781 68.9375 52.449219 68.292969 52.449219 C 67.648438 52.449219 67.125 51.925781 67.125 51.28125 C 67.125 50.640625 67.648438 50.113281 68.292969 50.113281 Z M 38.625 70.613281 L 38.625 70.953125 C 38.625 71.203125 38.421875 71.40625 38.171875 71.40625 C 37.921875 71.40625 37.71875 71.203125 37.71875 70.953125 L 37.71875 70.613281 C 37.71875 70.363281 37.921875 70.160156 38.171875 70.160156 C 38.421875 70.160156 38.625 70.363281 38.625 70.613281 Z M 36.546875 70.613281 L 36.546875 70.953125 C 36.546875 71.203125 36.34375 71.40625 36.09375 71.40625 C 35.84375 71.40625 35.644531 71.203125 35.644531 70.953125 L 35.644531 70.613281 C 35.644531 70.363281 35.84375 70.160156 36.09375 70.160156 C 36.34375 70.160156 36.546875 70.363281 36.546875 70.613281 Z M 38.171875 56.609375 C 38.816406 56.609375 39.339844 57.132812 39.339844 57.777344 C 39.339844 58.421875 38.816406 58.945312 38.171875 58.945312 C 37.527344 58.945312 37.003906 58.421875 37.003906 57.777344 C 37.003906 57.132812 37.527344 56.609375 38.171875 56.609375 Z M 34.742188 55.132812 C 34.742188 54.886719 34.945312 54.683594 35.191406 54.683594 L 37.71875 54.683594 L 37.71875 55.757812 C 36.796875 55.964844 36.101562 56.789062 36.101562 57.777344 C 36.101562 58.917969 37.03125 59.847656 38.171875 59.847656 C 39.316406 59.847656 40.246094 58.917969 40.246094 57.777344 C 40.246094 56.789062 39.550781 55.964844 38.625 55.757812 L 38.625 54.683594 L 58.101562 54.683594 C 58.347656 54.683594 58.550781 54.886719 58.550781 55.132812 L 58.550781 68.285156 C 58.550781 68.535156 58.347656 68.738281 58.101562 68.738281 L 50.253906 68.738281 C 50.253906 68.738281 50.25 68.738281 50.25 68.738281 L 35.191406 68.738281 C 34.945312 68.738281 34.742188 68.535156 34.742188 68.285156 Z M 34.742188 55.132812 " fill-opacity="1" fill-rule="nonzero"/></g><path fill="#000040" d="M 47.464844 65.324219 C 47.464844 65.554688 47.382812 65.75 47.21875 65.914062 C 47.054688 66.078125 46.859375 66.160156 46.628906 66.160156 C 46.398438 66.160156 46.199219 66.078125 46.039062 65.914062 C 45.875 65.75 45.792969 65.554688 45.792969 65.324219 C 45.792969 65.09375 45.875 64.894531 46.039062 64.730469 C 46.199219 64.570312 46.398438 64.488281 46.628906 64.488281 C 46.859375 64.488281 47.054688 64.570312 47.21875 64.730469 C 47.382812 64.894531 47.464844 65.09375 47.464844 65.324219 Z M 47.464844 65.324219 " fill-opacity="1" fill-rule="nonzero"/><path fill="#000040" d="M 46.628906 61.867188 C 45.476562 61.867188 44.40625 62.4375 43.761719 63.390625 C 43.625 63.597656 43.679688 63.878906 43.882812 64.019531 C 44.089844 64.15625 44.371094 64.101562 44.511719 63.894531 C 44.988281 63.191406 45.777344 62.769531 46.628906 62.769531 C 47.492188 62.769531 48.289062 63.203125 48.761719 63.921875 C 48.851562 64.054688 48.996094 64.125 49.140625 64.125 C 49.226562 64.125 49.3125 64.101562 49.390625 64.050781 C 49.597656 63.914062 49.65625 63.632812 49.519531 63.425781 C 48.875 62.449219 47.796875 61.867188 46.628906 61.867188 Z M 46.628906 61.867188 " fill-opacity="1" fill-rule="nonzero"/><path fill="#000040" d="M 42.074219 62.25 C 43.097656 60.734375 44.800781 59.828125 46.628906 59.828125 C 48.480469 59.832031 50.195312 60.753906 51.21875 62.300781 C 51.304688 62.433594 51.449219 62.503906 51.597656 62.503906 C 51.683594 62.503906 51.769531 62.480469 51.84375 62.429688 C 52.054688 62.292969 52.109375 62.011719 51.972656 61.804688 C 50.785156 60.003906 48.785156 58.925781 46.628906 58.925781 C 44.5 58.925781 42.515625 59.980469 41.324219 61.746094 C 41.183594 61.953125 41.238281 62.234375 41.445312 62.375 C 41.652344 62.511719 41.933594 62.457031 42.074219 62.25 Z M 42.074219 62.25 " fill-opacity="1" fill-rule="nonzero"/><g clip-path="url(#ac78c6dbf8)"><path fill="#000040" d="M 71.835938 54.476562 L 64.769531 54.476562 C 63.925781 54.476562 63.238281 55.164062 63.238281 56.007812 L 63.238281 70.800781 C 63.238281 71.640625 63.925781 72.328125 64.769531 72.328125 L 71.835938 72.328125 C 72.675781 72.328125 73.363281 71.640625 73.363281 70.800781 L 73.363281 56.007812 C 73.363281 55.164062 72.675781 54.476562 71.835938 54.476562 Z M 68.292969 63.148438 C 67.917969 63.148438 67.566406 63.335938 67.355469 63.648438 C 67.214844 63.855469 66.9375 63.910156 66.730469 63.769531 C 66.523438 63.628906 66.46875 63.351562 66.605469 63.144531 C 66.984375 62.582031 67.617188 62.246094 68.292969 62.246094 C 68.980469 62.246094 69.613281 62.589844 69.992188 63.164062 C 70.128906 63.371094 70.070312 63.652344 69.863281 63.789062 C 69.785156 63.839844 69.699219 63.863281 69.613281 63.863281 C 69.46875 63.863281 69.324219 63.792969 69.238281 63.660156 C 69.027344 63.339844 68.671875 63.148438 68.292969 63.148438 Z M 68.945312 64.28125 C 68.945312 64.640625 68.652344 64.933594 68.292969 64.933594 C 67.933594 64.933594 67.640625 64.640625 67.640625 64.28125 C 67.640625 63.917969 67.933594 63.625 68.292969 63.625 C 68.652344 63.625 68.945312 63.921875 68.945312 64.28125 Z M 71.15625 62.9375 C 71.078125 62.988281 70.992188 63.011719 70.90625 63.011719 C 70.761719 63.011719 70.617188 62.941406 70.53125 62.808594 C 70.03125 62.054688 69.195312 61.605469 68.292969 61.601562 C 67.402344 61.601562 66.570312 62.042969 66.074219 62.785156 C 65.933594 62.992188 65.652344 63.042969 65.445312 62.90625 C 65.238281 62.765625 65.183594 62.484375 65.324219 62.277344 C 65.992188 61.289062 67.101562 60.699219 68.292969 60.699219 C 69.5 60.699219 70.617188 61.300781 71.285156 62.3125 C 71.421875 62.519531 71.363281 62.800781 71.15625 62.9375 Z M 72.460938 70.796875 C 72.460938 71.144531 72.179688 71.421875 71.835938 71.421875 L 68.605469 71.421875 C 68.84375 71.308594 69.011719 71.066406 69.011719 70.78125 C 69.011719 70.390625 68.695312 70.074219 68.300781 70.074219 C 67.910156 70.074219 67.59375 70.390625 67.59375 70.78125 C 67.59375 71.066406 67.761719 71.308594 68 71.421875 L 64.769531 71.421875 C 64.425781 71.421875 64.144531 71.144531 64.144531 70.796875 L 64.144531 70.074219 L 72.460938 70.074219 Z M 72.460938 56.730469 L 64.144531 56.730469 L 64.144531 56.003906 C 64.144531 55.660156 64.425781 55.378906 64.769531 55.378906 L 71.835938 55.378906 C 72.179688 55.378906 72.460938 55.660156 72.460938 56.003906 Z M 72.460938 56.730469 " fill-opacity="1" fill-rule="nonzero"/></g><path fill="#000040" d="M 68.839844 55.703125 L 67.761719 55.703125 C 67.511719 55.703125 67.3125 55.90625 67.3125 56.15625 C 67.3125 56.40625 67.511719 56.609375 67.761719 56.609375 L 68.839844 56.609375 C 69.089844 56.609375 69.292969 56.40625 69.292969 56.15625 C 69.292969 55.90625 69.089844 55.703125 68.839844 55.703125 Z M 68.839844 55.703125 " fill-opacity="1" fill-rule="nonzero"/><path fill="#000040" d="M 54.070312 67.816406 L 57.292969 67.816406 C 57.542969 67.816406 57.746094 67.613281 57.746094 67.363281 L 57.746094 64.480469 C 57.746094 64.230469 57.542969 64.027344 57.292969 64.027344 C 57.042969 64.027344 56.839844 64.230469 56.839844 64.480469 L 56.839844 66.910156 L 54.070312 66.910156 C 53.820312 66.910156 53.617188 67.113281 53.617188 67.363281 C 53.617188 67.613281 53.820312 67.816406 54.070312 67.816406 Z M 54.070312 67.816406 " fill-opacity="1" fill-rule="nonzero"/></svg>