<svg xmlns="http://www.w3.org/2000/svg" xmlns:xlink="http://www.w3.org/1999/xlink" width="140" zoomAndPan="magnify" viewBox="0 0 104.88 104.999996" height="140" preserveAspectRatio="xMidYMid meet" version="1.0"><defs><clipPath id="b1793687d4"><path d="M 0 7.074219 L 104.761719 7.074219 L 104.761719 97.71875 L 0 97.71875 Z M 0 7.074219 " clip-rule="nonzero"/></clipPath><clipPath id="2067bd10c5"><path d="M 31.464844 45 L 55 45 L 55 73.476562 L 31.464844 73.476562 Z M 31.464844 45 " clip-rule="nonzero"/></clipPath><clipPath id="1b66159cdf"><path d="M 52 31.523438 L 73.414062 31.523438 L 73.414062 59 L 52 59 Z M 52 31.523438 " clip-rule="nonzero"/></clipPath></defs><g clip-path="url(#b1793687d4)"><path fill="#ffffff" d="M 26.21875 97.710938 L 0 52.398438 L 26.21875 7.082031 L 78.660156 7.082031 L 104.878906 52.398438 L 78.660156 97.710938 Z M 26.21875 97.710938 " fill-opacity="1" fill-rule="nonzero"/></g><g clip-path="url(#2067bd10c5)"><path fill="#000040" d="M 50.539062 61.875 L 47.195312 61.875 L 46.671875 60.890625 C 51.324219 57.546875 49.882812 51.1875 50.144531 49.355469 C 50.144531 46.863281 46.671875 45.75 43.199219 45.75 C 39.722656 45.75 36.25 46.863281 36.25 49.355469 C 36.183594 52.894531 35.398438 57.875 39.65625 60.890625 L 39.132812 61.875 L 35.59375 61.875 C 33.300781 61.875 31.464844 63.710938 31.464844 66.003906 L 31.464844 72.820312 C 31.464844 73.214844 31.726562 73.476562 32.121094 73.476562 L 54.011719 73.476562 C 54.339844 73.476562 54.667969 73.214844 54.667969 72.820312 L 54.667969 66.070312 C 54.667969 63.773438 52.832031 61.875 50.539062 61.875 Z M 43.066406 67.378906 L 40.117188 62.527344 L 40.640625 61.546875 C 41.425781 61.875 42.214844 62.070312 43.066406 62.070312 C 43.917969 62.070312 44.707031 61.875 45.492188 61.546875 L 46.015625 62.527344 Z M 37.429688 54.464844 C 38.675781 54.140625 40.378906 53.15625 41.164062 51.777344 C 42.933594 53.023438 46.082031 54.597656 48.769531 54.335938 C 48.441406 58.007812 46.015625 60.824219 43.132812 60.824219 C 40.183594 60.757812 37.757812 58.007812 37.429688 54.464844 Z M 37.429688 54.464844 " fill-opacity="1" fill-rule="nonzero"/></g><g clip-path="url(#1b66159cdf)"><path fill="#000040" d="M 71.515625 31.523438 L 54.40625 31.523438 C 53.359375 31.523438 52.441406 32.375 52.441406 33.425781 L 52.441406 57.089844 C 52.441406 58.136719 53.292969 58.988281 54.339844 58.988281 L 71.449219 58.988281 C 72.5 58.988281 73.351562 58.136719 73.351562 57.089844 L 73.351562 33.425781 C 73.414062 32.375 72.5625 31.523438 71.515625 31.523438 Z M 68.957031 55.253906 L 56.898438 55.253906 C 56.503906 55.253906 56.242188 54.992188 56.242188 54.597656 C 56.242188 54.203125 56.503906 53.941406 56.898438 53.941406 L 68.894531 53.941406 C 69.285156 53.941406 69.546875 54.203125 69.546875 54.597656 C 69.546875 54.992188 69.285156 55.253906 68.957031 55.253906 Z M 68.957031 51.515625 L 56.898438 51.515625 C 56.503906 51.515625 56.242188 51.253906 56.242188 50.859375 C 56.242188 50.46875 56.503906 50.207031 56.898438 50.207031 L 68.894531 50.207031 C 69.285156 50.207031 69.546875 50.46875 69.546875 50.859375 C 69.546875 51.253906 69.285156 51.515625 68.957031 51.515625 Z M 68.957031 47.78125 L 56.898438 47.78125 C 56.503906 47.78125 56.242188 47.519531 56.242188 47.125 C 56.242188 46.730469 56.503906 46.46875 56.898438 46.46875 L 68.894531 46.46875 C 69.285156 46.46875 69.546875 46.730469 69.546875 47.125 C 69.546875 47.519531 69.285156 47.78125 68.957031 47.78125 Z M 68.957031 44.109375 L 56.898438 44.109375 C 56.503906 44.109375 56.242188 43.847656 56.242188 43.453125 C 56.242188 43.0625 56.503906 42.796875 56.898438 42.796875 L 68.894531 42.796875 C 69.285156 42.796875 69.546875 43.0625 69.546875 43.453125 C 69.546875 43.847656 69.285156 44.109375 68.957031 44.109375 Z M 68.957031 40.375 L 56.898438 40.375 C 56.503906 40.375 56.242188 40.109375 56.242188 39.71875 C 56.242188 39.324219 56.503906 39.0625 56.898438 39.0625 L 68.894531 39.0625 C 69.285156 39.0625 69.546875 39.324219 69.546875 39.71875 C 69.546875 40.109375 69.285156 40.375 68.957031 40.375 Z M 68.957031 36.636719 L 56.898438 36.636719 C 56.503906 36.636719 56.242188 36.375 56.242188 35.980469 C 56.242188 35.589844 56.503906 35.324219 56.898438 35.324219 L 68.894531 35.324219 C 69.285156 35.324219 69.546875 35.589844 69.546875 35.980469 C 69.546875 36.375 69.285156 36.636719 68.957031 36.636719 Z M 68.957031 36.636719 " fill-opacity="1" fill-rule="nonzero"/></g></svg>