<svg width="110" height="110" viewBox="0 0 110 110" fill="none" xmlns="http://www.w3.org/2000/svg">
<rect width="110" height="110" rx="55" fill="#F0F5FF"/>
<path opacity="0.2" d="M48.3393 54.4028C49.8952 57.5838 52.4737 60.1506 55.6618 61.692C55.8951 61.8026 56.1531 61.8505 56.4105 61.831C56.6678 61.8115 56.9157 61.7253 57.1297 61.581L61.8239 58.4508C62.0315 58.3124 62.2704 58.2279 62.5188 58.2051C62.7673 58.1822 63.0176 58.2218 63.2469 58.3201L72.0289 62.0837C72.3272 62.2105 72.5763 62.4307 72.7385 62.7113C72.9008 62.9919 72.9675 63.3176 72.9286 63.6394C72.651 65.8114 71.5912 67.8078 69.9477 69.2547C68.3042 70.7016 66.1897 71.4998 64 71.4999C57.237 71.4999 50.751 68.8133 45.9688 64.0312C41.1866 59.249 38.5 52.763 38.5 45.9999C38.5001 43.8103 39.2984 41.6957 40.7453 40.0522C42.1922 38.4087 44.1886 37.349 46.3606 37.0714C46.6823 37.0324 47.0081 37.0991 47.2886 37.2614C47.5692 37.4237 47.7895 37.6727 47.9162 37.971L51.6832 46.7606C51.7806 46.988 51.8203 47.2359 51.7987 47.4823C51.7772 47.7287 51.695 47.966 51.5595 48.1729L48.4402 52.9391C48.2982 53.1536 48.2143 53.4011 48.1966 53.6577C48.1789 53.9142 48.2281 54.1709 48.3393 54.4028Z" fill="#243D66"/>
<path d="M48.3393 54.4028C49.8952 57.5838 52.4737 60.1506 55.6618 61.692C55.8951 61.8026 56.1531 61.8505 56.4105 61.831C56.6678 61.8115 56.9157 61.7253 57.1297 61.581L61.8239 58.4508C62.0315 58.3124 62.2704 58.2279 62.5188 58.2051C62.7673 58.1822 63.0176 58.2218 63.2469 58.3201L72.0289 62.0837C72.3272 62.2105 72.5763 62.4307 72.7385 62.7113C72.9008 62.9919 72.9675 63.3176 72.9286 63.6394C72.651 65.8114 71.5912 67.8078 69.9477 69.2547C68.3042 70.7016 66.1897 71.4998 64 71.4999C57.237 71.4999 50.751 68.8133 45.9688 64.0312C41.1866 59.249 38.5 52.763 38.5 45.9999C38.5001 43.8103 39.2984 41.6957 40.7453 40.0522C42.1922 38.4087 44.1886 37.349 46.3606 37.0714C46.6823 37.0324 47.0081 37.0991 47.2886 37.2614C47.5692 37.4237 47.7895 37.6727 47.9162 37.971L51.6832 46.7606C51.7806 46.988 51.8203 47.2359 51.7987 47.4823C51.7772 47.7287 51.695 47.966 51.5595 48.1729L48.4402 52.9391C48.2982 53.1536 48.2143 53.4011 48.1966 53.6577C48.1789 53.9142 48.2281 54.1709 48.3393 54.4028V54.4028Z" stroke="#243D66" stroke-width="3" stroke-linecap="round" stroke-linejoin="round"/>
<path d="M60.8906 38.5C63.4335 39.1839 65.752 40.5239 67.614 42.3859C69.4759 44.2478 70.816 46.5664 71.4999 49.1092" stroke="#243D66" stroke-width="3" stroke-linecap="round" stroke-linejoin="round"/>
<path d="M59.3379 44.2969C60.8636 44.7072 62.2547 45.5112 63.3719 46.6284C64.4891 47.7456 65.2931 49.1367 65.7034 50.6624" stroke="#243D66" stroke-width="3" stroke-linecap="round" stroke-linejoin="round"/>
</svg>
