<svg xmlns="http://www.w3.org/2000/svg" xmlns:xlink="http://www.w3.org/1999/xlink" width="140" zoomAndPan="magnify" viewBox="0 0 104.88 104.999996" height="140" preserveAspectRatio="xMidYMid meet" version="1.0"><defs><clipPath id="8eae3e210e"><path d="M 0 7.074219 L 104.761719 7.074219 L 104.761719 97.71875 L 0 97.71875 Z M 0 7.074219 " clip-rule="nonzero"/></clipPath><clipPath id="4dc5c4885e"><path d="M 41.164062 31.523438 L 63.640625 31.523438 L 63.640625 73.476562 L 41.164062 73.476562 Z M 41.164062 31.523438 " clip-rule="nonzero"/></clipPath></defs><g clip-path="url(#8eae3e210e)"><path fill="#000040" d="M 26.21875 97.910156 L 0 52.496094 L 26.21875 7.082031 L 78.660156 7.082031 L 104.878906 52.496094 L 78.660156 97.910156 Z M 26.21875 97.910156 " fill-opacity="1" fill-rule="nonzero"/></g><g clip-path="url(#4dc5c4885e)"><path fill="#ffffff" d="M 62.484375 69.851562 C 62.484375 71.1875 61.402344 72.269531 60.066406 72.269531 L 44.808594 72.269531 C 43.472656 72.269531 42.390625 71.1875 42.390625 69.851562 L 42.390625 35.148438 C 42.390625 33.8125 43.472656 32.730469 44.808594 32.730469 L 47.914062 32.730469 C 48.078125 32.730469 48.210938 32.867188 48.210938 33.027344 L 48.210938 33.183594 C 48.210938 33.789062 48.703125 34.285156 49.3125 34.285156 L 55.566406 34.285156 C 56.171875 34.285156 56.667969 33.789062 56.667969 33.183594 L 56.667969 33.027344 C 56.667969 32.867188 56.800781 32.730469 56.964844 32.730469 L 60.066406 32.730469 C 61.402344 32.730469 62.484375 33.8125 62.484375 35.148438 Z M 60.066406 31.523438 L 44.808594 31.523438 C 42.808594 31.523438 41.183594 33.148438 41.183594 35.148438 L 41.183594 69.851562 C 41.183594 71.851562 42.808594 73.476562 44.808594 73.476562 L 60.066406 73.476562 C 62.066406 73.476562 63.691406 71.851562 63.691406 69.851562 L 63.691406 35.148438 C 63.691406 33.148438 62.066406 31.523438 60.066406 31.523438 " fill-opacity="1" fill-rule="nonzero"/></g></svg>