<svg xmlns="http://www.w3.org/2000/svg" xmlns:xlink="http://www.w3.org/1999/xlink" width="140" zoomAndPan="magnify" viewBox="0 0 104.88 104.999996" height="140" preserveAspectRatio="xMidYMid meet" version="1.0"><defs><clipPath id="67c4c1399f"><path d="M 0 7.074219 L 104.761719 7.074219 L 104.761719 97.71875 L 0 97.71875 Z M 0 7.074219 " clip-rule="nonzero"/></clipPath><clipPath id="cad3effea6"><path d="M 31.464844 39.914062 L 73.414062 39.914062 L 73.414062 65.386719 L 31.464844 65.386719 Z M 31.464844 39.914062 " clip-rule="nonzero"/></clipPath></defs><g clip-path="url(#67c4c1399f)"><path fill="#336699" d="M 26.21875 97.910156 L 0 52.496094 L 26.21875 7.082031 L 78.660156 7.082031 L 104.878906 52.496094 L 78.660156 97.910156 Z M 26.21875 97.910156 " fill-opacity="1" fill-rule="nonzero"/></g><g clip-path="url(#cad3effea6)"><path fill="#ffffff" d="M 33.144531 39.914062 C 32.230469 39.914062 31.46875 40.675781 31.46875 41.59375 L 31.46875 63.402344 C 31.46875 64.320312 32.230469 65.082031 33.144531 65.082031 L 71.734375 65.082031 C 72.652344 65.082031 73.410156 64.320312 73.410156 63.402344 L 73.410156 41.59375 C 73.410156 40.675781 72.652344 39.914062 71.734375 39.914062 Z M 33.144531 41.59375 L 71.734375 41.59375 L 71.734375 63.402344 L 33.144531 63.402344 Z M 38.179688 43.269531 C 37.949219 43.269531 37.75 43.351562 37.585938 43.515625 C 37.421875 43.679688 37.339844 43.878906 37.339844 44.109375 C 37.339844 44.339844 37.421875 44.539062 37.585938 44.703125 C 37.75 44.867188 37.949219 44.949219 38.179688 44.949219 C 38.410156 44.949219 38.609375 44.867188 38.773438 44.703125 C 38.9375 44.539062 39.019531 44.339844 39.019531 44.109375 C 39.019531 43.878906 38.9375 43.679688 38.773438 43.515625 C 38.609375 43.351562 38.410156 43.269531 38.179688 43.269531 Z M 66.699219 43.269531 C 66.46875 43.269531 66.273438 43.351562 66.109375 43.515625 C 65.945312 43.679688 65.863281 43.878906 65.863281 44.109375 C 65.863281 44.339844 65.945312 44.539062 66.109375 44.703125 C 66.273438 44.867188 66.46875 44.949219 66.699219 44.949219 C 66.933594 44.949219 67.128906 44.867188 67.292969 44.703125 C 67.457031 44.539062 67.539062 44.339844 67.539062 44.109375 C 67.539062 43.878906 67.457031 43.679688 67.292969 43.515625 C 67.128906 43.351562 66.933594 43.269531 66.699219 43.269531 Z M 42.570312 48.304688 C 41.851562 48.304688 41.199219 48.351562 40.695312 48.464844 L 40.695312 56.605469 C 41.074219 56.65625 41.601562 56.691406 42.230469 56.691406 C 43.652344 56.691406 44.507812 56.398438 45.011719 55.855469 C 45.414062 55.453125 45.640625 54.921875 45.640625 54.234375 C 45.640625 53.324219 45.113281 52.523438 44.132812 52.25 L 44.132812 52.203125 C 44.972656 51.847656 45.363281 51.132812 45.363281 50.394531 C 45.363281 49.816406 45.175781 49.261719 44.722656 48.894531 C 44.132812 48.402344 43.363281 48.304688 42.570312 48.304688 Z M 49.992188 48.304688 C 48.34375 48.304688 46.566406 49.515625 46.566406 52.621094 C 46.566406 54.957031 47.601562 56.691406 49.765625 56.691406 C 50.34375 56.691406 50.808594 56.605469 51.046875 56.496094 L 50.882812 55.148438 C 50.683594 55.210938 50.367188 55.273438 50.089844 55.273438 C 49.082031 55.273438 48.316406 54.503906 48.316406 52.535156 C 48.316406 50.492188 49.160156 49.710938 50.089844 49.710938 C 50.457031 49.710938 50.671875 49.78125 50.859375 49.867188 L 51.136719 48.523438 C 50.972656 48.414062 50.570312 48.304688 49.992188 48.304688 Z M 62.527344 48.304688 C 61.78125 48.304688 61.070312 48.570312 60.691406 48.8125 L 60.984375 50.113281 C 61.289062 49.921875 61.703125 49.691406 62.222656 49.691406 C 62.90625 49.691406 63.273438 50.164062 63.273438 50.828125 C 63.273438 52.011719 62.402344 53.148438 61.335938 54.511719 L 60.515625 55.570312 L 60.515625 56.691406 L 65.023438 56.691406 L 65.023438 55.226562 L 62.5 55.226562 L 62.5 55.199219 L 62.996094 54.613281 C 63.945312 53.503906 64.910156 52.253906 64.910156 50.699219 C 64.910156 49.515625 64.328125 48.304688 62.527344 48.304688 Z M 68.140625 48.304688 C 67.460938 48.304688 66.792969 48.519531 66.453125 48.734375 L 66.667969 49.976562 C 66.96875 49.789062 67.332031 49.652344 67.699219 49.652344 C 68.277344 49.652344 68.65625 50.003906 68.65625 50.59375 C 68.65625 51.390625 67.875 51.640625 67.269531 51.652344 L 67.105469 51.652344 L 67.105469 52.863281 L 67.335938 52.863281 C 68.179688 52.863281 68.871094 53.253906 68.871094 54.160156 C 68.871094 54.851562 68.429688 55.34375 67.636719 55.34375 C 67.195312 55.34375 66.742188 55.21875 66.414062 55.027344 L 66.175781 56.328125 C 66.542969 56.527344 67.121094 56.691406 67.789062 56.691406 C 69.5625 56.691406 70.519531 55.46875 70.519531 54.222656 C 70.519531 53.113281 69.914062 52.40625 69.121094 52.144531 L 69.121094 52.121094 C 69.839844 51.78125 70.289062 51.097656 70.289062 50.28125 C 70.289062 49.234375 69.574219 48.304688 68.140625 48.304688 Z M 57.691406 48.40625 L 55.796875 49.390625 L 56.074219 50.703125 L 57.472656 49.976562 L 57.496094 49.976562 L 57.496094 56.691406 L 59.152344 56.691406 L 59.152344 48.40625 Z M 35.917969 48.449219 L 34.082031 56.6875 L 35.679688 56.6875 L 36.054688 54.804688 L 37.578125 54.804688 L 37.945312 56.6875 L 39.542969 56.6875 L 37.894531 48.449219 Z M 42.773438 49.507812 C 43.449219 49.507812 43.742188 49.976562 43.742188 50.578125 C 43.742188 51.253906 43.289062 51.746094 42.695312 51.746094 L 42.34375 51.746094 L 42.34375 49.558594 C 42.445312 49.519531 42.59375 49.507812 42.773438 49.507812 Z M 36.835938 49.964844 L 36.875 49.964844 C 36.949219 50.511719 37.0625 51.335938 37.148438 51.835938 L 37.425781 53.558594 L 36.21875 53.558594 L 36.535156 51.847656 C 36.621094 51.371094 36.75 50.511719 36.835938 49.964844 Z M 51.601562 51.660156 L 51.601562 53.335938 L 54.957031 53.335938 L 54.957031 51.660156 Z M 42.34375 52.941406 L 42.695312 52.941406 C 43.351562 52.953125 43.929688 53.382812 43.929688 54.207031 C 43.929688 55.054688 43.375 55.449219 42.710938 55.449219 C 42.558594 55.449219 42.445312 55.449219 42.34375 55.425781 Z M 38.179688 60.046875 C 37.949219 60.046875 37.75 60.128906 37.585938 60.292969 C 37.421875 60.457031 37.339844 60.65625 37.339844 60.886719 C 37.339844 61.117188 37.421875 61.316406 37.585938 61.480469 C 37.75 61.644531 37.949219 61.726562 38.179688 61.726562 C 38.410156 61.726562 38.609375 61.644531 38.773438 61.480469 C 38.9375 61.316406 39.019531 61.117188 39.019531 60.886719 C 39.019531 60.65625 38.9375 60.457031 38.773438 60.292969 C 38.609375 60.128906 38.410156 60.046875 38.179688 60.046875 Z M 66.699219 60.046875 C 66.46875 60.046875 66.273438 60.128906 66.109375 60.292969 C 65.945312 60.457031 65.863281 60.65625 65.863281 60.886719 C 65.863281 61.117188 65.945312 61.316406 66.109375 61.480469 C 66.273438 61.644531 66.46875 61.726562 66.699219 61.726562 C 66.933594 61.726562 67.128906 61.644531 67.292969 61.480469 C 67.457031 61.316406 67.539062 61.117188 67.539062 60.886719 C 67.539062 60.65625 67.457031 60.457031 67.292969 60.292969 C 67.128906 60.128906 66.933594 60.046875 66.699219 60.046875 Z M 66.699219 60.046875 " fill-opacity="1" fill-rule="nonzero"/></g></svg>