<svg xmlns="http://www.w3.org/2000/svg" xmlns:xlink="http://www.w3.org/1999/xlink" width="140" zoomAndPan="magnify" viewBox="0 0 104.88 104.999996" height="140" preserveAspectRatio="xMidYMid meet" version="1.0"><defs><clipPath id="35e4bf8848"><path d="M 0 7.074219 L 104.761719 7.074219 L 104.761719 97.71875 L 0 97.71875 Z M 0 7.074219 " clip-rule="nonzero"/></clipPath><clipPath id="a27ba84fde"><path d="M 35.421875 31.523438 L 75 31.523438 L 75 73.476562 L 35.421875 73.476562 Z M 35.421875 31.523438 " clip-rule="nonzero"/></clipPath></defs><g clip-path="url(#35e4bf8848)"><path fill="#336699" d="M 26.21875 97.910156 L 0 52.496094 L 26.21875 7.082031 L 78.660156 7.082031 L 104.878906 52.496094 L 78.660156 97.910156 Z M 26.21875 97.910156 " fill-opacity="1" fill-rule="nonzero"/></g><g clip-path="url(#a27ba84fde)"><path fill="#ffffff" d="M 42.027344 44.410156 L 42.027344 47.589844 C 42.027344 48.53125 42.792969 49.296875 43.730469 49.296875 L 46.910156 49.296875 C 47.851562 49.296875 48.617188 48.53125 48.617188 47.589844 L 48.617188 45.585938 L 50.496094 43.878906 C 50.765625 43.636719 50.785156 43.222656 50.542969 42.953125 C 50.300781 42.683594 49.882812 42.664062 49.617188 42.90625 L 48.535156 43.890625 C 48.3125 43.203125 47.667969 42.707031 46.910156 42.707031 L 43.730469 42.707031 C 42.792969 42.707031 42.027344 43.472656 42.027344 44.410156 Z M 47.304688 44.410156 L 47.304688 45.003906 L 46.328125 45.890625 L 45.226562 44.789062 C 44.972656 44.53125 44.554688 44.53125 44.300781 44.789062 C 44.042969 45.046875 44.042969 45.460938 44.300781 45.714844 L 45.84375 47.261719 C 45.972656 47.386719 46.140625 47.453125 46.308594 47.453125 C 46.464844 47.453125 46.621094 47.394531 46.746094 47.28125 L 47.304688 46.777344 L 47.304688 47.589844 C 47.304688 47.804688 47.125 47.984375 46.910156 47.984375 L 43.730469 47.984375 C 43.519531 47.984375 43.335938 47.804688 43.335938 47.589844 L 43.335938 44.410156 C 43.335938 44.199219 43.519531 44.019531 43.730469 44.019531 L 46.910156 44.019531 C 47.125 44.019531 47.304688 44.199219 47.304688 44.410156 Z M 49.617188 51.828125 L 48.535156 52.808594 C 48.3125 52.121094 47.667969 51.625 46.910156 51.625 L 43.730469 51.625 C 42.792969 51.625 42.027344 52.390625 42.027344 53.328125 L 42.027344 56.507812 C 42.027344 57.449219 42.792969 58.214844 43.730469 58.214844 L 46.910156 58.214844 C 47.851562 58.214844 48.617188 57.449219 48.617188 56.507812 L 48.617188 54.503906 L 50.496094 52.796875 C 50.765625 52.554688 50.785156 52.140625 50.542969 51.871094 C 50.300781 51.601562 49.882812 51.582031 49.617188 51.828125 Z M 47.304688 56.507812 C 47.304688 56.722656 47.125 56.902344 46.910156 56.902344 L 43.730469 56.902344 C 43.519531 56.902344 43.335938 56.722656 43.335938 56.507812 L 43.335938 53.328125 C 43.335938 53.117188 43.519531 52.9375 43.730469 52.9375 L 46.910156 52.9375 C 47.125 52.9375 47.304688 53.117188 47.304688 53.328125 L 47.304688 53.921875 L 46.328125 54.808594 L 45.226562 53.707031 C 44.972656 53.453125 44.554688 53.453125 44.300781 53.707031 C 44.042969 53.964844 44.042969 54.378906 44.300781 54.632812 L 45.84375 56.179688 C 45.972656 56.304688 46.140625 56.371094 46.308594 56.371094 C 46.464844 56.371094 46.621094 56.3125 46.746094 56.199219 L 47.304688 55.695312 Z M 49.617188 60.746094 L 48.535156 61.726562 C 48.3125 61.042969 47.667969 60.542969 46.910156 60.542969 L 43.730469 60.542969 C 42.792969 60.542969 42.027344 61.308594 42.027344 62.25 L 42.027344 65.429688 C 42.027344 66.367188 42.792969 67.132812 43.730469 67.132812 L 46.910156 67.132812 C 47.851562 67.132812 48.617188 66.367188 48.617188 65.429688 L 48.617188 63.421875 L 50.496094 61.714844 C 50.765625 61.472656 50.785156 61.058594 50.542969 60.789062 C 50.300781 60.519531 49.882812 60.5 49.617188 60.746094 Z M 47.304688 65.429688 C 47.304688 65.640625 47.125 65.820312 46.910156 65.820312 L 43.730469 65.820312 C 43.519531 65.820312 43.335938 65.640625 43.335938 65.429688 L 43.335938 62.25 C 43.335938 62.035156 43.519531 61.855469 43.730469 61.855469 L 46.910156 61.855469 C 47.125 61.855469 47.304688 62.035156 47.304688 62.25 L 47.304688 62.84375 L 46.328125 63.726562 L 45.226562 62.625 C 44.972656 62.371094 44.554688 62.371094 44.300781 62.625 C 44.042969 62.882812 44.042969 63.296875 44.300781 63.550781 L 45.84375 65.097656 C 45.972656 65.222656 46.140625 65.289062 46.308594 65.289062 C 46.464844 65.289062 46.621094 65.230469 46.746094 65.117188 L 47.304688 64.613281 Z M 52.753906 34.71875 C 52.753906 35.171875 52.386719 35.539062 51.933594 35.539062 C 51.484375 35.539062 51.117188 35.171875 51.117188 34.71875 C 51.117188 34.265625 51.484375 33.898438 51.933594 33.898438 C 52.386719 33.898438 52.753906 34.265625 52.753906 34.71875 Z M 73.347656 39.257812 L 72.734375 38.90625 C 71.578125 38.238281 70.09375 38.632812 69.425781 39.792969 L 68.441406 41.492188 L 68.441406 37.472656 C 68.441406 36.105469 67.332031 34.992188 65.964844 34.992188 L 59.605469 34.992188 L 59.605469 34.546875 C 59.605469 34.1875 59.3125 33.894531 58.949219 33.894531 L 55.425781 33.894531 C 54.867188 32.476562 53.496094 31.523438 51.933594 31.523438 C 50.371094 31.523438 49.003906 32.476562 48.445312 33.894531 L 44.921875 33.894531 C 44.558594 33.894531 44.265625 34.1875 44.265625 34.546875 L 44.265625 34.992188 L 37.90625 34.992188 C 36.539062 34.992188 35.425781 36.105469 35.425781 37.472656 L 35.425781 71 C 35.425781 72.363281 36.539062 73.476562 37.90625 73.476562 L 65.964844 73.476562 C 67.332031 73.476562 68.441406 72.363281 68.441406 71 L 68.441406 52.597656 L 74.234375 42.566406 C 74.902344 41.410156 74.503906 39.925781 73.347656 39.257812 Z M 70.558594 40.445312 C 70.8125 40.007812 71.324219 39.808594 71.796875 39.925781 L 62.609375 55.835938 L 61.910156 55.429688 Z M 61.667969 56.804688 L 63.375 57.792969 L 61.667969 58.777344 Z M 65.964844 36.304688 C 66.609375 36.304688 67.132812 36.828125 67.132812 37.472656 L 67.132812 43.761719 L 65.910156 45.882812 L 65.910156 38.183594 C 65.910156 37.824219 65.613281 37.527344 65.253906 37.527344 L 59.605469 37.527344 L 59.605469 36.304688 Z M 45.574219 35.203125 L 48.925781 35.203125 C 49.226562 35.203125 49.492188 34.996094 49.5625 34.703125 C 49.828125 33.601562 50.800781 32.835938 51.933594 32.835938 C 53.066406 32.835938 54.042969 33.601562 54.308594 34.703125 C 54.378906 34.996094 54.644531 35.203125 54.945312 35.203125 L 58.292969 35.203125 L 58.292969 38.628906 L 45.574219 38.628906 Z M 58.949219 39.941406 C 59.3125 39.941406 59.605469 39.648438 59.605469 39.285156 L 59.605469 38.839844 L 64.597656 38.839844 L 64.597656 48.152344 L 60.445312 55.34375 C 60.386719 55.441406 60.359375 55.554688 60.359375 55.671875 L 60.359375 59.914062 C 60.359375 60.148438 60.484375 60.363281 60.6875 60.480469 C 60.785156 60.539062 60.898438 60.570312 61.011719 60.570312 C 61.125 60.570312 61.238281 60.539062 61.339844 60.480469 L 64.597656 58.601562 L 64.597656 69.628906 L 39.273438 69.628906 L 39.273438 38.839844 L 44.265625 38.839844 L 44.265625 39.285156 C 44.265625 39.648438 44.558594 39.941406 44.921875 39.941406 Z M 67.132812 71 C 67.132812 71.640625 66.609375 72.164062 65.964844 72.164062 L 37.90625 72.164062 C 37.261719 72.164062 36.738281 71.640625 36.738281 71 L 36.738281 37.472656 C 36.738281 36.828125 37.261719 36.304688 37.90625 36.304688 L 44.265625 36.304688 L 44.265625 37.527344 L 38.617188 37.527344 C 38.253906 37.527344 37.960938 37.824219 37.960938 38.183594 L 37.960938 70.285156 C 37.960938 70.648438 38.253906 70.941406 38.617188 70.941406 L 65.253906 70.941406 C 65.613281 70.941406 65.910156 70.648438 65.910156 70.285156 L 65.910156 56.988281 L 67.132812 54.867188 Z M 73.097656 41.914062 L 64.445312 56.894531 L 63.746094 56.492188 L 72.929688 40.582031 C 73.269531 40.929688 73.351562 41.472656 73.097656 41.914062 Z M 51.679688 47.429688 C 51.679688 47.066406 51.972656 46.773438 52.335938 46.773438 L 56.085938 46.773438 C 56.445312 46.773438 56.738281 47.066406 56.738281 47.429688 C 56.738281 47.792969 56.445312 48.085938 56.085938 48.085938 L 52.335938 48.085938 C 51.972656 48.085938 51.679688 47.792969 51.679688 47.429688 Z M 51.679688 44.574219 C 51.679688 44.210938 51.972656 43.917969 52.335938 43.917969 L 59.832031 43.917969 C 60.195312 43.917969 60.488281 44.210938 60.488281 44.574219 C 60.488281 44.933594 60.195312 45.226562 59.832031 45.226562 L 52.335938 45.226562 C 51.972656 45.226562 51.679688 44.933594 51.679688 44.574219 Z M 51.679688 55.441406 C 51.679688 55.078125 51.972656 54.785156 52.335938 54.785156 L 56.085938 54.785156 C 56.445312 54.785156 56.738281 55.078125 56.738281 55.441406 C 56.738281 55.804688 56.445312 56.097656 56.085938 56.097656 L 52.335938 56.097656 C 51.972656 56.097656 51.679688 55.804688 51.679688 55.441406 Z M 51.679688 52.585938 C 51.679688 52.222656 51.972656 51.929688 52.335938 51.929688 L 59.832031 51.929688 C 60.195312 51.929688 60.488281 52.222656 60.488281 52.585938 C 60.488281 52.945312 60.195312 53.238281 59.832031 53.238281 L 52.335938 53.238281 C 51.972656 53.238281 51.679688 52.945312 51.679688 52.585938 Z M 51.679688 65.265625 C 51.679688 64.90625 51.972656 64.613281 52.335938 64.613281 L 56.085938 64.613281 C 56.445312 64.613281 56.738281 64.90625 56.738281 65.265625 C 56.738281 65.628906 56.445312 65.921875 56.085938 65.921875 L 52.335938 65.921875 C 51.972656 65.921875 51.679688 65.628906 51.679688 65.265625 Z M 51.679688 62.410156 C 51.679688 62.046875 51.972656 61.753906 52.335938 61.753906 L 59.832031 61.753906 C 60.195312 61.753906 60.488281 62.046875 60.488281 62.410156 C 60.488281 62.769531 60.195312 63.066406 59.832031 63.066406 L 52.335938 63.066406 C 51.972656 63.066406 51.679688 62.769531 51.679688 62.410156 Z M 51.679688 62.410156 " fill-opacity="1" fill-rule="nonzero"/></g></svg>