<svg xmlns="http://www.w3.org/2000/svg" xmlns:xlink="http://www.w3.org/1999/xlink" width="140" zoomAndPan="magnify" viewBox="0 0 104.88 104.999996" height="140" preserveAspectRatio="xMidYMid meet" version="1.0"><defs><clipPath id="dc35c4e45d"><path d="M 0 7.074219 L 104.761719 7.074219 L 104.761719 97.71875 L 0 97.71875 Z M 0 7.074219 " clip-rule="nonzero"/></clipPath><clipPath id="b4d0c8cf06"><path d="M 31.464844 31.523438 L 73.414062 31.523438 L 73.414062 73.476562 L 31.464844 73.476562 Z M 31.464844 31.523438 " clip-rule="nonzero"/></clipPath></defs><g clip-path="url(#dc35c4e45d)"><path fill="#336699" d="M 26.21875 97.910156 L 0 52.496094 L 26.21875 7.082031 L 78.660156 7.082031 L 104.878906 52.496094 L 78.660156 97.910156 Z M 26.21875 97.910156 " fill-opacity="1" fill-rule="nonzero"/></g><g clip-path="url(#b4d0c8cf06)"><path fill="#ffffff" d="M 52.546875 73.027344 L 52.546875 69.320312 C 54.78125 69.304688 56.945312 68.863281 58.984375 68 C 60.988281 67.152344 62.789062 65.9375 64.332031 64.394531 C 65.878906 62.847656 67.09375 61.050781 67.9375 59.046875 C 68.800781 57.003906 69.246094 54.839844 69.261719 52.609375 L 72.964844 52.609375 C 72.90625 63.839844 63.78125 72.964844 52.546875 73.027344 Z M 31.910156 52.609375 L 35.613281 52.609375 C 35.628906 54.839844 36.070312 57.003906 36.933594 59.046875 C 37.78125 61.050781 38.996094 62.847656 40.539062 64.394531 C 42.085938 65.9375 43.882812 67.152344 45.886719 68 C 47.929688 68.863281 50.09375 69.304688 52.324219 69.320312 L 52.324219 73.027344 C 41.09375 72.964844 31.96875 63.839844 31.910156 52.609375 Z M 37.769531 38.144531 L 40.386719 40.761719 C 38.914062 42.269531 37.753906 44.011719 36.933594 45.949219 C 36.070312 47.988281 35.628906 50.152344 35.613281 52.386719 L 31.910156 52.386719 C 31.9375 46.851562 34.171875 41.824219 37.769531 38.144531 Z M 52.324219 31.96875 L 52.324219 35.671875 C 50.09375 35.6875 47.929688 36.132812 45.886719 36.996094 C 43.953125 37.8125 42.210938 38.972656 40.699219 40.445312 L 38.085938 37.832031 C 41.765625 34.230469 46.789062 32 52.324219 31.96875 Z M 65.941406 52.386719 C 65.910156 48.820312 64.511719 45.472656 61.984375 42.949219 C 59.460938 40.425781 56.113281 39.023438 52.546875 38.996094 L 52.546875 36.121094 C 61.492188 36.179688 68.753906 43.441406 68.816406 52.386719 Z M 52.546875 66 C 56.113281 65.972656 59.460938 64.570312 61.984375 62.046875 C 64.511719 59.523438 65.910156 56.175781 65.941406 52.609375 L 68.816406 52.609375 C 68.753906 61.550781 61.492188 68.816406 52.546875 68.875 Z M 38.933594 52.609375 C 38.964844 56.175781 40.363281 59.523438 42.886719 62.046875 C 45.414062 64.570312 48.761719 65.972656 52.324219 66 L 52.324219 68.875 C 43.382812 68.816406 36.121094 61.550781 36.058594 52.609375 Z M 42.734375 43.109375 C 40.308594 45.613281 38.960938 48.894531 38.933594 52.386719 L 36.058594 52.386719 C 36.089844 47.996094 37.855469 44.007812 40.703125 41.078125 Z M 52.324219 38.996094 C 48.835938 39.023438 45.554688 40.367188 43.046875 42.792969 L 41.019531 40.765625 C 43.949219 37.914062 47.933594 36.148438 52.324219 36.121094 Z M 62.375 52.386719 C 62.347656 49.773438 61.316406 47.320312 59.464844 45.46875 C 57.613281 43.617188 55.160156 42.585938 52.546875 42.558594 L 52.546875 39.441406 C 59.660156 39.5 65.433594 45.273438 65.492188 52.386719 Z M 52.546875 62.433594 C 55.160156 62.40625 57.613281 61.375 59.464844 59.527344 C 61.316406 57.675781 62.347656 55.222656 62.375 52.609375 L 65.492188 52.609375 C 65.433594 59.71875 59.660156 65.496094 52.546875 65.554688 Z M 42.5 52.609375 C 42.527344 55.222656 43.558594 57.675781 45.410156 59.527344 C 47.261719 61.375 49.710938 62.40625 52.324219 62.433594 L 52.324219 65.554688 C 45.214844 65.496094 39.441406 59.71875 39.378906 52.609375 Z M 45.253906 45.628906 C 43.5 47.460938 42.527344 49.847656 42.5 52.386719 L 39.378906 52.386719 C 39.410156 48.910156 40.804688 45.753906 43.050781 43.425781 Z M 52.324219 42.558594 C 49.785156 42.585938 47.398438 43.558594 45.570312 45.3125 L 43.367188 43.113281 C 45.695312 40.863281 48.851562 39.46875 52.324219 39.441406 Z M 53.097656 52.386719 C 53.050781 52.105469 52.828125 51.882812 52.546875 51.835938 L 52.546875 43.003906 C 57.695312 43.066406 61.871094 47.238281 61.929688 52.386719 Z M 52.546875 53.15625 C 52.828125 53.109375 53.050781 52.890625 53.097656 52.609375 L 61.929688 52.609375 C 61.871094 57.753906 57.695312 61.929688 52.546875 61.988281 Z M 51.777344 52.609375 C 51.824219 52.890625 52.042969 53.109375 52.324219 53.15625 L 52.324219 61.988281 C 47.179688 61.929688 43.003906 57.753906 42.945312 52.609375 Z M 51.832031 52.207031 C 51.804688 52.261719 51.785156 52.324219 51.777344 52.386719 L 42.945312 52.386719 C 42.972656 49.890625 43.96875 47.625 45.570312 45.945312 Z M 52.324219 51.835938 C 52.261719 51.847656 52.203125 51.867188 52.148438 51.890625 L 45.886719 45.632812 C 47.566406 44.027344 49.832031 43.035156 52.324219 43.003906 Z M 72.964844 52.386719 L 69.261719 52.386719 C 69.246094 50.152344 68.800781 47.988281 67.9375 45.949219 C 67.09375 43.945312 65.878906 42.144531 64.332031 40.601562 C 62.789062 39.054688 60.988281 37.84375 58.984375 36.996094 C 56.945312 36.132812 54.78125 35.6875 52.546875 35.671875 L 52.546875 31.96875 C 63.78125 32.027344 72.90625 41.152344 72.964844 52.386719 Z M 71.765625 44.332031 C 70.707031 41.835938 69.195312 39.59375 67.269531 37.664062 C 65.34375 35.738281 63.097656 34.226562 60.601562 33.171875 C 58.015625 32.078125 55.269531 31.523438 52.4375 31.523438 C 49.605469 31.523438 46.859375 32.078125 44.273438 33.171875 C 41.773438 34.226562 39.53125 35.738281 37.605469 37.664062 C 35.679688 39.59375 34.167969 41.835938 33.109375 44.332031 C 32.015625 46.917969 31.460938 49.664062 31.460938 52.496094 C 31.460938 55.328125 32.015625 58.074219 33.109375 60.660156 C 34.167969 63.160156 35.679688 65.402344 37.605469 67.328125 C 39.53125 69.253906 41.773438 70.765625 44.273438 71.824219 C 46.859375 72.917969 49.605469 73.472656 52.4375 73.472656 C 55.269531 73.472656 58.015625 72.917969 60.601562 71.824219 C 63.097656 70.765625 65.34375 69.253906 67.269531 67.328125 C 69.195312 65.402344 70.707031 63.160156 71.765625 60.660156 C 72.859375 58.074219 73.410156 55.328125 73.410156 52.496094 C 73.410156 49.664062 72.859375 46.917969 71.765625 44.332031 " fill-opacity="1" fill-rule="nonzero"/></g><path fill="#ffffff" d="M 42.351562 36.492188 C 42.679688 36.492188 42.949219 36.226562 42.949219 35.894531 C 42.949219 35.566406 42.679688 35.296875 42.351562 35.296875 C 42.019531 35.296875 41.753906 35.566406 41.753906 35.894531 C 41.753906 36.226562 42.019531 36.492188 42.351562 36.492188 " fill-opacity="1" fill-rule="nonzero"/><path fill="#ffffff" d="M 53.707031 37.515625 C 53.375 37.515625 53.109375 37.78125 53.109375 38.113281 C 53.109375 38.441406 53.375 38.710938 53.707031 38.710938 C 54.035156 38.710938 54.304688 38.441406 54.304688 38.113281 C 54.304688 37.78125 54.035156 37.515625 53.707031 37.515625 " fill-opacity="1" fill-rule="nonzero"/><path fill="#ffffff" d="M 50.527344 46.355469 C 50.859375 46.355469 51.125 46.089844 51.125 45.757812 C 51.125 45.429688 50.859375 45.160156 50.527344 45.160156 C 50.199219 45.160156 49.929688 45.429688 49.929688 45.757812 C 49.929688 46.089844 50.199219 46.355469 50.527344 46.355469 " fill-opacity="1" fill-rule="nonzero"/></svg>