<svg width="72" height="72" viewBox="0 0 72 72" fill="none" xmlns="http://www.w3.org/2000/svg">
<rect width="72" height="72" rx="7.5" fill="white"/>
<rect width="72" height="72" rx="7.5" fill="white"/>
<path d="M11.9619 51.3125H17.1629" stroke="#000040" stroke-width="1.2" stroke-linecap="round" stroke-linejoin="round"/>
<path d="M30.3242 53.0625H47.8015M32.069 54.8125H36.6741M39.069 54.8125H45.2465M35.5602 56.5625H39.9413" stroke="#000040" stroke-width="1.2" stroke-linecap="round" stroke-linejoin="round"/>
<path fill-rule="evenodd" clip-rule="evenodd" d="M26.6714 29.2886C26.622 29.2892 26.5732 29.2995 26.5279 29.3191C26.4826 29.3386 26.4415 29.3669 26.4072 29.4024C26.3729 29.4378 26.3459 29.4798 26.3279 29.5257C26.3098 29.5717 26.3011 29.6207 26.3021 29.6701C26.3021 29.93 26.191 30.0481 25.9329 30.0481C25.4254 30.0393 25.4254 30.8067 25.9329 30.7989C26.1814 30.7989 26.3021 30.8688 26.3021 31.1611C26.2951 31.6686 27.0599 31.6686 27.0529 31.1611C27.0529 30.8951 27.1771 30.7989 27.4239 30.7989C27.9314 30.8076 27.9314 30.0411 27.4239 30.0481C27.0887 30.0481 27.0529 29.8573 27.0529 29.6701C27.0536 29.6198 27.0442 29.5699 27.0253 29.5233C27.0063 29.4767 26.9783 29.4344 26.9427 29.3988C26.9071 29.3632 26.8648 29.3351 26.8182 29.3162C26.7716 29.2973 26.7217 29.2879 26.6714 29.2886Z" fill="#000040"/>
<path fill-rule="evenodd" clip-rule="evenodd" d="M24.398 36.17C24.2842 36.17 24.1941 36.2662 24.1959 36.38C24.1959 36.5226 24.1346 36.5874 23.9929 36.5874C23.7146 36.5874 23.7146 37.003 23.9929 36.9986C24.1294 36.9986 24.1959 37.0371 24.1959 37.1981C24.1915 37.4764 24.6115 37.4764 24.6071 37.1981C24.6071 37.052 24.6771 36.9995 24.8119 36.9995C25.0901 36.9995 25.0901 36.583 24.8119 36.5874C24.6281 36.5874 24.608 36.4823 24.608 36.3791C24.6083 36.3515 24.6032 36.324 24.5927 36.2984C24.5823 36.2729 24.5668 36.2496 24.5472 36.2301C24.5276 36.2106 24.5043 36.1952 24.4787 36.1849C24.4531 36.1746 24.4256 36.1695 24.398 36.17ZM26.3781 18.6787C26.342 18.6789 26.3064 18.6864 26.2732 18.7006C26.24 18.7147 26.21 18.7354 26.1849 18.7613C26.1598 18.7872 26.1402 18.8178 26.1271 18.8514C26.114 18.885 26.1077 18.9209 26.1086 18.957C26.1086 19.1468 26.0272 19.2326 25.8391 19.2326C25.4699 19.2238 25.4699 19.7847 25.8391 19.7795C26.0202 19.7795 26.1086 19.8293 26.1086 20.0437C26.1034 20.413 26.6607 20.413 26.6555 20.0437C26.6555 19.8495 26.7465 19.7795 26.9259 19.7795C27.296 19.7882 27.296 19.2273 26.9259 19.2326C26.6817 19.2326 26.6555 19.0926 26.6555 18.957C26.656 18.9204 26.6491 18.8842 26.6353 18.8503C26.6216 18.8164 26.6011 18.7856 26.5753 18.7598C26.5494 18.7339 26.5187 18.7135 26.4848 18.6998C26.451 18.686 26.4147 18.6791 26.3781 18.6796V18.6787Z" fill="#000040"/>
<path fill-rule="evenodd" clip-rule="evenodd" d="M43.6466 18.1455C43.6194 18.1459 43.5926 18.1516 43.5677 18.1624C43.5428 18.1731 43.5202 18.1887 43.5013 18.2082C43.4825 18.2278 43.4676 18.2508 43.4577 18.2761C43.4478 18.3014 43.443 18.3284 43.4436 18.3556C43.4436 18.4982 43.3823 18.563 43.2406 18.563C42.9615 18.563 42.9615 18.9786 43.2406 18.9742C43.3771 18.9742 43.4436 19.0127 43.4436 19.1737C43.4392 19.452 43.8592 19.452 43.8548 19.1737C43.8548 19.0276 43.924 18.9751 44.0587 18.9751C44.3378 18.9751 44.3378 18.5586 44.0587 18.563C43.875 18.563 43.8557 18.4579 43.8557 18.3547C43.8561 18.327 43.8509 18.2996 43.8404 18.274C43.83 18.2484 43.8145 18.2252 43.7949 18.2057C43.7754 18.1862 43.7521 18.1708 43.7264 18.1605C43.7008 18.1502 43.6733 18.1451 43.6457 18.1455H43.6466Z" fill="#000040"/>
<path fill-rule="evenodd" clip-rule="evenodd" d="M51.8167 23.5567C51.7806 23.5569 51.745 23.5643 51.7118 23.5785C51.6786 23.5926 51.6486 23.6133 51.6235 23.6392C51.5984 23.6651 51.5787 23.6958 51.5656 23.7294C51.5525 23.763 51.5463 23.7989 51.5472 23.8349C51.5472 24.0239 51.4667 24.1105 51.2786 24.1105C50.9084 24.1018 50.9084 24.6618 51.2786 24.6574C51.4597 24.6574 51.5472 24.7073 51.5472 24.9208C51.5419 25.2909 52.1002 25.2909 52.0949 24.9208C52.0949 24.7274 52.1851 24.6574 52.3644 24.6574C52.7346 24.6662 52.7346 24.1053 52.3644 24.1105C52.1212 24.1105 52.0949 23.9705 52.0949 23.8349C52.0955 23.7982 52.0887 23.7618 52.075 23.7277C52.0612 23.6937 52.0407 23.6628 52.0148 23.6368C51.9888 23.6109 51.9579 23.5904 51.9239 23.5766C51.8898 23.5629 51.8534 23.5561 51.8167 23.5567Z" fill="#000040"/>
<path fill-rule="evenodd" clip-rule="evenodd" d="M49.5272 30.5347C49.4134 30.5347 49.3233 30.6309 49.3251 30.7447C49.3251 30.8864 49.2638 30.9521 49.1221 30.9521C48.8438 30.9521 48.8438 31.3677 49.1221 31.3633C49.2586 31.3633 49.3251 31.4018 49.3251 31.5628C49.3207 31.8411 49.7407 31.8411 49.7363 31.5628C49.7363 31.4167 49.8063 31.3642 49.9411 31.3642C50.2193 31.3642 50.2193 30.9477 49.9411 30.9521C49.7573 30.9521 49.7372 30.847 49.7372 30.7438C49.7376 30.7161 49.7324 30.6887 49.7219 30.6631C49.7115 30.6375 49.696 30.6143 49.6764 30.5948C49.6568 30.5753 49.6335 30.5599 49.6079 30.5496C49.5823 30.5393 49.5548 30.5342 49.5272 30.5347ZM49.2358 37.3921C49.1865 37.3926 49.1377 37.403 49.0924 37.4225C49.047 37.442 49.006 37.4703 48.9716 37.5058C48.9373 37.5413 48.9103 37.5832 48.8923 37.6292C48.8743 37.6751 48.8655 37.7242 48.8666 37.7735C48.8666 38.0334 48.7554 38.1515 48.4973 38.1515C47.9898 38.1428 47.9898 38.9093 48.4973 38.9023C48.7458 38.9023 48.8666 38.9714 48.8666 39.2646C48.8596 39.7721 49.6243 39.7721 49.6173 39.2646C49.6173 38.9977 49.7416 38.9023 49.9883 38.9023C50.4958 38.9111 50.4958 38.1445 49.9883 38.1515C49.6532 38.1515 49.6173 37.9599 49.6173 37.7735C49.618 37.7232 49.6086 37.6733 49.5897 37.6267C49.5708 37.5801 49.5427 37.5378 49.5072 37.5022C49.4716 37.4667 49.4293 37.4386 49.3826 37.4197C49.336 37.4007 49.2861 37.3913 49.2358 37.3921Z" fill="#000040"/>
<path fill-rule="evenodd" clip-rule="evenodd" d="M28.3572 23.4729C28.3212 23.4732 28.2857 23.4807 28.2526 23.4949C28.2195 23.5092 28.1896 23.5298 28.1646 23.5557C28.1396 23.5816 28.12 23.6123 28.107 23.6458C28.0939 23.6794 28.0877 23.7151 28.0886 23.7511C28.0886 23.9401 28.0072 24.0267 27.8191 24.0267C27.449 24.018 27.449 24.578 27.8191 24.5736C28.0002 24.5736 28.0886 24.6235 28.0886 24.837C28.0833 25.2071 28.6398 25.2071 28.6355 24.837C28.6355 24.6428 28.7256 24.5736 28.9058 24.5736C29.2751 24.5824 29.2751 24.0215 28.9058 24.0267C28.6608 24.0267 28.6346 23.8867 28.6346 23.7511C28.6352 23.7145 28.6284 23.6781 28.6147 23.6441C28.601 23.6102 28.5806 23.5794 28.5547 23.5534C28.5289 23.5275 28.4981 23.5069 28.4641 23.4931C28.4302 23.4793 28.3939 23.4724 28.3572 23.4729ZM35.072 15.5366C35.0442 15.5371 35.0167 15.543 34.9912 15.5541C34.9657 15.5651 34.9426 15.5811 34.9233 15.6011C34.9039 15.6211 34.8887 15.6447 34.8785 15.6706C34.8683 15.6964 34.8633 15.7241 34.8637 15.7519C34.8637 15.8989 34.8007 15.9654 34.6555 15.9654C34.3693 15.961 34.3693 16.3915 34.6555 16.388C34.7955 16.388 34.8637 16.4265 34.8637 16.5919C34.8602 16.8772 35.2907 16.8772 35.2863 16.5919C35.2863 16.4414 35.3563 16.388 35.4955 16.388C35.7807 16.3924 35.7807 15.961 35.4955 15.9654C35.3065 15.9654 35.2855 15.8569 35.2855 15.7519C35.2858 15.7237 35.2805 15.6958 35.27 15.6697C35.2594 15.6435 35.2437 15.6198 35.2238 15.5999C35.2039 15.5799 35.1802 15.5641 35.1542 15.5534C35.1281 15.5427 35.1001 15.5373 35.072 15.5375V15.5366Z" fill="#000040"/>
<path d="M31.8817 36.6037C30.0862 38.2863 28.9565 40.7337 28.9565 43.4602C28.9565 44.6546 29.184 45.8367 29.6163 46.9409C30.9638 43.4952 34.1584 41.2447 37.7057 41.2429C41.2564 41.2429 44.4519 43.5004 45.7959 46.9488C46.2308 45.8411 46.4548 44.6572 46.4557 43.4602C46.4557 40.6961 45.2945 38.2181 43.4553 36.5337" stroke="#000040" stroke-width="1.2" stroke-miterlimit="100" stroke-linejoin="round"/>
<path d="M33.1216 40.0287C33.644 39.8003 34.1803 39.6122 34.7228 39.4652M35.8411 39.2071C36.0318 39.1721 35.6495 39.2324 35.8411 39.2071M37.1247 39.0863C38.866 38.9997 40.6238 39.3138 42.2557 40.0296" stroke="#000040" stroke-width="1.2" stroke-miterlimit="100" stroke-linecap="round" stroke-linejoin="round"/>
<path d="M31.5815 33.0074C31.5912 36.1391 32.4933 39.2891 34.1637 42.0156C35.2924 41.5536 36.4833 41.2456 37.7057 41.2429C38.9359 41.2429 40.153 41.4827 41.287 41.9464C42.9522 39.2173 43.8289 36.1391 43.8307 33.0074C43.8219 28.0217 41.9258 23.2556 38.0145 19.8203C35.0133 22.4654 32.824 25.8954 31.9718 29.6054M31.6944 31.0789C31.6655 31.2251 31.6393 31.3712 31.6148 31.5182" stroke="#000040" stroke-width="1.2" stroke-miterlimit="100" stroke-linecap="round" stroke-linejoin="round"/>
<path d="M21.885 43.3121C22.7841 43.0109 23.7481 42.959 24.6744 43.1618C25.6007 43.3646 26.4547 43.8145 27.1457 44.4638C27.8368 45.1131 28.339 45.9375 28.599 46.8494C28.8591 47.7613 28.8672 48.7266 28.6225 49.6427V49.6427C29.1886 48.3311 30.4985 47.3537 31.8976 47.6407C32.105 48.486 32.4296 48.9821 32.7901 49.3662C32.3194 48.8951 32.036 48.269 31.9926 47.6044C31.9493 46.9399 32.1489 46.2823 32.5543 45.7539C32.9597 45.2256 33.5434 44.8627 34.1965 44.7327C34.8497 44.6027 35.5278 44.7144 36.1046 45.0472L36.1134 46.5015V41.4746C37.0059 41.1386 37.9316 41.192 38.8758 41.4746V48.0599L38.8845 44.9519C39.9608 44.3306 41.436 44.5284 42.3145 45.4069C42.5695 45.6618 42.7718 45.9645 42.9098 46.2977C43.0478 46.6308 43.1188 46.9879 43.1188 47.3485C43.1188 47.7091 43.0478 48.0661 42.9098 48.3993C42.7718 48.7324 42.5695 49.0351 42.3145 49.2901C42.8141 48.8316 42.9008 48.2217 43.2368 47.6136C44.6368 47.3257 46.2643 48.1692 46.8313 49.48C46.6386 48.7581 46.7294 47.9898 47.085 47.3327M48.1945 46.19C48.8665 45.8022 49.6649 45.6972 50.4143 45.8981C51.1637 46.0989 51.8026 46.5892 52.1906 47.261C52.9991 48.661 52.5196 50.4985 51.1205 51.3061H19.0343C17.9851 49.5229 18.1094 47.191 19.176 45.4681M20.1096 44.37C20.219 44.2449 20.3345 44.1241 20.4561 44.0095" stroke="#000040" stroke-width="1.2" stroke-linecap="round" stroke-linejoin="round"/>
<path d="M41.0021 29.7253C41.0033 30.1425 40.9223 30.5557 40.7635 30.9415C40.6048 31.3272 40.3715 31.6778 40.077 31.9732C39.7825 32.2686 39.4326 32.5029 39.0473 32.6629C38.6621 32.8228 38.2491 32.9051 37.832 32.9051C36.9876 32.9056 36.1776 32.571 35.5796 31.9749C34.9817 31.3787 34.6447 30.5697 34.6426 29.7253V29.7253C34.6442 28.8806 34.981 28.071 35.5789 27.4744C36.1769 26.8777 36.9872 26.5427 37.832 26.543C38.8557 26.543 39.7613 27.0251 40.3397 27.775" stroke="#000040" stroke-width="1.2" stroke-miterlimit="34.178" stroke-linecap="round" stroke-linejoin="round"/>
<path d="M54.0391 51.3125H59.1561" stroke="#000040" stroke-width="1.2" stroke-linecap="round" stroke-linejoin="round"/>
</svg>
