<svg xmlns="http://www.w3.org/2000/svg" xmlns:xlink="http://www.w3.org/1999/xlink" width="140" zoomAndPan="magnify" viewBox="0 0 104.88 104.999996" height="140" preserveAspectRatio="xMidYMid meet" version="1.0"><defs><clipPath id="20bb25bc30"><path d="M 0 7.074219 L 104.761719 7.074219 L 104.761719 97.71875 L 0 97.71875 Z M 0 7.074219 " clip-rule="nonzero"/></clipPath><clipPath id="dae66ae73c"><path d="M 31.464844 32.757812 L 73.414062 32.757812 L 73.414062 72.460938 L 31.464844 72.460938 Z M 31.464844 32.757812 " clip-rule="nonzero"/></clipPath></defs><g clip-path="url(#20bb25bc30)"><path fill="#ffffff" d="M 26.21875 97.710938 L 0 52.398438 L 26.21875 7.082031 L 78.660156 7.082031 L 104.878906 52.398438 L 78.660156 97.710938 Z M 26.21875 97.710938 " fill-opacity="1" fill-rule="nonzero"/></g><g clip-path="url(#dae66ae73c)"><path fill="#000040" d="M 73.417969 51.375 L 73.417969 51.140625 C 73.417969 50.550781 72.992188 50.050781 72.410156 49.957031 L 68.484375 49.300781 C 68.355469 49.28125 68.226562 49.316406 68.125 49.398438 C 68.027344 49.484375 67.96875 49.605469 67.96875 49.738281 L 67.96875 51.617188 L 64.472656 47.683594 C 63.460938 46.546875 62.113281 45.8125 60.625 45.574219 C 60.890625 44.535156 61.050781 43.367188 61.050781 42.050781 L 61.050781 36.398438 C 61.050781 36.175781 60.882812 35.984375 60.664062 35.957031 C 55.832031 35.355469 52.746094 32.933594 52.714844 32.910156 C 52.539062 32.769531 52.289062 32.785156 52.128906 32.941406 C 52.105469 32.964844 49.632812 35.355469 44.222656 35.957031 C 44 35.984375 43.828125 36.171875 43.828125 36.398438 L 43.828125 42.050781 C 43.828125 43.367188 43.988281 44.535156 44.253906 45.574219 C 42.765625 45.8125 41.417969 46.546875 40.40625 47.683594 L 36.910156 51.617188 L 36.910156 49.738281 C 36.910156 49.605469 36.851562 49.484375 36.753906 49.398438 C 36.65625 49.316406 36.523438 49.28125 36.394531 49.300781 L 32.46875 49.957031 C 31.886719 50.050781 31.464844 50.550781 31.464844 51.140625 L 31.464844 51.375 C 31.464844 51.964844 31.886719 52.464844 32.46875 52.558594 L 34.25 52.855469 C 32.601562 53.675781 31.464844 55.378906 31.464844 57.339844 L 31.464844 63.691406 C 31.464844 64.066406 31.523438 64.4375 31.644531 64.796875 L 32.316406 66.808594 C 32.460938 67.253906 32.691406 67.652344 32.984375 67.988281 L 32.984375 71.03125 C 32.984375 71.695312 33.523438 72.234375 34.1875 72.234375 L 40.269531 72.234375 C 40.933594 72.234375 41.472656 71.695312 41.472656 71.03125 L 41.472656 69.191406 L 63.40625 69.191406 L 63.40625 71.03125 C 63.40625 71.695312 63.945312 72.234375 64.609375 72.234375 L 70.691406 72.234375 C 71.355469 72.234375 71.894531 71.695312 71.894531 71.03125 L 71.894531 67.988281 C 72.1875 67.652344 72.417969 67.253906 72.566406 66.808594 L 73.238281 64.796875 C 73.355469 64.4375 73.417969 64.066406 73.417969 63.691406 L 73.417969 57.339844 C 73.417969 55.378906 72.277344 53.675781 70.628906 52.855469 L 72.410156 52.558594 C 72.992188 52.464844 73.417969 51.964844 73.417969 51.375 Z M 44.714844 36.789062 C 49.203125 36.210938 51.667969 34.480469 52.464844 33.824219 C 53.347656 34.449219 56.113281 36.191406 60.167969 36.78125 L 60.167969 42.050781 C 60.167969 43.398438 59.996094 44.644531 59.664062 45.785156 C 59.652344 45.8125 59.640625 45.839844 59.636719 45.875 C 59.03125 47.871094 57.90625 49.546875 56.277344 50.875 C 54.582031 52.25 52.863281 52.789062 52.441406 52.90625 C 52.015625 52.789062 50.296875 52.25 48.605469 50.875 C 46.972656 49.546875 45.851562 47.875 45.246094 45.878906 C 45.238281 45.84375 45.230469 45.808594 45.214844 45.777344 C 44.882812 44.640625 44.714844 43.394531 44.714844 42.050781 Z M 41.066406 48.269531 C 41.964844 47.257812 43.175781 46.617188 44.507812 46.429688 C 45.335938 48.898438 46.789062 50.542969 48.078125 51.585938 C 50.175781 53.277344 52.253906 53.773438 52.339844 53.792969 C 52.375 53.800781 52.40625 53.804688 52.441406 53.804688 C 52.472656 53.804688 52.507812 53.800781 52.539062 53.792969 C 52.625 53.773438 54.703125 53.277344 56.800781 51.585938 C 58.089844 50.542969 59.542969 48.898438 60.375 46.429688 C 61.703125 46.617188 62.914062 47.257812 63.8125 48.269531 L 67.734375 52.683594 L 63.574219 55.28125 C 62.675781 55.84375 61.640625 56.140625 60.582031 56.140625 L 44.296875 56.140625 C 43.238281 56.140625 42.207031 55.84375 41.308594 55.28125 L 37.144531 52.683594 Z M 32.613281 51.6875 C 32.460938 51.664062 32.347656 51.53125 32.347656 51.375 L 32.347656 51.140625 C 32.347656 50.984375 32.460938 50.851562 32.613281 50.828125 L 36.027344 50.257812 L 36.027344 52.257812 Z M 40.589844 71.03125 C 40.589844 71.207031 40.445312 71.351562 40.269531 71.351562 L 34.1875 71.351562 C 34.011719 71.351562 33.867188 71.207031 33.867188 71.03125 L 33.867188 68.71875 C 34.386719 69.023438 34.988281 69.191406 35.621094 69.191406 L 40.589844 69.191406 Z M 44.195312 68.308594 L 45.816406 66.148438 L 59.1875 66.148438 L 60.714844 68.308594 Z M 71.011719 71.03125 C 71.011719 71.207031 70.867188 71.351562 70.691406 71.351562 L 64.609375 71.351562 C 64.433594 71.351562 64.289062 71.207031 64.289062 71.03125 L 64.289062 69.191406 L 69.261719 69.191406 C 69.890625 69.191406 70.492188 69.023438 71.011719 68.71875 Z M 72.53125 57.339844 L 72.53125 63.691406 C 72.53125 63.972656 72.488281 64.25 72.398438 64.515625 L 71.726562 66.53125 C 71.605469 66.902344 71.402344 67.230469 71.144531 67.5 C 71.140625 67.503906 71.140625 67.503906 71.136719 67.503906 C 70.660156 68.007812 69.988281 68.308594 69.261719 68.308594 L 61.796875 68.308594 L 59.773438 65.453125 C 59.691406 65.335938 59.558594 65.265625 59.414062 65.265625 L 45.59375 65.265625 C 45.457031 65.265625 45.324219 65.332031 45.242188 65.441406 L 43.09375 68.308594 L 35.621094 68.308594 C 34.890625 68.308594 34.21875 68.007812 33.742188 67.503906 L 33.738281 67.5 C 33.480469 67.230469 33.277344 66.902344 33.152344 66.53125 L 32.480469 64.515625 C 32.390625 64.25 32.347656 63.972656 32.347656 63.691406 L 32.347656 57.339844 C 32.347656 55.109375 34.128906 53.289062 36.347656 53.222656 L 40.839844 56.03125 C 41.878906 56.679688 43.074219 57.023438 44.296875 57.023438 L 60.582031 57.023438 C 61.804688 57.023438 63.003906 56.679688 64.039062 56.03125 L 68.53125 53.222656 C 70.75 53.289062 72.53125 55.109375 72.53125 57.339844 Z M 68.851562 52.257812 L 68.851562 50.257812 L 72.265625 50.828125 C 72.421875 50.851562 72.53125 50.984375 72.53125 51.140625 L 72.53125 51.375 C 72.53125 51.53125 72.421875 51.664062 72.265625 51.6875 Z M 68.851562 52.257812 " fill-opacity="1" fill-rule="nonzero"/></g><path fill="#000040" d="M 70.175781 56.972656 C 70.050781 56.890625 69.894531 56.878906 69.757812 56.9375 L 64.433594 59.21875 C 64.316406 59.265625 64.230469 59.363281 64.1875 59.484375 L 63.429688 61.765625 C 63.382812 61.910156 63.410156 62.066406 63.507812 62.183594 C 63.589844 62.289062 63.71875 62.347656 63.847656 62.347656 C 63.867188 62.347656 63.882812 62.347656 63.902344 62.34375 L 69.988281 61.582031 C 70.207031 61.554688 70.375 61.367188 70.375 61.144531 L 70.375 57.339844 C 70.375 57.195312 70.300781 57.054688 70.175781 56.972656 Z M 69.492188 60.753906 L 64.488281 61.378906 L 64.964844 59.953125 L 69.492188 58.011719 Z M 69.492188 60.753906 " fill-opacity="1" fill-rule="nonzero"/><path fill="#000040" d="M 58.496094 37.820312 C 55.945312 37.25 53.960938 36.28125 52.75 35.574219 C 52.605469 35.488281 52.429688 35.492188 52.289062 35.582031 C 51.15625 36.308594 49.214844 37.292969 46.394531 37.855469 C 46.1875 37.894531 46.039062 38.078125 46.039062 38.289062 L 46.039062 42.050781 C 46.039062 45.332031 47.144531 47.925781 49.332031 49.757812 C 50.488281 50.726562 51.679688 51.242188 52.289062 51.464844 C 52.335938 51.484375 52.390625 51.492188 52.441406 51.492188 C 52.492188 51.492188 52.542969 51.484375 52.589844 51.464844 C 53.199219 51.242188 54.394531 50.726562 55.546875 49.757812 C 57.734375 47.925781 58.84375 45.332031 58.84375 42.050781 L 58.84375 38.25 C 58.84375 38.042969 58.699219 37.867188 58.496094 37.820312 Z M 57.960938 42.050781 C 57.960938 45.058594 56.957031 47.425781 54.980469 49.082031 C 54.019531 49.886719 53.027344 50.351562 52.441406 50.578125 C 51.855469 50.351562 50.859375 49.886719 49.898438 49.082031 C 47.921875 47.425781 46.921875 45.058594 46.921875 42.050781 L 46.921875 38.648438 C 49.511719 38.085938 51.367188 37.1875 52.539062 36.46875 C 53.757812 37.160156 55.617188 38.035156 57.960938 38.601562 Z M 57.960938 42.050781 " fill-opacity="1" fill-rule="nonzero"/><path fill="#000040" d="M 56.175781 40.460938 L 56.140625 40.421875 C 55.855469 40.140625 55.464844 39.984375 55.0625 39.996094 C 54.664062 40.011719 54.285156 40.191406 54.019531 40.492188 L 51.507812 43.363281 L 51.039062 42.898438 C 50.765625 42.625 50.402344 42.472656 50.015625 42.472656 C 49.625 42.472656 49.261719 42.625 48.988281 42.898438 L 48.96875 42.917969 C 48.679688 43.203125 48.527344 43.601562 48.546875 44.007812 C 48.5625 44.414062 48.753906 44.796875 49.066406 45.058594 L 50.539062 46.285156 C 50.808594 46.511719 51.140625 46.625 51.46875 46.625 C 51.839844 46.625 52.207031 46.480469 52.492188 46.195312 L 56.175781 42.511719 C 56.449219 42.238281 56.601562 41.875 56.601562 41.484375 C 56.601562 41.097656 56.449219 40.734375 56.175781 40.460938 Z M 55.550781 41.886719 L 51.867188 45.570312 C 51.660156 45.78125 51.328125 45.796875 51.101562 45.605469 L 49.628906 44.378906 C 49.507812 44.277344 49.433594 44.128906 49.425781 43.96875 C 49.417969 43.808594 49.480469 43.65625 49.59375 43.539062 L 49.613281 43.523438 C 49.71875 43.414062 49.863281 43.355469 50.015625 43.355469 C 50.164062 43.355469 50.308594 43.414062 50.414062 43.523438 L 51.214844 44.324219 C 51.300781 44.410156 51.421875 44.457031 51.542969 44.453125 C 51.664062 44.449219 51.78125 44.394531 51.859375 44.300781 L 54.683594 41.074219 C 54.789062 40.953125 54.933594 40.886719 55.09375 40.878906 C 55.253906 40.875 55.402344 40.933594 55.515625 41.046875 L 55.550781 41.082031 C 55.660156 41.191406 55.71875 41.332031 55.71875 41.484375 C 55.71875 41.636719 55.660156 41.78125 55.550781 41.886719 Z M 55.550781 41.886719 " fill-opacity="1" fill-rule="nonzero"/><path fill="#000040" d="M 41.449219 61.765625 L 40.691406 59.484375 C 40.648438 59.363281 40.5625 59.265625 40.445312 59.21875 L 35.121094 56.9375 C 34.984375 56.878906 34.828125 56.890625 34.703125 56.972656 C 34.582031 57.054688 34.507812 57.195312 34.507812 57.339844 L 34.507812 61.144531 C 34.507812 61.367188 34.671875 61.554688 34.894531 61.582031 L 40.976562 62.34375 C 40.996094 62.347656 41.015625 62.347656 41.03125 62.347656 C 41.164062 62.347656 41.289062 62.289062 41.375 62.183594 C 41.46875 62.066406 41.5 61.910156 41.449219 61.765625 Z M 35.390625 60.753906 L 35.390625 58.011719 L 39.914062 59.953125 L 40.390625 61.378906 Z M 35.390625 60.753906 " fill-opacity="1" fill-rule="nonzero"/></svg>