<svg xmlns="http://www.w3.org/2000/svg" xmlns:xlink="http://www.w3.org/1999/xlink" width="140" zoomAndPan="magnify" viewBox="0 0 104.88 104.999996" height="140" preserveAspectRatio="xMidYMid meet" version="1.0"><defs><clipPath id="86da8b3924"><path d="M 0 7.074219 L 104.761719 7.074219 L 104.761719 97.71875 L 0 97.71875 Z M 0 7.074219 " clip-rule="nonzero"/></clipPath><clipPath id="688a9e45fd"><path d="M 31.464844 30.714844 L 73.414062 30.714844 L 73.414062 70.417969 L 31.464844 70.417969 Z M 31.464844 30.714844 " clip-rule="nonzero"/></clipPath></defs><g clip-path="url(#86da8b3924)"><path fill="#000040" d="M 26.21875 97.910156 L 0 52.496094 L 26.21875 7.082031 L 78.660156 7.082031 L 104.878906 52.496094 L 78.660156 97.910156 Z M 26.21875 97.910156 " fill-opacity="1" fill-rule="nonzero"/></g><g clip-path="url(#688a9e45fd)"><path fill="#ffffff" d="M 73.417969 49.332031 L 73.417969 49.101562 C 73.417969 48.511719 72.992188 48.011719 72.410156 47.914062 L 68.484375 47.257812 C 68.355469 47.238281 68.226562 47.273438 68.125 47.359375 C 68.027344 47.441406 67.96875 47.566406 67.96875 47.695312 L 67.96875 49.578125 L 64.472656 45.640625 C 63.460938 44.507812 62.113281 43.769531 60.625 43.535156 C 60.890625 42.496094 61.050781 41.324219 61.050781 40.011719 L 61.050781 34.355469 C 61.050781 34.132812 60.882812 33.945312 60.664062 33.917969 C 55.832031 33.3125 52.746094 30.894531 52.714844 30.867188 C 52.539062 30.730469 52.289062 30.742188 52.128906 30.898438 C 52.105469 30.925781 49.632812 33.316406 44.222656 33.917969 C 44 33.941406 43.828125 34.128906 43.828125 34.355469 L 43.828125 40.011719 C 43.828125 41.324219 43.988281 42.496094 44.253906 43.535156 C 42.765625 43.769531 41.417969 44.507812 40.40625 45.640625 L 36.910156 49.574219 L 36.910156 47.695312 C 36.910156 47.566406 36.851562 47.441406 36.753906 47.359375 C 36.65625 47.273438 36.523438 47.238281 36.394531 47.257812 L 32.46875 47.914062 C 31.886719 48.011719 31.464844 48.511719 31.464844 49.101562 L 31.464844 49.332031 C 31.464844 49.921875 31.886719 50.421875 32.46875 50.519531 L 34.25 50.816406 C 32.601562 51.632812 31.464844 53.335938 31.464844 55.300781 L 31.464844 61.652344 C 31.464844 62.027344 31.523438 62.398438 31.644531 62.753906 L 32.316406 64.769531 C 32.460938 65.210938 32.691406 65.609375 32.984375 65.949219 L 32.984375 68.988281 C 32.984375 69.652344 33.523438 70.191406 34.1875 70.191406 L 40.269531 70.191406 C 40.933594 70.191406 41.472656 69.652344 41.472656 68.988281 L 41.472656 67.148438 L 63.40625 67.148438 L 63.40625 68.988281 C 63.40625 69.652344 63.945312 70.191406 64.609375 70.191406 L 70.691406 70.191406 C 71.355469 70.191406 71.894531 69.652344 71.894531 68.988281 L 71.894531 65.949219 C 72.1875 65.609375 72.417969 65.210938 72.566406 64.769531 L 73.238281 62.753906 C 73.355469 62.398438 73.417969 62.027344 73.417969 61.652344 L 73.417969 55.300781 C 73.417969 53.335938 72.277344 51.632812 70.628906 50.816406 L 72.410156 50.519531 C 72.992188 50.421875 73.417969 49.921875 73.417969 49.332031 Z M 44.714844 34.746094 C 49.203125 34.167969 51.667969 32.441406 52.464844 31.78125 C 53.347656 32.40625 56.113281 34.148438 60.167969 34.742188 L 60.167969 40.011719 C 60.167969 41.355469 59.996094 42.601562 59.664062 43.742188 C 59.652344 43.769531 59.640625 43.800781 59.636719 43.832031 C 59.03125 45.832031 57.90625 47.507812 56.277344 48.832031 C 54.582031 50.210938 52.863281 50.746094 52.441406 50.863281 C 52.015625 50.746094 50.296875 50.210938 48.605469 48.832031 C 46.972656 47.507812 45.851562 45.835938 45.246094 43.835938 C 45.238281 43.800781 45.230469 43.769531 45.214844 43.738281 C 44.882812 42.597656 44.714844 41.355469 44.714844 40.011719 Z M 41.066406 46.226562 C 41.964844 45.21875 43.175781 44.574219 44.507812 44.390625 C 45.335938 46.859375 46.789062 48.503906 48.078125 49.542969 C 50.175781 51.238281 52.253906 51.730469 52.339844 51.75 C 52.375 51.757812 52.40625 51.761719 52.441406 51.761719 C 52.472656 51.761719 52.507812 51.757812 52.539062 51.75 C 52.625 51.730469 54.703125 51.238281 56.800781 49.542969 C 58.089844 48.503906 59.542969 46.859375 60.375 44.390625 C 61.703125 44.574219 62.914062 45.21875 63.8125 46.226562 L 67.734375 50.640625 L 63.574219 53.242188 C 62.675781 53.800781 61.640625 54.097656 60.582031 54.097656 L 44.296875 54.097656 C 43.238281 54.097656 42.207031 53.800781 41.308594 53.242188 L 37.144531 50.640625 Z M 32.613281 49.648438 C 32.460938 49.621094 32.347656 49.488281 32.347656 49.332031 L 32.347656 49.101562 C 32.347656 48.941406 32.460938 48.8125 32.613281 48.785156 L 36.027344 48.214844 L 36.027344 50.214844 Z M 40.589844 68.988281 C 40.589844 69.164062 40.445312 69.308594 40.269531 69.308594 L 34.1875 69.308594 C 34.011719 69.308594 33.867188 69.164062 33.867188 68.988281 L 33.867188 66.679688 C 34.386719 66.980469 34.988281 67.148438 35.621094 67.148438 L 40.589844 67.148438 Z M 44.195312 66.265625 L 45.816406 64.109375 L 59.1875 64.109375 L 60.714844 66.265625 Z M 71.011719 68.988281 C 71.011719 69.164062 70.867188 69.308594 70.691406 69.308594 L 64.609375 69.308594 C 64.433594 69.308594 64.289062 69.164062 64.289062 68.988281 L 64.289062 67.148438 L 69.261719 67.148438 C 69.890625 67.148438 70.492188 66.980469 71.011719 66.679688 Z M 72.53125 55.300781 L 72.53125 61.652344 C 72.53125 61.929688 72.488281 62.207031 72.398438 62.472656 L 71.726562 64.488281 C 71.605469 64.859375 71.402344 65.1875 71.144531 65.460938 C 71.140625 65.460938 71.140625 65.460938 71.136719 65.464844 C 70.660156 65.964844 69.988281 66.265625 69.261719 66.265625 L 61.796875 66.265625 L 59.773438 63.410156 C 59.691406 63.292969 59.558594 63.222656 59.414062 63.222656 L 45.59375 63.222656 C 45.457031 63.222656 45.324219 63.289062 45.242188 63.402344 L 43.09375 66.265625 L 35.621094 66.265625 C 34.890625 66.265625 34.21875 65.964844 33.742188 65.464844 L 33.738281 65.460938 C 33.480469 65.1875 33.277344 64.859375 33.152344 64.488281 L 32.480469 62.472656 C 32.390625 62.207031 32.347656 61.929688 32.347656 61.652344 L 32.347656 55.300781 C 32.347656 53.070312 34.128906 51.246094 36.347656 51.183594 L 40.839844 53.988281 C 41.878906 54.640625 43.074219 54.980469 44.296875 54.980469 L 60.582031 54.980469 C 61.804688 54.980469 63.003906 54.640625 64.039062 53.988281 L 68.53125 51.183594 C 70.75 51.246094 72.53125 53.070312 72.53125 55.300781 Z M 68.851562 50.214844 L 68.851562 48.214844 L 72.265625 48.785156 C 72.421875 48.8125 72.53125 48.941406 72.53125 49.101562 L 72.53125 49.332031 C 72.53125 49.488281 72.421875 49.621094 72.265625 49.648438 Z M 68.851562 50.214844 " fill-opacity="1" fill-rule="nonzero"/></g><path fill="#ffffff" d="M 70.175781 54.933594 C 70.050781 54.851562 69.894531 54.835938 69.757812 54.894531 L 64.433594 57.175781 C 64.316406 57.226562 64.230469 57.324219 64.1875 57.441406 L 63.429688 59.722656 C 63.382812 59.867188 63.410156 60.027344 63.507812 60.144531 C 63.589844 60.246094 63.71875 60.304688 63.847656 60.304688 C 63.867188 60.304688 63.882812 60.304688 63.902344 60.300781 L 69.988281 59.542969 C 70.207031 59.515625 70.375 59.324219 70.375 59.101562 L 70.375 55.300781 C 70.375 55.152344 70.300781 55.011719 70.175781 54.933594 Z M 69.492188 58.714844 L 64.488281 59.339844 L 64.964844 57.910156 L 69.492188 55.972656 Z M 69.492188 58.714844 " fill-opacity="1" fill-rule="nonzero"/><path fill="#ffffff" d="M 58.496094 35.777344 C 55.945312 35.207031 53.960938 34.242188 52.75 33.53125 C 52.605469 33.449219 52.429688 33.449219 52.289062 33.539062 C 51.15625 34.265625 49.214844 35.25 46.394531 35.8125 C 46.1875 35.855469 46.039062 36.035156 46.039062 36.246094 L 46.039062 40.011719 C 46.039062 43.292969 47.144531 45.882812 49.332031 47.71875 C 50.488281 48.683594 51.679688 49.203125 52.289062 49.421875 C 52.335938 49.441406 52.390625 49.449219 52.441406 49.449219 C 52.492188 49.449219 52.542969 49.441406 52.589844 49.421875 C 53.199219 49.203125 54.394531 48.683594 55.546875 47.71875 C 57.734375 45.882812 58.84375 43.292969 58.84375 40.011719 L 58.84375 36.210938 C 58.84375 36.003906 58.699219 35.824219 58.496094 35.777344 Z M 57.960938 40.011719 C 57.960938 43.019531 56.957031 45.382812 54.980469 47.039062 C 54.019531 47.847656 53.027344 48.308594 52.441406 48.535156 C 51.855469 48.308594 50.859375 47.847656 49.898438 47.039062 C 47.921875 45.382812 46.921875 43.019531 46.921875 40.011719 L 46.921875 36.605469 C 49.511719 36.042969 51.367188 35.144531 52.539062 34.425781 C 53.757812 35.121094 55.617188 35.992188 57.960938 36.5625 Z M 57.960938 40.011719 " fill-opacity="1" fill-rule="nonzero"/><path fill="#ffffff" d="M 56.175781 38.417969 L 56.140625 38.382812 C 55.855469 38.097656 55.464844 37.941406 55.0625 37.957031 C 54.664062 37.96875 54.285156 38.148438 54.019531 38.453125 L 51.507812 41.324219 L 51.039062 40.855469 C 50.765625 40.582031 50.402344 40.429688 50.015625 40.429688 C 49.625 40.429688 49.261719 40.582031 48.988281 40.855469 L 48.96875 40.875 C 48.679688 41.164062 48.527344 41.5625 48.546875 41.96875 C 48.5625 42.375 48.753906 42.757812 49.066406 43.015625 L 50.539062 44.242188 C 50.808594 44.46875 51.140625 44.582031 51.46875 44.582031 C 51.839844 44.582031 52.207031 44.4375 52.492188 44.15625 L 56.175781 40.46875 C 56.449219 40.195312 56.601562 39.832031 56.601562 39.445312 C 56.601562 39.054688 56.449219 38.691406 56.175781 38.417969 Z M 55.550781 39.847656 L 51.867188 43.53125 C 51.660156 43.738281 51.328125 43.753906 51.101562 43.5625 L 49.628906 42.339844 C 49.507812 42.234375 49.433594 42.089844 49.425781 41.925781 C 49.417969 41.765625 49.480469 41.613281 49.59375 41.5 L 49.613281 41.480469 C 49.71875 41.375 49.863281 41.3125 50.015625 41.3125 C 50.164062 41.3125 50.308594 41.375 50.414062 41.480469 L 51.214844 42.28125 C 51.300781 42.367188 51.421875 42.414062 51.542969 42.410156 C 51.664062 42.40625 51.78125 42.351562 51.859375 42.261719 L 54.683594 39.03125 C 54.789062 38.914062 54.933594 38.84375 55.09375 38.839844 C 55.253906 38.832031 55.402344 38.894531 55.515625 39.003906 L 55.550781 39.042969 C 55.660156 39.148438 55.71875 39.292969 55.71875 39.445312 C 55.71875 39.597656 55.660156 39.738281 55.550781 39.847656 Z M 55.550781 39.847656 " fill-opacity="1" fill-rule="nonzero"/><path fill="#ffffff" d="M 41.449219 59.722656 L 40.691406 57.441406 C 40.648438 57.324219 40.5625 57.226562 40.445312 57.175781 L 35.121094 54.894531 C 34.984375 54.835938 34.828125 54.851562 34.703125 54.933594 C 34.582031 55.011719 34.507812 55.152344 34.507812 55.300781 L 34.507812 59.101562 C 34.507812 59.324219 34.671875 59.515625 34.894531 59.542969 L 40.976562 60.300781 C 40.996094 60.304688 41.015625 60.304688 41.03125 60.304688 C 41.164062 60.304688 41.289062 60.246094 41.375 60.144531 C 41.46875 60.027344 41.5 59.867188 41.449219 59.722656 Z M 35.390625 58.714844 L 35.390625 55.972656 L 39.914062 57.910156 L 40.390625 59.339844 Z M 35.390625 58.714844 " fill-opacity="1" fill-rule="nonzero"/></svg>