<svg xmlns="http://www.w3.org/2000/svg" width="125" height="118" viewBox="0 0 125 118" fill="none">
  <path d="M115.601 117.125C116.31 117.551 117.232 117.32 117.659 116.61L124.631 105.029C125.059 104.318 124.83 103.397 124.121 102.971C123.412 102.544 122.49 102.775 122.063 103.486L115.866 113.78L105.593 107.606C104.884 107.18 103.963 107.411 103.535 108.121C103.107 108.832 103.335 109.754 104.044 110.18L115.601 117.125ZM0.531648 3.83784C1.52042 4.16052 2.50028 4.48331 3.47133 4.80631L4.42416 1.95851C3.44762 1.63368 2.46238 1.30911 1.46835 0.984726L0.531648 3.83784ZM9.25997 6.77076C11.2164 7.44852 13.1352 8.12787 15.0171 8.80959L16.0446 5.98771C14.1489 5.301 12.2169 4.61696 10.2478 3.93484L9.25997 6.77076ZM20.7406 10.9337C22.6771 11.6705 24.5723 12.4108 26.4274 13.1556L27.5506 10.3703C25.6779 9.61837 23.7657 8.87143 21.813 8.12851L20.7406 10.9337ZM32.0737 15.4898C33.9802 16.3018 35.8414 17.1201 37.6588 17.9457L38.9047 15.2128C37.0647 14.3769 35.1817 13.5491 33.2545 12.7283L32.0737 15.4898ZM43.1775 20.5415C45.0398 21.4492 46.8528 22.3668 48.6183 23.2956L50.0196 20.6389C48.2257 19.6951 46.3852 18.7636 44.4966 17.8431L43.1775 20.5415ZM53.9594 26.2235C55.7514 27.2479 57.4907 28.2869 59.1794 29.3424L60.7731 26.7962C59.0499 25.7191 57.2769 24.66 55.4522 23.617L53.9594 26.2235ZM64.2547 32.669C65.9437 33.8309 67.578 35.0135 69.1603 36.2189L70.9811 33.8297C69.3592 32.5941 67.6857 31.3832 65.9582 30.1949L64.2547 32.669ZM73.8812 40.0141C75.4358 41.3338 76.9361 42.6815 78.3851 44.0595L80.4544 41.8819C78.9639 40.4645 77.4217 39.0793 75.825 37.7238L73.8812 40.0141ZM82.6415 48.3515C84.0218 49.8282 85.3519 51.3399 86.6351 52.8892L88.9464 50.9709C87.6252 49.3756 86.2556 47.8192 84.8345 46.2988L82.6415 48.3515ZM90.351 57.6583C91.5376 59.278 92.6813 60.9381 93.785 62.6415L96.3029 61.0045C95.1686 59.254 93.9926 57.5468 92.7715 55.8801L90.351 57.6583ZM96.9382 67.8122C97.9321 69.5443 98.8916 71.3197 99.8196 73.1409L102.492 71.7725C101.543 69.9087 100.56 68.0897 99.5402 66.313L96.9382 67.8122ZM102.452 78.613C103.278 80.4328 104.078 82.2964 104.855 84.2059L107.633 83.0689C106.843 81.1241 106.026 79.2237 105.183 77.3658L102.452 78.613ZM107.045 89.8835C107.731 91.757 108.398 93.6724 109.048 95.6317L111.895 94.6796C111.236 92.6928 110.559 90.7485 109.862 88.8448L107.045 89.8835ZM110.89 101.444C111.469 103.359 112.035 105.313 112.589 107.308L115.479 106.498C114.919 104.482 114.347 102.505 113.76 100.568L110.89 101.444ZM114.166 113.213C114.419 114.2 114.671 115.196 114.92 116.202L117.831 115.474C117.58 114.46 117.327 113.455 117.071 112.459L114.166 113.213Z" fill="white"/>
</svg>