<svg xmlns="http://www.w3.org/2000/svg" width="60" height="60" viewBox="0 0 45 47" fill="none">
  <path d="M38.9263 16.5684C38.1811 16.5645 37.4421 16.7051 36.7504 16.9825L30.438 9.1029C30.9569 8.35555 31.2926 7.49657 31.4179 6.59543C31.5433 5.6943 31.4547 4.77632 31.1595 3.91574C30.8642 3.05517 30.3706 2.27617 29.7185 1.64177C29.0663 1.00736 28.274 0.535363 27.4056 0.263951C26.5372 -0.00746056 25.6172 -0.0706634 24.7198 0.0794553C23.8225 0.229574 22.9731 0.588798 22.2403 1.12807C21.5076 1.66734 20.912 2.37152 20.5019 3.18364C20.0917 3.99575 19.8785 4.89301 19.8794 5.80282C19.8794 6.00611 19.8897 6.20926 19.9105 6.41149L10.2898 10.4196C9.71022 9.70878 8.97028 9.1456 8.13076 8.77635C7.29123 8.4071 6.37607 8.24231 5.46047 8.29554C4.54487 8.34876 3.65497 8.61847 2.86388 9.08251C2.07279 9.54655 1.4031 10.1917 0.909825 10.9649C0.416552 11.7381 0.113778 12.6173 0.0263809 13.5302C-0.061016 14.4432 0.0694587 15.3639 0.407084 16.2166C0.74471 17.0694 1.27985 17.8298 1.96853 18.4355C2.65722 19.0412 3.47979 19.4749 4.36866 19.7008L4.75167 29.3029C3.87402 29.6026 3.08109 30.1085 2.43943 30.778C1.79778 31.4476 1.32613 32.2614 1.06411 33.151C0.802083 34.0406 0.757321 34.9801 0.93358 35.8906C1.10984 36.8011 1.50198 37.656 2.07706 38.3835C2.65215 39.1111 3.3934 39.6901 4.23858 40.0718C5.08376 40.4536 6.0082 40.627 6.93427 40.5775C7.86034 40.5279 8.76102 40.257 9.56068 39.7873C10.3603 39.3176 11.0356 38.6629 11.5299 37.8782L21.5357 40.6814C21.5497 41.6137 21.7885 42.529 22.2317 43.3494C22.675 44.1698 23.3095 44.8712 24.0817 45.394C24.8538 45.9168 25.7406 46.2457 26.6669 46.3526C27.5933 46.4596 28.5317 46.3415 29.4027 46.0084C30.2736 45.6753 31.0514 45.137 31.6699 44.4392C32.2884 43.7414 32.7295 42.9047 32.9557 42.0001C33.1819 41.0955 33.1865 40.1496 32.9691 39.2428C32.7518 38.336 32.3189 37.495 31.7071 36.7913L37.3405 27.9407C38.1378 28.1677 38.9745 28.221 39.7942 28.0971C40.6139 27.9731 41.3975 27.6748 42.0921 27.2223C42.7867 26.7697 43.3761 26.1735 43.8207 25.4737C44.2652 24.774 44.5545 23.987 44.669 23.1659C44.7835 22.3449 44.7205 21.5088 44.4844 20.7141C44.2483 19.9195 43.8444 19.1847 43.3001 18.5594C42.7559 17.9341 42.0838 17.4328 41.3293 17.0893C40.5747 16.7459 39.7553 16.5683 38.9263 16.5684ZM27.3326 34.7872H27.1483L23.7985 24.74L33.4566 24.2804C33.7007 24.9646 34.0715 25.5967 34.5497 26.1436L28.9164 34.9942C28.4005 34.8525 27.8675 34.7828 27.3326 34.7872ZM8.0621 29.1704L7.67909 19.5683C8.45991 19.2994 9.17424 18.8667 9.77425 18.2992L18.5793 23.4005L9.99577 30.071C9.41247 29.6538 8.75682 29.3484 8.0621 29.1704ZM26.0014 11.5997C26.637 11.565 27.2624 11.4251 27.8522 11.1856L34.1646 19.0652C33.762 19.6433 33.4687 20.2903 33.2992 20.9741L23.6578 21.4337L26.0014 11.5997ZM12.0309 32.6858L20.7076 25.9387L24.0076 35.841C23.3792 36.2841 22.8445 36.8469 22.4342 37.4972L12.4263 34.6899C12.4142 34.0037 12.2803 33.3252 12.0309 32.6858ZM25.6763 3.31844C26.1677 3.31844 26.648 3.46415 27.0566 3.73713C27.4651 4.01012 27.7835 4.39813 27.9716 4.85209C28.1596 5.30605 28.2088 5.80557 28.113 6.28749C28.0171 6.76942 27.7805 7.21209 27.433 7.55954C27.0856 7.90698 26.6429 8.1436 26.161 8.23946C25.6791 8.33532 25.1796 8.28612 24.7256 8.09808C24.2716 7.91004 23.8836 7.59162 23.6106 7.18306C23.3377 6.77451 23.1919 6.29418 23.1919 5.80282C23.1919 5.14392 23.4537 4.51201 23.9196 4.0461C24.3855 3.58019 25.0174 3.31844 25.6763 3.31844ZM21.1879 9.46727C21.633 10.0097 22.1714 10.4683 22.7779 10.8213L20.4384 20.6449L11.4388 15.4339C11.5447 14.9918 11.5982 14.5387 11.5982 14.0841C11.5983 13.8808 11.5879 13.6776 11.5671 13.4754L21.1879 9.46727ZM3.31694 14.0841C3.31694 13.5927 3.46265 13.1124 3.73564 12.7038C4.00862 12.2953 4.39663 11.9768 4.85059 11.7888C5.30455 11.6008 5.80408 11.5516 6.286 11.6474C6.76792 11.7433 7.21059 11.9799 7.55804 12.3273C7.90548 12.6748 8.1421 13.1175 8.23796 13.5994C8.33382 14.0813 8.28462 14.5808 8.09658 15.0348C7.90855 15.4888 7.59012 15.8768 7.18156 16.1498C6.77301 16.4227 6.29268 16.5684 5.80132 16.5684C5.14242 16.5684 4.51051 16.3067 4.0446 15.8408C3.57869 15.3749 3.31694 14.743 3.31694 14.0841ZM6.62944 37.2716C6.13808 37.2716 5.65775 37.1259 5.2492 36.8529C4.84065 36.5799 4.52222 36.1919 4.33418 35.7379C4.14614 35.284 4.09695 34.7844 4.19281 34.3025C4.28867 33.8206 4.52528 33.3779 4.87273 33.0305C5.22017 32.683 5.66285 32.4464 6.14477 32.3506C6.62669 32.2547 7.12621 32.3039 7.58017 32.4919C8.03413 32.68 8.42214 32.9984 8.69513 33.407C8.96811 33.8155 9.11382 34.2958 9.11382 34.7872C9.11382 35.4461 8.85207 36.078 8.38616 36.5439C7.92025 37.0098 7.28834 37.2716 6.62944 37.2716ZM27.3326 43.0684C26.8412 43.0684 26.3609 42.9227 25.9523 42.6498C25.5438 42.3768 25.2253 41.9888 25.0373 41.5348C24.8493 41.0808 24.8001 40.5813 24.8959 40.0994C24.9918 39.6175 25.2284 39.1748 25.5759 38.8274C25.9233 38.4799 26.366 38.2433 26.8479 38.1474C27.3298 38.0516 27.8293 38.1008 28.2833 38.2888C28.7373 38.4768 29.1253 38.7953 29.3983 39.2038C29.6712 39.6124 29.8169 40.0927 29.8169 40.5841C29.8169 41.243 29.5552 41.8749 29.0893 42.3408C28.6234 42.8067 27.9915 43.0684 27.3326 43.0684ZM38.9263 24.8497C38.435 24.8497 37.9546 24.704 37.5461 24.431C37.1375 24.158 36.8191 23.77 36.6311 23.316C36.443 22.8621 36.3938 22.3626 36.4897 21.8806C36.5855 21.3987 36.8222 20.956 37.1696 20.6086C37.517 20.2612 37.9597 20.0245 38.4416 19.9287C38.9236 19.8328 39.4231 19.882 39.877 20.0701C40.331 20.2581 40.719 20.5765 40.992 20.9851C41.265 21.3936 41.4107 21.874 41.4107 22.3653C41.4107 23.0242 41.1489 23.6561 40.683 24.122C40.2171 24.5879 39.5852 24.8497 38.9263 24.8497Z" fill="white"/>
</svg>