<svg xmlns="http://www.w3.org/2000/svg" xmlns:xlink="http://www.w3.org/1999/xlink" width="140" zoomAndPan="magnify" viewBox="0 0 104.88 104.999996" height="140" preserveAspectRatio="xMidYMid meet" version="1.0"><defs><clipPath id="45d45208e6"><path d="M 0 7.074219 L 104.761719 7.074219 L 104.761719 97.71875 L 0 97.71875 Z M 0 7.074219 " clip-rule="nonzero"/></clipPath><clipPath id="3c828c0d25"><path d="M 39 58 L 65 58 L 65 73.476562 L 39 73.476562 Z M 39 58 " clip-rule="nonzero"/></clipPath><clipPath id="244db4d3ce"><path d="M 34.714844 31.523438 L 69 31.523438 L 69 61 L 34.714844 61 Z M 34.714844 31.523438 " clip-rule="nonzero"/></clipPath><clipPath id="71cb8e1b3c"><path d="M 65 50 L 69.925781 50 L 69.925781 53 L 65 53 Z M 65 50 " clip-rule="nonzero"/></clipPath></defs><g clip-path="url(#45d45208e6)"><path fill="#000040" d="M 26.21875 97.910156 L 0 52.496094 L 26.21875 7.082031 L 78.660156 7.082031 L 104.878906 52.496094 L 78.660156 97.910156 Z M 26.21875 97.910156 " fill-opacity="1" fill-rule="nonzero"/></g><path fill="#ffffff" d="M 45.910156 62.265625 C 48 58.109375 53.90625 59.109375 55.082031 62.597656 Z M 45.910156 62.265625 " fill-opacity="1" fill-rule="nonzero"/><path fill="#ffffff" d="M 50.515625 59.558594 C 50.34375 58.054688 51.238281 55.832031 51.960938 54.007812 C 52.070312 53.726562 52.183594 53.453125 52.285156 53.1875 C 52.335938 53.050781 52.457031 52.949219 52.601562 52.921875 C 56.917969 52.101562 58.53125 50.324219 58.476562 50.382812 C 60.929688 47.734375 60.53125 46.070312 60.160156 44.433594 C 59.816406 42.898438 59.464844 41.308594 61.347656 39.273438 C 61.558594 39.046875 61.792969 38.816406 62.058594 38.578125 L 62.359375 39.324219 C 58.828125 39.484375 54.496094 42.304688 52.265625 45.503906 C 50.871094 47.5 52.21875 50.703125 52.921875 52.324219 C 53.046875 52.613281 53.164062 52.878906 53.210938 53.042969 C 53.273438 53.269531 53.144531 53.503906 52.917969 53.566406 C 52.691406 53.628906 52.457031 53.5 52.390625 53.273438 C 52.363281 53.179688 52.28125 52.988281 52.140625 52.664062 C 51.511719 51.210938 49.84375 47.484375 51.566406 45.015625 C 53.910156 41.660156 58.460938 38.648438 62.324219 38.472656 C 62.503906 38.464844 62.667969 38.570312 62.738281 38.738281 C 62.804688 38.902344 62.761719 39.09375 62.625 39.214844 C 62.378906 39.4375 62.160156 39.648438 61.972656 39.851562 C 60.382812 41.570312 60.664062 42.789062 60.992188 44.246094 C 61.394531 46.027344 61.820312 48.023438 59.101562 50.960938 C 59.046875 51.023438 57.277344 52.898438 52.761719 53.757812 L 53.078125 53.496094 C 52.972656 53.765625 52.863281 54.039062 52.753906 54.320312 C 51.992188 56.246094 51.222656 58.226562 51.359375 59.464844 C 51.386719 59.695312 51.21875 59.90625 50.984375 59.933594 C 50.75 59.960938 50.539062 59.792969 50.515625 59.558594 Z M 50.515625 59.558594 " fill-opacity="1" fill-rule="nonzero"/><path fill="#ffffff" d="M 35.378906 66.621094 L 40.539062 62.820312 C 40.570312 62.796875 40.609375 62.777344 40.648438 62.761719 C 43.15625 61.941406 46 61.953125 49.15625 61.957031 C 49.585938 61.960938 50.019531 61.960938 50.460938 61.957031 C 54.554688 61.949219 56.191406 63.136719 56.253906 64.085938 C 56.253906 64.105469 56.253906 64.121094 56.253906 64.136719 C 56.257812 64.363281 56.148438 64.609375 55.890625 64.71875 C 54.960938 65.121094 53.257812 65.621094 50.734375 66.085938 C 50.519531 66.128906 50.308594 65.984375 50.269531 65.765625 C 50.230469 65.546875 50.371094 65.339844 50.589844 65.300781 C 53.089844 64.839844 54.722656 64.351562 55.574219 63.984375 C 55.46875 64.03125 55.453125 64.121094 55.453125 64.136719 C 55.445312 64 54.691406 62.75 50.464844 62.761719 C 50.019531 62.761719 49.582031 62.761719 49.15625 62.757812 C 45.960938 62.753906 43.257812 62.75 40.898438 63.523438 L 41.011719 63.464844 L 35.855469 67.265625 C 35.675781 67.394531 35.425781 67.355469 35.292969 67.179688 C 35.164062 67 35.203125 66.75 35.378906 66.621094 Z M 35.378906 66.621094 " fill-opacity="1" fill-rule="nonzero"/><g clip-path="url(#3c828c0d25)"><path fill="#ffffff" d="M 39.246094 72.722656 C 40.546875 71.464844 44.390625 69.183594 44.953125 69 C 44.976562 68.992188 45 68.984375 45.03125 68.980469 C 45.078125 68.972656 45.117188 68.96875 45.144531 68.96875 C 45.382812 68.96875 45.980469 69.097656 46.640625 69.238281 C 48.335938 69.601562 50.832031 70.125 51.988281 69.90625 C 52.109375 69.882812 52.199219 69.851562 52.265625 69.820312 C 61.066406 65.621094 64.007812 63.132812 64.078125 62.523438 C 64.078125 62.523438 64.078125 62.527344 64.078125 62.53125 C 64.074219 62.511719 63.902344 62.191406 62.898438 62.222656 C 62.226562 62.246094 61.398438 62.441406 60.613281 62.867188 C 57.277344 64.65625 54.898438 65.097656 54.867188 65.101562 C 54.65625 65.140625 54.449219 65.011719 54.390625 64.804688 C 54.335938 64.597656 54.445312 64.382812 54.644531 64.308594 C 59.140625 62.632812 63.3125 60.136719 62.976562 59.234375 C 62.976562 59.234375 62.976562 59.230469 62.976562 59.230469 C 62.875 58.980469 62.6875 58.835938 61.941406 59.140625 C 61.257812 59.417969 60.386719 59.988281 59.371094 60.652344 C 58.160156 61.441406 56.777344 62.347656 55.421875 62.902344 C 55.164062 63.007812 54.902344 63.101562 54.644531 63.179688 C 54.445312 63.238281 54.226562 63.136719 54.144531 62.941406 C 54.0625 62.746094 54.140625 62.523438 54.328125 62.421875 C 57.523438 60.671875 58.722656 59.382812 58.632812 59.0625 L 58.636719 59.0625 C 58.632812 59.0625 58.636719 59.0625 58.632812 59.0625 L 58.636719 59.0625 C 58.636719 59.066406 58.632812 59.054688 58.609375 59.042969 C 57.839844 58.484375 55.386719 60.25 53.511719 61.6875 C 53.363281 61.800781 53.226562 61.90625 53.097656 62.003906 C 52.914062 62.140625 52.65625 62.105469 52.515625 61.921875 C 52.378906 61.742188 52.414062 61.484375 52.597656 61.34375 C 52.722656 61.25 52.863281 61.144531 53.011719 61.03125 C 54.460938 59.917969 57.679688 57.347656 59.09375 58.371094 C 59.195312 58.445312 59.285156 58.535156 59.347656 58.648438 C 59.351562 58.652344 59.355469 58.660156 59.359375 58.667969 C 59.390625 58.722656 59.414062 58.78125 59.429688 58.839844 C 59.742188 59.960938 57.539062 61.605469 54.726562 63.144531 L 54.40625 62.386719 C 54.636719 62.316406 54.871094 62.234375 55.105469 62.136719 C 56.375 61.617188 57.691406 60.757812 58.917969 59.957031 C 59.90625 59.3125 60.855469 58.691406 61.628906 58.375 C 62.40625 58.054688 63.339844 57.941406 63.742188 58.917969 C 63.746094 58.925781 63.75 58.9375 63.753906 58.949219 C 64.460938 60.84375 58.789062 63.644531 54.933594 65.082031 L 54.714844 64.289062 C 54.683594 64.296875 56.976562 63.878906 60.222656 62.136719 C 61.121094 61.65625 62.074219 61.425781 62.871094 61.398438 C 63.703125 61.371094 64.871094 61.589844 64.902344 62.503906 C 64.902344 62.542969 64.902344 62.582031 64.898438 62.621094 C 64.757812 63.804688 61.144531 66.5 52.621094 70.566406 C 52.472656 70.636719 52.308594 70.683594 52.140625 70.71875 C 50.777344 70.976562 48.066406 70.390625 46.46875 70.046875 C 45.730469 69.890625 45.269531 69.796875 45.152344 69.796875 C 45.148438 69.796875 45.164062 69.796875 45.1875 69.792969 C 45.203125 69.789062 45.210938 69.785156 45.207031 69.785156 L 45.210938 69.785156 C 44.789062 69.921875 41.046875 72.132812 39.820312 73.316406 C 39.65625 73.472656 39.394531 73.46875 39.238281 73.304688 C 39.078125 73.140625 39.082031 72.878906 39.246094 72.722656 Z M 39.246094 72.722656 " fill-opacity="1" fill-rule="nonzero"/></g><path fill="#ffffff" d="M 51.242188 55.796875 C 51.179688 54.25 50.277344 49.882812 48.925781 49.0625 C 48.765625 48.964844 48.691406 48.769531 48.746094 48.589844 C 49.613281 45.824219 48.558594 44.484375 48.566406 44.492188 C 48.566406 44.488281 48.566406 44.492188 48.566406 44.492188 L 48.886719 44.238281 L 48.566406 44.496094 C 47.496094 43.160156 46.070312 42.632812 44.546875 42.078125 C 43.589844 41.730469 42.585938 41.367188 41.691406 40.761719 L 42.324219 40.476562 C 42.023438 42.691406 43.449219 47.957031 47.140625 48.460938 C 47.695312 48.535156 48.3125 48.507812 48.996094 48.34375 C 49.214844 48.292969 49.4375 48.425781 49.488281 48.648438 C 49.542969 48.867188 49.40625 49.089844 49.1875 49.140625 C 48.410156 49.324219 47.691406 49.359375 47.027344 49.269531 C 42.605469 48.667969 41.199219 42.671875 41.511719 40.367188 C 41.53125 40.226562 41.621094 40.105469 41.75 40.050781 C 41.878906 39.992188 42.03125 40.003906 42.148438 40.082031 C 42.945312 40.621094 43.855469 40.957031 44.828125 41.308594 C 46.328125 41.855469 47.972656 42.445312 49.207031 43.980469 L 48.886719 44.238281 L 49.207031 43.980469 C 49.210938 43.984375 49.207031 43.984375 49.210938 43.988281 L 49.214844 43.992188 C 49.335938 44.148438 50.488281 45.761719 49.527344 48.832031 L 49.351562 48.363281 C 51.140625 49.445312 52 54.324219 52.0625 55.761719 C 52.070312 55.988281 51.894531 56.179688 51.667969 56.1875 C 51.441406 56.199219 51.253906 56.023438 51.242188 55.796875 Z M 51.242188 55.796875 " fill-opacity="1" fill-rule="nonzero"/><path fill="#ffffff" d="M 51.128906 56.410156 C 50.625 54.394531 49.753906 51.734375 48.40625 52.070312 C 48.386719 52.078125 48.367188 52.082031 48.34375 52.089844 C 47.796875 52.257812 47.855469 52.53125 47.863281 52.394531 C 47.863281 52.421875 47.855469 52.453125 47.847656 52.484375 C 46.136719 58.203125 40.820312 56.660156 40.769531 56.644531 L 40.765625 56.644531 C 40.765625 56.644531 40.769531 56.644531 40.769531 56.644531 C 40.617188 56.601562 40.503906 56.472656 40.476562 56.316406 C 40.453125 56.164062 40.515625 56.003906 40.644531 55.914062 C 41.71875 55.148438 41.820312 54.542969 41.933594 53.945312 C 42.039062 53.378906 42.160156 52.742188 42.976562 52.160156 C 43 52.144531 43.023438 52.128906 43.046875 52.109375 C 44.914062 50.847656 47.066406 51.160156 47.726562 52.140625 C 47.753906 52.175781 47.773438 52.214844 47.796875 52.253906 C 47.902344 52.453125 47.824219 52.703125 47.625 52.808594 C 47.421875 52.914062 47.171875 52.839844 47.066406 52.636719 C 47.0625 52.625 47.054688 52.613281 47.046875 52.601562 C 46.75 52.160156 45.1875 51.660156 43.507812 52.792969 C 43.492188 52.804688 43.472656 52.820312 43.453125 52.832031 C 42.910156 53.21875 42.839844 53.578125 42.742188 54.097656 C 42.605469 54.808594 42.433594 55.648438 41.125 56.582031 L 41 55.851562 C 41 55.855469 41 55.855469 41.003906 55.855469 L 41 55.855469 C 41.09375 55.882812 45.585938 57.175781 47.058594 52.246094 L 47.042969 52.335938 C 47.054688 52.199219 47.171875 51.589844 48.101562 51.300781 C 48.136719 51.289062 48.171875 51.28125 48.207031 51.273438 C 50.5625 50.683594 51.566406 54.769531 51.925781 56.210938 C 51.980469 56.429688 51.847656 56.652344 51.625 56.710938 C 51.40625 56.765625 51.183594 56.628906 51.128906 56.410156 Z M 51.128906 56.410156 " fill-opacity="1" fill-rule="nonzero"/><path fill="#ffffff" d="M 54.179688 49.382812 C 54.394531 48.996094 54.722656 48.210938 55.109375 47.449219 C 55.496094 46.691406 55.855469 45.898438 56.246094 45.070312 C 56.640625 44.242188 57.105469 43.386719 57.554688 42.785156 C 58.003906 42.179688 58.003906 42.179688 57.679688 42.5625 C 57.679688 42.5625 56.949219 43.261719 56.273438 43.972656 C 55.597656 44.6875 55.039062 45.457031 54.675781 46.300781 C 54.3125 47.148438 54.113281 48.027344 54.128906 48.484375 C 54.066406 49.363281 54.257812 48.964844 54.179688 49.382812 Z M 54.179688 49.382812 " fill-opacity="1" fill-rule="nonzero"/><path fill="#ffffff" d="M 54.808594 47.304688 C 54.859375 47.273438 54.960938 47.195312 55.082031 47.117188 C 55.207031 47.042969 55.347656 46.96875 55.507812 46.898438 C 55.667969 46.824219 55.851562 46.753906 56.039062 46.683594 C 56.230469 46.617188 56.363281 46.417969 56.546875 46.308594 C 56.730469 46.199219 56.925781 46.089844 57.132812 45.984375 C 57.34375 45.878906 57.570312 45.804688 57.746094 45.757812 C 57.921875 45.714844 57.921875 45.714844 57.804688 45.746094 C 57.804688 45.746094 57.570312 45.804688 57.332031 45.84375 C 57.097656 45.882812 56.867188 45.917969 56.644531 45.964844 C 56.421875 46.011719 56.207031 46.066406 55.992188 46.117188 C 55.777344 46.167969 55.59375 46.296875 55.4375 46.425781 C 55.277344 46.554688 55.140625 46.679688 55.027344 46.804688 C 54.910156 46.929688 54.816406 47.050781 54.785156 47.117188 C 54.714844 47.234375 54.84375 47.257812 54.808594 47.304688 Z M 54.808594 47.304688 " fill-opacity="1" fill-rule="nonzero"/><path fill="#ffffff" d="M 47.332031 46.3125 C 47.285156 46.257812 47.175781 46.164062 47.070312 46.066406 C 46.960938 45.964844 46.855469 45.855469 46.746094 45.746094 C 46.640625 45.632812 46.53125 45.511719 46.453125 45.429688 C 46.378906 45.347656 46.300781 45.261719 46.15625 45.089844 C 46.015625 44.914062 45.703125 44.769531 45.347656 44.519531 C 44.992188 44.273438 44.550781 43.96875 44.214844 43.671875 C 43.878906 43.375 43.878906 43.375 44.09375 43.582031 C 44.09375 43.582031 44.503906 44.019531 44.808594 44.417969 C 45.113281 44.816406 45.363281 45.132812 45.550781 45.359375 C 45.742188 45.589844 45.90625 45.703125 45.988281 45.757812 C 46.070312 45.808594 46.210938 45.902344 46.355469 45.984375 C 46.5 46.070312 46.644531 46.144531 46.785156 46.214844 C 46.925781 46.28125 47.066406 46.34375 47.140625 46.359375 C 47.273438 46.414062 47.273438 46.277344 47.332031 46.3125 Z M 47.332031 46.3125 " fill-opacity="1" fill-rule="nonzero"/><path fill="#ffffff" d="M 45.425781 52.988281 C 45.351562 52.992188 45.1875 53.050781 44.988281 53.15625 C 44.789062 53.265625 44.554688 53.421875 44.375 53.710938 C 44.191406 54 43.976562 54.332031 43.769531 54.574219 C 43.558594 54.816406 43.558594 54.816406 43.699219 54.65625 C 43.699219 54.65625 43.984375 54.335938 44.28125 54.109375 C 44.574219 53.886719 44.855469 53.738281 45.011719 53.550781 C 45.167969 53.359375 45.300781 53.230469 45.351562 53.171875 C 45.464844 53.097656 45.367188 53.007812 45.425781 52.988281 Z M 45.425781 52.988281 " fill-opacity="1" fill-rule="nonzero"/><g clip-path="url(#244db4d3ce)"><path fill="#ffffff" d="M 39.339844 59.9375 L 38.414062 58.875 C 38.40625 58.867188 38.398438 58.855469 38.390625 58.84375 L 37.558594 57.707031 C 37.550781 57.699219 37.542969 57.6875 37.539062 57.675781 L 36.804688 56.472656 C 36.800781 56.460938 36.792969 56.449219 36.789062 56.441406 L 36.164062 55.175781 C 36.15625 55.164062 36.152344 55.152344 36.148438 55.140625 L 35.632812 53.832031 C 35.628906 53.820312 35.625 53.808594 35.621094 53.796875 L 35.222656 52.445312 C 35.21875 52.429688 35.214844 52.417969 35.214844 52.40625 L 34.929688 51.027344 C 34.929688 51.015625 34.925781 51 34.925781 50.988281 L 34.761719 49.589844 C 34.761719 49.578125 34.761719 49.566406 34.761719 49.550781 L 34.71875 48.144531 C 34.71875 48.132812 34.71875 48.117188 34.71875 48.105469 L 34.800781 46.699219 C 34.800781 46.6875 34.800781 46.675781 34.804688 46.664062 L 35.003906 45.265625 C 35.003906 45.253906 35.007812 45.242188 35.011719 45.230469 L 35.328125 43.859375 C 35.332031 43.847656 35.335938 43.832031 35.339844 43.820312 L 35.777344 42.480469 C 35.78125 42.46875 35.785156 42.457031 35.789062 42.445312 L 36.339844 41.148438 C 36.34375 41.136719 36.347656 41.125 36.355469 41.117188 L 37.015625 39.871094 C 37.019531 39.859375 37.027344 39.847656 37.03125 39.835938 L 37.796875 38.652344 C 37.804688 38.644531 37.8125 38.632812 37.816406 38.621094 L 38.679688 37.507812 C 38.6875 37.5 38.695312 37.488281 38.707031 37.480469 L 39.660156 36.445312 C 39.667969 36.433594 39.679688 36.425781 39.6875 36.417969 L 40.726562 35.46875 C 40.738281 35.460938 40.746094 35.449219 40.757812 35.445312 L 41.875 34.585938 C 41.886719 34.578125 41.894531 34.570312 41.90625 34.566406 L 43.09375 33.808594 C 43.105469 33.800781 43.113281 33.792969 43.125 33.789062 L 44.375 33.136719 C 44.386719 33.128906 44.398438 33.125 44.410156 33.121094 L 45.710938 32.574219 C 45.71875 32.570312 45.730469 32.566406 45.742188 32.5625 L 47.085938 32.132812 C 47.097656 32.128906 47.109375 32.125 47.121094 32.125 L 48.480469 31.8125 C 48.492188 31.8125 48.503906 31.808594 48.519531 31.808594 L 49.898438 31.613281 C 49.910156 31.613281 49.921875 31.609375 49.9375 31.609375 L 51.328125 31.535156 C 51.339844 31.535156 51.351562 31.535156 51.363281 31.535156 L 52.757812 31.578125 C 52.769531 31.578125 52.785156 31.578125 52.796875 31.582031 L 54.179688 31.742188 C 54.191406 31.746094 54.203125 31.746094 54.21875 31.75 L 55.582031 32.027344 C 55.59375 32.03125 55.605469 32.03125 55.617188 32.035156 L 56.957031 32.429688 C 56.96875 32.433594 56.980469 32.4375 56.992188 32.441406 L 58.289062 32.949219 C 58.300781 32.953125 58.3125 32.957031 58.324219 32.964844 L 59.574219 33.578125 C 59.585938 33.585938 59.597656 33.589844 59.609375 33.597656 L 60.804688 34.316406 C 60.8125 34.320312 60.824219 34.328125 60.832031 34.335938 L 61.964844 35.152344 C 61.972656 35.160156 61.984375 35.167969 61.992188 35.175781 L 63.046875 36.089844 C 63.058594 36.097656 63.066406 36.105469 63.074219 36.113281 L 64.046875 37.109375 C 64.058594 37.121094 64.066406 37.128906 64.074219 37.136719 L 64.960938 38.214844 C 64.96875 38.226562 64.972656 38.234375 64.980469 38.246094 L 65.773438 39.394531 C 65.78125 39.402344 65.785156 39.414062 65.792969 39.425781 L 66.484375 40.636719 C 66.488281 40.648438 66.496094 40.65625 66.5 40.667969 L 67.085938 41.933594 C 67.089844 41.945312 67.09375 41.957031 67.097656 41.96875 L 67.574219 43.277344 C 67.578125 43.289062 67.582031 43.300781 67.585938 43.3125 L 67.949219 44.660156 C 67.949219 44.671875 67.953125 44.683594 67.957031 44.695312 L 68.203125 46.070312 C 68.203125 46.082031 68.207031 46.09375 68.207031 46.105469 L 68.335938 47.496094 C 68.335938 47.507812 68.339844 47.519531 68.339844 47.53125 L 68.347656 48.925781 C 68.347656 48.9375 68.347656 48.949219 68.347656 48.960938 L 68.238281 50.351562 C 68.238281 50.363281 68.238281 50.378906 68.234375 50.390625 L 68.007812 51.765625 C 67.96875 52 67.746094 52.160156 67.511719 52.121094 C 67.273438 52.082031 67.113281 51.859375 67.152344 51.625 L 67.378906 50.25 L 67.375 50.285156 L 67.484375 48.894531 L 67.480469 48.933594 L 67.472656 47.539062 L 67.472656 47.574219 L 67.34375 46.1875 L 67.351562 46.222656 L 67.101562 44.851562 L 67.109375 44.886719 L 66.75 43.539062 L 66.761719 43.574219 L 66.285156 42.265625 L 66.296875 42.296875 L 65.714844 41.03125 L 65.730469 41.066406 L 65.039062 39.855469 L 65.058594 39.882812 L 64.269531 38.738281 L 64.289062 38.765625 L 63.402344 37.6875 L 63.429688 37.714844 L 62.453125 36.71875 L 62.480469 36.742188 L 61.425781 35.832031 L 61.453125 35.855469 L 60.324219 35.039062 L 60.355469 35.058594 L 59.160156 34.339844 L 59.195312 34.355469 L 57.941406 33.742188 L 57.976562 33.757812 L 56.675781 33.25 L 56.710938 33.261719 L 55.375 32.867188 L 55.410156 32.875 L 54.042969 32.597656 L 54.078125 32.601562 L 52.695312 32.441406 L 52.730469 32.445312 L 51.339844 32.402344 L 51.375 32.398438 L 49.980469 32.476562 L 50.019531 32.472656 L 48.636719 32.664062 L 48.675781 32.660156 L 47.316406 32.96875 L 47.351562 32.957031 L 46.007812 33.386719 L 46.042969 33.375 L 44.742188 33.917969 L 44.777344 33.902344 L 43.527344 34.554688 L 43.558594 34.539062 L 42.371094 35.296875 L 42.402344 35.273438 L 41.285156 36.132812 L 41.3125 36.105469 L 40.269531 37.058594 L 40.296875 37.03125 L 39.34375 38.066406 L 39.367188 38.039062 L 38.503906 39.152344 L 38.523438 39.121094 L 37.761719 40.308594 L 37.78125 40.273438 L 37.121094 41.519531 L 37.136719 41.488281 L 36.585938 42.785156 L 36.601562 42.75 L 36.164062 44.089844 L 36.171875 44.054688 L 35.855469 45.425781 L 35.859375 45.390625 L 35.660156 46.785156 L 35.664062 46.75 L 35.585938 48.15625 L 35.585938 48.117188 L 35.625 49.527344 L 35.625 49.488281 L 35.785156 50.890625 L 35.78125 50.851562 L 36.0625 52.234375 L 36.054688 52.199219 L 36.453125 53.550781 L 36.441406 53.515625 L 36.953125 54.828125 L 36.941406 54.792969 L 37.566406 56.054688 L 37.546875 56.023438 L 38.277344 57.226562 L 38.257812 57.195312 L 39.089844 58.335938 L 39.066406 58.304688 L 39.992188 59.367188 C 40.152344 59.546875 40.132812 59.820312 39.953125 59.976562 C 39.769531 60.136719 39.496094 60.117188 39.339844 59.9375 Z M 39.339844 59.9375 " fill-opacity="1" fill-rule="nonzero"/></g><g clip-path="url(#71cb8e1b3c)"><path fill="#ffffff" d="M 66.195312 50.417969 C 66.378906 50.757812 67.476562 51.988281 67.714844 52.140625 C 67.71875 52.144531 67.695312 52.128906 67.652344 52.113281 C 67.542969 52.082031 67.464844 52.109375 67.492188 52.105469 C 67.785156 52.027344 69.128906 51.132812 69.316406 50.921875 C 69.324219 50.914062 69.300781 50.9375 69.277344 50.980469 C 69.382812 50.765625 69.640625 50.675781 69.855469 50.78125 C 70.074219 50.886719 70.160156 51.144531 70.058594 51.359375 C 70.027344 51.425781 69.984375 51.472656 69.960938 51.496094 C 69.6875 51.804688 68.203125 52.8125 67.714844 52.941406 C 67.671875 52.953125 67.542969 52.988281 67.398438 52.941406 C 67.332031 52.921875 67.277344 52.890625 67.246094 52.871094 C 66.863281 52.625 65.671875 51.273438 65.433594 50.832031 C 65.316406 50.621094 65.394531 50.359375 65.605469 50.246094 C 65.816406 50.128906 66.078125 50.207031 66.195312 50.417969 Z M 66.195312 50.417969 " fill-opacity="1" fill-rule="nonzero"/></g></svg>