<svg xmlns="http://www.w3.org/2000/svg" width="69" height="71" viewBox="0 0 69 71" fill="none">
  <path d="M62.0786 51.8909L49.6802 35.7522H56.0627C56.4654 35.7523 56.8601 35.638 57.2021 35.4224C57.5441 35.2067 57.8196 34.8984 57.9975 34.5322C58.1753 34.1661 58.2484 33.7567 58.2085 33.3506C58.1686 32.9445 58.0172 32.5578 57.7715 32.2344L36.209 3.83C36.0076 3.5648 35.7488 3.35003 35.4525 3.20224C35.1562 3.05444 34.8304 2.97758 34.5002 2.97758C34.1699 2.97758 33.8441 3.05444 33.5478 3.20224C33.2516 3.35003 32.9927 3.5648 32.7913 3.83L11.2288 32.2344C10.9832 32.5578 10.8318 32.9445 10.7918 33.3506C10.7519 33.7567 10.825 34.1661 11.0029 34.5322C11.1807 34.8984 11.4563 35.2067 11.7982 35.4224C12.1402 35.638 12.5349 35.7523 12.9377 35.7522H19.3094L6.91095 51.8909C6.6626 52.2146 6.50915 52.6025 6.46814 53.0104C6.42712 53.4183 6.5002 53.8297 6.67901 54.1975C6.85783 54.5653 7.13516 54.8747 7.47931 55.0903C7.82347 55.306 8.22055 55.4191 8.62517 55.4168H32.3439V66.3416C32.3439 66.9211 32.5711 67.4769 32.9755 67.8866C33.3798 68.2964 33.9283 68.5266 34.5002 68.5266C35.072 68.5266 35.6205 68.2964 36.0249 67.8866C36.4292 67.4769 36.6564 66.9211 36.6564 66.3416V55.4168H60.3752C60.7789 55.417 61.1745 55.3024 61.5171 55.086C61.8597 54.8695 62.1354 54.56 62.3129 54.1926C62.4904 53.8252 62.5625 53.4146 62.5211 53.0077C62.4797 52.6008 62.3264 52.2138 62.0786 51.8909ZM13.0347 51.0469L25.4331 34.9083C25.6815 34.5846 25.8349 34.1966 25.8759 33.7887C25.917 33.3808 25.8439 32.9694 25.6651 32.6016C25.4863 32.2338 25.2089 31.9244 24.8648 31.7088C24.5206 31.4932 24.1235 31.3801 23.7189 31.3823H17.3175L34.5002 8.74615L51.6828 31.3823H45.2814C44.8779 31.3826 44.4826 31.4976 44.1405 31.7143C43.7983 31.9309 43.523 32.2405 43.3458 32.6078C43.1686 32.9751 43.0967 33.3854 43.1382 33.7921C43.1798 34.1988 43.333 34.5855 43.5807 34.9083L55.9656 51.0469H13.0347Z" fill="white"/>
</svg>