<svg xmlns="http://www.w3.org/2000/svg" xmlns:xlink="http://www.w3.org/1999/xlink" width="140" zoomAndPan="magnify" viewBox="0 0 104.88 104.999996" height="140" preserveAspectRatio="xMidYMid meet" version="1.0"><defs><clipPath id="9ca6276be2"><path d="M 0 0.0585938 L 104.761719 0.0585938 L 104.761719 104.9375 L 0 104.9375 Z M 0 0.0585938 " clip-rule="nonzero"/></clipPath><clipPath id="d3653f111b"><path d="M 0 7.074219 L 104.761719 7.074219 L 104.761719 97.71875 L 0 97.71875 Z M 0 7.074219 " clip-rule="nonzero"/></clipPath><clipPath id="ccbab392ba"><path d="M 36 43 L 77.425781 43 L 77.425781 63 L 36 63 Z M 36 43 " clip-rule="nonzero"/></clipPath><clipPath id="c072607667"><path d="M 66 59 L 75 59 L 75 66.660156 L 66 66.660156 Z M 66 59 " clip-rule="nonzero"/></clipPath><clipPath id="d7ccc4636a"><path d="M 41 59 L 49 59 L 49 66.660156 L 41 66.660156 Z M 41 59 " clip-rule="nonzero"/></clipPath><clipPath id="fb10bddeb3"><path d="M 27.230469 38.195312 L 47 38.195312 L 47 58 L 27.230469 58 Z M 27.230469 38.195312 " clip-rule="nonzero"/></clipPath></defs><g clip-path="url(#9ca6276be2)"><path fill="#ffffff" d="M 0 0.0585938 L 104.878906 0.0585938 L 104.878906 104.941406 L 0 104.941406 Z M 0 0.0585938 " fill-opacity="1" fill-rule="nonzero"/><path fill="#ffffff" d="M 0 0.0585938 L 104.878906 0.0585938 L 104.878906 104.941406 L 0 104.941406 Z M 0 0.0585938 " fill-opacity="1" fill-rule="nonzero"/></g><g clip-path="url(#d3653f111b)"><path fill="#000040" d="M 26.21875 97.910156 L 0 52.496094 L 26.21875 7.082031 L 78.660156 7.082031 L 104.878906 52.496094 L 78.660156 97.910156 Z M 26.21875 97.910156 " fill-opacity="1" fill-rule="nonzero"/></g><g clip-path="url(#ccbab392ba)"><path fill="#ffffff" d="M 51.976562 59.878906 L 60.613281 59.878906 L 60.613281 60.558594 L 51.976562 60.558594 Z M 62.125 52.273438 L 62.808594 52.273438 L 62.808594 59.878906 L 64.589844 59.878906 C 64.6875 59.636719 64.871094 59.234375 65.164062 58.777344 C 65.636719 58.039062 66.402344 57.152344 67.574219 56.554688 C 68.277344 56.199219 69.125 55.953125 70.128906 55.90625 C 70.242188 55.902344 70.351562 55.898438 70.46875 55.898438 C 70.597656 55.898438 70.730469 55.898438 70.863281 55.90625 L 70.828125 56.585938 C 70.707031 56.582031 70.585938 56.578125 70.46875 56.578125 C 69.433594 56.578125 68.597656 56.804688 67.914062 57.148438 C 67.230469 57.488281 66.699219 57.945312 66.292969 58.40625 C 65.476562 59.332031 65.164062 60.285156 65.15625 60.320312 L 65.152344 60.320312 L 65.078125 60.558594 L 62.125 60.558594 Z M 62.464844 45.816406 L 68.226562 45.816406 L 72.703125 50.527344 L 62.464844 50.527344 Z M 46.902344 43.375 L 47.179688 43.425781 L 47.179688 43.734375 C 47.179688 44.003906 47.160156 45.855469 46.605469 48.148438 C 46.054688 50.433594 44.96875 53.171875 42.804688 55.171875 C 41.359375 56.503906 39.429688 57.496094 36.902344 57.789062 L 36.863281 57.792969 L 36.824219 57.789062 C 36.699219 57.773438 36.574219 57.757812 36.453125 57.738281 L 36.453125 62.039062 C 36.453125 62.1875 36.511719 62.320312 36.609375 62.417969 C 36.707031 62.515625 36.839844 62.574219 36.988281 62.574219 L 40.445312 62.574219 C 40.621094 60.210938 42.589844 58.347656 45 58.34375 C 47.410156 58.347656 49.378906 60.210938 49.554688 62.574219 L 66.292969 62.574219 C 66.46875 60.210938 68.4375 58.347656 70.847656 58.34375 C 73.253906 58.347656 75.226562 60.210938 75.402344 62.574219 L 77.644531 62.574219 L 77.644531 54.730469 L 75.988281 54.730469 L 75.988281 54.050781 L 77.644531 54.050781 L 77.644531 52.621094 C 73.863281 48.832031 69.367188 43.914062 68.652344 43.128906 L 45.960938 43.128906 C 46.515625 43.292969 46.867188 43.367188 46.902344 43.371094 L 46.902344 43.375 " fill-opacity="1" fill-rule="nonzero"/></g><g clip-path="url(#c072607667)"><path fill="#ffffff" d="M 70.847656 64.203125 C 70.132812 64.203125 69.554688 63.625 69.554688 62.914062 C 69.554688 62.199219 70.132812 61.621094 70.847656 61.621094 C 71.5625 61.621094 72.136719 62.199219 72.136719 62.914062 C 72.136719 63.625 71.5625 64.203125 70.847656 64.203125 Z M 70.847656 59.027344 C 69.773438 59.027344 68.804688 59.460938 68.097656 60.164062 C 67.394531 60.871094 66.960938 61.839844 66.960938 62.914062 C 66.960938 63.988281 67.394531 64.957031 68.097656 65.660156 C 68.804688 66.367188 69.773438 66.800781 70.847656 66.800781 C 71.921875 66.800781 72.890625 66.367188 73.597656 65.660156 C 74.300781 64.957031 74.734375 63.988281 74.734375 62.914062 C 74.734375 61.839844 74.300781 60.871094 73.597656 60.164062 C 72.890625 59.460938 71.921875 59.027344 70.847656 59.027344 " fill-opacity="1" fill-rule="nonzero"/></g><g clip-path="url(#d7ccc4636a)"><path fill="#ffffff" d="M 45 64.203125 C 44.289062 64.203125 43.707031 63.625 43.707031 62.914062 C 43.707031 62.199219 44.289062 61.621094 45 61.621094 C 45.714844 61.621094 46.292969 62.199219 46.292969 62.914062 C 46.292969 63.625 45.714844 64.203125 45 64.203125 Z M 45 59.027344 C 43.925781 59.027344 42.957031 59.460938 42.25 60.164062 C 41.546875 60.871094 41.113281 61.839844 41.113281 62.914062 C 41.113281 63.988281 41.546875 64.957031 42.25 65.660156 C 42.957031 66.367188 43.925781 66.800781 45 66.800781 C 46.074219 66.800781 47.042969 66.367188 47.75 65.660156 C 48.453125 64.957031 48.886719 63.988281 48.886719 62.914062 C 48.886719 61.839844 48.453125 60.871094 47.75 60.164062 C 47.042969 59.460938 46.074219 59.027344 45 59.027344 " fill-opacity="1" fill-rule="nonzero"/></g><g clip-path="url(#fb10bddeb3)"><path fill="#ffffff" d="M 38.160156 41.976562 C 39.425781 43.316406 40.933594 44.195312 42.183594 44.753906 C 43.21875 45.21875 44.078125 45.464844 44.5 45.570312 C 44.476562 46.238281 44.339844 48.070312 43.617188 49.910156 C 43.183594 51.011719 42.546875 52.109375 41.609375 52.980469 C 40.746094 53.78125 39.632812 54.390625 38.160156 54.640625 Z M 31.382812 54.671875 C 32.726562 55.90625 34.492188 56.824219 36.863281 57.105469 C 39.234375 56.824219 41 55.90625 42.339844 54.671875 C 43.6875 53.429688 44.605469 51.859375 45.222656 50.289062 C 46.308594 47.546875 46.472656 44.824219 46.492188 43.976562 C 45.953125 43.847656 44.664062 43.496094 43.105469 42.796875 C 41.140625 41.914062 38.738281 40.46875 36.863281 38.195312 C 34.988281 40.46875 32.585938 41.914062 30.617188 42.796875 C 29.058594 43.496094 27.773438 43.847656 27.230469 43.976562 C 27.246094 44.578125 27.335938 46.140625 27.78125 47.988281 C 28.3125 50.203125 29.363281 52.8125 31.382812 54.671875 " fill-opacity="1" fill-rule="nonzero"/></g></svg>