<svg width="48" height="48" viewBox="0 0 48 48" fill="none" xmlns="http://www.w3.org/2000/svg">
<circle cx="24" cy="24" r="24" fill="white"/>
<path fill-rule="evenodd" clip-rule="evenodd" d="M32.4762 20.2786C32.4836 20.4694 32.4861 20.6601 32.4861 20.8509C32.4861 26.6351 28.4172 33.3126 20.9765 33.3126C18.6909 33.3126 16.5656 32.5842 14.7749 31.3441C15.0914 31.3788 15.4129 31.4048 15.7393 31.4048C17.6344 31.4048 19.3799 30.7023 20.7644 29.5229C18.9943 29.4968 17.4996 28.2221 16.9841 26.4877C17.2316 26.5397 17.4864 26.5658 17.747 26.5658C18.1146 26.5658 18.4714 26.5138 18.8134 26.4098C16.961 26.0108 15.5658 24.2418 15.5658 22.1172C15.5658 22.0911 15.5658 22.0824 15.5658 22.0651C16.1118 22.3859 16.7366 22.5853 17.4001 22.6113C16.3132 21.8222 15.5987 20.478 15.5987 18.9604C15.5987 18.1626 15.7977 17.4081 16.1479 16.7577C18.1425 19.4113 21.1245 21.1544 24.4864 21.3366C24.4173 21.0157 24.382 20.6776 24.382 20.3394C24.382 17.9199 26.1932 15.96 28.4279 15.96C29.5912 15.96 30.642 16.489 31.3794 17.3389C32.3027 17.1481 33.1677 16.7839 33.9504 16.2809C33.647 17.3042 33.0065 18.1626 32.1695 18.7002C32.9884 18.5962 33.7695 18.3622 34.4938 18.0153C33.9504 18.8912 33.2663 19.6629 32.4762 20.2786Z" fill="#000040"/>
</svg>
