<svg width="48" height="48" viewBox="0 0 48 48" fill="none" xmlns="http://www.w3.org/2000/svg">
<circle cx="24" cy="24" r="24" fill="white"/>
<path fill-rule="evenodd" clip-rule="evenodd" d="M32.4765 20.2786C32.4839 20.4694 32.4863 20.6601 32.4863 20.8509C32.4863 26.6351 28.4174 33.3126 20.9768 33.3126C18.6911 33.3126 16.5658 32.5842 14.7751 31.3441C15.0917 31.3788 15.4132 31.4048 15.7396 31.4048C17.6347 31.4048 19.3801 30.7023 20.7647 29.5229C18.9945 29.4968 17.4998 28.2221 16.9843 26.4877C17.2318 26.5397 17.4867 26.5658 17.7473 26.5658C18.1148 26.5658 18.4716 26.5138 18.8136 26.4098C16.9613 26.0108 15.5661 24.2418 15.5661 22.1172C15.5661 22.0911 15.5661 22.0824 15.5661 22.0651C16.112 22.3859 16.7368 22.5853 17.4003 22.6113C16.3134 21.8222 15.5989 20.478 15.5989 18.9604C15.5989 18.1626 15.7979 17.4081 16.1482 16.7577C18.1427 19.4113 21.1248 21.1544 24.4866 21.3366C24.4176 21.0157 24.3822 20.6776 24.3822 20.3394C24.3822 17.9199 26.1934 15.96 28.4281 15.96C29.5915 15.96 30.6422 16.489 31.3797 17.3389C32.303 17.1481 33.1679 16.7839 33.9506 16.2809C33.6472 17.3042 33.0068 18.1626 32.1698 18.7002C32.9887 18.5962 33.7698 18.3622 34.4941 18.0153C33.9506 18.8912 33.2666 19.6629 32.4765 20.2786Z" fill="#7C0000"/>
</svg>
