<svg width="33" height="28" viewBox="0 0 33 28" fill="none" xmlns="http://www.w3.org/2000/svg">
<g id="twitter-black">
<path id="Twitter" d="M32.334 3.82385C31.1582 4.3593 29.8922 4.7214 28.5643 4.8832C29.9204 4.05113 30.961 2.73176 31.4512 1.16007C30.1815 1.9305 28.7784 2.491 27.2796 2.79147C26.085 1.48365 24.3777 0.666992 22.4881 0.666992C18.8649 0.666992 15.9255 3.68132 15.9255 7.39866C15.9255 7.92641 15.9818 8.43875 16.0945 8.93183C10.6381 8.65062 5.80161 5.97336 2.56161 1.89584C1.99625 2.89355 1.67319 4.05113 1.67319 5.28382C1.67319 7.61824 2.83208 9.67915 4.59389 10.8868C3.51952 10.8541 2.50526 10.5478 1.61872 10.047V10.1299C1.61872 13.3926 3.88203 16.1142 6.88725 16.7306C6.33692 16.8885 5.75654 16.9675 5.15737 16.9675C4.73476 16.9675 4.32154 16.927 3.92147 16.848C4.7573 19.5215 7.18026 21.4687 10.054 21.5207C7.8076 23.3274 4.97518 24.4041 1.90046 24.4041C1.37079 24.4041 0.84675 24.3733 0.333984 24.3116C3.23966 26.2185 6.69191 27.3337 10.3977 27.3337C22.475 27.3337 29.0771 17.0772 29.0771 8.18066C29.0771 7.88789 29.0714 7.59512 29.0602 7.30814C30.343 6.35858 31.4568 5.17403 32.334 3.82385Z" fill="#000040"/>
</g>
</svg>
