<svg xmlns="http://www.w3.org/2000/svg" xmlns:xlink="http://www.w3.org/1999/xlink" width="140" zoomAndPan="magnify" viewBox="0 0 104.88 104.999996" height="140" preserveAspectRatio="xMidYMid meet" version="1.0"><defs><clipPath id="a569d8506b"><path d="M 0 7.074219 L 104.761719 7.074219 L 104.761719 97.71875 L 0 97.71875 Z M 0 7.074219 " clip-rule="nonzero"/></clipPath><clipPath id="1a7fe14727"><path d="M 31.464844 31.523438 L 73.414062 31.523438 L 73.414062 73.476562 L 31.464844 73.476562 Z M 31.464844 31.523438 " clip-rule="nonzero"/></clipPath></defs><g clip-path="url(#a569d8506b)"><path fill="#ffffff" d="M 26.21875 97.710938 L 0 52.398438 L 26.21875 7.082031 L 78.660156 7.082031 L 104.878906 52.398438 L 78.660156 97.710938 Z M 26.21875 97.710938 " fill-opacity="1" fill-rule="nonzero"/></g><g clip-path="url(#1a7fe14727)"><path fill="#336699" d="M 52.441406 31.523438 C 52.207031 31.519531 51.980469 31.5625 51.761719 31.648438 C 51.546875 31.738281 51.355469 31.863281 51.1875 32.027344 C 51.019531 32.191406 50.894531 32.382812 50.800781 32.597656 C 50.710938 32.8125 50.667969 33.039062 50.667969 33.273438 C 50.667969 33.507812 50.710938 33.730469 50.800781 33.945312 C 50.894531 34.164062 51.019531 34.351562 51.1875 34.515625 C 51.355469 34.679688 51.546875 34.808594 51.761719 34.894531 C 51.980469 34.980469 52.207031 35.023438 52.441406 35.019531 C 62.113281 35.019531 69.921875 42.824219 69.921875 52.5 C 69.921875 62.175781 62.113281 69.980469 52.441406 69.980469 C 52.207031 69.976562 51.980469 70.019531 51.761719 70.105469 C 51.546875 70.191406 51.355469 70.320312 51.1875 70.484375 C 51.019531 70.648438 50.894531 70.835938 50.800781 71.054688 C 50.710938 71.269531 50.667969 71.492188 50.667969 71.726562 C 50.667969 71.960938 50.710938 72.1875 50.800781 72.402344 C 50.894531 72.617188 51.019531 72.808594 51.1875 72.972656 C 51.355469 73.136719 51.546875 73.261719 51.761719 73.351562 C 51.980469 73.4375 52.207031 73.480469 52.441406 73.476562 C 64.003906 73.476562 73.414062 64.0625 73.414062 52.5 C 73.414062 40.9375 64.003906 31.523438 52.441406 31.523438 Z M 45.09375 32.988281 C 44.859375 32.988281 44.632812 33.03125 44.414062 33.121094 C 44.199219 33.210938 44.011719 33.335938 43.847656 33.5 C 43.683594 33.664062 43.554688 33.851562 43.46875 34.066406 C 43.378906 34.28125 43.332031 34.503906 43.332031 34.734375 C 43.332031 34.964844 43.375 35.1875 43.464844 35.402344 C 43.554688 35.617188 43.679688 35.804688 43.84375 35.96875 C 44.007812 36.132812 44.195312 36.261719 44.410156 36.351562 C 44.625 36.4375 44.847656 36.484375 45.078125 36.484375 C 45.3125 36.484375 45.535156 36.441406 45.75 36.351562 C 45.960938 36.261719 46.152344 36.136719 46.316406 35.972656 C 46.480469 35.808594 46.605469 35.621094 46.695312 35.40625 C 46.785156 35.191406 46.828125 34.96875 46.832031 34.738281 C 46.832031 34.503906 46.785156 34.28125 46.699219 34.066406 C 46.5625 33.742188 46.351562 33.480469 46.058594 33.285156 C 45.765625 33.089844 45.445312 32.992188 45.09375 32.988281 Z M 38.867188 37.15625 C 38.378906 37.152344 37.957031 37.320312 37.609375 37.667969 C 37.445312 37.832031 37.320312 38.023438 37.230469 38.238281 C 37.140625 38.449219 37.097656 38.671875 37.097656 38.90625 C 37.097656 39.136719 37.140625 39.359375 37.230469 39.574219 C 37.320312 39.789062 37.445312 39.976562 37.609375 40.140625 C 37.773438 40.304688 37.960938 40.429688 38.175781 40.519531 C 38.390625 40.609375 38.613281 40.652344 38.84375 40.652344 C 39.078125 40.652344 39.300781 40.609375 39.515625 40.519531 C 39.726562 40.429688 39.917969 40.304688 40.082031 40.140625 C 40.246094 39.976562 40.371094 39.789062 40.460938 39.574219 C 40.546875 39.359375 40.59375 39.136719 40.59375 38.90625 C 40.59375 38.671875 40.546875 38.449219 40.460938 38.238281 C 40.371094 38.023438 40.246094 37.832031 40.082031 37.667969 C 39.746094 37.335938 39.34375 37.164062 38.867188 37.15625 Z M 34.714844 43.394531 C 34.355469 43.386719 34.023438 43.480469 33.722656 43.679688 C 33.417969 43.875 33.199219 44.140625 33.0625 44.472656 C 32.972656 44.6875 32.929688 44.910156 32.929688 45.140625 C 32.929688 45.375 32.972656 45.597656 33.0625 45.8125 C 33.148438 46.027344 33.277344 46.214844 33.441406 46.378906 C 33.605469 46.542969 33.792969 46.667969 34.007812 46.757812 C 34.222656 46.847656 34.445312 46.890625 34.675781 46.890625 C 34.910156 46.890625 35.132812 46.84375 35.347656 46.757812 C 35.558594 46.667969 35.75 46.539062 35.914062 46.375 C 36.078125 46.210938 36.203125 46.023438 36.292969 45.808594 C 36.378906 45.59375 36.425781 45.371094 36.425781 45.140625 C 36.425781 44.90625 36.378906 44.683594 36.289062 44.46875 C 36.203125 44.253906 36.074219 44.066406 35.910156 43.902344 C 35.746094 43.738281 35.558594 43.613281 35.34375 43.523438 C 35.140625 43.441406 34.933594 43.398438 34.714844 43.394531 Z M 62.894531 45.492188 C 62.421875 45.503906 62.019531 45.679688 61.691406 46.019531 L 50.691406 57.019531 L 46.683594 53.011719 C 46.519531 52.84375 46.332031 52.710938 46.117188 52.617188 C 45.902344 52.523438 45.675781 52.476562 45.441406 52.476562 C 45.207031 52.472656 44.980469 52.515625 44.761719 52.605469 C 44.542969 52.691406 44.351562 52.820312 44.1875 52.988281 C 44.019531 53.152344 43.894531 53.34375 43.804688 53.5625 C 43.714844 53.78125 43.671875 54.003906 43.675781 54.242188 C 43.675781 54.476562 43.726562 54.699219 43.816406 54.917969 C 43.910156 55.132812 44.042969 55.320312 44.210938 55.484375 L 49.457031 60.726562 C 49.621094 60.890625 49.808594 61.019531 50.023438 61.105469 C 50.238281 61.195312 50.460938 61.238281 50.691406 61.238281 C 50.921875 61.238281 51.148438 61.195312 51.359375 61.105469 C 51.574219 61.019531 51.765625 60.890625 51.929688 60.726562 L 64.164062 48.492188 C 64.421875 48.242188 64.585938 47.9375 64.660156 47.585938 C 64.730469 47.230469 64.695312 46.890625 64.554688 46.558594 C 64.414062 46.226562 64.191406 45.960938 63.890625 45.765625 C 63.585938 45.574219 63.253906 45.480469 62.894531 45.492188 Z M 33.210938 50.753906 C 32.980469 50.753906 32.757812 50.796875 32.542969 50.886719 C 32.328125 50.972656 32.140625 51.101562 31.976562 51.265625 C 31.8125 51.429688 31.6875 51.617188 31.597656 51.832031 C 31.507812 52.046875 31.464844 52.269531 31.464844 52.5 C 31.464844 52.730469 31.507812 52.953125 31.597656 53.167969 C 31.6875 53.382812 31.8125 53.570312 31.976562 53.734375 C 32.140625 53.898438 32.328125 54.027344 32.542969 54.113281 C 32.757812 54.203125 32.980469 54.246094 33.210938 54.246094 C 33.445312 54.246094 33.667969 54.203125 33.882812 54.113281 C 34.09375 54.027344 34.285156 53.898438 34.449219 53.734375 C 34.613281 53.570312 34.738281 53.382812 34.828125 53.167969 C 34.914062 52.953125 34.960938 52.730469 34.960938 52.5 C 34.960938 52.269531 34.914062 52.046875 34.828125 51.832031 C 34.738281 51.617188 34.613281 51.429688 34.449219 51.265625 C 34.285156 51.101562 34.09375 50.972656 33.882812 50.886719 C 33.667969 50.796875 33.445312 50.753906 33.210938 50.753906 Z M 34.6875 58.109375 C 34.453125 58.109375 34.226562 58.152344 34.007812 58.242188 C 33.792969 58.332031 33.605469 58.457031 33.441406 58.621094 C 33.277344 58.785156 33.148438 58.972656 33.0625 59.1875 C 32.972656 59.402344 32.929688 59.625 32.929688 59.859375 C 32.929688 60.089844 32.972656 60.3125 33.0625 60.527344 C 33.148438 60.742188 33.277344 60.929688 33.441406 61.09375 C 33.605469 61.257812 33.792969 61.386719 34.007812 61.472656 C 34.222656 61.5625 34.445312 61.609375 34.675781 61.609375 C 34.910156 61.609375 35.132812 61.5625 35.347656 61.476562 C 35.558594 61.386719 35.75 61.261719 35.914062 61.097656 C 36.078125 60.933594 36.203125 60.742188 36.292969 60.53125 C 36.378906 60.316406 36.425781 60.09375 36.425781 59.859375 C 36.425781 59.628906 36.378906 59.40625 36.292969 59.191406 C 36.15625 58.867188 35.945312 58.605469 35.652344 58.40625 C 35.359375 58.210938 35.039062 58.113281 34.6875 58.109375 Z M 38.867188 64.347656 C 38.378906 64.339844 37.957031 64.511719 37.609375 64.859375 C 37.445312 65.023438 37.320312 65.210938 37.230469 65.425781 C 37.140625 65.640625 37.097656 65.863281 37.097656 66.09375 C 37.097656 66.328125 37.140625 66.550781 37.230469 66.761719 C 37.320312 66.976562 37.445312 67.167969 37.609375 67.332031 C 37.773438 67.496094 37.960938 67.621094 38.175781 67.710938 C 38.390625 67.796875 38.613281 67.84375 38.84375 67.84375 C 39.078125 67.84375 39.300781 67.796875 39.515625 67.710938 C 39.726562 67.621094 39.917969 67.496094 40.082031 67.332031 C 40.246094 67.167969 40.371094 66.976562 40.460938 66.761719 C 40.546875 66.550781 40.59375 66.328125 40.59375 66.09375 C 40.59375 65.863281 40.546875 65.640625 40.460938 65.425781 C 40.371094 65.210938 40.246094 65.023438 40.082031 64.859375 C 39.746094 64.523438 39.34375 64.351562 38.867188 64.347656 Z M 45.121094 68.515625 C 44.761719 68.507812 44.429688 68.601562 44.128906 68.800781 C 43.824219 68.996094 43.605469 69.261719 43.46875 69.59375 C 43.378906 69.808594 43.335938 70.03125 43.335938 70.261719 C 43.335938 70.496094 43.378906 70.71875 43.46875 70.933594 C 43.554688 71.144531 43.683594 71.335938 43.847656 71.5 C 44.011719 71.664062 44.199219 71.789062 44.414062 71.878906 C 44.628906 71.96875 44.851562 72.011719 45.082031 72.011719 C 45.3125 72.011719 45.539062 71.96875 45.75 71.878906 C 45.964844 71.789062 46.15625 71.664062 46.320312 71.5 C 46.484375 71.335938 46.609375 71.148438 46.699219 70.933594 C 46.785156 70.71875 46.832031 70.496094 46.832031 70.261719 C 46.832031 70.03125 46.785156 69.808594 46.699219 69.59375 C 46.609375 69.378906 46.484375 69.191406 46.320312 69.027344 C 46.15625 68.863281 45.964844 68.738281 45.75 68.648438 C 45.550781 68.566406 45.339844 68.519531 45.121094 68.515625 Z M 45.121094 68.515625 " fill-opacity="1" fill-rule="nonzero"/></g></svg>