<svg width="33" height="29" viewBox="0 0 33 29" fill="none" xmlns="http://www.w3.org/2000/svg">
<g id="vimeo-black">
<path id="Vimeo" d="M32.6499 7.14068C32.5107 10.2963 30.3319 14.6099 26.1286 20.0836C21.7785 25.8071 18.0926 28.667 15.0803 28.667C13.2176 28.667 11.639 26.927 10.3502 23.4357C9.48657 20.2324 8.62859 17.0291 7.76686 13.8353C6.80729 10.3421 5.77998 8.59637 4.68117 8.59637C4.44222 8.59637 3.60871 9.10577 2.17123 10.1265L0.666016 8.15947C2.24273 6.7572 3.79686 5.34921 5.3303 3.94503C7.43007 2.10204 9.00866 1.13476 10.0623 1.03364C12.5459 0.789435 14.0775 2.51223 14.6551 6.19629C15.2703 10.1742 15.7031 12.6467 15.942 13.6159C16.6608 16.9127 17.4473 18.5573 18.309 18.5573C18.9769 18.5573 19.9817 17.4927 21.3213 15.3616C22.6609 13.2267 23.374 11.6051 23.4719 10.4871C23.6638 8.64407 22.9469 7.7283 21.3213 7.7283C20.5555 7.7283 19.7653 7.89237 18.9544 8.23579C20.5348 3.04833 23.5453 0.526151 27.9932 0.673056C31.2877 0.766541 32.8437 2.92623 32.6499 7.14068Z" fill="#000040"/>
</g>
</svg>
