<svg xmlns="http://www.w3.org/2000/svg" xmlns:xlink="http://www.w3.org/1999/xlink" width="140" zoomAndPan="magnify" viewBox="0 0 104.88 104.999996" height="140" preserveAspectRatio="xMidYMid meet" version="1.0"><defs><clipPath id="f151284109"><path d="M 0 7.074219 L 104.761719 7.074219 L 104.761719 97.71875 L 0 97.71875 Z M 0 7.074219 " clip-rule="nonzero"/></clipPath><clipPath id="b9ee5e27c0"><path d="M 31.464844 31.523438 L 73.414062 31.523438 L 73.414062 73.476562 L 31.464844 73.476562 Z M 31.464844 31.523438 " clip-rule="nonzero"/></clipPath></defs><g clip-path="url(#f151284109)"><path fill="#000040" d="M 26.21875 97.910156 L 0 52.496094 L 26.21875 7.082031 L 78.660156 7.082031 L 104.878906 52.496094 L 78.660156 97.910156 Z M 26.21875 97.910156 " fill-opacity="1" fill-rule="nonzero"/></g><g clip-path="url(#b9ee5e27c0)"><path fill="#ffffff" d="M 51.058594 31.523438 C 40.25 31.523438 31.464844 40.308594 31.464844 51.121094 C 31.464844 61.929688 40.25 70.714844 51.058594 70.714844 C 52.894531 70.714844 54.683594 70.449219 56.402344 69.964844 L 56.402344 66.527344 C 55.070312 67.8125 53.5625 68.636719 51.949219 68.863281 L 51.949219 61.808594 L 56.402344 61.808594 L 56.402344 60.027344 L 51.949219 60.027344 L 51.949219 52.011719 L 56.402344 52.011719 L 56.402344 50.230469 L 51.949219 50.230469 L 51.949219 42.210938 L 60.296875 42.210938 C 61.09375 44.511719 61.597656 47.128906 61.710938 49.925781 L 62.636719 50.800781 L 63.519531 51.621094 L 63.933594 52.011719 L 68.84375 52.011719 C 68.773438 53.371094 68.558594 54.707031 68.1875 56 L 69.628906 57.351562 C 70.300781 55.355469 70.65625 53.261719 70.65625 51.121094 C 70.65625 40.308594 61.871094 31.523438 51.058594 31.523438 Z M 50.167969 33.378906 L 50.167969 40.429688 L 42.546875 40.429688 C 42.878906 39.695312 43.234375 38.996094 43.628906 38.363281 C 45.40625 35.492188 47.699219 33.726562 50.167969 33.378906 Z M 51.949219 33.378906 C 55.070312 33.808594 57.808594 36.480469 59.589844 40.429688 L 51.949219 40.429688 Z M 57.738281 34.601562 C 60.765625 35.824219 63.371094 37.859375 65.300781 40.429688 L 61.496094 40.429688 C 60.523438 38.089844 59.238281 36.101562 57.738281 34.601562 Z M 44.3125 34.632812 C 43.507812 35.445312 42.765625 36.375 42.113281 37.425781 C 41.542969 38.347656 41.035156 39.355469 40.59375 40.429688 L 36.824219 40.429688 C 38.742188 37.878906 41.316406 35.859375 44.3125 34.632812 Z M 35.644531 42.210938 L 39.941406 42.210938 C 39.160156 44.640625 38.699219 47.355469 38.617188 50.230469 L 33.265625 50.230469 C 33.414062 47.3125 34.265625 44.59375 35.644531 42.210938 Z M 41.828125 42.210938 L 50.167969 42.210938 L 50.167969 50.230469 L 40.398438 50.230469 C 40.484375 47.3125 40.992188 44.585938 41.828125 42.210938 Z M 62.152344 42.210938 L 66.488281 42.210938 C 67.863281 44.59375 68.707031 47.316406 68.847656 50.230469 L 63.5 50.230469 C 63.417969 47.351562 62.945312 44.636719 62.152344 42.210938 Z M 33.265625 52.011719 L 38.617188 52.011719 C 38.699219 54.882812 39.160156 57.597656 39.941406 60.027344 L 35.644531 60.027344 C 34.265625 57.648438 33.414062 54.925781 33.265625 52.011719 Z M 40.398438 52.011719 L 50.167969 52.011719 L 50.167969 60.027344 L 41.828125 60.027344 C 40.992188 57.652344 40.484375 54.925781 40.398438 52.011719 Z M 59.925781 52.011719 C 59.453125 52.035156 59.074219 52.425781 59.074219 52.902344 L 59.074219 70.046875 C 59.074219 70.410156 59.292969 70.730469 59.625 70.867188 C 59.960938 71.007812 60.34375 70.929688 60.597656 70.675781 L 63.277344 67.992188 L 65.515625 72.867188 C 65.722656 73.3125 66.25 73.507812 66.699219 73.304688 L 70.136719 71.730469 C 70.582031 71.527344 70.777344 70.996094 70.570312 70.546875 L 68.25 65.480469 L 72.4375 65.480469 C 72.800781 65.480469 73.132812 65.257812 73.265625 64.917969 C 73.398438 64.578125 73.3125 64.191406 73.046875 63.941406 L 60.574219 52.25 C 60.398438 52.085938 60.164062 52 59.925781 52.011719 Z M 60.855469 54.957031 L 70.183594 63.699219 L 66.980469 63.699219 C 66.839844 63.699219 66.707031 63.730469 66.582031 63.792969 L 66.488281 63.84375 C 66.058594 64.058594 65.875 64.574219 66.074219 65.007812 L 68.582031 70.476562 L 66.761719 71.3125 L 64.363281 66.082031 C 64.246094 65.820312 64 65.632812 63.714844 65.578125 C 63.425781 65.527344 63.132812 65.621094 62.925781 65.828125 L 60.855469 67.898438 Z M 36.824219 61.808594 L 40.59375 61.808594 C 41.035156 62.882812 41.542969 63.890625 42.113281 64.8125 C 42.765625 65.863281 43.507812 66.792969 44.3125 67.605469 C 41.316406 66.378906 38.742188 64.359375 36.824219 61.808594 Z M 42.546875 61.808594 L 50.167969 61.808594 L 50.167969 68.859375 C 47.699219 68.511719 45.40625 66.746094 43.628906 63.878906 C 43.234375 63.242188 42.878906 62.542969 42.546875 61.808594 Z M 42.546875 61.808594 " fill-opacity="1" fill-rule="nonzero"/></g></svg>