<svg width="32" height="23" viewBox="0 0 32 23" fill="none" xmlns="http://www.w3.org/2000/svg">
<g id="youtube-black">
<path id="Youtube" fill-rule="evenodd" clip-rule="evenodd" d="M30.408 2.02416C31.367 3.00205 31.68 5.22269 31.68 5.22269C31.68 5.22269 32 7.83107 32 10.4384V12.8837C32 15.492 31.68 18.0994 31.68 18.0994C31.68 18.0994 31.367 20.32 30.408 21.2979C29.3116 22.4547 28.0959 22.5743 27.4087 22.6418C27.3331 22.6493 27.2639 22.6561 27.202 22.6635C22.724 22.9898 16 22.9999 16 22.9999C16 22.9999 7.68 22.9234 5.12 22.6756C4.99871 22.6528 4.85168 22.6351 4.68517 22.6149C3.87427 22.517 2.60151 22.3632 1.591 21.2979C0.632 20.32 0.32 18.0994 0.32 18.0994C0.32 18.0994 0 15.492 0 12.8837V10.4384C0 7.83107 0.32 5.22269 0.32 5.22269C0.32 5.22269 0.632 3.00205 1.591 2.02416C2.68986 0.865717 3.90674 0.747485 4.59398 0.680714C4.66848 0.673475 4.73677 0.66684 4.798 0.659551C9.276 0.333252 15.993 0.333252 15.993 0.333252H16.007C16.007 0.333252 22.724 0.333252 27.202 0.659551C27.2632 0.666851 27.3315 0.673495 27.4061 0.680747C28.0928 0.747524 29.3102 0.865905 30.408 2.02416ZM12.6953 6.79142L12.6963 15.8462L21.3413 11.3344L12.6953 6.79142Z" fill="#000040"/>
</g>
</svg>
