<svg xmlns="http://www.w3.org/2000/svg" xmlns:xlink="http://www.w3.org/1999/xlink" width="140" zoomAndPan="magnify" viewBox="0 0 104.88 104.999996" height="140" preserveAspectRatio="xMidYMid meet" version="1.0"><defs><clipPath id="f60e03aec4"><path d="M 0 7.074219 L 104.761719 7.074219 L 104.761719 97.71875 L 0 97.71875 Z M 0 7.074219 " clip-rule="nonzero"/></clipPath><clipPath id="495bec0055"><path d="M 43 31.523438 L 62 31.523438 L 62 68 L 43 68 Z M 43 31.523438 " clip-rule="nonzero"/></clipPath><clipPath id="61df48938c"><path d="M 31.464844 58 L 73.414062 58 L 73.414062 73.476562 L 31.464844 73.476562 Z M 31.464844 58 " clip-rule="nonzero"/></clipPath></defs><g clip-path="url(#f60e03aec4)"><path fill="#000040" d="M 26.21875 97.910156 L 0 52.496094 L 26.21875 7.082031 L 78.660156 7.082031 L 104.878906 52.496094 L 78.660156 97.910156 Z M 26.21875 97.910156 " fill-opacity="1" fill-rule="nonzero"/></g><g clip-path="url(#495bec0055)"><path fill="#ffffff" d="M 51.289062 66.945312 C 51.304688 66.960938 51.324219 66.96875 51.339844 66.984375 C 51.441406 67.089844 51.554688 67.179688 51.683594 67.25 C 51.730469 67.285156 51.78125 67.316406 51.832031 67.347656 C 52.238281 67.539062 52.644531 67.539062 53.050781 67.347656 C 53.101562 67.316406 53.148438 67.285156 53.195312 67.25 C 53.324219 67.179688 53.4375 67.089844 53.539062 66.984375 C 53.554688 66.96875 53.578125 66.960938 53.589844 66.945312 L 61.082031 57.953125 C 61.210938 57.800781 61.304688 57.632812 61.363281 57.441406 C 61.421875 57.25 61.441406 57.058594 61.425781 56.859375 C 61.40625 56.660156 61.351562 56.472656 61.257812 56.296875 C 61.167969 56.121094 61.042969 55.96875 60.890625 55.84375 C 60.738281 55.714844 60.566406 55.621094 60.378906 55.5625 C 60.1875 55.503906 59.996094 55.484375 59.796875 55.5 C 59.597656 55.519531 59.410156 55.574219 59.234375 55.667969 C 59.058594 55.757812 58.90625 55.882812 58.78125 56.035156 L 53.9375 61.84375 L 53.9375 33.023438 C 53.9375 32.824219 53.898438 32.632812 53.824219 32.449219 C 53.75 32.265625 53.640625 32.101562 53.5 31.960938 C 53.359375 31.824219 53.195312 31.714844 53.011719 31.636719 C 52.828125 31.5625 52.640625 31.523438 52.441406 31.523438 C 52.242188 31.523438 52.050781 31.5625 51.867188 31.636719 C 51.683594 31.714844 51.519531 31.824219 51.378906 31.960938 C 51.238281 32.101562 51.132812 32.265625 51.054688 32.449219 C 50.980469 32.632812 50.941406 32.824219 50.941406 33.023438 L 50.941406 61.84375 L 46.097656 56.035156 C 45.972656 55.882812 45.820312 55.757812 45.644531 55.667969 C 45.46875 55.574219 45.28125 55.519531 45.082031 55.5 C 44.886719 55.484375 44.691406 55.503906 44.5 55.5625 C 44.3125 55.621094 44.140625 55.714844 43.988281 55.84375 C 43.835938 55.96875 43.710938 56.121094 43.621094 56.296875 C 43.527344 56.472656 43.472656 56.660156 43.453125 56.859375 C 43.4375 57.058594 43.457031 57.25 43.515625 57.441406 C 43.578125 57.632812 43.671875 57.800781 43.796875 57.953125 Z M 51.289062 66.945312 " fill-opacity="1" fill-rule="nonzero"/></g><g clip-path="url(#61df48938c)"><path fill="#ffffff" d="M 71.917969 58.492188 C 71.71875 58.492188 71.527344 58.53125 71.34375 58.605469 C 71.160156 58.683594 71 58.792969 70.859375 58.933594 C 70.71875 59.074219 70.609375 59.234375 70.535156 59.417969 C 70.457031 59.601562 70.417969 59.792969 70.417969 59.992188 L 70.417969 68.980469 C 70.417969 69.179688 70.382812 69.371094 70.304688 69.554688 C 70.230469 69.738281 70.121094 69.898438 69.980469 70.039062 C 69.839844 70.179688 69.679688 70.289062 69.496094 70.363281 C 69.3125 70.441406 69.121094 70.480469 68.921875 70.480469 L 35.957031 70.480469 C 35.761719 70.480469 35.570312 70.441406 35.386719 70.363281 C 35.203125 70.289062 35.039062 70.179688 34.898438 70.039062 C 34.757812 69.898438 34.652344 69.738281 34.574219 69.554688 C 34.5 69.371094 34.460938 69.179688 34.460938 68.980469 L 34.460938 59.992188 C 34.460938 59.792969 34.421875 59.601562 34.347656 59.417969 C 34.269531 59.234375 34.164062 59.074219 34.023438 58.933594 C 33.882812 58.792969 33.71875 58.683594 33.535156 58.605469 C 33.351562 58.53125 33.160156 58.492188 32.960938 58.492188 C 32.761719 58.492188 32.574219 58.53125 32.390625 58.605469 C 32.207031 58.683594 32.042969 58.792969 31.902344 58.933594 C 31.761719 59.074219 31.652344 59.234375 31.578125 59.417969 C 31.503906 59.601562 31.464844 59.792969 31.464844 59.992188 L 31.464844 68.980469 C 31.464844 69.277344 31.492188 69.570312 31.550781 69.859375 C 31.609375 70.148438 31.695312 70.429688 31.808594 70.699219 C 31.921875 70.972656 32.058594 71.230469 32.222656 71.476562 C 32.386719 71.722656 32.574219 71.949219 32.78125 72.15625 C 32.992188 72.367188 33.21875 72.554688 33.460938 72.71875 C 33.707031 72.882812 33.96875 73.019531 34.238281 73.132812 C 34.511719 73.246094 34.792969 73.332031 35.082031 73.390625 C 35.371094 73.445312 35.664062 73.476562 35.957031 73.476562 L 68.921875 73.476562 C 69.214844 73.476562 69.507812 73.445312 69.796875 73.390625 C 70.085938 73.332031 70.367188 73.246094 70.640625 73.132812 C 70.914062 73.019531 71.171875 72.882812 71.417969 72.71875 C 71.664062 72.554688 71.890625 72.367188 72.097656 72.15625 C 72.308594 71.949219 72.492188 71.722656 72.65625 71.476562 C 72.820312 71.230469 72.960938 70.972656 73.074219 70.699219 C 73.1875 70.429688 73.269531 70.148438 73.328125 69.859375 C 73.386719 69.570312 73.414062 69.277344 73.414062 68.980469 L 73.414062 59.992188 C 73.414062 59.792969 73.378906 59.601562 73.300781 59.417969 C 73.226562 59.234375 73.117188 59.074219 72.976562 58.933594 C 72.835938 58.792969 72.675781 58.683594 72.492188 58.605469 C 72.308594 58.53125 72.117188 58.492188 71.917969 58.492188 Z M 71.917969 58.492188 " fill-opacity="1" fill-rule="nonzero"/></g></svg>