<svg xmlns="http://www.w3.org/2000/svg" xmlns:xlink="http://www.w3.org/1999/xlink" width="140" zoomAndPan="magnify" viewBox="0 0 104.88 104.999996" height="140" preserveAspectRatio="xMidYMid meet" version="1.0"><defs><clipPath id="e425ee4c74"><path d="M 0 7.074219 L 104.761719 7.074219 L 104.761719 97.71875 L 0 97.71875 Z M 0 7.074219 " clip-rule="nonzero"/></clipPath><clipPath id="68c266929a"><path d="M 57.976562 33.921875 L 72.914062 33.921875 L 72.914062 73.472656 L 57.976562 73.472656 Z M 57.976562 33.921875 " clip-rule="nonzero"/></clipPath><clipPath id="932276df77"><path d="M 32 31.523438 L 52 31.523438 L 52 73 L 32 73 Z M 32 31.523438 " clip-rule="nonzero"/></clipPath></defs><g clip-path="url(#e425ee4c74)"><path fill="#ffffff" d="M 26.21875 97.710938 L 0 52.398438 L 26.21875 7.082031 L 78.660156 7.082031 L 104.878906 52.398438 L 78.660156 97.710938 Z M 26.21875 97.710938 " fill-opacity="1" fill-rule="nonzero"/></g><g clip-path="url(#68c266929a)"><path fill="#000040" d="M 72.914062 53.117188 C 72.914062 47.78125 70.839844 42.765625 67.066406 38.996094 C 64.6875 36.617188 61.738281 34.871094 58.527344 33.9375 C 58.304688 33.875 58.070312 34.003906 58.007812 34.226562 C 57.941406 34.449219 58.070312 34.683594 58.292969 34.746094 C 61.367188 35.636719 64.195312 37.3125 66.472656 39.589844 C 70.085938 43.203125 72.074219 48.007812 72.074219 53.117188 C 72.074219 58.226562 70.085938 63.027344 66.472656 66.640625 C 64.496094 68.617188 62.1875 70.097656 59.597656 71.054688 L 60.863281 68.605469 L 60.261719 68.296875 L 58.410156 71.886719 L 62.128906 73.472656 L 62.394531 72.855469 L 59.960938 71.816406 C 62.636719 70.820312 65.023438 69.28125 67.066406 67.238281 C 70.839844 63.464844 72.914062 58.449219 72.914062 53.117188 " fill-opacity="1" fill-rule="nonzero"/></g><g clip-path="url(#932276df77)"><path fill="#000040" d="M 50.703125 72.113281 C 46.394531 71.609375 42.492188 69.714844 39.421875 66.640625 C 31.960938 59.183594 31.960938 47.046875 39.417969 39.589844 C 42.15625 36.855469 45.574219 35.046875 49.34375 34.328125 L 47.695312 36.535156 L 48.234375 36.941406 L 50.652344 33.703125 L 47.25 31.523438 L 46.886719 32.089844 L 49.113281 33.515625 C 45.207031 34.273438 41.660156 36.160156 38.824219 38.996094 C 35.054688 42.765625 32.976562 47.78125 32.976562 53.117188 C 32.976562 58.449219 35.054688 63.464844 38.824219 67.238281 C 40.441406 68.851562 42.296875 70.164062 44.339844 71.140625 C 46.3125 72.085938 48.421875 72.691406 50.605469 72.949219 C 50.621094 72.949219 50.636719 72.953125 50.652344 72.953125 C 50.863281 72.953125 51.046875 72.792969 51.070312 72.578125 C 51.097656 72.347656 50.933594 72.140625 50.703125 72.113281 " fill-opacity="1" fill-rule="nonzero"/></g><path fill="#000040" d="M 52.945312 47.5 C 54.347656 47.5 55.492188 48.640625 55.492188 50.042969 C 55.492188 51.449219 54.347656 52.589844 52.945312 52.589844 C 51.542969 52.589844 50.398438 51.449219 50.398438 50.042969 C 50.398438 48.640625 51.542969 47.5 52.945312 47.5 Z M 49.558594 50.042969 C 49.558594 51.910156 51.078125 53.429688 52.945312 53.429688 C 54.8125 53.429688 56.332031 51.910156 56.332031 50.042969 C 56.332031 48.175781 54.8125 46.65625 52.945312 46.65625 C 51.078125 46.65625 49.558594 48.175781 49.558594 50.042969 " fill-opacity="1" fill-rule="nonzero"/><path fill="#000040" d="M 41.523438 48.203125 C 41.523438 46.796875 42.667969 45.65625 44.070312 45.65625 C 45.472656 45.65625 46.613281 46.796875 46.613281 48.203125 C 46.613281 49.605469 45.472656 50.746094 44.070312 50.746094 C 42.667969 50.746094 41.523438 49.605469 41.523438 48.203125 Z M 47.457031 48.203125 C 47.457031 46.332031 45.9375 44.816406 44.070312 44.816406 C 42.203125 44.816406 40.683594 46.332031 40.683594 48.203125 C 40.683594 50.070312 42.203125 51.585938 44.070312 51.585938 C 45.9375 51.585938 47.457031 50.070312 47.457031 48.203125 " fill-opacity="1" fill-rule="nonzero"/><path fill="#000040" d="M 61.820312 52.582031 C 63.304688 52.582031 64.699219 53.160156 65.75 54.210938 C 66.796875 55.257812 67.375 56.652344 67.375 58.136719 L 67.375 58.734375 L 59.21875 58.734375 C 58.972656 57.492188 58.375 56.363281 57.46875 55.457031 C 57.359375 55.351562 57.25 55.25 57.136719 55.152344 C 58.15625 53.558594 59.917969 52.582031 61.820312 52.582031 Z M 58.5 60.574219 L 47.390625 60.574219 L 47.390625 59.980469 C 47.390625 59.722656 47.410156 59.464844 47.445312 59.210938 C 47.644531 57.765625 48.394531 56.476562 49.554688 55.582031 C 50.535156 54.824219 51.707031 54.425781 52.945312 54.425781 C 54.183594 54.425781 55.355469 54.824219 56.335938 55.582031 C 56.523438 55.726562 56.703125 55.882812 56.871094 56.054688 C 57.734375 56.917969 58.28125 58.007812 58.445312 59.210938 C 58.480469 59.464844 58.5 59.722656 58.5 59.980469 Z M 38.515625 58.136719 C 38.515625 55.074219 41.007812 52.582031 44.070312 52.582031 C 45.554688 52.582031 46.945312 53.160156 47.996094 54.210938 C 48.28125 54.496094 48.535156 54.8125 48.753906 55.152344 C 47.675781 56.085938 46.949219 57.335938 46.671875 58.734375 L 38.515625 58.734375 Z M 56.464844 54.640625 C 55.421875 53.949219 54.214844 53.585938 52.945312 53.585938 C 51.675781 53.585938 50.46875 53.949219 49.425781 54.640625 C 49.183594 54.273438 48.902344 53.929688 48.589844 53.613281 C 47.382812 52.40625 45.777344 51.742188 44.070312 51.742188 C 40.542969 51.742188 37.675781 54.609375 37.675781 58.136719 L 37.675781 59.152344 C 37.675781 59.386719 37.863281 59.574219 38.09375 59.574219 L 46.5625 59.574219 C 46.554688 59.710938 46.550781 59.84375 46.550781 59.980469 L 46.550781 60.996094 C 46.550781 61.230469 46.738281 61.417969 46.972656 61.417969 L 58.917969 61.417969 C 59.152344 61.417969 59.339844 61.230469 59.339844 60.996094 L 59.339844 59.980469 C 59.339844 59.84375 59.335938 59.710938 59.328125 59.574219 L 67.796875 59.574219 C 68.027344 59.574219 68.214844 59.386719 68.214844 59.152344 L 68.214844 58.136719 C 68.214844 56.429688 67.550781 54.824219 66.34375 53.613281 C 65.136719 52.40625 63.53125 51.742188 61.820312 51.742188 C 59.652344 51.742188 57.640625 52.84375 56.464844 54.640625 " fill-opacity="1" fill-rule="nonzero"/><path fill="#000040" d="M 59.277344 48.203125 C 59.277344 46.796875 60.417969 45.65625 61.820312 45.65625 C 63.226562 45.65625 64.367188 46.796875 64.367188 48.203125 C 64.367188 49.605469 63.226562 50.746094 61.820312 50.746094 C 60.417969 50.746094 59.277344 49.605469 59.277344 48.203125 Z M 65.207031 48.203125 C 65.207031 46.332031 63.6875 44.816406 61.820312 44.816406 C 59.953125 44.816406 58.433594 46.332031 58.433594 48.203125 C 58.433594 50.070312 59.953125 51.585938 61.820312 51.585938 C 63.6875 51.585938 65.207031 50.070312 65.207031 48.203125 " fill-opacity="1" fill-rule="nonzero"/></svg>