<svg width="34" height="25" viewBox="0 0 34 25" fill="none" xmlns="http://www.w3.org/2000/svg">
<g id="envelope ">
<path id="Vector" d="M30.5156 0.933594H3.17188C1.42188 0.933594 0 2.35547 0 4.10547V20.8945C0 22.6445 1.42188 24.0664 3.17188 24.0664H30.5156C32.2656 24.0664 33.6875 22.6445 33.6875 20.8945V4.10547C33.6875 2.35547 32.2656 0.933594 30.5156 0.933594ZM30.5156 2.84766C30.7891 2.84766 31.0078 2.90234 31.2266 3.06641L17.6094 11.3242C17.1172 11.5977 16.5703 11.5977 16.0781 11.3242L2.46094 3.06641C2.67969 2.95703 2.89844 2.84766 3.17188 2.84766H30.5156ZM30.5156 22.0977H3.17188C2.51562 22.0977 1.91406 21.5508 1.91406 20.8398V4.98047L15.0391 12.9648C15.5859 13.293 16.1875 13.457 16.7891 13.457C17.3906 13.457 17.9922 13.293 18.5391 12.9648L31.6641 4.98047V20.8398C31.7734 21.5508 31.1719 22.0977 30.5156 22.0977Z" fill="white"/>
</g>
</svg>
