<svg xmlns="http://www.w3.org/2000/svg" xmlns:xlink="http://www.w3.org/1999/xlink" width="140" zoomAndPan="magnify" viewBox="0 0 104.88 104.999996" height="140" preserveAspectRatio="xMidYMid meet" version="1.0"><defs><clipPath id="a86885b9ee"><path d="M 0 7.074219 L 104.761719 7.074219 L 104.761719 97.71875 L 0 97.71875 Z M 0 7.074219 " clip-rule="nonzero"/></clipPath><clipPath id="1139384b69"><path d="M 31.464844 40.78125 L 73.414062 40.78125 L 73.414062 64.003906 L 31.464844 64.003906 Z M 31.464844 40.78125 " clip-rule="nonzero"/></clipPath></defs><g clip-path="url(#a86885b9ee)"><path fill="#000040" d="M 26.21875 97.910156 L 0 52.496094 L 26.21875 7.082031 L 78.660156 7.082031 L 104.878906 52.496094 L 78.660156 97.910156 Z M 26.21875 97.910156 " fill-opacity="1" fill-rule="nonzero"/></g><path fill="#ffffff" d="M 50.949219 50.273438 L 52.101562 49.664062 L 51.113281 52.292969 L 49.964844 52.902344 Z M 54.019531 48.644531 L 55.171875 48.035156 L 54.183594 50.664062 L 53.03125 51.273438 Z M 57.089844 47.019531 L 58.238281 46.40625 L 57.25 49.035156 L 56.101562 49.644531 Z M 60.15625 45.390625 L 61.308594 44.777344 L 60.320312 47.40625 L 59.167969 48.019531 Z M 63.226562 43.761719 L 64.375 43.152344 L 63.390625 45.777344 L 62.238281 46.390625 Z M 49.648438 53.355469 L 65.25 45.078125 C 65.824219 44.773438 66.046875 44.058594 65.738281 43.480469 C 65.433594 42.902344 64.71875 42.683594 64.140625 42.992188 L 49.441406 50.789062 C 49.574219 51.019531 49.648438 51.285156 49.648438 51.566406 L 49.648438 53.355469 " fill-opacity="1" fill-rule="nonzero"/><g clip-path="url(#1139384b69)"><path fill="#ffffff" d="M 36.628906 54.222656 L 42.4375 54.222656 C 42.609375 54.222656 42.75 54.363281 42.75 54.53125 C 42.75 54.703125 42.609375 54.84375 42.4375 54.84375 L 36.628906 54.84375 C 36.457031 54.84375 36.320312 54.703125 36.320312 54.53125 C 36.320312 54.363281 36.457031 54.222656 36.628906 54.222656 Z M 45.460938 54.027344 L 48.84375 54.027344 C 49.050781 54.027344 49.214844 54.191406 49.214844 54.394531 C 49.214844 54.601562 49.050781 54.765625 48.84375 54.765625 L 45.460938 54.765625 C 45.253906 54.765625 45.089844 54.601562 45.089844 54.394531 C 45.089844 54.191406 45.253906 54.027344 45.460938 54.027344 Z M 47.152344 50.789062 C 47.902344 50.789062 48.511719 51.398438 48.511719 52.148438 C 48.511719 52.898438 47.902344 53.507812 47.152344 53.507812 C 46.402344 53.507812 45.792969 52.898438 45.792969 52.148438 C 45.792969 51.398438 46.402344 50.789062 47.152344 50.789062 Z M 58.058594 62.367188 L 58.058594 60.832031 L 70.007812 60.832031 L 70.007812 62.367188 C 70.007812 62.574219 70.078125 62.765625 70.195312 62.917969 L 57.875 62.917969 C 57.988281 62.765625 58.058594 62.574219 58.058594 62.367188 Z M 57.953125 57.929688 C 58.527344 57.929688 58.992188 58.394531 58.992188 58.964844 C 58.992188 59.539062 58.527344 60 57.953125 60 C 57.382812 60 56.917969 59.539062 56.917969 58.964844 C 56.917969 58.394531 57.382812 57.929688 57.953125 57.929688 Z M 68.125 58.964844 L 68.125 60.210938 L 59.800781 60.210938 L 59.800781 58.964844 Z M 59.878906 52.960938 C 60.066406 52.554688 60.414062 52.304688 60.792969 52.304688 L 67.984375 52.304688 C 68.320312 52.304688 68.628906 52.539062 68.78125 52.914062 L 69.796875 55.410156 L 58.75 55.410156 Z M 71.199219 58.964844 C 71.199219 59.539062 70.738281 60 70.164062 60 C 69.59375 60 69.128906 59.539062 69.128906 58.964844 C 69.128906 58.394531 69.59375 57.929688 70.164062 57.929688 C 70.738281 57.929688 71.199219 58.394531 71.199219 58.964844 Z M 72.125 62.917969 L 71.652344 62.917969 C 71.769531 62.765625 71.839844 62.574219 71.839844 62.367188 L 71.839844 60.832031 L 72.011719 60.832031 L 72.011719 56.519531 C 72.328125 56.398438 72.53125 56.226562 72.53125 56.03125 C 72.53125 55.6875 71.914062 55.40625 71.128906 55.375 L 69.0625 52.183594 C 68.757812 51.71875 68.238281 51.4375 67.683594 51.4375 L 60.941406 51.4375 C 60.355469 51.4375 59.800781 51.710938 59.445312 52.179688 L 57.015625 55.375 C 56.988281 55.375 56.960938 55.375 56.9375 55.375 C 56.085938 55.375 55.398438 55.667969 55.398438 56.03125 C 55.398438 56.246094 55.644531 56.4375 56.019531 56.554688 L 56.019531 60.832031 L 56.226562 60.832031 L 56.226562 62.367188 C 56.226562 62.574219 56.296875 62.765625 56.414062 62.917969 L 50.964844 62.917969 L 50.964844 62.171875 L 49.855469 61.0625 L 49.371094 61.0625 L 49.371094 51.566406 C 49.371094 50.863281 48.800781 50.296875 48.101562 50.296875 L 46.203125 50.296875 C 45.503906 50.296875 44.933594 50.863281 44.933594 51.566406 L 44.933594 60.714844 L 44.589844 60.714844 L 44.589844 51.457031 L 36.6875 51.457031 C 36.0625 51.457031 35.554688 50.949219 35.554688 50.328125 L 35.554688 45.957031 C 35.554688 45.332031 36.0625 44.828125 36.6875 44.828125 L 42.382812 44.828125 C 43.007812 44.828125 43.511719 45.332031 43.511719 45.957031 L 43.511719 49.746094 L 44.589844 49.746094 L 44.589844 43.9375 L 46.71875 43.9375 L 46.71875 40.785156 L 32.351562 40.785156 L 32.351562 43.9375 L 34.476562 43.9375 L 34.476562 60.714844 L 32.351562 60.714844 L 32.351562 62.984375 C 31.835938 63.152344 31.464844 63.636719 31.464844 64.207031 L 73.414062 64.207031 C 73.414062 63.496094 72.839844 62.917969 72.125 62.917969 " fill-opacity="1" fill-rule="nonzero"/></g></svg>