<svg width="48" height="48" viewBox="0 0 48 48" fill="none" xmlns="http://www.w3.org/2000/svg">
<rect width="48" height="48" rx="5" fill="white"/>
<rect width="48" height="48" rx="5" fill="#000040"/>
<g clip-path="url(#clip0_2057_882)">
<path d="M27.2027 25.0199L23.5577 24.4724L21.9302 21.1874C21.814 20.9535 21.6349 20.7566 21.413 20.619C21.191 20.4814 20.9351 20.4085 20.6739 20.4085C20.4128 20.4085 20.1568 20.4814 19.9348 20.619C19.7129 20.7566 19.5338 20.9535 19.4177 21.1874L17.7752 24.4874L14.1452 25.0199C13.8857 25.0556 13.6417 25.164 13.4413 25.3326C13.2409 25.5011 13.0923 25.723 13.0127 25.9724C12.931 26.2214 12.9208 26.4883 12.9831 26.7428C13.0454 26.9973 13.1778 27.2293 13.3652 27.4124L15.9977 29.9999L15.3827 33.6149C15.3339 33.8741 15.3592 34.1419 15.4557 34.3874C15.5521 34.6329 15.7159 34.8462 15.9281 35.0028C16.1404 35.1594 16.3925 35.253 16.6555 35.2729C16.9185 35.2927 17.1818 35.238 17.4152 35.1149L20.6627 33.4124L23.9327 35.1149C24.166 35.238 24.4293 35.2927 24.6923 35.2729C24.9553 35.253 25.2074 35.1594 25.4197 35.0028C25.6319 34.8462 25.7957 34.6329 25.8922 34.3874C25.9887 34.1419 26.014 33.8741 25.9652 33.6149L25.3577 29.9999L27.9827 27.4424C28.1701 27.2593 28.3024 27.0273 28.3647 26.7728C28.427 26.5183 28.4168 26.2514 28.3352 26.0024C28.2603 25.7474 28.1138 25.5192 27.913 25.345C27.7123 25.1709 27.4657 25.058 27.2027 25.0199ZM24.3077 28.8974C24.1294 29.0691 23.9964 29.2822 23.9205 29.5178C23.8446 29.7533 23.8282 30.004 23.8727 30.2474L24.4577 33.6674L21.3827 32.0549C21.166 31.938 20.9239 31.8761 20.6777 31.8749C20.4162 31.8685 20.1577 31.9306 19.9277 32.0549L16.8527 33.6674L17.4452 30.2474C17.4887 30.0034 17.4711 29.7523 17.3939 29.5167C17.3166 29.2811 17.1822 29.0683 17.0027 28.8974L14.5577 26.4749L18.0002 25.9724C18.2466 25.9402 18.4811 25.8472 18.6827 25.7019C18.8843 25.5566 19.0467 25.3635 19.1552 25.1399L20.6927 22.0274L22.1927 25.1399C22.3012 25.3635 22.4635 25.5566 22.6651 25.7019C22.8667 25.8472 23.1012 25.9402 23.3477 25.9724L26.7827 26.4749L24.3077 28.8974ZM34.2302 15.8699L31.8902 15.5324L30.8477 13.4174C30.7491 13.2182 30.5967 13.0505 30.4079 12.9333C30.219 12.816 30.0012 12.7539 29.7789 12.7539C29.5566 12.7539 29.3388 12.816 29.1499 12.9333C28.9611 13.0505 28.8088 13.2182 28.7102 13.4174L27.6677 15.5324L25.3277 15.8699C25.1081 15.9022 24.902 15.9952 24.7324 16.1383C24.5628 16.2814 24.4365 16.469 24.3677 16.6799C24.2969 16.8912 24.2875 17.1182 24.3406 17.3346C24.3937 17.551 24.5071 17.7479 24.6677 17.9024L26.3552 19.5524L25.9577 21.8849C25.9329 22.0541 25.9449 22.2266 25.9927 22.3908C26.0404 22.5549 26.123 22.7069 26.2347 22.8363C26.3463 22.9658 26.4845 23.0697 26.6399 23.1411C26.7953 23.2125 26.9642 23.2496 27.1352 23.2499C27.3282 23.2488 27.5182 23.2026 27.6902 23.1149L29.7752 22.0124L31.8677 23.1149C32.0649 23.2193 32.2875 23.2663 32.5101 23.2505C32.7328 23.2347 32.9465 23.1567 33.127 23.0254C33.3075 22.8941 33.4475 22.7148 33.5312 22.5079C33.6148 22.301 33.6387 22.0747 33.6002 21.8549L33.1952 19.5299L34.8902 17.8799C35.0507 17.7254 35.1641 17.5285 35.2172 17.3121C35.2703 17.0957 35.2609 16.8687 35.1902 16.6574C35.1172 16.4511 34.9891 16.2687 34.8199 16.1298C34.6507 15.991 34.4468 15.9012 34.2302 15.8699ZM32.0702 18.5624C31.9198 18.7043 31.8074 18.8816 31.7432 19.0781C31.679 19.2747 31.6651 19.4841 31.7027 19.6874L32.0102 21.5174L30.3752 20.6549C30.1918 20.5564 29.987 20.5049 29.7789 20.5049C29.5708 20.5049 29.366 20.5564 29.1827 20.6549L27.5402 21.5174L27.8552 19.6874C27.8914 19.4841 27.8768 19.275 27.8127 19.0788C27.7486 18.8825 27.6369 18.7051 27.4877 18.5624L26.1602 17.2499L27.9977 16.9874C28.202 16.9571 28.396 16.8778 28.5632 16.7564C28.7303 16.6349 28.8657 16.4749 28.9577 16.2899L29.7752 14.6399L30.6002 16.3049C30.6922 16.4899 30.8275 16.6499 30.9946 16.7714C31.1618 16.8928 31.3558 16.9721 31.5602 17.0024L33.3977 17.2499L32.0702 18.5624Z" fill="white"/>
</g>
<defs>
<clipPath id="clip0_2057_882">
<rect width="24" height="24" fill="white" transform="translate(12 12)"/>
</clipPath>
</defs>
</svg>
