<svg xmlns="http://www.w3.org/2000/svg" xmlns:xlink="http://www.w3.org/1999/xlink" width="140" zoomAndPan="magnify" viewBox="0 0 104.88 104.999996" height="140" preserveAspectRatio="xMidYMid meet" version="1.0"><defs><clipPath id="bedeca60a4"><path d="M 0 7.074219 L 104.761719 7.074219 L 104.761719 97.71875 L 0 97.71875 Z M 0 7.074219 " clip-rule="nonzero"/></clipPath></defs><g clip-path="url(#bedeca60a4)"><path fill="#000040" d="M 26.21875 97.910156 L 0 52.496094 L 26.21875 7.082031 L 78.660156 7.082031 L 104.878906 52.496094 L 78.660156 97.910156 Z M 26.21875 97.910156 " fill-opacity="1" fill-rule="nonzero"/></g><path fill="#ffffff" d="M 33.613281 71.320312 C 31.527344 69.234375 31.527344 65.851562 33.613281 63.765625 L 47.230469 50.148438 C 47.542969 49.835938 48.046875 49.835938 48.359375 50.148438 L 54.785156 56.574219 C 55.097656 56.886719 55.097656 57.394531 54.785156 57.707031 L 41.171875 71.320312 C 39.082031 73.410156 35.703125 73.410156 33.613281 71.320312 Z M 47.792969 51.847656 L 34.746094 64.894531 C 33.28125 66.359375 33.28125 68.726562 34.746094 70.191406 C 36.207031 71.652344 38.578125 71.652344 40.039062 70.191406 L 53.089844 57.140625 Z M 47.792969 51.847656 " fill-opacity="1" fill-rule="nonzero"/><path fill="#ffffff" d="M 50.976562 60.382812 L 44.550781 53.957031 C 44.238281 53.644531 44.238281 53.140625 44.550781 52.828125 C 44.863281 52.515625 45.371094 52.515625 45.683594 52.828125 L 52.109375 59.253906 C 52.421875 59.566406 52.421875 60.070312 52.109375 60.382812 C 51.796875 60.695312 51.289062 60.695312 50.976562 60.382812 Z M 50.976562 60.382812 " fill-opacity="1" fill-rule="nonzero"/><path fill="#ffffff" d="M 48.152344 63.210938 L 41.726562 56.785156 C 41.414062 56.472656 41.414062 55.964844 41.726562 55.652344 C 42.039062 55.339844 42.542969 55.339844 42.855469 55.652344 L 49.28125 62.078125 C 49.59375 62.390625 49.59375 62.898438 49.28125 63.210938 C 48.96875 63.523438 48.464844 63.523438 48.152344 63.210938 Z M 48.152344 63.210938 " fill-opacity="1" fill-rule="nonzero"/><path fill="#ffffff" d="M 52.226562 56.277344 L 48.65625 52.707031 C 48.34375 52.398438 48.34375 51.890625 48.65625 51.578125 L 62.050781 38.183594 L 62.707031 36.222656 C 62.757812 36.0625 62.863281 35.921875 63 35.824219 L 67.996094 32.253906 C 68.316406 32.027344 68.75 32.0625 69.027344 32.339844 L 72.597656 35.910156 C 72.875 36.183594 72.910156 36.621094 72.683594 36.9375 L 69.113281 41.9375 C 69.015625 42.074219 68.875 42.175781 68.714844 42.230469 L 66.75 42.886719 L 53.359375 56.277344 C 53.046875 56.589844 52.539062 56.589844 52.226562 56.277344 Z M 50.351562 52.144531 L 52.792969 54.582031 L 65.753906 41.621094 C 65.84375 41.53125 65.949219 41.46875 66.066406 41.429688 L 67.960938 40.796875 L 70.988281 36.5625 L 68.375 33.949219 L 64.140625 36.972656 L 63.507812 38.867188 C 63.46875 38.988281 63.402344 39.09375 63.316406 39.179688 Z M 50.351562 52.144531 " fill-opacity="1" fill-rule="nonzero"/><path fill="#ffffff" d="M 61.082031 70.867188 C 59.171875 68.957031 58.5625 66.070312 59.511719 63.5625 L 52.226562 56.277344 C 51.914062 55.96875 51.914062 55.460938 52.226562 55.148438 C 52.539062 54.835938 53.046875 54.835938 53.359375 55.148438 L 60.925781 62.714844 C 61.21875 63.011719 61.296875 63.460938 61.128906 63.839844 C 60.234375 65.824219 60.671875 68.195312 62.210938 69.738281 C 63.507812 71.035156 65.367188 71.546875 67.105469 71.15625 L 64.664062 68.71875 C 64.355469 68.40625 64.351562 67.898438 64.664062 67.585938 L 67.53125 64.71875 C 67.84375 64.40625 68.351562 64.40625 68.664062 64.71875 L 71.101562 67.160156 C 71.492188 65.421875 70.980469 63.5625 69.683594 62.265625 C 68.140625 60.722656 65.769531 60.289062 63.78125 61.183594 C 63.40625 61.351562 62.957031 61.273438 62.664062 60.984375 L 55.09375 53.414062 C 54.78125 53.101562 54.78125 52.59375 55.09375 52.28125 C 55.40625 51.96875 55.914062 51.96875 56.226562 52.28125 L 63.507812 59.566406 C 66.015625 58.617188 68.902344 59.226562 70.816406 61.136719 C 72.871094 63.195312 73.414062 66.339844 72.160156 68.96875 C 71.921875 69.464844 71.261719 69.582031 70.871094 69.191406 L 68.097656 66.417969 L 66.363281 68.152344 L 69.136719 70.925781 C 69.523438 71.316406 69.414062 71.976562 68.914062 72.214844 C 66.277344 73.472656 63.132812 72.917969 61.082031 70.867188 Z M 61.082031 70.867188 " fill-opacity="1" fill-rule="nonzero"/><path fill="#ffffff" d="M 48.65625 52.707031 L 41.371094 45.425781 C 38.867188 46.371094 35.976562 45.765625 34.066406 43.855469 C 32.007812 41.796875 31.46875 38.648438 32.722656 36.023438 C 32.960938 35.523438 33.621094 35.410156 34.011719 35.800781 L 36.78125 38.574219 L 38.519531 36.835938 L 35.746094 34.0625 C 35.355469 33.675781 35.46875 33.015625 35.96875 32.777344 C 38.59375 31.523438 41.742188 32.0625 43.800781 34.121094 C 45.710938 36.03125 46.316406 38.921875 45.371094 41.425781 L 52.65625 48.710938 C 52.964844 49.023438 52.964844 49.53125 52.65625 49.84375 C 52.34375 50.15625 51.835938 50.15625 51.523438 49.84375 L 43.957031 42.273438 C 43.664062 41.976562 43.582031 41.527344 43.753906 41.152344 C 44.648438 39.167969 44.210938 36.796875 42.667969 35.253906 C 41.375 33.957031 39.515625 33.445312 37.777344 33.832031 L 40.214844 36.273438 C 40.527344 36.585938 40.527344 37.089844 40.214844 37.402344 L 37.347656 40.269531 C 37.199219 40.421875 36.996094 40.503906 36.78125 40.503906 C 36.570312 40.503906 36.367188 40.421875 36.21875 40.269531 L 33.777344 37.832031 C 33.390625 39.570312 33.902344 41.425781 35.199219 42.722656 C 36.742188 44.265625 39.113281 44.703125 41.097656 43.808594 C 41.472656 43.636719 41.925781 43.71875 42.21875 44.007812 L 49.789062 51.578125 C 50.101562 51.890625 50.101562 52.398438 49.789062 52.707031 C 49.476562 53.019531 48.96875 53.019531 48.65625 52.707031 Z M 48.65625 52.707031 " fill-opacity="1" fill-rule="nonzero"/></svg>